<svg width="13" height="12" viewBox="0 0 13 12" fill="none" xmlns="http://www.w3.org/2000/svg">
<path d="M10.961 1.2H10.352V0.6C10.352 0.24 10.1085 0 9.74309 0C9.37772 0 9.13415 0.24 9.13415 0.6V1.2H3.04472V0.6C3.04472 0.24 2.80114 0 2.43577 0C2.07041 0 1.82683 0.24 1.82683 0.6V1.2H0.608943C0.304472 1.2 0 1.44 0 1.8V10.2C0 10.56 0.304472 10.8 0.608943 10.8H4.3235C3.89724 10.08 3.65366 9.24 3.65366 8.4C3.65366 5.76 5.84585 3.6 8.5252 3.6C9.6822 3.6 10.7174 4.02 11.5699 4.68V1.8C11.5699 1.5 11.2654 1.2 10.961 1.2Z" fill="#FFBD00"/>
<path d="M8.52524 4.80005C6.51573 4.80005 4.87158 6.42005 4.87158 8.40005C4.87158 10.38 6.51573 12 8.52524 12C10.5348 12 12.1789 10.38 12.1789 8.40005C12.1789 6.42005 10.5348 4.80005 8.52524 4.80005ZM9.74313 9.00005H8.52524C8.15987 9.00005 7.9163 8.76005 7.9163 8.40005V6.60005C7.9163 6.24005 8.15987 6.00005 8.52524 6.00005C8.89061 6.00005 9.13418 6.24005 9.13418 6.60005V7.80005H9.74313C10.1085 7.80005 10.3521 8.04005 10.3521 8.40005C10.3521 8.76005 10.1085 9.00005 9.74313 9.00005Z" fill="#FFBD00"/>
</svg>
