<svg width="14" height="11" viewBox="0 0 14 11" fill="none" xmlns="http://www.w3.org/2000/svg">
<path d="M6.61885 0C2.96332 0 0 2.96332 0 6.61885C0 8.21175 0.563004 9.67322 1.50052 10.8153C1.64516 9.65716 2.80189 8.67766 4.4239 8.21379C5.01648 8.76591 5.78191 9.10091 6.61881 9.10091C7.43603 9.10091 8.18647 8.78278 8.77301 8.25381C10.409 8.75822 11.5409 9.79496 11.5781 11C12.61 9.83269 13.2377 8.29949 13.2377 6.61885C13.2377 2.96332 10.2743 0 6.61885 0ZM6.61885 8.31708C6.19632 8.31708 5.79818 8.201 5.44466 7.99993C4.59271 7.51515 4.00613 6.52312 4.00613 5.37777C4.00613 3.75704 5.17815 2.43842 6.61885 2.43842C8.05967 2.43842 9.23157 3.75704 9.23157 5.37777C9.23157 6.54071 8.62663 7.54498 7.75348 8.02135C7.40952 8.2089 7.0257 8.31708 6.61885 8.31708Z" fill="#B9C5D6"/>
</svg>
