<svg width="15" height="12" viewBox="0 0 15 12" fill="none" xmlns="http://www.w3.org/2000/svg">
<path d="M1.0104 2.02075C0.841706 2.02075 0.682534 2.06392 0.542036 2.1385L5.78321 6.81786C6.15648 7.15118 6.70835 7.15234 7.08227 6.82059L12.3181 2.17531C12.1633 2.0784 11.9818 2.02076 11.7873 2.02076L1.0104 2.02075ZM0.0842622 2.63183C0.0305126 2.75463 0 2.8895 0 3.03105V10.4401C0 10.5814 0.0300998 10.7161 0.0835171 10.8387L4.27535 6.37504L0.0842622 2.63183ZM12.7396 2.70088L8.55494 6.41451L12.6877 10.8925C12.7573 10.7559 12.7976 10.6025 12.7976 10.44V3.03092C12.7976 2.91524 12.7763 2.8046 12.7397 2.70073L12.7396 2.70088ZM4.77801 6.82307L0.543201 11.3333C0.683444 11.4075 0.84204 11.4504 1.01023 11.4504H11.787C11.9345 11.4504 12.0745 11.417 12.2014 11.3589L8.05083 6.86119L7.52921 7.32426C6.9043 7.87869 5.95726 7.87655 5.33422 7.32029L4.77801 6.82307Z" fill="#B9C5D6"/>
<path d="M3.03107 2.11773e-05C2.47721 2.11773e-05 2.02075 0.456462 2.02075 1.01034V1.36426H2.69426V1.01034C2.69426 0.817923 2.83863 0.673547 3.03105 0.673547H13.8079C14.0003 0.673547 14.1446 0.817925 14.1446 1.01034V8.41941C14.1446 8.61183 14.0003 8.7562 13.8079 8.7562H13.4711V9.42971H13.8079C14.3617 9.42971 14.8182 8.97326 14.8182 8.41938V1.01032C14.8182 0.456462 14.3617 0 13.8079 0L3.03107 2.11773e-05Z" fill="#B9C5D6"/>
</svg>
