<svg width="27" height="27" viewBox="0 0 27 27" fill="none" xmlns="http://www.w3.org/2000/svg">
<path d="M23.8456 4.83108C21.4045 5.74145 17.39 5.18413 17.1479 4.60408C16.8717 3.94215 19.0561 1.37626 21.4972 0.466021C23.9383 -0.444354 25.3393 0.102162 25.9877 1.3075C26.6363 2.51284 26.2864 3.92066 23.8456 4.83104V4.83108Z" fill="#146596"/>
<path d="M2.47045 4.71841C4.90975 5.63263 8.90217 5.12441 9.13762 4.55902C9.40658 3.91336 7.20712 1.38011 4.76782 0.465845C2.32852 -0.448564 0.938851 0.073586 0.304402 1.2478C-0.330234 2.42219 0.0312335 3.80398 2.47035 4.71839L2.47045 4.71841Z" fill="#146596"/>
<path d="M13.6391 5.28742H12.6265C11.9043 5.28742 11.3132 4.69636 11.3132 3.97416C11.3132 3.25195 11.9043 2.66089 12.6265 2.66089H13.6391C14.3613 2.66089 14.9524 3.25195 14.9524 3.97416C14.9524 4.69636 14.3613 5.28742 13.6391 5.28742Z" fill="#146596"/>
<path d="M9.21163 13.4382V7.43512H0V13.4382H9.21163Z" fill="#146596"/>
<path d="M11.3127 7.43512H14.9519V26.3082H11.3127V7.43512Z" fill="#146596"/>
<path d="M17.0537 15.5394H24.7551V26.3082H17.0537V15.5394Z" fill="#146596"/>
<path d="M1.51025 15.5394H9.21163V26.3082H1.51025V15.5394Z" fill="#146596"/>
<path d="M17.0537 13.4382H26.2653V7.43512H17.0537V13.4382Z" fill="#146596"/>
</svg>
