<svg width="31" height="31" viewBox="0 0 31 31" fill="none" xmlns="http://www.w3.org/2000/svg">
<path d="M25.3499 6.33754C26.75 6.33754 27.8849 5.20259 27.8849 3.80256C27.8849 2.40253 26.75 1.26758 25.3499 1.26758C23.9499 1.26758 22.8149 2.40253 22.8149 3.80256C22.8149 5.20259 23.9499 6.33754 25.3499 6.33754Z" fill="#146596"/>
<path d="M5.07014 6.33754C6.47017 6.33754 7.60512 5.20259 7.60512 3.80256C7.60512 2.40253 6.47017 1.26758 5.07014 1.26758C3.67011 1.26758 2.53516 2.40253 2.53516 3.80256C2.53516 5.20259 3.67011 6.33754 5.07014 6.33754Z" fill="#146596"/>
<path d="M15.2099 7.60494C17.31 7.60494 19.0124 5.90252 19.0124 3.80247C19.0124 1.70242 17.31 0 15.2099 0C13.1099 0 11.4075 1.70242 11.4075 3.80247C11.4075 5.90252 13.1099 7.60494 15.2099 7.60494Z" fill="#146596"/>
<path d="M0.950617 12.6749H3.16872V24.7161C3.16872 26.8125 4.87477 28.5186 6.97119 28.5186H12.0412V29.4692C12.0412 29.9939 12.467 30.4198 12.9918 30.4198H17.428C17.9527 30.4198 18.3786 29.9939 18.3786 29.4692V28.5186H23.4486C25.545 28.5186 27.251 26.8125 27.251 24.7161V12.6749H29.4691C29.9888 12.6749 30.4198 12.244 30.4198 11.7243V11.0906C30.4198 9.16399 28.8607 7.60498 26.9342 7.60498H23.7654C22.9416 7.60498 22.1937 7.88383 21.598 8.3528C23.1951 9.24004 24.3485 10.8117 24.64 12.6749H24.7161V24.7161C24.7161 25.4145 24.1469 25.9836 23.4486 25.9836H18.3786V25.033C18.3786 24.5082 17.9527 24.0823 17.428 24.0823H16.4774V16.4774H21.2305C21.7552 16.4774 22.1811 16.0515 22.1811 15.5268V13.6256C22.1811 11.7028 20.6183 10.14 18.6955 10.14H11.7243C9.8015 10.14 8.23868 11.7028 8.23868 13.6256V15.5268C8.23868 16.0515 8.66456 16.4774 9.1893 16.4774H13.9424V24.0823H12.9918C12.467 24.0823 12.0412 24.5082 12.0412 25.033V25.9836H6.97119C6.27281 25.9836 5.7037 25.4145 5.7037 24.7161V12.6749H5.77975C6.07128 10.8117 7.22469 9.24004 8.82173 8.3528C8.22601 7.88383 7.47819 7.60498 6.65432 7.60498H3.4856C1.55901 7.60498 0 9.16399 0 11.0906V11.7243C0 12.244 0.430947 12.6749 0.950617 12.6749Z" fill="#146596"/>
</svg>
