<svg width="37" height="26" viewBox="0 0 37 26" fill="none" xmlns="http://www.w3.org/2000/svg">
<path d="M8.62665 8.55556C10.9892 8.55556 12.9044 6.64033 12.9044 4.27778C12.9044 1.91523 10.9892 0 8.62665 0C6.2641 0 4.34888 1.91523 4.34888 4.27778C4.34888 6.64033 6.2641 8.55556 8.62665 8.55556Z" fill="#146596"/>
<path d="M27.8767 8.55556C30.2392 8.55556 32.1544 6.64033 32.1544 4.27778C32.1544 1.91523 30.2392 0 27.8767 0C25.5141 0 23.5989 1.91523 23.5989 4.27778C23.5989 6.64033 25.5141 8.55556 27.8767 8.55556Z" fill="#146596"/>
<path d="M10.7657 21.8653C8.19579 20.138 6.48796 17.2257 6.48796 13.9028H8.62685C8.62685 18.0302 11.9855 21.3889 16.113 21.3889H17.1824V17.1111H16.113C14.3438 17.1111 12.9046 15.6719 12.9046 13.9028C12.9046 10.9544 10.5057 8.55554 7.55741 8.55554H6.98925C4.34594 8.55554 2.07023 10.5295 1.69635 13.1467L0 25.6667H10.7657V21.8653Z" fill="#146596"/>
<path d="M29.5144 8.55554H28.9463C25.998 8.55554 23.5991 10.9544 23.5991 13.9028C23.5991 15.6719 22.1599 17.1111 20.3907 17.1111H19.3213V21.3889H20.3907C24.5181 21.3889 27.8768 18.0302 27.8768 13.9021H30.0157C30.0157 17.2324 28.3147 20.1696 25.738 21.8984V25.6667H36.5037L34.8073 13.1467C34.4335 10.5295 32.1578 8.55554 29.5144 8.55554Z" fill="#146596"/>
</svg>
