<svg width="10" height="11" viewBox="0 0 10 11" fill="none" xmlns="http://www.w3.org/2000/svg">
<path d="M7.0831 2.91516H2.91662C2.91662 2.91516 -0.000244141 5.4146 -0.000244141 8.33146C-0.000244141 9.9974 1.2541 10.8309 2.083 10.8309H7.91652C8.7489 10.8309 9.99976 9.99732 9.99976 8.33146C9.99976 5.4146 7.08289 2.91516 7.08289 2.91516H7.0831ZM5.41604 8.70551V9.37261H4.58366L4.58358 8.70775C3.97009 8.59369 3.58472 8.21518 3.55737 7.66554H4.27919C4.3145 7.95403 4.6053 8.13992 5.02607 8.13992C5.41374 8.13992 5.68854 7.95181 5.68854 7.68385C5.68854 7.45581 5.51069 7.32576 5.07284 7.22778L4.60873 7.12859C3.95873 6.9929 3.63945 6.65422 3.63945 6.11033C3.63945 5.56644 4.00208 5.17414 4.57906 5.04529V4.37359H5.41144V5.04633C5.97473 5.17177 6.34992 5.55601 6.36813 6.07254L5.67144 6.07262C5.63612 5.79097 5.37381 5.60286 5.0135 5.60286C4.6532 5.60286 4.39317 5.77618 4.39317 6.04757C4.39317 6.26766 4.56307 6.38967 4.98153 6.48314L5.41144 6.57437C6.12865 6.72486 6.43764 7.03044 6.43764 7.58809C6.43772 8.18439 6.05459 8.58353 5.41604 8.70554L5.41604 8.70551Z" fill="#B9C5D6"/>
<path d="M7.08312 0.414469H5.93146C5.69355 0.150638 5.35503 0 4.99981 0C4.6446 0 4.30608 0.150647 4.06817 0.414469H2.91651C2.77875 0.415026 2.65022 0.483588 2.5729 0.597569C2.49559 0.711549 2.47953 0.856391 2.52995 0.98461L2.9165 2.08041H7.08298L7.46954 0.98461C7.51997 0.856393 7.5039 0.711555 7.42659 0.597569C7.34927 0.483582 7.22075 0.415027 7.08298 0.414469H7.08312Z" fill="#B9C5D6"/>
</svg>
