<svg width="32" height="32" viewBox="0 0 32 32" fill="none" xmlns="http://www.w3.org/2000/svg">
<circle r="15.7205" transform="matrix(-1 0 0 1 15.7205 15.7205)" fill="#FFBD00" fill-opacity="0.03"/>
<circle r="15.2205" transform="matrix(-1 0 0 1 15.7205 15.7205)" stroke="#FFBD00" stroke-opacity="0.2" stroke-dasharray="2 2"/>
<mask id="path-3-inside-1_25_87" fill="white">
<path d="M23.2322 10.7558C22.1367 8.85835 20.4413 7.37908 18.4129 6.55084C16.3845 5.72261 14.1382 5.59244 12.0277 6.18082C9.9172 6.76921 8.06228 8.04273 6.75494 9.80094C5.4476 11.5591 4.76207 13.7022 4.80626 15.8927C4.85046 18.0833 5.62186 20.1969 6.99905 21.901C8.37624 23.605 10.281 24.8027 12.4135 25.3055C14.546 25.8083 16.7852 25.5876 18.7786 24.6783C20.7719 23.7689 22.4063 22.2224 23.4244 20.2823L22.7876 19.9482C21.8437 21.747 20.3283 23.1809 18.4801 24.024C16.6319 24.8672 14.5558 25.0718 12.5785 24.6056C10.6013 24.1394 8.83524 23.0289 7.55833 21.449C6.28143 19.869 5.5662 17.9093 5.52522 15.8782C5.48425 13.8472 6.11986 11.8602 7.332 10.23C8.54415 8.59984 10.264 7.41905 12.2208 6.87351C14.1776 6.32797 16.2603 6.44866 18.141 7.21659C20.0217 7.98452 21.5937 9.35607 22.6094 11.1154L23.2322 10.7558Z"/>
</mask>
<path d="M23.2322 10.7558C22.1367 8.85835 20.4413 7.37908 18.4129 6.55084C16.3845 5.72261 14.1382 5.59244 12.0277 6.18082C9.9172 6.76921 8.06228 8.04273 6.75494 9.80094C5.4476 11.5591 4.76207 13.7022 4.80626 15.8927C4.85046 18.0833 5.62186 20.1969 6.99905 21.901C8.37624 23.605 10.281 24.8027 12.4135 25.3055C14.546 25.8083 16.7852 25.5876 18.7786 24.6783C20.7719 23.7689 22.4063 22.2224 23.4244 20.2823L22.7876 19.9482C21.8437 21.747 20.3283 23.1809 18.4801 24.024C16.6319 24.8672 14.5558 25.0718 12.5785 24.6056C10.6013 24.1394 8.83524 23.0289 7.55833 21.449C6.28143 19.869 5.5662 17.9093 5.52522 15.8782C5.48425 13.8472 6.11986 11.8602 7.332 10.23C8.54415 8.59984 10.264 7.41905 12.2208 6.87351C14.1776 6.32797 16.2603 6.44866 18.141 7.21659C20.0217 7.98452 21.5937 9.35607 22.6094 11.1154L23.2322 10.7558Z" stroke="#FFBD00" stroke-width="2" mask="url(#path-3-inside-1_25_87)"/>
<path d="M14.6237 16.0861L19.6237 13.1993L19.6237 18.9728L14.6237 16.0861ZM30.7098 16.5861L19.1237 16.5861L19.1237 15.5861L30.7098 15.5861L30.7098 16.5861Z" fill="#FFBD00"/>
</svg>
