<svg width="65" height="57" viewBox="0 0 65 57" fill="none" xmlns="http://www.w3.org/2000/svg">
<rect x="37.718" y="0.352912" width="39.8741" height="39.8741" transform="rotate(48.4523 37.718 0.352912)" stroke="black" stroke-opacity="0.14" stroke-width="0.5"/>
<rect x="37.164" y="7.12244" width="30.7701" height="30.7701" transform="rotate(48.4523 37.164 7.12244)" fill="#FFC216"/>
<rect x="14.4385" y="12.2682" width="19.2923" height="19.2923" transform="rotate(48.4523 14.4385 12.2682)" fill="#ECBC36"/>
<path d="M41.8988 33.2062L38.4991 34.697C38.38 34.7492 38.326 34.888 38.378 35.0071C38.4168 35.0954 38.5029 35.148 38.5938 35.148C38.6253 35.148 38.6573 35.1417 38.6883 35.1282L42.088 33.6375C42.207 33.5852 42.2611 33.4464 42.209 33.3273C42.1567 33.2083 42.0182 33.1541 41.8987 33.2062L41.8988 33.2062Z" fill="white"/>
<path d="M31.9907 22.8698C32.0185 22.8698 32.047 22.8648 32.0747 22.8543L35.7358 21.4552C35.8572 21.4089 35.918 21.2727 35.8716 21.1513C35.8253 21.03 35.6895 20.9693 35.5677 21.0155L31.9065 22.4146C31.7852 22.4609 31.7244 22.5971 31.7707 22.7185C31.8064 22.8122 31.8958 22.8698 31.9907 22.8698L31.9907 22.8698Z" fill="white"/>
<path d="M41.1683 28.5576C41.1687 28.5576 41.1691 28.5577 41.1696 28.5577C41.299 28.5577 41.4042 28.4531 41.4049 28.3236L41.431 23.7994C41.4318 23.6694 41.3269 23.5633 41.1971 23.5627H41.1958C41.0664 23.5627 40.9612 23.6674 40.9605 23.7967L40.9343 28.3209C40.9334 28.451 41.0384 28.5571 41.1683 28.5576V28.5576Z" fill="white"/>
<path d="M33.6652 35.7173C32.4493 35.2808 31.867 33.7519 31.9344 31.1735C31.9364 31.0946 31.9381 31.0313 31.9381 30.9864V27.0246C31.9381 26.8946 31.8328 26.7893 31.7028 26.7893C31.5728 26.7893 31.4675 26.8947 31.4675 27.0246V30.9867C31.4675 31.0287 31.4658 31.0879 31.4639 31.1615C31.3905 33.9656 32.0776 35.6477 33.5063 36.1607C33.5327 36.17 33.5595 36.1746 33.5857 36.1746C33.6822 36.1746 33.7728 36.1149 33.8072 36.0187C33.8511 35.8964 33.7874 35.7616 33.6652 35.7175L33.6652 35.7173Z" fill="white"/>
<path d="M42.9892 30.0749C42.9324 29.9605 42.7948 29.9124 42.679 29.966L40.6429 30.9127C40.3512 30.2175 40.3518 29.3198 40.352 28.9183V23.857C40.352 23.0763 40.2085 22.5373 40.205 22.5254C40.0268 21.7212 39.239 21.0914 38.4117 21.0914C38.1934 21.0914 37.9797 21.13 37.7753 21.207L30.9349 23.8831C30.2888 24.0554 29.826 24.6395 29.826 25.3298C29.826 25.5979 29.8977 25.861 30.0334 26.0908C30.0769 26.1645 30.1551 26.2065 30.2361 26.2065C30.267 26.2065 30.2983 26.2004 30.328 26.1878L32.2771 25.3595C32.3584 25.5793 32.4085 25.8462 32.4085 26.1714L32.4089 31.1014C32.4025 31.22 32.2668 34.018 33.5527 35.0674C33.8503 35.298 34.207 35.4199 34.5845 35.4199C34.7178 35.4199 34.8509 35.4043 34.9797 35.3733C34.9875 35.3713 34.9952 35.3691 35.003 35.3664C35.2569 35.2772 41.1843 33.1818 42.5455 31.9206C43.3225 31.3323 43.1835 30.4669 42.989 30.0749L42.9892 30.0749ZM32.0376 24.95L30.3531 25.6658C30.316 25.5584 30.297 25.4448 30.297 25.3297C30.297 24.8718 30.5941 24.4823 31.0143 24.3501C31.146 24.3664 31.6149 24.45 31.9734 24.8482C31.9976 24.8839 32.0197 24.9185 32.0376 24.95L32.0376 24.95ZM42.294 31.5208C42.2906 31.523 42.2867 31.5235 42.2835 31.5257C42.2714 31.5334 42.2597 31.5421 42.2488 31.5522C42.2462 31.5545 42.2364 31.5634 42.2216 31.5751C42.2054 31.5864 42.1904 31.5981 42.1732 31.6093C42.0253 31.7046 41.8734 31.7529 41.7227 31.7529C41.3764 31.7529 41.0736 31.5065 40.8917 31.3164L42.6419 30.5026C42.7005 30.7563 42.7123 31.182 42.294 31.5208L42.294 31.5208Z" fill="white"/>
</svg>
