<svg width="35" height="35" viewBox="0 0 35 35" fill="none" xmlns="http://www.w3.org/2000/svg">
<g filter="url(#filter0_d_23_80)">
<circle cx="17.3737" cy="14.0577" r="14.0577" fill="#09B787"/>
<circle cx="17.3737" cy="14.0577" r="13.2544" stroke="white" stroke-width="1.60659"/>
</g>
<path d="M22.0015 10.6829C21.8701 9.07079 20.4882 8.50841 18.7346 8.32762L18.7631 6.09246L17.4068 6.07518L17.3791 8.24524C17.0211 8.24068 16.6543 8.23601 16.2941 8.23142L16.3219 6.05267L14.9613 6.03534L14.9328 8.2705C14.6398 8.26677 14.349 8.26306 14.0647 8.25944L12.1898 8.23555L12.1626 9.68938C12.1626 9.68938 13.1676 9.68482 13.15 9.70196C13.7012 9.70899 13.8772 10.0324 13.9236 10.3087L13.8911 12.8563C13.9396 12.8542 13.9881 12.8548 14.0365 12.8582L13.8868 12.8563L13.8303 16.4389C13.8171 16.5637 13.7555 16.6784 13.6587 16.7583C13.562 16.8383 13.4377 16.8771 13.3126 16.8664C13.3298 16.8818 12.3231 16.8538 12.3231 16.8538L12.0289 18.4779L13.7997 18.5004L14.7719 18.5128L14.7431 20.774L16.1037 20.7913L16.1322 18.5562C16.5054 18.5609 16.8655 18.5785 17.217 18.583L17.1887 20.8095L18.5493 20.8268L18.5781 18.57C20.8666 18.495 22.4754 17.9425 22.6981 15.7988C22.8851 14.0648 22.079 13.2862 20.781 12.9528C21.576 12.5614 22.0798 11.8624 21.982 10.6805L22.0015 10.6829ZM20.0238 15.4869C20.0022 17.1774 17.1099 16.9408 16.1877 16.9269L16.2258 13.9322C17.1481 13.944 20.044 13.7269 20.0173 15.4868L20.0238 15.4869ZM19.4548 11.2538C19.4352 12.7902 17.0223 12.5728 16.2541 12.5631L16.2887 9.84613C17.0634 9.85818 19.4796 9.65022 19.4548 11.2538Z" fill="white"/>
<defs>
<filter id="filter0_d_23_80" x="0.102859" y="0" width="34.5417" height="34.5417" filterUnits="userSpaceOnUse" color-interpolation-filters="sRGB">
<feFlood flood-opacity="0" result="BackgroundImageFix"/>
<feColorMatrix in="SourceAlpha" type="matrix" values="0 0 0 0 0 0 0 0 0 0 0 0 0 0 0 0 0 0 127 0" result="hardAlpha"/>
<feOffset dy="3.21318"/>
<feGaussianBlur stdDeviation="1.60659"/>
<feComposite in2="hardAlpha" operator="out"/>
<feColorMatrix type="matrix" values="0 0 0 0 0 0 0 0 0 0 0 0 0 0 0 0 0 0 0.17 0"/>
<feBlend mode="normal" in2="BackgroundImageFix" result="effect1_dropShadow_23_80"/>
<feBlend mode="normal" in="SourceGraphic" in2="effect1_dropShadow_23_80" result="shape"/>
</filter>
</defs>
</svg>
