<svg width="35" height="35" viewBox="0 0 35 35" fill="none" xmlns="http://www.w3.org/2000/svg">
<g filter="url(#filter0_d_23_83)">
<circle cx="17.3737" cy="14.0577" r="14.0577" fill="black"/>
<circle cx="17.3737" cy="14.0577" r="13.2544" stroke="white" stroke-width="1.60659"/>
</g>
<mask id="path-3-inside-1_23_83" fill="white">
<path d="M20.5871 9.94501L10.0001 8L15.5716 21.9998L23.3333 12.5542L20.5871 9.94501ZM20.4183 10.8024L22.0385 12.3398L17.6088 13.141L20.4183 10.8024ZM16.6465 12.9811L11.9775 9.11394L19.6073 10.516L16.6465 12.9811ZM16.3122 13.6663L15.5522 19.9512L11.448 9.63402L16.3122 13.6663ZM17.0159 13.9984L21.9206 13.1111L16.2964 19.9564L17.0159 13.9984Z"/>
</mask>
<path d="M20.5871 9.94501L10.0001 8L15.5716 21.9998L23.3333 12.5542L20.5871 9.94501ZM20.4183 10.8024L22.0385 12.3398L17.6088 13.141L20.4183 10.8024ZM16.6465 12.9811L11.9775 9.11394L19.6073 10.516L16.6465 12.9811ZM16.3122 13.6663L15.5522 19.9512L11.448 9.63402L16.3122 13.6663ZM17.0159 13.9984L21.9206 13.1111L16.2964 19.9564L17.0159 13.9984Z" fill="#EB0029"/>
<path d="M20.5871 9.94501L22.7489 7.66978L22.0722 7.02689L21.1542 6.85824L20.5871 9.94501ZM10.0001 8L10.5672 4.91324L4.9858 3.88784L7.08413 9.16047L10.0001 8ZM15.5716 21.9998L12.6556 23.1603L14.6213 28.0997L17.9964 23.9923L15.5716 21.9998ZM23.3333 12.5542L25.7581 14.5467L27.6121 12.2904L25.495 10.2789L23.3333 12.5542ZM20.4183 10.8024L22.5785 8.52577L20.5547 6.60547L18.4104 8.3903L20.4183 10.8024ZM22.0385 12.3398L22.5971 15.4281L28.6912 14.3259L24.1987 10.0632L22.0385 12.3398ZM17.6088 13.141L15.601 10.7289L6.44601 18.3493L18.1674 16.2293L17.6088 13.141ZM16.6465 12.9811L14.6445 15.3981L16.6517 17.0606L18.6546 15.393L16.6465 12.9811ZM11.9775 9.11394L12.5447 6.02721L0.703471 3.85118L9.97556 11.531L11.9775 9.11394ZM19.6073 10.516L21.6154 12.9279L26.765 8.64041L20.1745 7.4293L19.6073 10.516ZM16.3122 13.6663L19.428 14.0431L19.6335 12.3431L18.3152 11.2502L16.3122 13.6663ZM15.5522 19.9512L12.6361 21.1112L18.668 20.3279L15.5522 19.9512ZM11.448 9.63402L13.4509 7.21784L8.53182 10.7941L11.448 9.63402ZM17.0159 13.9984L16.4572 10.9101L14.1779 11.3225L13.9001 13.6221L17.0159 13.9984ZM21.9206 13.1111L24.3455 15.1035L29.7696 8.50185L21.3619 10.0228L21.9206 13.1111ZM16.2964 19.9564L13.1806 19.5802L11.8905 30.2626L18.7213 21.9488L16.2964 19.9564ZM21.1542 6.85824L10.5672 4.91324L9.43303 11.0868L20.0201 13.0318L21.1542 6.85824ZM7.08413 9.16047L12.6556 23.1603L18.4876 20.8394L12.9161 6.83953L7.08413 9.16047ZM17.9964 23.9923L25.7581 14.5467L20.9085 10.5617L13.1468 20.0073L17.9964 23.9923ZM25.495 10.2789L22.7489 7.66978L18.4254 12.2202L21.1716 14.8294L25.495 10.2789ZM18.258 13.0791L19.8783 14.6165L24.1987 10.0632L22.5785 8.52577L18.258 13.0791ZM21.4799 9.25149L17.0502 10.0527L18.1674 16.2293L22.5971 15.4281L21.4799 9.25149ZM19.6166 15.5531L22.4261 13.2146L18.4104 8.3903L15.601 10.7289L19.6166 15.5531ZM18.6484 10.5641L13.9794 6.69693L9.97556 11.531L14.6445 15.3981L18.6484 10.5641ZM11.4103 12.2007L19.04 13.6028L20.1745 7.4293L12.5447 6.02721L11.4103 12.2007ZM17.5992 8.10414L14.6384 10.5692L18.6546 15.393L21.6154 12.9279L17.5992 8.10414ZM13.1965 13.2896L12.4365 19.5744L18.668 20.3279L19.428 14.0431L13.1965 13.2896ZM18.4684 18.7911L14.3641 8.47394L8.53182 10.7941L12.6361 21.1112L18.4684 18.7911ZM9.44502 12.0502L14.3093 16.0825L18.3152 11.2502L13.4509 7.21784L9.44502 12.0502ZM17.5746 17.0867L22.4793 16.1994L21.3619 10.0228L16.4572 10.9101L17.5746 17.0867ZM19.4957 11.1188L13.8715 17.9641L18.7213 21.9488L24.3455 15.1035L19.4957 11.1188ZM19.4122 20.3327L20.1317 14.3747L13.9001 13.6221L13.1806 19.5802L19.4122 20.3327Z" fill="#FF0000" mask="url(#path-3-inside-1_23_83)"/>
<defs>
<filter id="filter0_d_23_83" x="0.102859" y="0" width="34.5417" height="34.5417" filterUnits="userSpaceOnUse" color-interpolation-filters="sRGB">
<feFlood flood-opacity="0" result="BackgroundImageFix"/>
<feColorMatrix in="SourceAlpha" type="matrix" values="0 0 0 0 0 0 0 0 0 0 0 0 0 0 0 0 0 0 127 0" result="hardAlpha"/>
<feOffset dy="3.21318"/>
<feGaussianBlur stdDeviation="1.60659"/>
<feComposite in2="hardAlpha" operator="out"/>
<feColorMatrix type="matrix" values="0 0 0 0 0 0 0 0 0 0 0 0 0 0 0 0 0 0 0.17 0"/>
<feBlend mode="normal" in2="BackgroundImageFix" result="effect1_dropShadow_23_83"/>
<feBlend mode="normal" in="SourceGraphic" in2="effect1_dropShadow_23_83" result="shape"/>
</filter>
</defs>
</svg>
