<svg width="37" height="36" viewBox="0 0 37 36" fill="none" xmlns="http://www.w3.org/2000/svg">
<g filter="url(#filter0_d_23_73)">
<path d="M32.9179 14.4589C32.9179 22.4443 26.4445 28.9178 18.459 28.9178C10.4736 28.9178 4.00012 22.4443 4.00012 14.4589C4.00012 6.47347 10.4736 0 18.459 0C26.4445 0 32.9179 6.47347 32.9179 14.4589Z" fill="#FFBD00"/>
</g>
<path fill-rule="evenodd" clip-rule="evenodd" d="M18.459 27.0995C25.4403 27.0995 31.0997 21.4401 31.0997 14.4589C31.0997 7.47767 25.4403 1.81826 18.459 1.81826C11.4778 1.81826 5.81838 7.47767 5.81838 14.4589C5.81838 21.4401 11.4778 27.0995 18.459 27.0995ZM18.459 28.9178C26.4445 28.9178 32.9179 22.4443 32.9179 14.4589C32.9179 6.47347 26.4445 0 18.459 0C10.4736 0 4.00012 6.47347 4.00012 14.4589C4.00012 22.4443 10.4736 28.9178 18.459 28.9178Z" fill="white"/>
<path d="M22.9609 11.9935C22.809 10.3832 21.42 9.83849 19.6643 9.68006V7.44472H18.3079V9.61495C17.9498 9.61495 17.5831 9.61495 17.2228 9.61495V7.43604H15.8621V9.67138C15.5691 9.67138 15.2783 9.67138 14.994 9.67138H13.1189L13.1102 11.1254C13.1102 11.1254 14.115 11.1081 14.0977 11.1254C14.6489 11.1254 14.829 11.4466 14.8789 11.7223V14.2701C14.9274 14.2674 14.9759 14.2674 15.0244 14.2701H14.8746L14.8638 17.8532C14.8522 17.9782 14.792 18.0936 14.6963 18.1748C14.6005 18.2559 14.4768 18.2963 14.3516 18.2872C14.3689 18.3024 13.362 18.2872 13.362 18.2872L13.0885 19.9149H14.8594H15.8317V22.1763H17.1924V19.9409C17.5657 19.9409 17.926 19.954 18.2775 19.954V22.1806H19.6383V19.9236C21.9257 19.8194 23.5273 19.2465 23.7227 17.1001C23.8876 15.3639 23.0716 14.5956 21.7695 14.2788C22.5594 13.8773 23.0542 13.172 22.9414 11.9914L22.9609 11.9935ZM21.0446 16.8223C21.0446 18.5129 18.1495 18.3133 17.2271 18.3111V15.3162C18.1495 15.3162 21.0424 15.0622 21.0381 16.8223H21.0446ZM20.4217 12.5969C20.4217 14.1334 18.0063 13.9467 17.238 13.9467V11.2296C18.0128 11.2318 20.4261 10.9931 20.4217 12.5969Z" fill="white"/>
<defs>
<filter id="filter0_d_23_73" x="0.790122" y="0" width="35.3378" height="35.3378" filterUnits="userSpaceOnUse" color-interpolation-filters="sRGB">
<feFlood flood-opacity="0" result="BackgroundImageFix"/>
<feColorMatrix in="SourceAlpha" type="matrix" values="0 0 0 0 0 0 0 0 0 0 0 0 0 0 0 0 0 0 127 0" result="hardAlpha"/>
<feOffset dy="3.21"/>
<feGaussianBlur stdDeviation="1.605"/>
<feComposite in2="hardAlpha" operator="out"/>
<feColorMatrix type="matrix" values="0 0 0 0 0 0 0 0 0 0 0 0 0 0 0 0 0 0 0.17 0"/>
<feBlend mode="normal" in2="BackgroundImageFix" result="effect1_dropShadow_23_73"/>
<feBlend mode="normal" in="SourceGraphic" in2="effect1_dropShadow_23_73" result="shape"/>
</filter>
</defs>
</svg>
