<svg width="36" height="36" viewBox="0 0 36 36" fill="none" xmlns="http://www.w3.org/2000/svg">
<g filter="url(#filter0_d_23_74)">
<circle cx="17.9585" cy="14.4589" r="14.4589" fill="#41C083"/>
<circle cx="17.9585" cy="14.4589" r="13.5498" stroke="white" stroke-width="1.81826"/>
</g>
<path d="M18.8681 13.3384V11.9744H21.9861V9.89697H13.5072V11.9744H16.6157V13.3365C14.0779 13.4525 12.1755 13.9547 12.1755 14.5559C12.1755 15.157 14.0779 15.6593 16.6157 15.7753V20.1508H18.87V15.7753C21.3983 15.6593 23.3006 15.157 23.3006 14.5559C23.3006 13.9547 21.3983 13.4544 18.8681 13.3384ZM18.8681 15.4063C18.8034 15.4063 18.4762 15.4291 17.7495 15.4291C17.1674 15.4291 16.7584 15.412 16.6081 15.4043C14.369 15.3073 12.6987 14.9173 12.6987 14.4532C12.6987 13.989 14.369 13.5971 16.6081 13.502V15.0239C16.7546 15.0239 17.1788 15.0581 17.7495 15.0581C18.4439 15.0581 18.7939 15.0296 18.8586 15.0239V13.502C21.092 13.6009 22.7604 13.9909 22.7604 14.4532C22.7604 14.9154 21.1034 15.3054 18.87 15.4139L18.8681 15.4063Z" fill="white"/>
<defs>
<filter id="filter0_d_23_74" x="0.289634" y="0" width="35.3378" height="35.3378" filterUnits="userSpaceOnUse" color-interpolation-filters="sRGB">
<feFlood flood-opacity="0" result="BackgroundImageFix"/>
<feColorMatrix in="SourceAlpha" type="matrix" values="0 0 0 0 0 0 0 0 0 0 0 0 0 0 0 0 0 0 127 0" result="hardAlpha"/>
<feOffset dy="3.21"/>
<feGaussianBlur stdDeviation="1.605"/>
<feComposite in2="hardAlpha" operator="out"/>
<feColorMatrix type="matrix" values="0 0 0 0 0 0 0 0 0 0 0 0 0 0 0 0 0 0 0.17 0"/>
<feBlend mode="normal" in2="BackgroundImageFix" result="effect1_dropShadow_23_74"/>
<feBlend mode="normal" in="SourceGraphic" in2="effect1_dropShadow_23_74" result="shape"/>
</filter>
</defs>
</svg>
