<svg width="36" height="36" viewBox="0 0 36 36" fill="none" xmlns="http://www.w3.org/2000/svg">
<g filter="url(#filter0_d_23_77)">
<circle cx="17.7272" cy="14.4589" r="14.4589" fill="#19D637"/>
<circle cx="17.7272" cy="14.4589" r="13.5498" stroke="white" stroke-width="1.81826"/>
</g>
<path d="M17.8666 6.93372L17.7538 7.24808V16.3081L17.8505 16.3967L22.05 13.9141L17.8666 6.93372Z" fill="white"/>
<path d="M17.8665 6.93372L13.6589 13.9141L17.8665 16.3967V6.93372Z" fill="white"/>
<path d="M17.8664 17.1947L17.81 17.2592V20.4833L17.8664 20.6365L22.074 14.712L17.8664 17.1947Z" fill="white"/>
<path d="M17.8665 20.6365V17.1947L13.6589 14.712L17.8665 20.6365Z" fill="white"/>
<path d="M17.8665 16.3968L22.0661 13.9142L17.8665 12.0038V16.3968Z" fill="white"/>
<path d="M13.6589 13.9142L17.8665 16.3968V12.0038L13.6589 13.9142Z" fill="white"/>
<defs>
<filter id="filter0_d_23_77" x="0.0583105" y="0" width="35.3378" height="35.3378" filterUnits="userSpaceOnUse" color-interpolation-filters="sRGB">
<feFlood flood-opacity="0" result="BackgroundImageFix"/>
<feColorMatrix in="SourceAlpha" type="matrix" values="0 0 0 0 0 0 0 0 0 0 0 0 0 0 0 0 0 0 127 0" result="hardAlpha"/>
<feOffset dy="3.21"/>
<feGaussianBlur stdDeviation="1.605"/>
<feComposite in2="hardAlpha" operator="out"/>
<feColorMatrix type="matrix" values="0 0 0 0 0 0 0 0 0 0 0 0 0 0 0 0 0 0 0.17 0"/>
<feBlend mode="normal" in2="BackgroundImageFix" result="effect1_dropShadow_23_77"/>
<feBlend mode="normal" in="SourceGraphic" in2="effect1_dropShadow_23_77" result="shape"/>
</filter>
</defs>
</svg>
