<svg width="35" height="35" viewBox="0 0 35 35" fill="none" xmlns="http://www.w3.org/2000/svg">
<g filter="url(#filter0_d_23_84)">
<circle cx="17.3737" cy="14.0577" r="14.0577" fill="#1439FB"/>
<circle cx="17.3737" cy="14.0577" r="13.2544" stroke="white" stroke-width="1.60659"/>
</g>
<path d="M17.6911 21.3845C16.6975 20.8086 16.1092 19.7686 16.1092 18.6719C16.1092 18.096 16.3436 17.5156 16.637 16.9978C16.8714 16.5353 16.9863 15.7281 16.1683 15.3237C15.5845 14.9791 14.8208 15.2089 14.4715 15.7863C14.1221 16.2488 13.7123 16.7113 13.1845 17.056C12.1909 17.6319 11.0189 17.6319 10.0252 17.056C9.03161 16.4801 8.44482 15.4375 8.44482 14.3405C8.44482 13.2435 9.02859 12.2039 10.025 11.6264C11.0186 11.0505 12.1906 11.0505 13.1843 11.6264C13.7121 11.9159 14.1218 12.3754 14.4123 12.8962C14.6467 13.3005 15.2909 13.8212 16.1091 13.3587C16.6928 13.0141 16.8682 12.2605 16.5778 11.6846C16.2845 11.1639 16.1091 10.5865 16.1091 10.0105C16.1091 8.91237 16.6928 7.87395 17.6909 7.29797C18.6845 6.72206 19.8565 6.72206 20.8502 7.29797C21.8438 7.87387 22.4322 8.91386 22.4322 10.0105C22.4322 11.1072 21.8469 12.1471 20.8503 12.7246C20.3225 13.0141 19.7372 13.129 19.0945 13.129C18.5667 13.129 17.8665 13.4736 17.8665 14.3405C17.8665 15.0343 18.3943 15.5521 19.0945 15.5521C19.6783 15.5521 20.3225 15.667 20.8503 15.9564C21.8439 16.5323 22.4322 17.5723 22.4322 18.6689C22.4322 19.7655 21.8469 20.8055 20.8503 21.3815C20.3816 21.671 19.7977 21.7858 19.2701 21.7858C18.7453 21.7888 18.157 21.671 17.6913 21.3845" fill="white"/>
<defs>
<filter id="filter0_d_23_84" x="0.102859" y="0" width="34.5417" height="34.5417" filterUnits="userSpaceOnUse" color-interpolation-filters="sRGB">
<feFlood flood-opacity="0" result="BackgroundImageFix"/>
<feColorMatrix in="SourceAlpha" type="matrix" values="0 0 0 0 0 0 0 0 0 0 0 0 0 0 0 0 0 0 127 0" result="hardAlpha"/>
<feOffset dy="3.21318"/>
<feGaussianBlur stdDeviation="1.60659"/>
<feComposite in2="hardAlpha" operator="out"/>
<feColorMatrix type="matrix" values="0 0 0 0 0 0 0 0 0 0 0 0 0 0 0 0 0 0 0.17 0"/>
<feBlend mode="normal" in2="BackgroundImageFix" result="effect1_dropShadow_23_84"/>
<feBlend mode="normal" in="SourceGraphic" in2="effect1_dropShadow_23_84" result="shape"/>
</filter>
</defs>
</svg>
