<svg width="35" height="35" viewBox="0 0 35 35" fill="none" xmlns="http://www.w3.org/2000/svg">
<g filter="url(#filter0_d_23_81)">
<circle cx="17.3737" cy="14.0577" r="14.0577" fill="#1FADEA"/>
<circle cx="17.3737" cy="14.0577" r="13.2544" stroke="white" stroke-width="1.60659"/>
</g>
<path d="M25.2495 10.5199C25.2328 10.2413 25.1511 9.97053 25.0108 9.72927C24.8865 9.48066 24.6652 9.28674 24.4067 9.18729C24.143 9.05589 23.8509 8.99183 23.5564 9.00083H12.523L11.7324 11.3701H21.7291L20.1504 16.2131H10.1562L9.36557 18.5824H20.4512C20.7816 18.5728 21.1082 18.5099 21.4183 18.3959C21.7291 18.2194 22.0846 18.0404 22.3855 17.7918C22.6791 17.5603 22.9445 17.2949 23.176 17.0012C23.3674 16.7135 23.5306 16.4079 23.6633 16.0888L25.1277 11.4845C25.2609 11.1815 25.3032 10.8464 25.2495 10.5199V10.5199Z" fill="white"/>
<path d="M15.6729 12.6927H9.79071L9.00012 14.883H14.942L15.6729 12.6927Z" fill="white"/>
<defs>
<filter id="filter0_d_23_81" x="0.102859" y="0" width="34.5417" height="34.5417" filterUnits="userSpaceOnUse" color-interpolation-filters="sRGB">
<feFlood flood-opacity="0" result="BackgroundImageFix"/>
<feColorMatrix in="SourceAlpha" type="matrix" values="0 0 0 0 0 0 0 0 0 0 0 0 0 0 0 0 0 0 127 0" result="hardAlpha"/>
<feOffset dy="3.21318"/>
<feGaussianBlur stdDeviation="1.60659"/>
<feComposite in2="hardAlpha" operator="out"/>
<feColorMatrix type="matrix" values="0 0 0 0 0 0 0 0 0 0 0 0 0 0 0 0 0 0 0.17 0"/>
<feBlend mode="normal" in2="BackgroundImageFix" result="effect1_dropShadow_23_81"/>
<feBlend mode="normal" in="SourceGraphic" in2="effect1_dropShadow_23_81" result="shape"/>
</filter>
</defs>
</svg>
