<svg width="35" height="35" viewBox="0 0 35 35" fill="none" xmlns="http://www.w3.org/2000/svg">
<g filter="url(#filter0_d_23_82)">
<circle cx="17.3737" cy="14.0577" r="14.0577" fill="#EDF119"/>
<circle cx="17.3737" cy="14.0577" r="13.2544" stroke="white" stroke-width="1.60659"/>
</g>
<g clip-path="url(#clip0_23_82)">
<path d="M14.2221 13.173L17.5376 9.85884L20.8544 13.1757L22.7824 11.2462L17.5376 6L12.2927 11.2449L14.2221 13.173Z" fill="white"/>
<path d="M9.00011 14.5361L10.9282 12.6067L12.8576 14.5361L10.9282 16.4642L9.00011 14.5361Z" fill="white"/>
<path d="M14.2221 15.8979L17.5376 19.2134L20.8544 15.8965L22.7838 17.8233L17.5389 23.0695L12.2927 17.8273L14.2221 15.8979Z" fill="white"/>
<path d="M22.2135 14.5361L24.1415 12.6067L26.0709 14.5348L24.1415 16.4655L22.2135 14.5361Z" fill="white"/>
<path d="M19.4939 14.5348L17.5375 12.577L16.0908 14.0238L15.9236 14.1896L15.5812 14.5321L17.5375 16.4871L19.4939 14.5361V14.5348Z" fill="white"/>
</g>
<defs>
<filter id="filter0_d_23_82" x="0.102859" y="0" width="34.5417" height="34.5417" filterUnits="userSpaceOnUse" color-interpolation-filters="sRGB">
<feFlood flood-opacity="0" result="BackgroundImageFix"/>
<feColorMatrix in="SourceAlpha" type="matrix" values="0 0 0 0 0 0 0 0 0 0 0 0 0 0 0 0 0 0 127 0" result="hardAlpha"/>
<feOffset dy="3.21318"/>
<feGaussianBlur stdDeviation="1.60659"/>
<feComposite in2="hardAlpha" operator="out"/>
<feColorMatrix type="matrix" values="0 0 0 0 0 0 0 0 0 0 0 0 0 0 0 0 0 0 0.17 0"/>
<feBlend mode="normal" in2="BackgroundImageFix" result="effect1_dropShadow_23_82"/>
<feBlend mode="normal" in="SourceGraphic" in2="effect1_dropShadow_23_82" result="shape"/>
</filter>
<clipPath id="clip0_23_82">
<rect width="17.0708" height="17.0708" fill="white" transform="translate(9.00012 6)"/>
</clipPath>
</defs>
</svg>
