<svg width="36" height="36" viewBox="0 0 36 36" fill="none" xmlns="http://www.w3.org/2000/svg">
<g filter="url(#filter0_d_23_76)">
<circle cx="17.7272" cy="14.4589" r="14.4589" fill="#F30C2B"/>
<circle cx="17.7272" cy="14.4589" r="13.5498" stroke="white" stroke-width="1.81826"/>
</g>
<g filter="url(#filter1_d_23_76)">
<path d="M25.5208 18.9223H25.0901C24.9321 18.9155 24.7807 18.8566 24.6595 18.7548C24.5656 18.6651 24.5027 18.5478 24.4801 18.4199C24.4801 18.2524 24.4801 18.0491 24.4801 17.8338C24.4801 17.1878 24.4801 16.506 24.4083 15.8122C24.3365 15.1184 24.4083 13.7548 24.4083 13.7548V12.415C24.3991 12.1703 24.4192 11.9253 24.4681 11.6854C24.4985 11.5266 24.5883 11.3853 24.7193 11.2906C24.9193 11.1983 25.1338 11.1416 25.3533 11.1231H25.6284C25.6454 11.0963 25.6545 11.0652 25.6545 11.0334C25.6545 11.0017 25.6454 10.9705 25.6284 10.9437C25.621 10.9153 25.6076 10.8888 25.589 10.8661C25.5704 10.8434 25.5471 10.825 25.5208 10.8121C25.2935 10.8121 25.0782 10.8121 24.8748 10.8121H23.894C23.7265 10.8121 23.5471 10.8121 23.3078 10.8121C23.2675 11.1797 23.1707 11.5388 23.0207 11.8767L22.2911 13.4079L21.0231 15.9438L20.5207 16.9845C20.3603 17.3293 20.1806 17.6647 19.9824 17.9893V17.9893C19.8149 17.6783 19.6714 17.3912 19.5159 17.0802L19.0613 16.1113L17.4824 13.0012C17.279 12.5705 17.0876 12.1399 16.9441 11.805C16.8319 11.486 16.7752 11.1502 16.7766 10.8121C16.5613 10.8121 16.358 10.8121 16.1666 10.8121H15.2096H14.6833C14.6588 10.8275 14.6384 10.8486 14.6238 10.8736C14.6092 10.8986 14.6009 10.9268 14.5996 10.9557C14.5849 10.9811 14.5771 11.01 14.5771 11.0394C14.5771 11.0688 14.5849 11.0977 14.5996 11.1231H14.8029C14.9934 11.1633 15.1811 11.2152 15.3651 11.2786C15.4267 11.3169 15.4798 11.3674 15.521 11.4271C15.5621 11.4868 15.5905 11.5544 15.6044 11.6255C15.6376 11.8315 15.6376 12.0416 15.6044 12.2476C15.6044 12.6064 15.6044 13.037 15.6044 13.5275C15.6044 14.0179 15.6044 14.5442 15.5206 15.0706C15.4369 15.5969 15.5206 15.8481 15.4489 16.1591C15.3771 16.4701 15.4489 16.7692 15.3771 17.0323C15.3053 17.2955 15.3771 17.5826 15.3771 17.8577C15.3609 18.0777 15.3166 18.2948 15.2455 18.5036C15.2282 18.5642 15.1978 18.6202 15.1564 18.6678C15.1151 18.7153 15.0638 18.7532 15.0063 18.7788C14.8742 18.8414 14.7328 18.8818 14.5876 18.8984H14.3125C14.3125 18.8984 14.2407 18.9821 14.3125 19.0658C14.3132 19.0953 14.3199 19.1243 14.3322 19.151C14.3446 19.1778 14.3623 19.2017 14.3842 19.2213H15.0422H16.358L17.0876 19.2812C17.1165 19.2569 17.1376 19.2247 17.1483 19.1885C17.1589 19.1523 17.1586 19.1138 17.1474 19.0778C17.1612 19.0499 17.1683 19.0192 17.1683 18.9881C17.1683 18.957 17.1612 18.9263 17.1474 18.8984H16.6331C16.4965 18.897 16.3633 18.8554 16.2503 18.7788C16.1481 18.6818 16.088 18.5487 16.0828 18.4079C16.0417 18.1544 16.0417 17.8959 16.0828 17.6424C16.0828 17.0682 16.0828 16.506 16.0828 15.9438C16.0828 15.3816 16.0828 14.8792 16.0828 14.4605C16.0828 14.0418 16.1426 13.671 16.1546 13.2643C16.1666 12.8576 16.1546 12.4629 16.2144 12.0681L16.6331 13.1686L17.0637 14.1256L18.2599 16.6974C18.3676 16.9127 18.4872 17.1759 18.6307 17.4988C18.7743 17.8218 18.9537 18.1687 19.0972 18.4917C19.2245 18.771 19.3324 19.0588 19.4202 19.3529H19.48C19.5108 19.3649 19.5449 19.3649 19.5757 19.3529C19.5757 19.3529 19.5757 19.3529 19.5757 19.3529C19.6714 19.1376 19.7791 18.8744 19.9346 18.5515C20.0901 18.2285 20.2456 17.8577 20.425 17.4869C20.6044 17.116 20.8197 16.7093 21.0351 16.2907L22.2312 13.9701C22.315 13.7787 22.4107 13.5634 22.5303 13.3241L22.8892 12.6423C22.9848 12.427 23.0925 13.2404 23.0925 13.2404H23.1284V17.7859C23.2459 17.9881 23.2883 18.2254 23.248 18.4558C23.2467 18.5202 23.2297 18.5833 23.1984 18.6396C23.1671 18.6958 23.1226 18.7436 23.0686 18.7788C22.9968 18.8625 22.8533 18.8984 22.614 18.9223H22.2193C22.2193 18.9223 22.2193 19.006 22.2193 19.1017C22.222 19.1609 22.2478 19.2167 22.2911 19.2572C22.5662 19.2572 22.8533 19.2572 23.1164 19.1855H24.6715C24.9346 19.1855 25.2098 19.2453 25.4729 19.2572C25.4988 19.2412 25.5194 19.2179 25.5321 19.1902C25.5449 19.1626 25.5493 19.1318 25.5447 19.1017C25.5558 19.0722 25.5595 19.0403 25.5553 19.009C25.5511 18.9777 25.5393 18.9479 25.5208 18.9223V18.9223Z" fill="white"/>
<path d="M12.8413 10.9198C12.4972 10.7265 12.1263 10.5854 11.7408 10.5012C11.2662 10.4246 10.786 10.3885 10.3053 10.3935C9.76705 10.3935 9.28857 10.3935 8.85795 10.3935C8.42732 10.3935 8.04454 10.3935 7.66176 10.4653C7.63277 10.4847 7.60964 10.5117 7.59489 10.5433C7.58013 10.575 7.5743 10.61 7.57802 10.6447C7.57413 10.6824 7.58414 10.7202 7.60617 10.7511C7.62819 10.7819 7.66072 10.8036 7.69764 10.8122H8.1522C8.30991 10.8097 8.46308 10.865 8.58282 10.9677C8.65122 11.0232 8.70458 11.095 8.73802 11.1765C8.77146 11.258 8.78391 11.3466 8.77421 11.4342C8.79033 11.7171 8.79033 12.0006 8.77421 12.2835V14.963C9.17258 14.9869 9.57203 14.9869 9.9704 14.963V11.2189C9.93815 11.1055 9.93815 10.9854 9.9704 10.872C9.98889 10.8383 10.0145 10.809 10.0455 10.7863C10.0765 10.7636 10.1121 10.7479 10.1498 10.7404H10.6881C10.9915 10.7192 11.296 10.7591 11.5837 10.8577C11.8713 10.9564 12.1362 11.1117 12.3628 11.3146C12.7434 11.75 12.9406 12.3159 12.913 12.8936C12.9438 13.4338 12.7828 13.9676 12.4585 14.4008C12.1535 14.7743 11.7325 15.0353 11.2623 15.1424C10.5014 15.2836 9.72662 15.3358 8.95364 15.2979C8.14023 15.274 7.29094 15.2261 6.38184 15.1424C7.08868 15.3059 7.80331 15.4336 8.52301 15.5252C9.36046 15.6393 10.2095 15.6393 11.047 15.5252C11.4264 15.4664 11.799 15.3703 12.1594 15.2381C12.5049 15.0802 12.8335 14.8879 13.1403 14.6639C13.3657 14.4848 13.5459 14.2554 13.6666 13.994C13.8072 13.6692 13.8804 13.3193 13.8819 12.9653C13.8812 12.5452 13.7698 12.1326 13.559 11.7691C13.3968 11.429 13.1496 11.1364 12.8413 10.9198V10.9198Z" fill="white"/>
<path d="M10.9512 18.8505C10.7219 18.8586 10.4947 18.8049 10.2933 18.695C10.2149 18.6395 10.1489 18.5683 10.0995 18.4859C10.0501 18.4035 10.0183 18.3118 10.0062 18.2165C9.97156 17.8665 9.97156 17.5139 10.0062 17.1639V15.884C9.60833 15.9215 9.20783 15.9215 8.80999 15.884V17.2117C8.81505 17.5636 8.79506 17.9154 8.75018 18.2644C8.75489 18.3547 8.73515 18.4445 8.69305 18.5246C8.65094 18.6046 8.58803 18.6717 8.51094 18.7189C8.33855 18.8466 8.12702 18.91 7.91285 18.8984H7.6138C7.58549 18.9175 7.56429 18.9455 7.55348 18.9779C7.54267 19.0104 7.54285 19.0455 7.55399 19.0778C7.55118 19.1107 7.55751 19.1438 7.57228 19.1733C7.58706 19.2029 7.6097 19.2278 7.63772 19.2453L8.49898 19.1855H10.2454L11.322 19.2453C11.322 19.2453 11.322 19.1496 11.4057 19.0778C11.4179 19.0495 11.4242 19.0189 11.4242 18.9881C11.4242 18.9572 11.4179 18.9267 11.4057 18.8984L10.9512 18.8505Z" fill="white"/>
</g>
<defs>
<filter id="filter0_d_23_76" x="0.0583105" y="0" width="35.3378" height="35.3378" filterUnits="userSpaceOnUse" color-interpolation-filters="sRGB">
<feFlood flood-opacity="0" result="BackgroundImageFix"/>
<feColorMatrix in="SourceAlpha" type="matrix" values="0 0 0 0 0 0 0 0 0 0 0 0 0 0 0 0 0 0 127 0" result="hardAlpha"/>
<feOffset dy="3.21"/>
<feGaussianBlur stdDeviation="1.605"/>
<feComposite in2="hardAlpha" operator="out"/>
<feColorMatrix type="matrix" values="0 0 0 0 0 0 0 0 0 0 0 0 0 0 0 0 0 0 0.17 0"/>
<feBlend mode="normal" in2="BackgroundImageFix" result="effect1_dropShadow_23_76"/>
<feBlend mode="normal" in="SourceGraphic" in2="effect1_dropShadow_23_76" result="shape"/>
</filter>
<filter id="filter1_d_23_76" x="2.74532" y="10.3931" width="26.5457" height="16.2419" filterUnits="userSpaceOnUse" color-interpolation-filters="sRGB">
<feFlood flood-opacity="0" result="BackgroundImageFix"/>
<feColorMatrix in="SourceAlpha" type="matrix" values="0 0 0 0 0 0 0 0 0 0 0 0 0 0 0 0 0 0 127 0" result="hardAlpha"/>
<feOffset dy="3.63652"/>
<feGaussianBlur stdDeviation="1.81826"/>
<feColorMatrix type="matrix" values="0 0 0 0 0 0 0 0 0 0 0 0 0 0 0 0 0 0 0.25 0"/>
<feBlend mode="normal" in2="BackgroundImageFix" result="effect1_dropShadow_23_76"/>
<feBlend mode="normal" in="SourceGraphic" in2="effect1_dropShadow_23_76" result="shape"/>
</filter>
</defs>
</svg>
