<svg width="17" height="17" viewBox="0 0 17 17" fill="none" xmlns="http://www.w3.org/2000/svg">
<path d="M8.20551 14.7114H2.32097V1.33739H12.0842V6.98807H12.151H12.1845C12.218 6.82093 12.2848 6.65367 12.4186 6.55337L12.4855 6.48642C12.6527 6.35264 12.8533 6.28581 13.0539 6.28581C13.1877 6.28581 13.3213 6.31929 13.4551 6.31929L13.455 1.00306C13.455 0.434698 12.987 0 12.452 0H1.98658C1.41822 0 0.983521 0.434698 0.983521 1.00306V15.0459C0.983521 15.6143 1.41822 16.049 1.98658 16.049H9.67662C9.10826 15.7146 8.60673 15.2465 8.20551 14.7115V14.7114Z" fill="#FFBD00"/>
<path d="M4.15973 2.70816H10.5793V3.34347H4.15973V2.70816Z" fill="#FFBD00"/>
<path d="M5.3634 4.71426H11.3818V5.34957H5.3634V4.71426Z" fill="#FFBD00"/>
<path d="M11.3818 7.05485V6.72046H5.3634V7.35577H10.3119C10.6463 7.18852 11.0141 7.08821 11.3818 7.05485H11.3818Z" fill="#FFBD00"/>
<path d="M8.40612 8.72653H5.3634V9.36184H7.97136C8.10514 9.12776 8.23892 8.89367 8.40606 8.72653H8.40612Z" fill="#FFBD00"/>
<path d="M7.40306 10.7326H5.36346V11.3679H7.30275C7.30275 11.1339 7.33623 10.9332 7.40306 10.7326Z" fill="#FFBD00"/>
<path d="M7.33626 12.7388H5.33014V13.3741H7.47004C7.43657 13.14 7.36962 12.9394 7.33626 12.7388Z" fill="#FFBD00"/>
<path d="M3.3573 4.71426H4.66128V5.34957H3.3573V4.71426Z" fill="#FFBD00"/>
<path d="M3.3573 6.7204H4.66128V7.35571H3.3573V6.7204Z" fill="#FFBD00"/>
<path d="M3.3573 8.72653H4.66128V9.36184H3.3573V8.72653Z" fill="#FFBD00"/>
<path d="M3.3573 12.7388H4.66128V13.3741H3.3573V12.7388Z" fill="#FFBD00"/>
<path d="M4.96216 10.3314C4.86185 10.2311 4.69471 10.2311 4.59441 10.3314L3.75849 11.1673L3.45757 10.8664C3.35726 10.7661 3.19012 10.7661 3.08982 10.8664C2.98951 10.9667 2.98951 11.1339 3.08982 11.2342L3.55787 11.7022C3.59135 11.7357 3.65818 11.7691 3.72501 11.7691C3.79185 11.7691 3.85879 11.7356 3.89215 11.7022L4.92869 10.6657C5.06247 10.5989 5.06247 10.4317 4.96216 10.3314Z" fill="#FFBD00"/>
<path d="M16.1632 11.6689H12.4854L12.4853 7.82375C12.4853 7.72345 12.4185 7.65662 12.3182 7.65662H12.1176C11.0477 7.65662 10.0112 8.05784 9.24224 8.79346C8.37296 9.59591 7.90479 10.6993 7.90479 11.8694C7.90479 14.1765 9.77713 16.0823 12.1176 16.0823C14.4247 16.0823 16.3305 14.2099 16.3305 11.8694C16.3305 11.7356 16.2637 11.6688 16.1634 11.6688L16.1632 11.6689Z" fill="#FFBD00"/>
<path d="M13.0202 6.95452C12.9867 6.95452 12.9199 6.98799 12.8864 6.98799C12.8529 7.02147 12.8196 7.05483 12.8196 7.12177V11.134C12.8196 11.2343 12.8864 11.3012 12.9867 11.3012H16.8319C16.9322 11.3012 16.999 11.2343 16.999 11.134C17.0325 8.8937 15.2605 7.05471 13.0203 6.95441L13.0202 6.95452Z" fill="#FFBD00"/>
</svg>
