<svg width="18" height="19" viewBox="0 0 18 19" fill="none" xmlns="http://www.w3.org/2000/svg">
<path d="M0.500113 9.50887C0.503668 9.74738 0.596239 9.97443 0.757779 10.1406C0.919176 10.3067 1.13619 10.3981 1.36113 10.3948L8.95449 10.3966L8.95449 12.3407C8.95434 13.1548 9.893 13.5509 10.421 12.9595L12.9593 10.1189C13.2693 9.77176 13.2693 9.22844 12.9593 8.88145L10.421 6.04084C9.893 5.44946 8.95434 5.84557 8.95449 6.65965L8.95449 8.59683L1.36113 8.59502L1.36113 8.59487C1.13161 8.59156 0.91049 8.68678 0.748241 8.859C0.585992 9.03122 0.496545 9.26566 0.500102 9.50885L0.500113 9.50887ZM5.60822 17.6C5.60822 17.8387 5.69766 18.0676 5.85707 18.2365C6.01633 18.4052 6.23235 18.5 6.45758 18.5L16.6505 18.5C16.8757 18.5 17.0919 18.4052 17.2512 18.2365C17.4104 18.0676 17.4999 17.8387 17.5 17.6L17.5 1.39995C17.4999 1.16129 17.4104 0.932424 17.2512 0.763519C17.0919 0.594768 16.8758 0.499999 16.6505 0.499999L6.45758 0.5C6.23233 0.5 6.01633 0.594768 5.85707 0.763519C5.69766 0.932421 5.60822 1.16127 5.60822 1.39995L5.60822 5.44998C5.60495 5.6909 5.69311 5.9231 5.85266 6.0947C6.01235 6.26616 6.2302 6.36274 6.45757 6.36274C6.68495 6.36274 6.90293 6.26616 7.06249 6.0947C7.22218 5.92309 7.3102 5.69089 7.30707 5.44998L7.30707 2.29991L15.8011 2.29991L15.8011 16.6999L7.30707 16.6999L7.30707 13.5498L7.30707 13.5499C7.3102 13.309 7.22218 13.0768 7.06249 12.9052C6.90294 12.7338 6.68495 12.6372 6.45758 12.6372C6.2302 12.6372 6.01236 12.7338 5.85266 12.9052C5.69311 13.0768 5.60495 13.309 5.60822 13.5499L5.60822 17.6Z" fill="#0C507A"/>
</svg>
