<svg width="18" height="17" viewBox="0 0 18 17" fill="none" xmlns="http://www.w3.org/2000/svg">
<path d="M8.99113 0.000112981C8.75262 0.00366802 8.52557 0.0962396 8.35936 0.257779C8.19332 0.419177 8.10187 0.636191 8.10518 0.861127L8.10338 8.45449H6.15929C5.34523 8.45434 4.9491 9.393 5.54048 9.92099L8.38109 12.4593C8.72824 12.7693 9.27156 12.7693 9.61855 12.4593L12.4592 9.92099C13.0505 9.393 12.6544 8.45434 11.8404 8.45449H9.90317L9.90498 0.861127H9.90513C9.90844 0.631615 9.81322 0.410491 9.641 0.248241C9.46878 0.085992 9.23434 -0.00345445 8.99115 0.00010215L8.99113 0.000112981ZM0.899954 5.10822C0.661292 5.10822 0.432427 5.19766 0.263522 5.35707C0.0947706 5.51633 0 5.73235 0 5.95758V16.1505C0 16.3757 0.0947706 16.5919 0.263522 16.7512C0.432423 16.9104 0.661272 16.9999 0.899954 17H17.1C17.3387 16.9999 17.5676 16.9104 17.7365 16.7512C17.9052 16.5919 18 16.3758 18 16.1505V5.95758C18 5.73233 17.9052 5.51633 17.7365 5.35707C17.5676 5.19766 17.3387 5.10822 17.1 5.10822H13.05C12.8091 5.10495 12.5769 5.19311 12.4053 5.35266C12.2338 5.51235 12.1373 5.7302 12.1373 5.95758C12.1373 6.18495 12.2338 6.40293 12.4053 6.56249C12.5769 6.72218 12.8091 6.8102 13.05 6.80708H16.2001V15.3011H1.80014V6.80708H4.95021H4.95006C5.19098 6.8102 5.42318 6.72218 5.59478 6.56249C5.76625 6.40294 5.86283 6.18495 5.86283 5.95758C5.86283 5.7302 5.76625 5.51236 5.59478 5.35266C5.42317 5.19311 5.19098 5.10495 4.95006 5.10822H0.899954Z" fill="#0C507A"/>
</svg>
