<svg width="21" height="16" viewBox="0 0 21 16" fill="none" xmlns="http://www.w3.org/2000/svg">
<path d="M3.08101 15.336H17.4567C18.2744 15.3342 19.0579 15.0081 19.6355 14.4293C20.213 13.8507 20.5374 13.0663 20.5374 12.2489V9.00147C20.5374 8.63473 20.3416 8.29569 20.0239 8.11215C19.7062 7.92889 19.3148 7.92889 18.9972 8.11215C18.6793 8.29563 18.4837 8.6347 18.4837 9.00147V12.2821C18.4837 12.5544 18.3755 12.8156 18.183 13.0081C17.9904 13.2007 17.729 13.309 17.4567 13.309H3.08103C2.80871 13.309 2.54732 13.2007 2.35477 13.0081C2.16222 12.8156 2.05408 12.5544 2.05408 12.2821V7.00124H19.5101C19.7831 7.00287 20.0452 6.89543 20.2382 6.70241C20.4312 6.50939 20.5389 6.2473 20.537 5.97431V3.08714C20.537 2.26974 20.2126 1.48532 19.6352 0.906705C19.0575 0.327873 18.2741 0.00184556 17.4564 0H3.08065C2.26301 0.00186044 1.47948 0.327903 0.901822 0.906705C0.324389 1.4853 0 2.26974 0 3.08714V12.2488C0 13.0662 0.324413 13.8507 0.901822 14.4293C1.47949 15.0081 2.26295 15.3341 3.08065 15.336L3.08101 15.336ZM3.08101 2.06051H17.4567C17.729 2.06051 17.9904 2.16864 18.183 2.3612C18.3755 2.55376 18.4837 2.81492 18.4837 3.08722V4.94742L2.05404 4.94765V3.08721C2.05404 2.81489 2.16218 2.55373 2.35473 2.36119C2.54729 2.16866 2.80868 2.0605 3.08099 2.0605L3.08101 2.06051Z" fill="#0C507A"/>
<path d="M4.80096 9.18848C4.43398 9.18848 4.09518 9.38429 3.91164 9.70196C3.72815 10.0196 3.72815 10.411 3.91164 10.7287C4.09512 11.0466 4.43395 11.2422 4.80096 11.2422H8.93507C9.30181 11.2422 9.64084 11.0466 9.82439 10.7287C10.0076 10.411 10.0076 10.0196 9.82439 9.70196C9.6409 9.38429 9.30184 9.18848 8.93507 9.18848H4.80096Z" fill="#0C507A"/>
</svg>
