<svg width="11" height="16" viewBox="0 0 11 16" fill="none" xmlns="http://www.w3.org/2000/svg">
<path d="M9.76631 5.23372C9.61824 3.66414 8.26442 3.13319 6.5531 2.97877V0.799965H5.23101V2.91531C4.88198 2.91531 4.52449 2.91531 4.17334 2.91531V0.791504H2.84702V2.97031C2.56145 2.97031 2.278 2.97031 2.00089 2.97031H0.173231L0.164769 4.38759C0.164769 4.38759 1.14417 4.37066 1.12725 4.38759C1.66455 4.38759 1.84012 4.70066 1.88877 4.96931V7.45272C1.93598 7.45004 1.9833 7.45004 2.0305 7.45272H1.88454L1.87397 10.9451C1.86266 11.067 1.80405 11.1795 1.71072 11.2586C1.61739 11.3377 1.49677 11.377 1.37475 11.3682C1.39167 11.383 0.410149 11.3682 0.410149 11.3682L0.143616 12.9547H1.86974H2.81741V15.1589H4.14373V12.9801C4.50757 12.9801 4.85871 12.9928 5.2014 12.9928V15.1631H6.52772V12.9632C8.75729 12.8616 10.3184 12.3032 10.5088 10.2111C10.6696 8.51885 9.87419 7.77002 8.60499 7.46118C9.37497 7.06984 9.85727 6.38235 9.74727 5.23161L9.76631 5.23372ZM7.89846 9.94036C7.89846 11.5882 5.07659 11.3936 4.17757 11.3915V8.47231C5.07659 8.47231 7.89635 8.22482 7.89212 9.94036H7.89846ZM7.29136 5.82179C7.29136 7.31945 4.93698 7.13753 4.18815 7.13753V4.48912C4.94333 4.49124 7.29559 4.25855 7.29136 5.82179Z" fill="white"/>
</svg>
