<svg width="13" height="13" viewBox="0 0 13 13" fill="none" xmlns="http://www.w3.org/2000/svg">
<path d="M2.43532 8.52362V3.24709H1.62355C0.726946 3.24709 0 3.97404 0 4.87064V11.3648C0 12.2614 0.726946 12.9884 1.62355 12.9884H8.11773C9.01433 12.9884 9.74128 12.2614 9.74128 11.3648V10.5531H4.46475C3.56815 10.5531 2.43532 9.42022 2.43532 8.52362ZM11.3648 0H4.87064C3.97404 0 3.24709 0.726946 3.24709 1.62355V8.11773C3.24709 9.01433 3.97404 9.74128 4.87064 9.74128H11.3648C12.2614 9.74128 12.9884 9.01433 12.9884 8.11773V1.62355C12.9884 0.726946 12.2614 0 11.3648 0Z" fill="#FFBD00"/>
</svg>
