<svg width="14" height="18" viewBox="0 0 14 18" fill="none" xmlns="http://www.w3.org/2000/svg">
<g opacity="0.8">
<path d="M7.00014 8.80318C9.00143 8.80318 10.6239 6.83254 10.6239 4.40162C10.6239 1.97064 10.0913 0 7.00014 0C3.90902 0 3.37622 1.97064 3.37622 4.40162C3.37622 6.83254 4.99874 8.80318 7.00014 8.80318Z" fill="#146596"/>
<path d="M0.155498 15.5239C0.154881 15.3757 0.154263 15.4822 0.155498 15.5239V15.5239Z" fill="#146596"/>
<path d="M13.8445 15.6395C13.8464 15.5989 13.8452 15.358 13.8445 15.6395V15.6395Z" fill="#146596"/>
<path d="M13.8369 15.3462C13.7698 11.1115 13.2167 9.90481 8.98452 9.14099C8.98452 9.14099 8.38877 9.90013 7.0002 9.90013C5.61162 9.90013 5.01577 9.14099 5.01577 9.14099C0.829746 9.89648 0.243049 11.0852 0.165906 15.2086C0.15958 15.5453 0.156649 15.563 0.155518 15.5239C0.155775 15.5972 0.156083 15.7326 0.156083 15.9689C0.156083 15.9689 1.16367 18.0001 7.0002 18.0001C12.8366 18.0001 13.8443 15.9689 13.8443 15.9689C13.8443 15.8171 13.8444 15.7116 13.8446 15.6398C13.8434 15.6639 13.8412 15.6171 13.8369 15.3462Z" fill="#146596"/>
</g>
</svg>
