<svg width="16" height="16" viewBox="0 0 16 16" fill="none" xmlns="http://www.w3.org/2000/svg">
<g clip-path="url(#clip0_42_26880)">
<g opacity="0.8">
<path d="M13.4931 2.50737C11.4826 0.496871 8.21141 0.496902 6.20091 2.5074C4.82763 3.88068 4.35063 5.90447 4.94526 7.74056L-0.86168 13.5475C-0.949586 13.6354 -0.999023 13.7544 -0.999023 13.879V16.5308C-0.999023 16.7899 -0.789367 16.9995 -0.530273 16.9995H2.12154C2.24604 16.9995 2.36507 16.9501 2.45294 16.8622L3.11579 16.1989C3.21694 16.0977 3.26638 15.9558 3.24991 15.8134L3.16751 15.1012L4.15444 15.0082C4.37876 14.9872 4.55591 14.81 4.57698 14.5857L4.66991 13.5987L5.38219 13.6816C5.51448 13.6994 5.64769 13.655 5.74794 13.5662C5.84773 13.477 5.90494 13.3497 5.90494 13.2161V12.3433H6.76188C6.88638 12.3433 7.00541 12.2938 7.09329 12.2059L8.29538 11.0197C10.131 11.6148 12.1198 11.1738 13.4931 9.79956C15.5036 7.78909 15.5036 4.51787 13.4931 2.50737ZM12.167 5.82206C11.6186 6.37047 10.7268 6.37047 10.1784 5.82206C9.63004 5.27365 9.63004 4.38193 10.1784 3.83353C10.7268 3.28512 11.6186 3.28512 12.167 3.83353C12.7154 4.38193 12.7153 5.27365 12.167 5.82206Z" fill="#012869"/>
</g>
</g>
<defs>
<clipPath id="clip0_42_26880">
<rect width="16" height="16" fill="white"/>
</clipPath>
</defs>
</svg>
