<svg width="16" height="16" viewBox="0 0 16 16" fill="none" xmlns="http://www.w3.org/2000/svg">
<g opacity="0.8">
<path d="M10.606 8.08207L15.9999 11.4921V4.52808L10.606 8.08207Z" fill="#012869"/>
</g>
<g opacity="0.8">
<path d="M0 4.52808V11.4921L5.394 8.08207L0 4.52808Z" fill="#012869"/>
</g>
<g opacity="0.8">
<path d="M15.0003 2.5H1.00027C0.501274 2.5 0.105273 2.872 0.0302734 3.351L8.00028 8.602L15.9703 3.351C15.8953 2.872 15.4993 2.5 15.0003 2.5Z" fill="#012869"/>
</g>
<g opacity="0.8">
<path d="M9.69023 8.68581L8.27523 9.61781C8.19123 9.67281 8.09623 9.69981 8.00023 9.69981C7.90423 9.69981 7.80923 9.67281 7.72523 9.61781L6.31023 8.68481L0.0322266 12.6558C0.109227 13.1308 0.503227 13.4998 1.00023 13.4998H15.0002C15.4972 13.4998 15.8912 13.1308 15.9682 12.6558L9.69023 8.68581Z" fill="#012869"/>
</g>
</svg>
