<svg width="24" height="24" viewBox="0 0 24 24" fill="none" xmlns="http://www.w3.org/2000/svg">
<rect width="23.5762" height="23.5762" rx="5" fill="#E13C3C"/>
<path d="M19.4824 15.2262H19.1388C19.0126 15.2208 18.8918 15.1738 18.7952 15.0926C18.7202 15.021 18.67 14.9274 18.652 14.8253C18.652 14.6917 18.652 14.5294 18.652 14.3576C18.652 13.8421 18.652 13.2981 18.5947 12.7444C18.5374 12.1908 18.5947 11.1026 18.5947 11.1026V10.0335C18.5874 9.83824 18.6034 9.64276 18.6424 9.45127C18.6666 9.32455 18.7383 9.21187 18.8429 9.13627C19.0024 9.06259 19.1737 9.01736 19.3488 9.00264H19.5683C19.5819 8.98123 19.5891 8.9564 19.5891 8.93105C19.5891 8.90569 19.5819 8.88086 19.5683 8.85945C19.5624 8.83679 19.5517 8.81567 19.5369 8.79755C19.522 8.77942 19.5035 8.76472 19.4824 8.75446C19.3011 8.75446 19.1292 8.75446 18.967 8.75446H18.1843C18.0506 8.75446 17.9074 8.75446 17.7165 8.75446C17.6844 9.04775 17.6071 9.33431 17.4874 9.604L16.9052 10.8258L15.8934 12.8494L15.4925 13.6799C15.3645 13.955 15.2211 14.2227 15.0629 14.4817C14.9293 14.2335 14.8147 14.0044 14.6906 13.7562L14.3279 12.9831L13.0679 10.5013C12.9057 10.1576 12.7529 9.81399 12.6384 9.54672C12.5488 9.29222 12.5036 9.02425 12.5047 8.75446C12.3329 8.75446 12.1707 8.75446 12.0179 8.75446H11.2543H10.8343C10.8148 8.76675 10.7985 8.78358 10.7868 8.80353C10.7752 8.82347 10.7686 8.84593 10.7675 8.869C10.7558 8.88932 10.7496 8.91236 10.7496 8.93582C10.7496 8.95928 10.7558 8.98232 10.7675 9.00264H10.9298C11.0817 9.03465 11.2316 9.07609 11.3784 9.12673C11.4276 9.15723 11.4699 9.19756 11.5028 9.24519C11.5356 9.29283 11.5583 9.34674 11.5693 9.40354C11.5959 9.56793 11.5959 9.73551 11.5693 9.8999C11.5693 10.1863 11.5693 10.5299 11.5693 10.9213C11.5693 11.3126 11.5693 11.7326 11.5025 12.1526C11.4357 12.5726 11.5025 12.7731 11.4452 13.0212C11.3879 13.2694 11.4452 13.5081 11.3879 13.7181C11.3307 13.9281 11.3879 14.1571 11.3879 14.3767C11.375 14.5523 11.3397 14.7255 11.2829 14.8921C11.2691 14.9405 11.2448 14.9852 11.2119 15.0231C11.1789 15.061 11.138 15.0913 11.092 15.1117C10.9867 15.1617 10.8738 15.1939 10.7579 15.2071H10.5384C10.5384 15.2071 10.4811 15.274 10.5384 15.3408C10.5389 15.3643 10.5443 15.3874 10.5542 15.4088C10.564 15.4301 10.5781 15.4492 10.5957 15.4649H11.1207H12.1707L12.7529 15.5126C12.776 15.4933 12.7928 15.4675 12.8013 15.4387C12.8098 15.4098 12.8096 15.3791 12.8007 15.3503C12.8116 15.328 12.8173 15.3036 12.8173 15.2787C12.8173 15.2539 12.8116 15.2294 12.8007 15.2071H12.3902C12.2812 15.2061 12.1749 15.1729 12.0847 15.1117C12.0032 15.0343 11.9552 14.9281 11.9511 14.8158C11.9183 14.6135 11.9183 14.4072 11.9511 14.2049C11.9511 13.7467 11.9511 13.2981 11.9511 12.8494C11.9511 12.4008 11.9511 11.9999 11.9511 11.6658C11.9511 11.3317 11.9988 11.0358 12.0084 10.7113C12.0179 10.3867 12.0084 10.0717 12.0561 9.75672L12.3902 10.6349L12.7338 11.3985L13.6884 13.4508C13.7743 13.6226 13.8697 13.8326 13.9843 14.0903C14.0988 14.3481 14.242 14.6249 14.3566 14.8826C14.4581 15.1055 14.5442 15.3351 14.6143 15.5699H14.662C14.6866 15.5794 14.7138 15.5794 14.7384 15.5699C14.8147 15.398 14.9006 15.188 15.0247 14.9303C15.1488 14.6726 15.2729 14.3767 15.4161 14.0808C15.5593 13.7849 15.7311 13.4603 15.9029 13.1262L16.8574 11.2744C16.9243 11.1217 17.0006 10.9499 17.0961 10.759L17.3824 10.2149C17.4588 10.0431 17.5447 10.6922 17.5447 10.6922H17.5733V14.3194C17.6671 14.4808 17.7009 14.6701 17.6688 14.854C17.6678 14.9053 17.6542 14.9557 17.6292 15.0006C17.6043 15.0455 17.5687 15.0837 17.5256 15.1117C17.4683 15.1785 17.3538 15.2071 17.1629 15.2262H16.8479C16.8479 15.2262 16.8479 15.293 16.8479 15.3694C16.8501 15.4167 16.8706 15.4612 16.9052 15.4935C17.1247 15.4935 17.3538 15.4935 17.5638 15.4362H18.8047C19.0147 15.4362 19.2342 15.484 19.4442 15.4935C19.4649 15.4807 19.4813 15.4621 19.4915 15.4401C19.5017 15.418 19.5052 15.3934 19.5015 15.3694C19.5104 15.3458 19.5133 15.3204 19.51 15.2954C19.5066 15.2704 19.4972 15.2467 19.4824 15.2262Z" fill="white"/>
<path d="M9.36447 8.8404C9.08991 8.68615 8.79396 8.57356 8.4863 8.50631C8.10762 8.44518 7.72441 8.41644 7.34085 8.42041C6.91131 8.42041 6.52949 8.42041 6.18586 8.42041C5.84222 8.42041 5.53677 8.42041 5.23132 8.47768C5.20818 8.49318 5.18973 8.51472 5.17795 8.53996C5.16618 8.56519 5.16152 8.59317 5.1645 8.62086C5.1614 8.65094 5.16938 8.68112 5.18696 8.70573C5.20453 8.73033 5.23049 8.74768 5.25995 8.75449H5.62268C5.74853 8.75251 5.87076 8.79665 5.96631 8.87858C6.02089 8.9229 6.06348 8.9802 6.09016 9.04524C6.11684 9.11028 6.12677 9.18098 6.11904 9.25085C6.1319 9.47658 6.1319 9.70285 6.11904 9.92858V12.0667C6.43693 12.0858 6.75569 12.0858 7.07358 12.0667V9.07904C7.04784 8.98856 7.04784 8.8927 7.07358 8.80222C7.08833 8.77532 7.10879 8.75198 7.13353 8.73384C7.15826 8.7157 7.18667 8.7032 7.21676 8.69722H7.6463C7.88837 8.68031 8.13138 8.71214 8.36093 8.79084C8.59047 8.86955 8.80189 8.99351 8.98266 9.1554C9.2864 9.50285 9.44377 9.95443 9.42174 10.4154C9.4463 10.8465 9.31784 11.2725 9.05902 11.6181C8.81563 11.9162 8.47969 12.1245 8.10448 12.2099C7.49729 12.3226 6.87904 12.3642 6.26222 12.334C5.61313 12.3149 4.93541 12.2767 4.20996 12.2099C4.77401 12.3404 5.34428 12.4423 5.91859 12.5154C6.58685 12.6065 7.2644 12.6065 7.93266 12.5154C8.23541 12.4685 8.53277 12.3918 8.82038 12.2863C9.09607 12.1603 9.35831 12.0068 9.60311 11.8281C9.78295 11.6852 9.9268 11.5021 10.0231 11.2936C10.1352 11.0344 10.1937 10.7551 10.1949 10.4727C10.1943 10.1374 10.1054 9.80815 9.9372 9.51813C9.8078 9.24669 9.61053 9.01325 9.36447 8.8404Z" fill="white"/>
<path d="M7.85634 15.169C7.67338 15.1754 7.49206 15.1325 7.33134 15.0449C7.26881 15.0005 7.21615 14.9437 7.17672 14.878C7.13728 14.8123 7.11193 14.7391 7.10225 14.663C7.07462 14.3837 7.07462 14.1024 7.10225 13.8231V12.8017C6.78478 12.8317 6.46519 12.8317 6.14771 12.8017V13.8612C6.15175 14.142 6.1358 14.4227 6.09999 14.7012C6.10374 14.7733 6.08799 14.845 6.05439 14.9088C6.02079 14.9727 5.97059 15.0263 5.90908 15.064C5.77151 15.1658 5.60272 15.2164 5.43181 15.2071H5.19317C5.17058 15.2224 5.15367 15.2448 5.14504 15.2706C5.13641 15.2965 5.13656 15.3245 5.14545 15.3503C5.1432 15.3766 5.14825 15.403 5.16004 15.4265C5.17183 15.4501 5.1899 15.47 5.21226 15.484L5.89953 15.4362H7.29316L8.15224 15.484C8.15224 15.484 8.15224 15.4076 8.21906 15.3503C8.22878 15.3277 8.23379 15.3033 8.23379 15.2787C8.23379 15.2541 8.22878 15.2298 8.21906 15.2071L7.85634 15.169Z" fill="white"/>
</svg>
