<svg width="24" height="24" viewBox="0 0 24 24" fill="none" xmlns="http://www.w3.org/2000/svg">
<rect width="23.5762" height="23.5762" rx="5" fill="#070707"/>
<mask id="path-2-inside-1_33_13015" fill="white">
<path d="M15.2942 7.8719L6.91406 6.33234L11.3241 17.4138L17.4679 9.93716L15.2942 7.8719ZM15.1605 8.55058L16.443 9.76749L12.9367 10.4017L15.1605 8.55058ZM12.175 10.2751L8.47924 7.21407L14.5185 8.32389L12.175 10.2751ZM11.9104 10.8175L11.3088 15.7922L8.0601 7.62573L11.9104 10.8175ZM12.4674 11.0804L16.3497 10.378L11.8978 15.7964L12.4674 11.0804Z"/>
</mask>
<path d="M15.2942 7.8719L6.91406 6.33234L11.3241 17.4138L17.4679 9.93716L15.2942 7.8719ZM15.1605 8.55058L16.443 9.76749L12.9367 10.4017L15.1605 8.55058ZM12.175 10.2751L8.47924 7.21407L14.5185 8.32389L12.175 10.2751ZM11.9104 10.8175L11.3088 15.7922L8.0601 7.62573L11.9104 10.8175ZM12.4674 11.0804L16.3497 10.378L11.8978 15.7964L12.4674 11.0804Z" fill="#EB0029"/>
<path d="M15.2942 7.8719L17.0053 6.07095L16.4697 5.56208L15.743 5.42858L15.2942 7.8719ZM6.91406 6.33234L7.36294 3.88902L2.945 3.07737L4.60592 7.2509L6.91406 6.33234ZM11.3241 17.4138L9.01599 18.3324L10.5719 22.2421L13.2435 18.991L11.3241 17.4138ZM17.4679 9.93716L19.3872 11.5143L20.8547 9.72839L19.179 8.13622L17.4679 9.93716ZM15.1605 8.55058L16.8704 6.74851L15.2685 5.2285L13.5712 6.64128L15.1605 8.55058ZM16.443 9.76749L16.8851 12.212L21.7089 11.3396L18.1529 7.96541L16.443 9.76749ZM12.9367 10.4017L11.3474 8.49237L4.10082 14.5243L13.3788 12.8462L12.9367 10.4017ZM12.175 10.2751L10.5903 12.1883L12.1791 13.5042L13.7645 12.1842L12.175 10.2751ZM8.47924 7.21407L8.92823 4.77078L-0.44466 3.04836L6.89462 9.12725L8.47924 7.21407ZM14.5185 8.32389L16.108 10.233L20.1843 6.83925L14.9675 5.8806L14.5185 8.32389ZM11.9104 10.8175L14.3766 11.1157L14.5393 9.77006L13.4958 8.90499L11.9104 10.8175ZM11.3088 15.7922L9.00055 16.7105L13.7751 16.0905L11.3088 15.7922ZM8.0601 7.62573L9.64552 5.71322L5.75183 8.54399L8.0601 7.62573ZM12.4674 11.0804L12.0252 8.63583L10.2209 8.96223L10.0011 10.7825L12.4674 11.0804ZM16.3497 10.378L18.2691 11.9551L22.5625 6.72957L15.9075 7.9335L16.3497 10.378ZM11.8978 15.7964L9.43156 15.4986L8.41041 23.9542L13.8173 17.3734L11.8978 15.7964ZM15.743 5.42858L7.36294 3.88902L6.46519 8.77565L14.8453 10.3152L15.743 5.42858ZM4.60592 7.2509L9.01599 18.3324L13.6323 16.4953L9.2222 5.41377L4.60592 7.2509ZM13.2435 18.991L19.3872 11.5143L15.5485 8.36L9.4048 15.8367L13.2435 18.991ZM19.179 8.13622L17.0053 6.07095L13.5831 9.67284L15.7568 11.7381L19.179 8.13622ZM13.4506 10.3527L14.7331 11.5696L18.1529 7.96541L16.8704 6.74851L13.4506 10.3527ZM16.0009 7.32295L12.4945 7.95713L13.3788 12.8462L16.8851 12.212L16.0009 7.32295ZM14.5259 12.311L16.7498 10.4599L13.5712 6.64128L11.3474 8.49237L14.5259 12.311ZM13.7596 8.36194L10.0639 5.3009L6.89462 9.12725L10.5903 12.1883L13.7596 8.36194ZM8.03025 9.65737L14.0696 10.7672L14.9675 5.8806L8.92823 4.77078L8.03025 9.65737ZM12.929 6.41476L10.5855 8.36599L13.7645 12.1842L16.108 10.233L12.929 6.41476ZM9.44414 10.5193L8.84258 15.494L13.7751 16.0905L14.3766 11.1157L9.44414 10.5193ZM13.6171 14.874L10.3684 6.70748L5.75183 8.54399L9.00055 16.7105L13.6171 14.874ZM6.47468 9.53825L10.325 12.73L13.4958 8.90499L9.64552 5.71322L6.47468 9.53825ZM12.9096 13.5249L16.7919 12.8226L15.9075 7.9335L12.0252 8.63583L12.9096 13.5249ZM14.4303 8.80099L9.97842 14.2194L13.8173 17.3734L18.2691 11.9551L14.4303 8.80099ZM14.3641 16.0942L14.9337 11.3782L10.0011 10.7825L9.43156 15.4986L14.3641 16.0942Z" fill="#FF0000" mask="url(#path-2-inside-1_33_13015)"/>
</svg>
