<svg width="24" height="24" viewBox="0 0 24 24" fill="none" xmlns="http://www.w3.org/2000/svg">
<rect width="23.5762" height="23.5762" rx="5" fill="#09B787"/>
<path d="M15.113 8.91985C14.9928 7.64521 13.8934 7.21403 12.5036 7.08863V5.31925H11.43V7.03709C11.1465 7.03709 10.8562 7.03709 10.5711 7.03709V5.31238H9.49399V7.08175C9.26208 7.08175 9.03189 7.08175 8.80685 7.08175H7.32263L7.31576 8.23271C7.31576 8.23271 8.11112 8.21897 8.09738 8.23271C8.53371 8.23271 8.67629 8.48695 8.7158 8.70511V10.7219C8.75414 10.7197 8.79256 10.7197 8.8309 10.7219H8.71237L8.70378 13.558C8.6946 13.6569 8.647 13.7483 8.57121 13.8126C8.49541 13.8768 8.39746 13.9088 8.29837 13.9016C8.31211 13.9136 7.51503 13.9016 7.51503 13.9016L7.29858 15.19H8.70034H9.46994V16.98H10.547V15.2106C10.8425 15.2106 11.1277 15.2209 11.4059 15.2209V16.9834H12.483V15.1968C14.2936 15.1144 15.5614 14.6609 15.716 12.9619C15.8466 11.5877 15.2007 10.9795 14.17 10.7287C14.7952 10.4109 15.1869 9.85263 15.0976 8.91813L15.113 8.91985ZM13.5962 12.742C13.5962 14.0802 11.3046 13.9222 10.5745 13.9205V11.5499C11.3046 11.5499 13.5945 11.3489 13.591 12.742H13.5962ZM13.1032 9.39741C13.1032 10.6136 11.1912 10.4659 10.5831 10.4659V8.31516C11.1964 8.31688 13.1066 8.12792 13.1032 9.39741Z" fill="white"/>
</svg>
