<svg width="17" height="17" viewBox="0 0 17 17" fill="none" xmlns="http://www.w3.org/2000/svg">
<path d="M15.1055 7.06152C14.9445 6.17592 14.6224 5.37083 14.1394 4.72676L15.025 3.19709L13.8978 2.06997L12.3682 2.95556C11.6436 2.47251 10.8385 2.15047 10.0334 1.98946L9.63088 0.218262H8.0207L7.61816 1.98946C6.73256 2.15047 5.92747 2.47251 5.20289 2.95556L3.67322 1.98946L2.5461 3.11658L3.4317 4.64625C2.94864 5.37083 2.62661 6.17592 2.46559 6.98101L0.774902 7.46406V9.07424L2.5461 9.47678C2.70712 10.3624 3.02915 11.1675 3.5122 11.8115L2.62661 13.3412L3.75373 14.4683L5.2834 13.5827C6.00798 14.0658 6.81307 14.3878 7.61816 14.5488L8.0207 16.32H9.63088L10.0334 14.5488C10.919 14.3878 11.7241 14.0658 12.3682 13.5827L13.8978 14.4683L15.025 13.3412L14.1394 11.8115C14.6224 11.087 14.9445 10.2819 15.1055 9.47678L16.8767 9.07424V7.46406L15.1055 7.06152ZM8.82579 12.2946C6.57154 12.2946 4.80035 10.5234 4.80035 8.26915C4.80035 6.0149 6.57154 4.24371 8.82579 4.24371C11.08 4.24371 12.8512 6.0149 12.8512 8.26915C12.8512 10.5234 11.08 12.2946 8.82579 12.2946Z" fill="white"/>
</svg>
