<svg width="24" height="24" viewBox="0 0 24 24" fill="none" xmlns="http://www.w3.org/2000/svg">
<rect width="23.5762" height="23.5762" rx="5" fill="#1FADEA"/>
<path d="M18.616 8.327C18.6028 8.10651 18.5381 7.89218 18.4271 7.70121C18.3287 7.50443 18.1536 7.35093 17.9489 7.27221C17.7402 7.1682 17.509 7.11749 17.2759 7.12462H8.54243L7.91664 9.00002H15.8295L14.5799 12.8335H6.669L6.04321 14.7089H14.818C15.0795 14.7013 15.338 14.6515 15.5835 14.5613C15.8295 14.4216 16.1109 14.2799 16.349 14.0831C16.5815 13.8998 16.7916 13.6898 16.9748 13.4573C17.1263 13.2295 17.2555 12.9877 17.3605 12.7351L18.5196 9.09054C18.6251 8.85075 18.6586 8.58548 18.616 8.327Z" fill="white"/>
<path d="M11.0357 10.0469H6.37969L5.75391 11.7806H10.4572L11.0357 10.0469Z" fill="white"/>
</svg>
