<svg width="24" height="24" viewBox="0 0 24 24" fill="none" xmlns="http://www.w3.org/2000/svg">
<rect width="23.5762" height="23.5762" rx="5" fill="#1439FB"/>
<path d="M12.3188 17.492C11.5324 17.0362 11.0667 16.213 11.0667 15.3449C11.0667 14.889 11.2522 14.4296 11.4845 14.0198C11.67 13.6537 11.761 13.0147 11.1135 12.6947C10.6514 12.4219 10.0469 12.6037 9.77038 13.0608C9.49383 13.4269 9.16946 13.793 8.75167 14.0658C7.96522 14.5217 7.03748 14.5217 6.25097 14.0658C5.46447 13.61 5 12.7847 5 11.9164C5 11.0481 5.46208 10.2252 6.2508 9.76809C7.03724 9.31224 7.96498 9.31224 8.75149 9.76809C9.16928 9.9972 9.49359 10.3609 9.72352 10.7732C9.90904 11.0932 10.419 11.5054 11.0666 11.1393C11.5287 10.8665 11.6675 10.27 11.4376 9.81415C11.2054 9.40199 11.0666 8.94489 11.0666 8.48904C11.0666 7.61978 11.5287 6.79782 12.3187 6.34191C13.1052 5.88605 14.0329 5.88605 14.8194 6.34191C15.6059 6.79776 16.0716 7.62096 16.0716 8.48904C16.0716 9.35711 15.6084 10.1803 14.8195 10.6373C14.4017 10.8665 13.9385 10.9574 13.4297 10.9574C13.0119 10.9574 12.4577 11.2302 12.4577 11.9164C12.4577 12.4656 12.8755 12.8754 13.4297 12.8754C13.8918 12.8754 14.4017 12.9664 14.8195 13.1955C15.606 13.6513 16.0716 14.4745 16.0716 15.3425C16.0716 16.2106 15.6084 17.0337 14.8195 17.4897C14.4485 17.7188 13.9863 17.8097 13.5687 17.8097C13.1533 17.8121 12.6877 17.7188 12.319 17.492" fill="white"/>
</svg>
