<svg width="24" height="24" viewBox="0 0 24 24" fill="none" xmlns="http://www.w3.org/2000/svg">
<rect width="23.5762" height="23.5762" rx="5" fill="#EDF119"/>
<g clip-path="url(#clip0_33_13017)">
<path d="M9.13342 10.6777L11.7578 8.05444L14.3832 10.6799L15.9093 9.15263L11.7578 5L7.6062 9.15157L9.13342 10.6777Z" fill="white"/>
<path d="M5 11.7567L6.52615 10.2294L8.05338 11.7567L6.52615 13.2828L5 11.7567Z" fill="white"/>
<path d="M9.13342 12.8346L11.7578 15.459L14.3832 12.8336L15.9104 14.3586L11.7588 18.5113L7.6062 14.3618L9.13342 12.8346Z" fill="white"/>
<path d="M15.459 11.7567L16.9851 10.2294L18.5124 11.7556L16.9851 13.2839L15.459 11.7567Z" fill="white"/>
<path d="M13.3064 11.7556L11.7578 10.206L10.6126 11.3511L10.4803 11.4824L10.2092 11.7535L11.7578 13.301L13.3064 11.7567V11.7556Z" fill="white"/>
</g>
<defs>
<clipPath id="clip0_33_13017">
<rect width="13.5123" height="13.5123" fill="white" transform="translate(5 5)"/>
</clipPath>
</defs>
</svg>
