<svg width="24" height="24" viewBox="0 0 24 24" fill="none" xmlns="http://www.w3.org/2000/svg">
<rect width="23.5762" height="23.5762" rx="5" fill="#26CA8F"/>
<path d="M12.7459 9.99006V8.83383H15.3889V7.07288H8.20157V8.83383H10.8366V9.98845C8.68535 10.0868 7.07275 10.5125 7.07275 11.0221C7.07275 11.5317 8.68535 11.9574 10.8366 12.0558V15.7648H12.7475V12.0558C14.8906 11.9574 16.5032 11.5317 16.5032 11.0221C16.5032 10.5125 14.8906 10.0884 12.7459 9.99006ZM12.7459 11.743C12.691 11.743 12.4137 11.7623 11.7977 11.7623C11.3042 11.7623 10.9575 11.7478 10.8301 11.7413C8.93208 11.6591 7.51622 11.3285 7.51622 10.935C7.51622 10.5416 8.93208 10.2094 10.8301 10.1287V11.4188C10.9543 11.4188 11.3139 11.4478 11.7977 11.4478C12.3863 11.4478 12.683 11.4237 12.7378 11.4188V10.1287C14.631 10.2126 16.0452 10.5432 16.0452 10.935C16.0452 11.3269 14.6407 11.6575 12.7475 11.7494L12.7459 11.743Z" fill="white"/>
</svg>
