<svg width="15" height="15" viewBox="0 0 15 15" fill="none" xmlns="http://www.w3.org/2000/svg">
<path d="M13.35 6.375C13.2 5.55 12.9 4.8 12.45 4.2L13.275 2.775L12.225 1.725L10.8 2.55C10.125 2.1 9.375 1.8 8.625 1.65L8.25 0H6.75L6.375 1.65C5.55 1.8 4.8 2.1 4.125 2.55L2.7 1.65L1.65 2.7L2.475 4.125C2.025 4.8 1.725 5.55 1.575 6.3L0 6.75V8.25L1.65 8.625C1.8 9.45 2.1 10.2 2.55 10.8L1.725 12.225L2.775 13.275L4.2 12.45C4.875 12.9 5.625 13.2 6.375 13.35L6.75 15H8.25L8.625 13.35C9.45 13.2 10.2 12.9 10.8 12.45L12.225 13.275L13.275 12.225L12.45 10.8C12.9 10.125 13.2 9.375 13.35 8.625L15 8.25V6.75L13.35 6.375ZM7.5 11.25C5.4 11.25 3.75 9.6 3.75 7.5C3.75 5.4 5.4 3.75 7.5 3.75C9.6 3.75 11.25 5.4 11.25 7.5C11.25 9.6 9.6 11.25 7.5 11.25Z" fill="#0E6586"/>
</svg>
