<svg width="150" height="121" viewBox="0 0 150 121" fill="none" xmlns="http://www.w3.org/2000/svg">
<g filter="url(#filter0_f_1_9135)">
<ellipse cx="74.9944" cy="77.1143" rx="44.145" ry="12.6634" transform="rotate(-4.44951 74.9944 77.1143)" fill="black" fill-opacity="0.08"/>
</g>
<g opacity="0.5">
<path d="M114.925 14.5655L110.293 77.1807L46.6474 83.3722L46.6096 17.4675L114.925 14.5655Z" fill="url(#paint0_linear_1_9135)"/>
</g>
<path d="M46.6096 17.4672L35.7389 2.00251L92.8432 0.329376L114.925 14.5653L46.6096 17.4672Z" fill="#F2F2F2"/>
<path d="M114.925 14.5649L110.293 77.1801L46.6474 83.3717L46.6096 17.4669L114.925 14.5649Z" fill="#E6E6E6"/>
<path d="M46.6474 83.3717L36.4195 57.679L35.7389 2.0022L46.6096 17.4669L46.6474 83.3717Z" fill="#B3B3B3"/>
<path d="M66.4983 60.213C65.0615 60.3548 64.3714 59.6553 64.4471 58.1145L65.0142 45.7881C65.0804 44.2473 65.8461 43.4059 67.2829 43.2642L71.2342 42.8861C72.6615 42.7443 73.3516 43.4438 73.2854 44.994L72.7183 57.3204C72.6521 58.8612 71.8864 59.7025 70.459 59.8349L66.4983 60.213ZM72.8979 37.3467L66.0824 37.999C63.568 38.2353 61.7058 39.0199 60.5147 40.3527C59.3142 41.6856 58.662 43.699 58.5391 46.393L57.9719 58.7195C57.849 61.4135 58.3217 63.323 59.4087 64.4289C60.4864 65.5349 62.2918 65.9697 64.8063 65.7334L71.6217 65.0812C74.1362 64.8354 75.9984 64.0508 77.1894 62.7274C78.3899 61.3946 79.0516 59.3812 79.1745 56.6871L79.7417 44.3607C79.8646 41.6666 79.3825 39.7572 78.2954 38.6512C77.2178 37.5358 75.4217 37.1104 72.8979 37.3467Z" fill="white"/>
<path d="M98.0328 35.3142L90.8487 36.0043L81.4904 53.0193L81.2447 58.4074L94.5258 57.1313L94.2801 62.5288L100.755 61.9144L101.001 56.5168L103.515 56.2711L103.761 50.8735L101.247 51.1193L101.511 45.3342L95.0457 45.9581L94.781 51.7432L88.6746 52.3292L98.0328 35.3142Z" fill="white"/>
<path d="M66.4982 59.2667C65.0614 59.4085 64.3714 58.709 64.447 57.1682L65.0142 44.8418C65.0803 43.301 65.846 42.4597 67.2828 42.3179L71.2341 41.9398C72.6615 41.798 73.3515 42.4975 73.2853 44.0478L72.7182 56.3742C72.652 57.915 71.8863 58.7563 70.459 58.8886L66.4982 59.2667ZM72.8978 36.4005L66.0823 37.0527C63.5679 37.289 61.7057 38.0736 60.5146 39.4065C59.3141 40.7393 58.6619 42.7528 58.539 45.4468L57.9718 57.7732C57.849 60.4673 58.3216 62.3767 59.4087 63.4827C60.4863 64.5887 62.2918 65.0235 64.8062 64.7872L71.6217 64.135C74.1361 63.8892 75.9983 63.1046 77.1893 61.7812C78.3898 60.4483 79.0515 58.4349 79.1744 55.7409L79.7416 43.4145C79.8645 40.7204 79.3824 38.8109 78.2953 37.705C77.2177 36.5895 75.4217 36.1642 72.8978 36.4005Z" fill="#FFC213"/>
<path d="M98.0327 34.3681L90.8486 35.0582L81.4904 52.0732L81.2446 57.4612L94.5257 56.1851L94.28 61.5827L100.755 60.9682L101.001 55.5707L103.515 55.3249L103.761 49.9274L101.247 50.1731L101.511 44.3881L95.0456 45.0119L94.781 50.797L88.6745 51.3831L98.0327 34.3681Z" fill="#FFC213"/>
<defs>
<filter id="filter0_f_1_9135" x="0.971249" y="34.0295" width="148.046" height="86.1696" filterUnits="userSpaceOnUse" color-interpolation-filters="sRGB">
<feFlood flood-opacity="0" result="BackgroundImageFix"/>
<feBlend mode="normal" in="SourceGraphic" in2="BackgroundImageFix" result="shape"/>
<feGaussianBlur stdDeviation="15" result="effect1_foregroundBlur_1_9135"/>
</filter>
<linearGradient id="paint0_linear_1_9135" x1="96.1844" y1="78.5625" x2="69.6082" y2="27.4864" gradientUnits="userSpaceOnUse">
<stop stop-color="#F1C007"/>
<stop offset="0.1594" stop-color="#F4CD3B"/>
<stop offset="0.3884" stop-color="#F8DF80"/>
<stop offset="0.5953" stop-color="#FBEDB7"/>
<stop offset="0.7726" stop-color="#FDF7DE"/>
<stop offset="0.9134" stop-color="#FEFDF6"/>
<stop offset="1" stop-color="white"/>
</linearGradient>
</defs>
</svg>
