<svg width="97" height="120" viewBox="0 0 97 120" fill="none" xmlns="http://www.w3.org/2000/svg">
<path d="M49.6838 23.8006L60.4222 0.329346L96.5696 44.4738L93.6298 75.2521L49.6838 23.8006Z" fill="#F2F2F2"/>
<path d="M49.6838 23.8007L93.6298 75.2521L42.8211 104.972L0 60.0426L49.6838 23.8007Z" fill="#D9D9D9"/>
<path d="M0 60.0425L17.8563 32.5917L60.4222 0.329346L49.6838 23.8006L0 60.0425Z" fill="#BFBFBF"/>
<g filter="url(#filter0_f_1_9079)">
<ellipse cx="43.2607" cy="97.8878" rx="25.9662" ry="2.59662" transform="rotate(13.4717 43.2607 97.8878)" fill="black" fill-opacity="0.13"/>
</g>
<path d="M45.9176 78.493C44.7927 79.202 43.6679 78.8428 42.543 77.4154L33.2131 65.5805C32.0504 64.1059 32.0504 62.9527 33.2225 62.1303L36.4459 59.8616C36.4837 59.8333 36.531 59.8049 36.5688 59.7765C37.7032 59.0581 38.828 59.4173 39.9529 60.8447L49.2828 72.6796C50.4549 74.1637 50.4455 75.3169 49.2733 76.1488L46.05 78.408C46.0121 78.4363 45.9649 78.4647 45.9176 78.493ZM34.0071 53.5377C33.8464 53.6322 33.6952 53.7457 33.5345 53.8497L27.9668 57.7631C25.9155 59.1999 24.8852 60.8353 24.8757 62.6691C24.8757 64.484 25.8872 66.696 27.9384 69.286L37.2683 81.1209C39.3101 83.7204 41.2574 85.2707 43.1007 85.7906C44.8116 86.2632 46.6077 85.9135 48.4888 84.7224C48.64 84.6279 48.8007 84.5239 48.952 84.4105L54.5196 80.4876C56.5614 79.0413 57.5918 77.4154 57.5918 75.591C57.6012 73.7667 56.5803 71.5547 54.5385 68.9741L45.1992 57.1298C43.1574 54.5303 41.2101 52.9895 39.3668 52.4696C37.6748 51.9875 35.8788 52.3561 34.0071 53.5377Z" fill="#0C517B"/>
<path d="M50.9653 42.1658L46.2768 45.4743L43.1952 52.2425L48.0161 55.4659L50.2091 51.6092L66.1087 71.7814L71.3833 68.0664L50.9653 42.1658Z" fill="#0C517B"/>
<defs>
<filter id="filter0_f_1_9079" x="3.00165" y="76.331" width="80.5182" height="43.1136" filterUnits="userSpaceOnUse" color-interpolation-filters="sRGB">
<feFlood flood-opacity="0" result="BackgroundImageFix"/>
<feBlend mode="normal" in="SourceGraphic" in2="BackgroundImageFix" result="shape"/>
<feGaussianBlur stdDeviation="7.5" result="effect1_foregroundBlur_1_9079"/>
</filter>
</defs>
</svg>
