<svg width="94" height="102" viewBox="0 0 94 102" fill="none" xmlns="http://www.w3.org/2000/svg">
<path d="M40.5713 17.1838L86.37 1.01007L93.3651 59.0312L51.4893 82.5497L40.5713 17.1838Z" fill="#F2F2F2"/>
<path d="M40.5713 17.1832L51.4893 82.5491L11.5608 70.166L1.52588e-05 13.9692L40.5713 17.1832Z" fill="#CCCCCC"/>
<path d="M0 13.9697L44.3619 0.329346L86.37 1.00995L40.5713 17.1836L0 13.9697Z" fill="#E6E6E6"/>
<g filter="url(#filter0_f_1_9114)">
<ellipse cx="50.5409" cy="83.2434" rx="25.9662" ry="2.59662" transform="rotate(-4.37224 50.5409 83.2434)" fill="black" fill-opacity="0.13"/>
</g>
<path d="M62.0953 55.2223C61.15 55.6949 60.5828 55.1183 60.3938 53.4641L58.9191 40.3247C58.7395 38.6799 59.1176 37.6212 60.0629 37.1486L62.6719 35.8441C63.6266 35.3714 64.1938 35.9575 64.3734 37.6023L65.848 50.7417C66.0371 52.3959 65.6495 53.4451 64.6948 53.9272L62.0953 55.2223ZM62.9933 29.6147L58.4843 31.8645C56.8206 32.6963 55.6863 33.9535 55.0718 35.6267C54.4669 37.2998 54.3251 39.5779 54.6465 42.4516L56.1211 55.5909C56.4425 58.474 57.0475 60.374 57.9455 61.3004C58.8435 62.2268 60.1291 62.274 61.7928 61.4422L66.3112 59.1924C67.9749 58.3606 69.1092 57.1128 69.7142 55.4302C70.3192 53.7571 70.461 51.479 70.1396 48.5959L68.6649 35.4565C68.3435 32.5734 67.7386 30.6734 66.8406 29.747C65.9331 28.8301 64.657 28.7828 62.9933 29.6147Z" fill="white"/>
<path d="M77.5317 22.7896L69.4495 26.8165L70.0923 32.5732L76.9834 29.1324C77.9287 28.6597 78.4958 29.2458 78.6849 30.8906L78.7794 31.7035C78.959 33.3483 78.5809 34.407 77.6356 34.8797L73.1267 37.1294L73.7695 42.8862L78.7511 40.4001C79.7058 39.9275 80.273 40.4662 80.4431 42.0165L80.6133 43.5762C80.6794 44.1717 80.6227 44.7011 80.4526 45.1548C80.273 45.6086 80.0083 45.93 79.6491 46.1096C78.8834 46.4877 78.061 46.9036 77.1725 47.3479C76.2744 47.7922 75.4237 48.2175 74.6202 48.624C73.6844 49.0967 72.7486 49.5598 71.8127 50.023L72.3988 55.2882C73.3913 55.0235 74.3933 54.6454 75.4048 54.135C76.2839 53.9554 77.2481 53.6056 78.2879 53.0857C79.3277 52.5658 80.3202 52.0743 81.2655 51.6016C82.8158 50.8265 83.8934 49.626 84.4795 48.019C85.0655 46.4026 85.2073 44.2663 84.9143 41.6006L84.867 41.1847C84.7441 40.0692 84.5551 39.124 84.2904 38.3583C84.0257 37.5832 83.7327 36.9687 83.4018 36.4961C83.071 36.0329 82.7118 35.7021 82.3242 35.5225C81.9367 35.3428 81.5585 35.2578 81.1899 35.2672C81.8516 34.5015 82.3526 33.4996 82.6645 32.2423C82.9859 31.004 83.0521 29.5483 82.8725 27.913C82.5889 25.4174 82.0217 23.7443 81.1521 22.8935C80.2919 22.0617 79.0819 22.0239 77.5317 22.7896Z" fill="white"/>
<path d="M62.0953 54.2761C61.15 54.7487 60.5829 54.1721 60.3938 52.5179L58.9192 39.3785C58.7396 37.7337 59.1177 36.675 60.0629 36.2024L62.6719 34.8979C63.6266 34.4253 64.1938 35.0113 64.3734 36.6561L65.848 49.7955C66.0371 51.4497 65.6495 52.499 64.6948 52.9811L62.0953 54.2761ZM62.9933 28.6685L58.4843 30.9183C56.8206 31.7501 55.6863 33.0073 55.0719 34.6805C54.4669 36.3536 54.3251 38.6318 54.6465 41.5054L56.1211 54.6448C56.4425 57.5279 57.0475 59.4278 57.9455 60.3542C58.8435 61.2806 60.1291 61.3279 61.7928 60.496L66.3112 58.2463C67.9749 57.4144 69.1093 56.1666 69.7142 54.4841C70.3192 52.8109 70.461 50.5328 70.1396 47.6497L68.665 34.5103C68.3436 31.6273 67.7386 29.7272 66.8406 28.8009C65.9331 27.8839 64.657 27.8367 62.9933 28.6685Z" fill="#0C517B"/>
<path d="M77.5317 21.8434L69.4496 25.8703L70.0923 31.627L76.9834 28.1862C77.9287 27.7135 78.4959 28.2996 78.6849 29.9444L78.7794 30.7573C78.959 32.4021 78.5809 33.4608 77.6357 33.9335L73.1267 36.1832L73.7695 41.94L78.7511 39.4539C79.7058 38.9813 80.273 39.5201 80.4431 41.0703L80.6133 42.63C80.6795 43.2255 80.6227 43.7549 80.4526 44.2086C80.273 44.6624 80.0083 44.9838 79.6491 45.1634C78.8834 45.5415 78.061 45.9574 77.1725 46.4017C76.2745 46.846 75.4237 47.2713 74.6202 47.6778C73.6844 48.1504 72.7486 48.6136 71.8127 49.0768L72.3988 54.342C73.3914 54.0773 74.3934 53.6992 75.4048 53.1888C76.2839 53.0092 77.2481 52.6594 78.2879 52.1395C79.3277 51.6196 80.3202 51.1281 81.2655 50.6554C82.8158 49.8803 83.8934 48.6798 84.4795 47.0728C85.0655 45.4564 85.2073 43.3201 84.9143 40.6544L84.867 40.2385C84.7441 39.123 84.5551 38.1778 84.2904 37.4121C84.0257 36.637 83.7327 36.0225 83.4019 35.5499C83.071 35.0867 82.7118 34.7559 82.3242 34.5763C81.9367 34.3967 81.5586 34.3116 81.1899 34.321C81.8516 33.5554 82.3526 32.5534 82.6645 31.2961C82.9859 30.0578 83.0521 28.6021 82.8725 26.9668C82.5889 24.4712 82.0218 22.7981 81.1521 21.9473C80.2919 21.1155 79.0819 21.0777 77.5317 21.8434Z" fill="#0C517B"/>
<defs>
<filter id="filter0_f_1_9114" x="9.64951" y="64.9841" width="81.7827" height="36.5186" filterUnits="userSpaceOnUse" color-interpolation-filters="sRGB">
<feFlood flood-opacity="0" result="BackgroundImageFix"/>
<feBlend mode="normal" in="SourceGraphic" in2="BackgroundImageFix" result="shape"/>
<feGaussianBlur stdDeviation="7.5" result="effect1_foregroundBlur_1_9114"/>
</filter>
</defs>
</svg>
