<svg width="97" height="111" viewBox="0 0 97 111" fill="none" xmlns="http://www.w3.org/2000/svg">
<path d="M21.3065 19.3199L89.083 32.6199L69.0147 92.8341L5.06668 84.147L21.3065 19.3199Z" fill="#E6E6E6"/>
<path d="M12.9976 0.329376L69.6859 12.3344L89.083 32.6201L21.3066 19.32L12.9976 0.329376Z" fill="#D9D9D9"/>
<path d="M21.3066 19.32L5.06669 84.1471L0 55.4485L12.9976 0.329346L21.3066 19.32Z" fill="#BFBFBF"/>
<g filter="url(#filter0_f_1_9095)">
<ellipse cx="56.0614" cy="92.4217" rx="25.9662" ry="2.59662" transform="rotate(-4.37224 56.0614 92.4217)" fill="black" fill-opacity="0.13"/>
</g>
<path d="M31.0146 65.4129C30.6176 65.3467 30.2773 65.2427 30.0031 65.0915C29.729 64.9402 29.5116 64.7417 29.3509 64.496C29.1902 64.2502 29.0957 63.9666 29.0578 63.6263C29.02 63.2955 29.0484 62.9079 29.124 62.4825L31.8181 48.7949C31.9031 48.3601 32.026 47.9914 32.1962 47.6889C32.3569 47.3864 32.5648 47.1407 32.8106 46.9516C33.0564 46.772 33.34 46.6491 33.6614 46.5924C33.9827 46.5357 34.342 46.5357 34.739 46.6019L39.1251 47.3203C39.5221 47.3864 39.8624 47.4999 40.146 47.6511C40.4201 47.8024 40.6375 48.0103 40.7982 48.2561C40.9589 48.5019 41.0534 48.7949 41.0818 49.1352C41.1196 49.4755 41.0912 49.8631 41.0062 50.2884L38.2743 63.9382C38.1892 64.3636 38.0663 64.7228 37.9056 65.0253C37.7449 65.3278 37.5464 65.5736 37.3007 65.7532C37.0643 65.9328 36.7808 66.0557 36.4594 66.1124C36.138 66.1691 35.7788 66.1691 35.3818 66.1029L31.0146 65.4129ZM41.9325 41.5541L34.323 40.2969C33.6235 40.1834 32.9618 40.1172 32.338 40.0983C31.7141 40.0794 31.128 40.1172 30.5892 40.2023C30.0409 40.2874 29.5399 40.4292 29.0768 40.6182C28.6136 40.8073 28.1882 41.0436 27.8006 41.3366C27.4131 41.6297 27.0633 41.97 26.7325 42.3859C26.4111 42.7924 26.1086 43.2556 25.8439 43.7849C25.5792 44.3048 25.3429 44.8909 25.1349 45.5337C24.927 46.1765 24.7474 46.8665 24.6056 47.6228L21.9494 61.3387C21.8076 62.0855 21.713 62.785 21.6658 63.4372C21.6185 64.0895 21.628 64.7039 21.6752 65.2711C21.7319 65.8383 21.8265 66.3581 21.9872 66.8308C22.1384 67.3034 22.3369 67.7382 22.5922 68.1258C22.8474 68.5134 23.1499 68.8631 23.5091 69.1751C23.8683 69.487 24.2936 69.7706 24.7663 70.0164C25.2389 70.2621 25.7683 70.4796 26.3544 70.6592C26.9404 70.8388 27.5738 70.9806 28.2733 71.094L35.7882 72.2756C36.4783 72.389 37.1305 72.4457 37.7449 72.4552C38.3594 72.4646 38.936 72.4268 39.4654 72.3418C40.0042 72.2567 40.4957 72.1149 40.9494 71.9353C41.4032 71.7462 41.8286 71.5194 42.2067 71.2263C42.5848 70.9427 42.9345 70.6025 43.2559 70.2054C43.5773 69.8084 43.8703 69.3547 44.135 68.8442C44.3997 68.3338 44.636 67.7666 44.844 67.1427C45.0519 66.5188 45.2316 65.8382 45.3828 65.0915L48.143 51.4795C48.2942 50.7327 48.3982 50.0238 48.4549 49.3621C48.5117 48.7004 48.5117 48.0859 48.4644 47.5093C48.4171 46.9421 48.3226 46.4128 48.1714 45.9307C48.0296 45.4486 47.8311 45.0138 47.5853 44.6168C47.3395 44.2197 47.037 43.87 46.6778 43.5391C46.3186 43.2178 45.9027 42.9247 45.4301 42.6695C44.9574 42.4143 44.4281 42.1969 43.842 42.0078C43.2654 41.8282 42.632 41.6769 41.9325 41.5541Z" fill="white"/>
<path d="M65.6495 45.9306L52.9923 43.8321L51.7634 49.8441L62.8231 51.659C63.2202 51.7252 63.551 51.8291 63.8251 51.9898C64.0993 52.1411 64.3072 52.349 64.4679 52.5948C64.6192 52.8406 64.7137 53.1336 64.7421 53.4645C64.7704 53.7953 64.7421 54.1829 64.657 54.6083L64.2127 56.7351L47.7649 65.4695L46.1295 73.4855L67.2565 76.8128L68.5043 70.9521L55.4027 68.863L65.1958 63.6735C65.3943 63.5695 65.5834 63.4655 65.7819 63.3615C65.9709 63.2576 66.16 63.1441 66.349 63.0401C66.5286 62.9362 66.7177 62.8227 66.8878 62.7093C67.0674 62.5959 67.2376 62.4919 67.4172 62.3784C67.5873 62.265 67.7575 62.1516 67.9182 62.0382C68.0789 61.9247 68.2396 61.8018 68.4003 61.6789C68.5515 61.5561 68.7028 61.4237 68.854 61.2914C68.9958 61.159 69.1376 61.0267 69.2794 60.8849C69.4212 60.7431 69.5441 60.6013 69.6764 60.4595C69.7993 60.3083 69.9222 60.1665 70.0451 60.0058C70.1585 59.8546 70.2719 59.6939 70.3854 59.5237C70.4893 59.363 70.5933 59.1834 70.6973 59.0133C70.7918 58.8431 70.8864 58.6541 70.9714 58.4745C71.0565 58.2854 71.1321 58.0963 71.2078 57.8978C71.2834 57.6993 71.3496 57.4914 71.4063 57.2834C71.463 57.066 71.5197 56.8486 71.567 56.6217L71.7466 55.771C71.9073 55.0242 72.0112 54.3341 72.068 53.6724C72.1247 53.0202 72.1341 52.4058 72.0963 51.8386C72.0585 51.2714 71.964 50.7515 71.8222 50.2694C71.6804 49.7873 71.4913 49.362 71.255 48.965C71.0187 48.5774 70.7162 48.2182 70.3665 47.8968C70.0167 47.5754 69.6102 47.2918 69.1376 47.0366C68.6744 46.7814 68.1545 46.5639 67.5779 46.3843C66.9729 46.1953 66.3396 46.044 65.6495 45.9306Z" fill="white"/>
<path d="M31.0146 64.4669C30.6176 64.4007 30.2773 64.2967 30.0031 64.1455C29.729 63.9942 29.5116 63.7957 29.3509 63.5499C29.1902 63.3042 29.0957 63.0206 29.0578 62.6803C29.02 62.3494 29.0484 61.9619 29.124 61.5365L31.8181 47.8489C31.9031 47.414 32.026 47.0454 32.1962 46.7429C32.3569 46.4404 32.5648 46.1946 32.8106 46.0056C33.0564 45.826 33.34 45.7031 33.6614 45.6464C33.9827 45.5897 34.342 45.5897 34.739 45.6558L39.1251 46.3742C39.5221 46.4404 39.8624 46.5539 40.146 46.7051C40.4201 46.8563 40.6375 47.0643 40.7982 47.3101C40.9589 47.5558 41.0534 47.8489 41.0818 48.1892C41.1196 48.5295 41.0912 48.917 41.0062 49.3424L38.2743 62.9922C38.1892 63.4176 38.0663 63.7768 37.9056 64.0793C37.7449 64.3818 37.5464 64.6276 37.3007 64.8072C37.0643 64.9868 36.7808 65.1097 36.4594 65.1664C36.138 65.2231 35.7788 65.2231 35.3818 65.1569L31.0146 64.4669ZM41.9325 40.608L34.323 39.3508C33.6235 39.2374 32.9618 39.1712 32.338 39.1523C31.7141 39.1334 31.128 39.1712 30.5892 39.2563C30.0409 39.3414 29.5399 39.4832 29.0768 39.6722C28.6136 39.8613 28.1882 40.0976 27.8006 40.3906C27.4131 40.6837 27.0633 41.024 26.7325 41.4399C26.4111 41.8464 26.1086 42.3095 25.8439 42.8389C25.5792 43.3588 25.3429 43.9449 25.1349 44.5877C24.927 45.2305 24.7474 45.9205 24.6056 46.6767L21.9494 60.3927C21.8076 61.1395 21.713 61.839 21.6658 62.4912C21.6185 63.1435 21.628 63.7579 21.6752 64.3251C21.7319 64.8922 21.8265 65.4121 21.9872 65.8848C22.1384 66.3574 22.3369 66.7922 22.5922 67.1798C22.8474 67.5674 23.1499 67.9171 23.5091 68.2291C23.8683 68.541 24.2936 68.8246 24.7663 69.0704C25.2389 69.3161 25.7683 69.5335 26.3544 69.7132C26.9404 69.8928 27.5738 70.0345 28.2733 70.148L35.7882 71.3296C36.4783 71.443 37.1305 71.4997 37.7449 71.5092C38.3594 71.5186 38.936 71.4808 39.4654 71.3957C40.0042 71.3107 40.4957 71.1689 40.9494 70.9893C41.4032 70.8002 41.8286 70.5733 42.2067 70.2803C42.5848 69.9967 42.9345 69.6564 43.2559 69.2594C43.5773 68.8624 43.8703 68.4087 44.135 67.8982C44.3997 67.3878 44.636 66.8206 44.844 66.1967C45.0519 65.5728 45.2316 64.8922 45.3828 64.1455L48.143 50.5335C48.2942 49.7867 48.3982 49.0777 48.4549 48.416C48.5117 47.7544 48.5117 47.1399 48.4644 46.5633C48.4171 45.9961 48.3226 45.4668 48.1714 44.9847C48.0296 44.5026 47.8311 44.0678 47.5853 43.6707C47.3395 43.2737 47.037 42.924 46.6778 42.5931C46.3186 42.2717 45.9027 41.9787 45.4301 41.7235C44.9574 41.4683 44.4281 41.2508 43.842 41.0618C43.2654 40.8822 42.632 40.7309 41.9325 40.608Z" fill="#FFC213"/>
<path d="M65.6495 44.9846L52.9923 42.8861L51.7634 48.8981L62.8231 50.713C63.2202 50.7792 63.551 50.8832 63.8251 51.0439C64.0993 51.1951 64.3072 51.4031 64.4679 51.6488C64.6192 51.8946 64.7137 52.1876 64.7421 52.5185C64.7704 52.8493 64.7421 53.2369 64.657 53.6623L64.2127 55.7892L47.7649 64.5235L46.1295 72.5395L67.2565 75.8668L68.5043 70.0061L55.4027 67.9171L65.1958 62.7275C65.3943 62.6235 65.5834 62.5195 65.7819 62.4156C65.9709 62.3116 66.16 62.1981 66.349 62.0942C66.5286 61.9902 66.7177 61.8767 66.8878 61.7633C67.0674 61.6499 67.2376 61.5459 67.4172 61.4325C67.5873 61.319 67.7575 61.2056 67.9182 61.0922C68.0789 60.9787 68.2396 60.8558 68.4003 60.733C68.5515 60.6101 68.7028 60.4777 68.854 60.3454C68.9958 60.2131 69.1376 60.0807 69.2794 59.9389C69.4212 59.7971 69.5441 59.6553 69.6764 59.5135C69.7993 59.3623 69.9222 59.2205 70.0451 59.0598C70.1585 58.9086 70.2719 58.7479 70.3854 58.5777C70.4893 58.417 70.5933 58.2374 70.6973 58.0673C70.7918 57.8971 70.8864 57.7081 70.9714 57.5285C71.0565 57.3394 71.1321 57.1504 71.2078 56.9518C71.2834 56.7533 71.3496 56.5454 71.4063 56.3374C71.463 56.12 71.5197 55.9026 71.567 55.6757L71.7466 54.825C71.9073 54.0782 72.0112 53.3881 72.068 52.7265C72.1247 52.0742 72.1341 51.4598 72.0963 50.8926C72.0585 50.3254 71.964 49.8055 71.8222 49.3234C71.6804 48.8414 71.4913 48.416 71.255 48.019C71.0187 47.6314 70.7162 47.2722 70.3665 46.9508C70.0167 46.6294 69.6102 46.3458 69.1376 46.0906C68.6744 45.8354 68.1545 45.618 67.5779 45.4384C66.9729 45.2493 66.3396 45.0981 65.6495 44.9846Z" fill="#FFC213"/>
<defs>
<filter id="filter0_f_1_9095" x="15.17" y="74.1624" width="81.7827" height="36.5186" filterUnits="userSpaceOnUse" color-interpolation-filters="sRGB">
<feFlood flood-opacity="0" result="BackgroundImageFix"/>
<feBlend mode="normal" in="SourceGraphic" in2="BackgroundImageFix" result="shape"/>
<feGaussianBlur stdDeviation="7.5" result="effect1_foregroundBlur_1_9095"/>
</filter>
</defs>
</svg>
