<svg width="63" height="57" viewBox="0 0 63 57" fill="none" xmlns="http://www.w3.org/2000/svg">
<rect x="0.0212902" y="0.352912" width="39.8741" height="39.8741" transform="matrix(-0.663243 0.748404 0.748404 0.663243 26.5491 0.102912)" stroke="black" stroke-opacity="0.14" stroke-width="0.5"/>
<rect width="30.7701" height="30.7701" transform="matrix(-0.663243 0.748404 0.748404 0.663243 27.353 7.12244)" fill="#FFBD03"/>
<rect width="19.2923" height="19.2923" transform="matrix(-0.663243 0.748404 0.748404 0.663243 48.0785 15.2682)" fill="#EDBE38"/>
<path d="M32.7986 24.393C31.5908 24.8434 29.6044 24.5677 29.4847 24.2807C29.348 23.9532 30.4288 22.6836 31.6366 22.2332C32.8445 21.7828 33.5377 22.0532 33.8585 22.6496C34.1794 23.246 34.0063 23.9425 32.7986 24.393V24.393Z" fill="white"/>
<path d="M22.2223 24.3372C23.4292 24.7896 25.4046 24.5381 25.5211 24.2584C25.6542 23.9389 24.566 22.6855 23.359 22.2331C22.1521 21.7807 21.4645 22.039 21.1506 22.62C20.8365 23.2011 21.0154 23.8848 22.2222 24.3372L22.2223 24.3372Z" fill="white"/>
<path d="M27.7486 24.6188H27.2475C26.8902 24.6188 26.5977 24.3263 26.5977 23.969C26.5977 23.6117 26.8902 23.3192 27.2475 23.3192H27.7486C28.1059 23.3192 28.3984 23.6117 28.3984 23.969C28.3984 24.3263 28.1059 24.6188 27.7486 24.6188Z" fill="white"/>
<path d="M25.5578 28.6517V25.6814H21V28.6517H25.5578Z" fill="white"/>
<path d="M26.5975 25.6814H28.3981V35.0196H26.5975V25.6814Z" fill="white"/>
<path d="M29.438 29.6914H33.2486V35.0197H29.438V29.6914Z" fill="white"/>
<path d="M21.7473 29.6914H25.5578V35.0197H21.7473V29.6914Z" fill="white"/>
<path d="M29.438 28.6517H33.9958V25.6814H29.438V28.6517Z" fill="white"/>
</svg>
