<svg width="11" height="14" viewBox="0 0 11 14" fill="none" xmlns="http://www.w3.org/2000/svg">
<path d="M9.30769 1.64707C9.27547 1.19922 9.06971 0.780008 8.73198 0.474154C8.39424 0.168418 7.94968 -0.00114128 7.48849 5.78208e-06H1.83195C1.34868 -0.0011431 0.884624 0.184174 0.541236 0.515184C0.19797 0.846303 0.00329396 1.2961 0 1.76645V10.5865C0 11.0347 0.174589 11.4663 0.488714 11.7941C0.802728 12.122 1.23288 12.3217 1.69231 12.3529C1.72453 12.8008 1.93029 13.22 2.26802 13.5258C2.60576 13.8316 3.05032 14.0011 3.51151 14H9.16805C9.65132 14.0011 10.1154 13.8158 10.4588 13.4848C10.802 13.1537 10.9967 12.7039 11 12.2335V3.41352C11 2.96534 10.8254 2.53369 10.5113 2.2059C10.1973 1.87801 9.76712 1.67831 9.30769 1.64707ZM5.42808 8.89004C5.42914 8.81789 5.4596 8.74918 5.51283 8.69897C5.56596 8.64877 5.63749 8.62119 5.71151 8.62234H7.85651L5.42807 10.957L5.42808 8.89004ZM4.23074 7.41174H2.53843C2.30482 7.41174 2.11535 7.22734 2.11535 6.99997C2.11535 6.7726 2.30482 6.5882 2.53843 6.5882H4.23074C4.46435 6.5882 4.65382 6.7726 4.65382 6.99997C4.65382 7.22734 4.46435 7.41174 4.23074 7.41174ZM2.53843 5.35291C2.30482 5.35291 2.11535 5.16851 2.11535 4.94114C2.11535 4.71377 2.30482 4.52937 2.53843 4.52937H5.49997C5.73358 4.52937 5.92305 4.71377 5.92305 4.94114C5.92305 5.16851 5.73358 5.35291 5.49997 5.35291H2.53843ZM2.53843 3.29408C2.30482 3.29408 2.11535 3.10968 2.11535 2.88231C2.11535 2.65494 2.30482 2.47054 2.53843 2.47054H7.61535C7.84897 2.47054 8.03843 2.65494 8.03843 2.88231C8.03843 3.10968 7.84897 3.29408 7.61535 3.29408H2.53843ZM10.1538 12.2335C10.1505 12.4854 10.045 12.7258 9.86035 12.9024C9.67573 13.0791 9.42688 13.1776 9.16802 13.1764H3.52417C3.28489 13.1796 3.0528 13.0977 2.87127 12.9461C2.68974 12.7944 2.57132 12.5835 2.53837 12.3529H4.99219C5.10469 12.3536 5.2127 12.3106 5.29262 12.2335L9.168 8.50291C9.24485 8.42329 9.28994 8.31955 9.2949 8.21052V2.4705C9.52757 2.50025 9.74134 2.61089 9.89682 2.78185C10.0523 2.95281 10.139 3.17271 10.1411 3.40112L10.1538 12.2335Z" fill="#314F61"/>
</svg>
