<svg width="13" height="11" viewBox="0 0 13 11" fill="none" xmlns="http://www.w3.org/2000/svg">
<path d="M6.70007 0C6.58401 0 6.49007 0.0939384 6.49007 0.21V1.08871C5.83288 1.32384 5.99478 2.30352 6.70007 2.31C7.40545 2.30344 7.56716 1.32374 6.91007 1.08871V0.21C6.91007 0.0939384 6.81613 0 6.70007 0Z" fill="#314F61"/>
<path d="M8.58996 0C8.4739 0 8.37996 0.0939384 8.37996 0.21V1.08871C7.72277 1.32384 7.88467 2.30352 8.58996 2.31C9.29534 2.30344 9.45706 1.32374 8.79996 1.08871V0.21C8.79996 0.0939384 8.70602 0 8.58996 0Z" fill="#314F61"/>
<path d="M10.4801 0C10.364 0 10.2701 0.0939384 10.2701 0.21V1.08871C9.61291 1.32384 9.77481 2.30352 10.4801 2.31C11.1855 2.30344 11.3472 1.32374 10.6901 1.08871V0.21C10.6901 0.0939384 10.5962 0 10.4801 0Z" fill="#314F61"/>
<path d="M2.92004 0C2.80398 0 2.71004 0.0939384 2.71004 0.21V1.08871C2.05285 1.32384 2.21475 2.30352 2.92004 2.31C3.62542 2.30344 3.78714 1.32374 3.13004 1.08871V0.21C3.13004 0.0939384 3.0361 0 2.92004 0Z" fill="#314F61"/>
<path d="M5.86454 1.05C5.92322 0.972566 5.99138 0.90216 6.06994 0.843098V0.630005H5.43994V0.843098C5.5185 0.90216 5.58657 0.97266 5.64535 1.05H5.86463H5.86454Z" fill="#314F61"/>
<path d="M7.75443 1.05C7.81311 0.972566 7.88127 0.90216 7.95983 0.843098V0.630005H7.32983V0.843098C7.4084 0.90216 7.47646 0.97266 7.53524 1.05H7.75452H7.75443Z" fill="#314F61"/>
<path d="M3.9744 1.05C4.03309 0.972566 4.10124 0.90216 4.1798 0.843098V0.630005H3.5498V0.843098C3.62837 0.90216 3.69643 0.97266 3.75521 1.05H3.97449H3.9744Z" fill="#314F61"/>
<path d="M11.7399 0.630005H11.1099V0.843098C11.1885 0.90216 11.2565 0.97266 11.3153 1.05H11.7399C12.2032 1.05 12.5799 1.42668 12.5799 1.89V2.73001H0.819912V1.89C0.819912 1.42668 1.19659 1.05 1.65991 1.05H2.0845C2.14318 0.972567 2.21134 0.90216 2.2899 0.843098V0.630005H1.6599C0.965127 0.630005 0.399902 1.19523 0.399902 1.89V9.24001C0.399902 9.93478 0.965127 10.5 1.6599 10.5H11.7399C12.4347 10.5 12.9999 9.93478 12.9999 9.24001V1.89C12.9999 1.19523 12.4347 0.630005 11.7399 0.630005H11.7399ZM12.5799 8.19001C12.5799 8.65333 12.2032 9.03001 11.7399 9.03001H1.65992C1.1966 9.03001 0.819922 8.65333 0.819922 8.19001V3.15001H12.5799V8.19001Z" fill="#314F61"/>
<path d="M9.64456 1.05C9.70325 0.972566 9.77141 0.90216 9.84997 0.843098V0.630005H9.21997V0.843098C9.29853 0.90216 9.3666 0.97266 9.42538 1.05H9.64466H9.64456Z" fill="#314F61"/>
<path d="M4.80993 0C4.69387 0 4.59993 0.0939384 4.59993 0.21V1.08871C3.94274 1.32384 4.10464 2.30352 4.80993 2.31C5.51532 2.30344 5.67703 1.32374 5.01993 1.08871V0.21C5.01993 0.0939384 4.92599 0 4.80993 0Z" fill="#314F61"/>
<path d="M2.07991 3.78003H2.49991C2.73185 3.78003 2.91991 4.01197 2.91991 4.20003V4.62003C2.91991 4.85197 2.73185 5.04003 2.49991 5.04003H2.07991C1.84797 5.04003 1.65991 4.80809 1.65991 4.62003V4.20003C1.65991 3.96809 1.84797 3.78003 2.07991 3.78003Z" fill="#314F61"/>
<path d="M3.9698 3.78003H4.3898C4.62174 3.78003 4.8098 4.01197 4.8098 4.20003V4.62003C4.8098 4.85197 4.62174 5.04003 4.3898 5.04003H3.9698C3.73787 5.04003 3.5498 4.80809 3.5498 4.62003V4.20003C3.5498 3.96809 3.73787 3.78003 3.9698 3.78003Z" fill="#314F61"/>
<path d="M2.07991 5.88H2.49991C2.73185 5.88 2.91991 6.11194 2.91991 6.3V6.72C2.91991 6.95194 2.73185 7.14 2.49991 7.14H2.07991C1.84797 7.14 1.65991 6.90807 1.65991 6.72V6.3C1.65991 6.06807 1.84797 5.88 2.07991 5.88Z" fill="#314F61"/>
<path d="M3.9698 5.88H4.3898C4.62174 5.88 4.8098 6.11194 4.8098 6.3V6.72C4.8098 6.95194 4.62174 7.14 4.3898 7.14H3.9698C3.73787 7.14 3.5498 6.90807 3.5498 6.72V6.3C3.5498 6.06807 3.73787 5.88 3.9698 5.88Z" fill="#314F61"/>
<path d="M5.85994 3.78003H6.27994C6.51188 3.78003 6.69994 4.01197 6.69994 4.20003V4.62003C6.69994 4.85197 6.51188 5.04003 6.27994 5.04003H5.85994C5.628 5.04003 5.43994 4.80809 5.43994 4.62003V4.20003C5.43994 3.96809 5.628 3.78003 5.85994 3.78003Z" fill="#314F61"/>
<path d="M9.26634 7.83163C9.25649 7.72578 9.2368 7.62219 9.20859 7.5214C9.03093 7.55515 8.93391 7.30381 9.0854 7.20679C9.02849 7.09429 8.95977 6.98751 8.87868 6.8885C8.71509 7.06016 8.463 6.81237 8.62546 6.64682C8.53264 6.56019 8.42624 6.49176 8.3141 6.43495C8.21717 6.5857 7.96759 6.48885 7.99975 6.31167C7.8986 6.28326 7.79453 6.26338 7.68823 6.25354C7.75151 7.07048 8.44958 7.7678 9.26623 7.83164L9.26634 7.83163Z" fill="#314F61"/>
<path d="M9.84519 4.7863C9.86413 4.85952 9.8331 4.93264 9.77441 4.97324C9.83132 5.08574 9.90004 5.19252 9.98113 5.29143C10.1479 5.12155 10.3959 5.36755 10.2344 5.53311C10.3275 5.61992 10.4342 5.68864 10.5467 5.74555C10.6452 5.59442 10.8896 5.68873 10.8601 5.86827C10.9614 5.89667 11.0656 5.91655 11.1721 5.92648C11.1075 5.1102 10.4136 4.41561 9.5979 4.34839C9.60343 4.45461 9.6234 4.55876 9.65171 4.66C9.73825 4.64847 9.82253 4.69938 9.84521 4.78629L9.84519 4.7863Z" fill="#314F61"/>
<path d="M8.08709 5.96137C8.17024 5.71189 8.51561 5.85374 8.4139 6.09524C8.5803 6.17315 8.73696 6.27215 8.87954 6.39308C9.05204 6.1918 9.32822 6.46836 9.12696 6.64057C9.2479 6.78316 9.3469 6.93983 9.4248 7.10622C9.67493 7.00206 9.80832 7.36535 9.54724 7.43603C9.5823 7.56353 9.60593 7.69467 9.61652 7.82883C10.3974 7.76743 11.1078 7.06993 11.1704 6.27596C11.0358 6.26537 10.9042 6.24202 10.7762 6.20687C10.7049 6.469 10.3426 6.33399 10.4463 6.08471C10.2799 6.00681 10.1232 5.90781 9.98055 5.78687C9.80805 5.98815 9.53187 5.71159 9.73314 5.53939C9.6122 5.39679 9.5132 5.24013 9.4353 5.07374C9.1862 5.17771 9.0511 4.81519 9.31286 4.74393C9.2777 4.61596 9.25408 4.48425 9.24348 4.34961C8.44961 4.41242 7.75219 5.12323 7.69116 5.90409C7.82522 5.91468 7.95639 5.93803 8.08387 5.97309L8.08697 5.96128L8.08709 5.96137Z" fill="#314F61"/>
<path d="M9.43003 8.60908C11.6513 8.61714 12.7987 5.89108 11.2121 4.3078C10.2749 3.33215 8.587 3.32886 7.64788 4.3078C6.06136 5.88712 7.21636 8.62396 9.42998 8.60908H9.43003ZM10.4182 4.2358C12.3216 5.27548 11.6168 8.14324 9.46096 8.18764C8.31638 8.23001 7.31051 7.23186 7.33087 6.08819C7.31333 4.53232 9.03815 3.48299 10.4182 4.23587L10.4182 4.2358Z" fill="#314F61"/>
</svg>
