<svg width="12" height="12" viewBox="0 0 12 12" fill="none" xmlns="http://www.w3.org/2000/svg">
<path d="M10.3477 8.38854V7.7111C10.3477 5.77499 9.05184 4.1097 7.27014 3.55579C7.282 3.50603 7.30298 3.45879 7.30298 3.40665C7.30298 3.07463 7.0499 2.78881 6.71359 2.74194C6.46514 2.70679 6.20812 2.68921 5.94977 2.68921C5.69142 2.68921 5.43472 2.70679 5.18627 2.74194C4.84995 2.78881 4.59656 3.07461 4.59656 3.40665C4.59656 3.45879 4.61754 3.50601 4.6294 3.55579C2.84766 4.10965 1.55185 5.77494 1.55185 7.7111V8.3885C1.09539 8.72059 0.875244 9.21056 0.875244 9.7111C0.875244 10.6314 1.63085 11.3778 2.56675 11.3778H9.33279C10.2668 11.3778 11.0243 10.6333 11.0243 9.7111C11.0243 9.21432 10.8082 8.7235 10.3477 8.38854ZM5.94977 7.37776C6.50941 7.37776 6.96467 7.82634 6.96467 8.37776C6.96467 8.81176 6.681 9.1783 6.28807 9.31636V10.0444H5.61147V9.31636C5.21854 9.1783 4.93486 8.81176 4.93486 8.37776H5.61147C5.61147 8.56168 5.76312 8.7111 5.94977 8.7111C6.13642 8.7111 6.28807 8.56168 6.28807 8.37776C6.28807 8.19385 6.13642 8.04443 5.94977 8.04443C5.39013 8.04443 4.93486 7.59585 4.93486 7.04443C4.93486 6.61043 5.21854 6.2439 5.61147 6.10583V5.37776H6.28807V6.10583C6.681 6.2439 6.96467 6.61043 6.96467 7.04443H6.28807C6.28807 6.86052 6.13642 6.7111 5.94977 6.7111C5.76312 6.7111 5.61147 6.86052 5.61147 7.04443C5.61147 7.22834 5.76312 7.37776 5.94977 7.37776Z" fill="#B9C5D6"/>
<path d="M4.2583 0V0.333333C4.2583 1.00493 4.53027 1.64718 4.99205 2.10502C5.27812 2.04293 5.66886 2.02256 5.94981 2.02256C6.23186 2.02256 6.61895 2.04269 6.90761 2.10496C7.36935 1.64713 7.64132 1.00489 7.64132 0.333333V0H4.2583Z" fill="#B9C5D6"/>
</svg>
