<svg width="13" height="10" viewBox="0 0 13 10" fill="none" xmlns="http://www.w3.org/2000/svg">
<path d="M1.95477 3.75006H1.19358C0.983494 3.75006 0.812988 3.91806 0.812988 4.12506V9.37511C0.812988 9.58211 0.983494 9.75011 1.19358 9.75011H1.95477C2.16485 9.75011 2.33536 9.58211 2.33536 9.37511V4.12506C2.33536 3.91806 2.16485 3.75006 1.95477 3.75006Z" fill="#B9C5D6"/>
<path d="M12.7513 4.55926C12.3646 4.06801 11.6461 3.98026 11.1498 4.36201L8.34253 6.51303C8.14157 6.66678 7.89495 6.75003 7.64147 6.75003H4.9994C6.0506 6.75003 6.90236 5.91077 6.90236 4.87502C6.90236 4.66801 6.73186 4.50001 6.52177 4.50001H3.09644V6.75003V9.00005H8.16289C8.5861 9.00005 8.99714 8.8613 9.3313 8.6048L12.5511 6.13728C13.0489 5.75627 13.138 5.04977 12.7513 4.55926Z" fill="#B9C5D6"/>
<path d="M7.66351 4.50002C8.29409 4.50002 8.80529 3.99634 8.80529 3.37501C8.80529 2.75368 8.29409 2.25 7.66351 2.25C7.03292 2.25 6.52173 2.75368 6.52173 3.37501C6.52173 3.99634 7.03292 4.50002 7.66351 4.50002Z" fill="#B9C5D6"/>
<path d="M11.4695 0H3.85762C3.43821 0 3.09644 0.336753 3.09644 0.750007V3.75003H3.85762V2.21177C4.60206 2.06252 5.1897 1.48351 5.34117 0.750007H9.98517C10.1374 1.48351 10.725 2.06252 11.4695 2.21177V3.42003C11.6712 3.37953 11.8782 3.36303 12.086 3.38853C12.1355 3.39453 12.1819 3.41103 12.2307 3.42078V0.750007C12.2307 0.336753 11.8897 0 11.4695 0Z" fill="#B9C5D6"/>
</svg>
