<svg width="12" height="12" viewBox="0 0 12 12" fill="none" xmlns="http://www.w3.org/2000/svg">
<path d="M7.60456 9.41407C7.82964 9.41407 8.0121 9.23429 8.0121 9.01252C8.0121 8.79074 7.82964 8.61096 7.60456 8.61096C7.37948 8.61096 7.19702 8.79074 7.19702 9.01252C7.19702 9.23429 7.37948 9.41407 7.60456 9.41407Z" fill="#B9C5D6"/>
<path d="M4.54719 6.40156C4.77227 6.40156 4.95473 6.22178 4.95473 6C4.95473 5.77823 4.77227 5.59845 4.54719 5.59845C4.32211 5.59845 4.13965 5.77823 4.13965 6C4.13965 6.22178 4.32211 6.40156 4.54719 6.40156Z" fill="#B9C5D6"/>
<path d="M5.31146 0C5.15251 0 5.01298 0.103758 4.9689 0.254227C4.92482 0.404695 4.98734 0.565922 5.12185 0.649359C5.13546 0.657797 6.48336 1.50689 6.48336 2.61091C6.48336 3.14379 6.04335 3.57731 5.50253 3.57731C4.96172 3.57731 4.52173 3.14379 4.52173 2.61091C4.52173 2.18679 4.75263 1.96118 4.77932 1.93655C4.91605 1.82831 4.9484 1.64142 4.86107 1.49123C4.7733 1.34032 4.58236 1.27877 4.41781 1.34187C4.32525 1.3773 0.750732 2.79023 0.750732 6.75312C0.750732 9.64627 3.13955 12 6.0758 12C9.01205 12 11.4009 9.64627 11.4009 6.75312C11.4009 2.43485 7.06688 0 5.31146 0V0ZM3.42594 6C3.42594 5.39088 3.92889 4.89532 4.54709 4.89532C5.16529 4.89532 5.66823 5.39088 5.66823 6C5.66823 6.60912 5.16529 7.10468 4.54709 7.10468C3.92889 7.10468 3.42594 6.60912 3.42594 6ZM4.82573 9.6087C4.70874 9.75279 4.48539 9.79064 4.32423 9.66359C4.17035 9.5423 4.1454 9.32107 4.26852 9.16945L7.32591 5.40382C7.44901 5.25223 7.67351 5.22762 7.82741 5.34893C7.98129 5.47022 8.00624 5.69145 7.88312 5.84306L4.82573 9.6087ZM7.60451 10.1172C6.98631 10.1172 6.48336 9.62163 6.48336 9.01252C6.48336 8.4034 6.98631 7.90784 7.60451 7.90784C8.2227 7.90784 8.72565 8.4034 8.72565 9.01252C8.72565 9.62163 8.2227 10.1172 7.60451 10.1172Z" fill="#B9C5D6"/>
</svg>
