<svg width="13" height="12" viewBox="0 0 13 12" fill="none" xmlns="http://www.w3.org/2000/svg">
<path d="M6.96535 0.351562C6.96535 0.157406 6.80395 0 6.60487 0C6.40578 0 6.24438 0.157406 6.24438 0.351562V0.937547H6.96535V0.351562Z" fill="#B9C5D6"/>
<path d="M4.56178 0.351562C4.56178 0.157406 4.40038 0 4.2013 0C4.00222 0 3.84082 0.157406 3.84082 0.351562V0.937547H4.56178V0.351562Z" fill="#B9C5D6"/>
<path d="M9.36842 0.351562C9.36842 0.157406 9.20702 0 9.00794 0C8.80886 0 8.64746 0.157406 8.64746 0.351562V0.937547H9.36842V0.351562Z" fill="#B9C5D6"/>
<path d="M11.3149 0.937561H9.36845V1.52338C9.36845 1.71753 9.20705 1.87494 9.00797 1.87494C8.80889 1.87494 8.64749 1.71753 8.64749 1.52338V0.937561H6.96514V1.52338C6.96514 1.71753 6.80374 1.87494 6.60466 1.87494C6.40558 1.87494 6.24418 1.71753 6.24418 1.52338V0.937561H4.56182V1.52338C4.56182 1.71753 4.40043 1.87494 4.20135 1.87494C4.00226 1.87494 3.84087 1.71753 3.84087 1.52338V0.937561H1.89442C1.29812 0.937561 0.812988 1.41069 0.812988 1.99224V3.16423H12.3963V1.99224C12.3963 1.41067 11.9112 0.937561 11.3149 0.937561Z" fill="#B9C5D6"/>
<path d="M6.6047 5.62518C4.80257 5.62518 3.33643 7.05505 3.33643 8.81257C3.33643 10.5701 4.80257 12 6.6047 12C8.40683 12 9.87296 10.5701 9.87296 8.81257C9.87296 7.05505 8.40683 5.62518 6.6047 5.62518ZM6.9652 10.4159V10.5939C6.9652 10.7881 6.8038 10.9454 6.60472 10.9454C6.40564 10.9454 6.24424 10.7881 6.24424 10.5939V10.3793C5.88333 10.2688 5.55085 10.0531 5.45453 9.91905C5.34026 9.76007 5.37979 9.54082 5.5428 9.42937C5.69626 9.32449 5.90445 9.35247 6.02365 9.48872C6.10933 9.5606 6.43811 9.74636 6.66735 9.74636C6.90541 9.74636 7.0725 9.61071 7.09651 9.47955C7.12816 9.30665 6.85554 9.19425 6.77121 9.16392C6.3619 9.01669 5.99832 8.85884 5.98304 8.85218C5.96569 8.84466 5.94896 8.83575 5.93305 8.82563C5.31694 8.43389 5.42749 7.50008 6.20538 7.24459V7.03124C6.20538 6.83708 6.36678 6.67968 6.56586 6.67968C6.76494 6.67968 6.92634 6.83708 6.92634 7.03124V7.20329C7.1556 7.2497 7.37893 7.35256 7.58517 7.50962C7.76049 7.64262 7.77414 7.85893 7.66138 8.00529C7.54679 8.15403 7.3214 8.20114 7.14147 8.06379C6.98536 7.94492 6.73819 7.82112 6.44697 7.90672C6.24186 7.967 6.21586 8.1465 6.30958 8.22413C6.40622 8.26531 6.7027 8.38981 7.02074 8.5042C8.21916 8.93541 7.96046 10.1872 6.9652 10.4159Z" fill="#B9C5D6"/>
<path d="M0.812988 10.2421C0.812988 10.8236 1.29812 11.2968 1.89442 11.2968H3.53696C2.96183 10.6224 2.61545 9.75627 2.61545 8.81261C2.61545 6.66739 4.40502 4.9221 6.60468 4.9221C8.80435 4.9221 10.5939 6.66739 10.5939 8.81261C10.5939 9.75627 10.2475 10.6224 9.6724 11.2968H11.3149C11.9112 11.2968 12.3963 10.8236 12.3963 10.2421V3.86737H0.812988V10.2421Z" fill="#B9C5D6"/>
</svg>
