<svg width="14" height="12" viewBox="0 0 14 12" fill="none" xmlns="http://www.w3.org/2000/svg">
<path d="M11.8362 1.2H11.2273V0.6C11.2273 0.24 10.9837 0 10.6183 0C10.253 0 10.0094 0.24 10.0094 0.6V1.2H3.91996V0.6C3.91996 0.24 3.67638 0 3.31102 0C2.94565 0 2.70207 0.24 2.70207 0.6V1.2H1.48419C1.17972 1.2 0.875244 1.44 0.875244 1.8V10.2C0.875244 10.56 1.17972 10.8 1.48419 10.8H5.19874C4.77248 10.08 4.5289 9.24 4.5289 8.4C4.5289 5.76 6.7211 3.6 9.40045 3.6C10.5574 3.6 11.5926 4.02 12.4452 4.68V1.8C12.4452 1.5 12.1407 1.2 11.8362 1.2Z" fill="#B9C5D6"/>
<path d="M9.40061 4.79999C7.39109 4.79999 5.74695 6.41999 5.74695 8.39999C5.74695 10.38 7.39109 12 9.40061 12C11.4101 12 13.0543 10.38 13.0543 8.39999C13.0543 6.41999 11.4101 4.79999 9.40061 4.79999ZM10.6185 8.99999H9.40061C9.03524 8.99999 8.79166 8.75999 8.79166 8.39999V6.59999C8.79166 6.23999 9.03524 5.99999 9.40061 5.99999C9.76597 5.99999 10.0096 6.23999 10.0096 6.59999V7.79999H10.6185C10.9839 7.79999 11.2274 8.03999 11.2274 8.39999C11.2274 8.75999 10.9839 8.99999 10.6185 8.99999Z" fill="#B9C5D6"/>
</svg>
