<svg width="20" height="21" viewBox="0 0 20 21" fill="none" xmlns="http://www.w3.org/2000/svg">
<circle cx="10.2128" cy="10.6542" r="9.78679" fill="#FFBD00" fill-opacity="0.03"/>
<circle cx="10.2128" cy="10.6542" r="9.28679" stroke="#FFBD00" stroke-opacity="0.2" stroke-dasharray="2 2"/>
<mask id="path-3-inside-1_23_13009" fill="white">
<path d="M5.5362 7.56346C6.2182 6.3822 7.27367 5.46128 8.53646 4.94566C9.79925 4.43004 11.1977 4.34901 12.5115 4.7153C13.8254 5.0816 14.9802 5.87444 15.7941 6.96901C16.608 8.06358 17.0348 9.39774 17.0073 10.7615C16.9797 12.1252 16.4995 13.441 15.6421 14.5019C14.7848 15.5628 13.599 16.3084 12.2714 16.6214C10.9438 16.9344 9.54976 16.797 8.30879 16.2309C7.06783 15.6648 6.05036 14.702 5.41656 13.4942L5.81297 13.2862C6.40062 14.406 7.344 15.2987 8.4946 15.8236C9.6452 16.3485 10.9377 16.4759 12.1686 16.1856C13.3996 15.8954 14.499 15.2041 15.294 14.2205C16.0889 13.2369 16.5342 12.0169 16.5597 10.7524C16.5852 9.48801 16.1895 8.25101 15.4349 7.23614C14.6802 6.22127 13.6095 5.48617 12.3913 5.14654C11.1731 4.80691 9.87653 4.88205 8.70569 5.36012C7.53485 5.8382 6.55625 6.69206 5.92391 7.7873L5.5362 7.56346Z"/>
</mask>
<path d="M5.5362 7.56346C6.2182 6.3822 7.27367 5.46128 8.53646 4.94566C9.79925 4.43004 11.1977 4.34901 12.5115 4.7153C13.8254 5.0816 14.9802 5.87444 15.7941 6.96901C16.608 8.06358 17.0348 9.39774 17.0073 10.7615C16.9797 12.1252 16.4995 13.441 15.6421 14.5019C14.7848 15.5628 13.599 16.3084 12.2714 16.6214C10.9438 16.9344 9.54976 16.797 8.30879 16.2309C7.06783 15.6648 6.05036 14.702 5.41656 13.4942L5.81297 13.2862C6.40062 14.406 7.344 15.2987 8.4946 15.8236C9.6452 16.3485 10.9377 16.4759 12.1686 16.1856C13.3996 15.8954 14.499 15.2041 15.294 14.2205C16.0889 13.2369 16.5342 12.0169 16.5597 10.7524C16.5852 9.48801 16.1895 8.25101 15.4349 7.23614C14.6802 6.22127 13.6095 5.48617 12.3913 5.14654C11.1731 4.80691 9.87653 4.88205 8.70569 5.36012C7.53485 5.8382 6.55625 6.69206 5.92391 7.7873L5.5362 7.56346Z" stroke="#FFBD00" stroke-width="2" mask="url(#path-3-inside-1_23_13009)"/>
<path d="M10.8955 10.8818L5.8955 7.99508L5.8955 13.7686L10.8955 10.8818ZM0.881103 11.3818L6.3955 11.3818L6.3955 10.3818L0.881104 10.3818L0.881103 11.3818Z" fill="#FFBD00"/>
</svg>
