<svg width="96" height="27" viewBox="0 0 96 27" fill="none" xmlns="http://www.w3.org/2000/svg">
<g opacity="0.7">
<path d="M16.4438 0.932969C14.7215 1.93763 13.7058 3.77032 13.7058 5.69133C13.7058 6.69599 14.1143 7.72273 14.6222 8.62803C15.0307 9.43397 15.2294 10.8582 13.8162 11.5647C12.8005 12.172 11.4867 11.7635 10.8795 10.7588C10.2723 9.95287 9.56573 9.13588 8.64939 8.52867C6.92711 7.52401 4.90674 7.52401 3.18446 8.52867C1.46218 9.53333 0.446472 11.366 0.446472 13.287C0.446472 15.208 1.46218 17.0297 3.18446 18.0454C4.90674 19.0501 6.92711 19.0501 8.64939 18.0454C9.56573 17.5375 10.2723 16.7316 10.7691 15.8152C11.1776 15.1087 12.2927 14.1923 13.7058 15.0093C14.7215 15.6165 15.0196 16.9303 14.5118 17.946C14.0039 18.8624 13.7058 19.867 13.7058 20.8827C13.7058 22.8037 14.7215 24.6254 16.4438 25.6411C18.1661 26.6457 20.1865 26.6457 21.9087 25.6411C23.631 24.6364 24.6467 22.8037 24.6467 20.8827C24.6467 18.9617 23.631 17.1401 21.9087 16.1244C20.9924 15.6165 19.9877 15.4178 18.8727 15.4178C17.9563 15.4178 16.7529 14.8106 16.7529 13.2981C16.7529 12.0836 17.6693 11.1783 18.8727 11.1783C19.8884 11.1783 20.9924 10.9796 21.9087 10.4718C23.631 9.46709 24.6467 7.63441 24.6467 5.7134C24.6467 3.7924 23.631 1.97076 21.9087 0.955051C21.1028 0.447199 20.0871 0.248471 19.1708 0.248471C18.2765 0.226391 17.2498 0.425117 16.4438 0.932969Z" fill="white"/>
<path d="M77.7618 10.4051C77.7618 7.24761 77.7618 4.09009 77.7508 0.932577C77.7508 0.590329 77.795 0.457844 78.1924 0.468884C79.175 0.502005 80.1465 0.490965 81.1291 0.468884C81.4603 0.457844 81.5376 0.568252 81.5376 0.88842C81.5266 4.92916 81.5266 8.96988 81.5266 13.0106C81.5266 15.318 81.5155 17.6144 81.5376 19.9218C81.5376 20.231 81.4714 20.3524 81.1291 20.3414C80.1244 20.3193 79.1198 20.3193 78.1151 20.3414C77.817 20.3524 77.7618 20.253 77.7618 19.966C77.7729 16.7754 77.7618 13.5847 77.7618 10.4051Z" fill="white"/>
<path d="M34.5057 8.32912C35.411 7.3907 36.4268 6.97116 37.6081 6.927C37.6853 6.927 37.7737 6.927 37.8509 6.927C39.1316 6.96012 39.2199 7.05949 39.2199 8.30703C39.2199 9.04673 39.2089 9.79748 39.231 10.5372C39.242 10.8463 39.1316 10.8794 38.8777 10.8021C38.2042 10.5813 37.5087 10.482 36.8021 10.5813C35.4221 10.769 34.5168 11.9062 34.5057 13.4297C34.4947 15.4943 34.4947 17.5698 34.5168 19.6343C34.5168 20.0318 34.3953 20.1091 34.031 20.098C33.0374 20.076 32.0438 20.087 31.0501 20.098C30.8073 20.098 30.7189 20.0539 30.73 19.7889C30.741 15.7151 30.741 11.6522 30.73 7.57838C30.73 7.30237 30.8073 7.23613 31.0722 7.23613C32.0879 7.24718 33.1147 7.24718 34.1304 7.23613C34.4064 7.23613 34.5389 7.29133 34.5057 7.60046C34.4837 7.79918 34.5057 8.00896 34.5057 8.32912Z" fill="white"/>
<path d="M40.9533 13.6294C40.9533 11.6311 40.9643 9.63281 40.9422 7.63452C40.9422 7.33643 40.9974 7.22603 41.3286 7.23707C42.3443 7.25916 43.3711 7.25916 44.3868 7.23707C44.6628 7.23707 44.729 7.32539 44.729 7.57932C44.718 11.6311 44.718 15.6939 44.729 19.7457C44.729 19.9996 44.6849 20.099 44.3978 20.099C43.3821 20.0769 42.3554 20.0769 41.3397 20.099C41.0305 20.11 40.9422 20.0217 40.9533 19.7126C40.9643 17.6812 40.9533 15.6608 40.9533 13.6294Z" fill="white"/>
<path d="M42.8298 5.3165C41.7147 5.30546 40.8977 4.53265 40.9088 3.48382C40.9198 2.45708 41.7478 1.67322 42.8187 1.67322C43.9559 1.67322 44.806 2.44604 44.817 3.49486C44.817 4.54369 43.9669 5.3165 42.8298 5.3165Z" fill="white"/>
<path d="M60.7817 12.2719C60.0089 7.46935 55.4051 6.06724 52.1593 7.39207C51.6294 7.60183 51.1878 7.93304 50.702 8.33049C50.702 8.02136 50.6799 7.80056 50.702 7.56871C50.7351 7.28166 50.6137 7.22646 50.3487 7.22646C49.3882 7.23751 48.4166 7.24855 47.4561 7.22646C47.136 7.21542 47.0697 7.32582 47.0697 7.62391C47.0808 13.5525 47.0808 19.4922 47.0697 25.4208C47.0697 25.7299 47.1249 25.8514 47.4672 25.8514C48.4718 25.8293 49.4765 25.8293 50.4922 25.8514C50.7903 25.8514 50.8565 25.7631 50.8565 25.476C50.8455 23.4998 50.8455 21.5346 50.8455 19.5584C50.8455 19.4149 50.8455 19.2714 50.8455 19.0616C50.9559 19.1389 51.0111 19.172 51.0553 19.2162C53.6718 21.1703 57.4697 20.6625 59.4569 18.068C60.7817 16.3457 61.124 14.3695 60.7817 12.2719ZM53.9147 16.9308C52.1041 16.9088 50.7572 15.5067 50.7572 13.6409C50.7572 11.764 52.1262 10.395 53.9809 10.395C55.7584 10.395 57.1274 11.8082 57.1274 13.6409C57.1385 15.5067 55.7363 16.9529 53.9147 16.9308Z" fill="white"/>
<path d="M76.105 12.3277C75.4757 8.27588 71.998 6.39904 68.5866 7.06145C67.6261 7.24914 66.7649 7.63554 66.0031 8.37523C66.0031 8.05507 65.9921 7.82322 66.0031 7.59138C66.0252 7.33745 65.97 7.22706 65.6719 7.2381C64.6893 7.26018 63.7178 7.26018 62.7352 7.2381C62.4592 7.2381 62.3819 7.31537 62.393 7.58034C62.404 13.5531 62.404 19.5259 62.393 25.4987C62.393 25.7637 62.4592 25.852 62.7352 25.852C63.7509 25.8409 64.7777 25.8299 65.7934 25.852C66.1246 25.863 66.1687 25.7416 66.1687 25.4545C66.1577 23.4783 66.1577 21.5132 66.1577 19.537C66.1577 19.4045 66.1577 19.272 66.1577 19.0622C68.6418 21.1488 73.1131 20.8618 75.1334 17.5387C76.1381 15.9268 76.392 14.1714 76.105 12.3277ZM69.249 16.9314C67.4384 16.9314 66.0804 15.5293 66.0804 13.6635C66.0804 11.7867 67.4163 10.4066 69.2379 10.4066C71.0817 10.4066 72.4727 11.8198 72.4507 13.6856C72.4396 15.5293 71.0485 16.9314 69.249 16.9314Z" fill="white"/>
<path d="M95.8123 11.8954C95.3928 9.95232 94.4654 8.37355 92.5996 7.49033C89.2875 5.92262 83.4251 7.46826 83.0056 13.1871C82.8621 15.1854 83.4582 16.9739 84.9045 18.4202C86.1631 19.6788 87.7198 20.275 89.4752 20.3743C91.8709 20.5068 93.8803 19.7119 95.4038 17.8019C95.5694 17.5922 95.5584 17.4818 95.3376 17.3272C94.5979 16.7973 93.8692 16.2453 93.1626 15.6822C92.9197 15.4945 92.7983 15.4835 92.5885 15.7374C91.8599 16.6206 90.9767 17.2058 89.7622 17.2279C88.4484 17.2499 87.3665 16.5986 86.9359 15.4835C86.8145 15.1744 86.8697 15.075 87.2119 15.086C88.603 15.0971 89.9941 15.0971 91.3962 15.0971C92.8204 15.0971 94.2335 15.0971 95.6577 15.0971C95.8896 15.0971 96 15.064 96 14.788C95.9889 13.8054 96.0221 12.8449 95.8123 11.8954ZM91.882 12.072C91.0871 12.05 90.2811 12.061 89.4862 12.061C88.7134 12.061 87.9406 12.05 87.1788 12.072C86.8586 12.0831 86.8366 11.9837 86.9359 11.7188C87.3223 10.692 88.0179 10.0517 89.144 9.96336C89.8947 9.90815 90.6234 9.96336 91.2747 10.4271C91.7384 10.7472 91.9924 11.2109 92.1359 11.7408C92.2132 11.9837 92.169 12.0831 91.882 12.072Z" fill="white"/>
</g>
</svg>
