<svg width="121" height="28" viewBox="0 0 121 28" fill="none" xmlns="http://www.w3.org/2000/svg">
<g opacity="0.7">
<path fill-rule="evenodd" clip-rule="evenodd" d="M9.21437 25.9652C15.5257 27.6676 21.8543 23.6958 23.3498 17.0945C24.8453 10.4928 20.942 3.76002 14.631 2.05794C8.32147 0.35588 1.99295 4.32811 0.498177 10.9302C-0.998079 17.5311 2.90557 24.2631 9.21437 25.9652ZM14.4503 9.17356C16.078 9.77518 17.2733 10.6666 17.0585 12.3045C16.9031 13.5035 16.2776 14.0793 15.4409 14.276C16.5998 14.9173 17.1967 15.8907 16.6568 17.5652C15.9868 19.6448 14.3423 19.807 12.148 19.3524L11.6413 21.5905L10.3536 21.2427L10.8536 19.0346C10.5198 18.9448 10.1787 18.8496 9.82724 18.7465L9.3255 20.965L8.03922 20.6173L8.54582 18.375C8.42559 18.3416 8.30459 18.3075 8.18273 18.2731C7.99975 18.2215 7.81484 18.1693 7.6277 18.1185L5.95192 17.6659L6.57228 16.1235C6.57228 16.1235 7.52131 16.3964 7.50829 16.3766C7.87285 16.4744 8.03138 16.2262 8.09318 16.0603L8.89376 12.5224C8.92536 12.5306 8.95631 12.539 8.98616 12.5471C9.00101 12.5512 9.01558 12.5551 9.02983 12.5589C8.97839 12.5369 8.93179 12.5227 8.89584 12.5128L9.46697 9.98718C9.47952 9.70001 9.38154 9.33684 8.85998 9.19578C8.87994 9.18169 7.92472 8.94382 7.92472 8.94382L8.25037 7.5025L10.0263 7.9829L10.0249 7.98982C10.2919 8.06175 10.5669 8.13028 10.8471 8.19962L11.3488 5.98345L12.6358 6.33115L12.1442 8.50389C12.4896 8.58957 12.8372 8.67604 13.1758 8.76743L13.6639 6.60891L14.9517 6.95661L14.4503 9.17356ZM10.4777 17.1934C11.5286 17.4936 13.8254 18.1496 14.1725 16.6121C14.5281 15.0401 12.3016 14.4968 11.2151 14.2317C11.0937 14.2021 10.9866 14.1759 10.8988 14.1522L10.2266 17.1229C10.2986 17.1423 10.3831 17.1664 10.4777 17.1934ZM11.4176 12.8522C12.2939 13.105 14.2051 13.6564 14.5216 12.259C14.8447 10.8297 12.9881 10.3826 12.0813 10.1642C11.9793 10.1396 11.8894 10.1179 11.8159 10.0981L11.2064 12.7924C11.2669 12.8087 11.338 12.8292 11.4176 12.8522Z" fill="white"/>
<path d="M41.1596 9.16838C42.0959 9.17946 42.9081 9.36842 43.5943 9.72868C44.2838 10.0924 44.8562 10.5783 45.3194 11.1862C45.7764 11.7971 46.1214 12.509 46.3506 13.3228C46.5784 14.1389 46.7013 15.0147 46.7185 15.951C46.7449 17.3892 46.5235 18.745 46.0495 20.0199C45.5755 21.2967 44.9209 22.4013 44.0796 23.3402C43.2391 24.2779 42.2397 25.0131 41.0815 25.5514C39.9252 26.09 38.6621 26.3512 37.3004 26.3351C37.1244 26.333 36.8147 26.3239 36.3772 26.3091C35.9398 26.2943 35.4363 26.2401 34.8719 26.1521C34.3039 26.0609 33.7027 25.9288 33.0671 25.7539C32.432 25.5821 31.8274 25.3447 31.2566 25.0456L35.8948 2.39231L40.409 1.69555L38.747 9.73419C39.1311 9.55206 39.5188 9.41201 39.9065 9.3113C40.2947 9.21215 40.7122 9.16309 41.1596 9.16838ZM37.6072 22.4988C38.2892 22.5068 38.9284 22.335 39.5256 21.99C40.1245 21.6445 40.6382 21.1747 41.065 20.5869C41.4917 19.9964 41.8257 19.3297 42.0645 18.5831C42.3033 17.8365 42.4167 17.056 42.4017 16.2424C42.3833 15.2429 42.2128 14.4614 41.891 13.8941C41.5694 13.3291 40.988 13.0399 40.1513 13.03C39.8771 13.0267 39.5249 13.0785 39.0887 13.1732C38.6512 13.2741 38.262 13.4897 37.9156 13.817L36.1455 22.3538C36.262 22.3772 36.3653 22.3992 36.4533 22.4199C36.5396 22.4422 36.6347 22.4583 36.7294 22.4699C36.8296 22.483 36.9441 22.4905 37.0823 22.4922C37.2205 22.4938 37.3933 22.4962 37.6072 22.4988Z" fill="white"/>
<path d="M51.982 25.8815L47.7255 25.8322L51.0294 9.48685L55.315 9.53652L51.982 25.8815ZM53.7271 7.52194C53.1331 7.51506 52.591 7.31724 52.1062 6.92777C51.6176 6.54057 51.3685 5.95037 51.3545 5.15866C51.3468 4.72318 51.4212 4.31558 51.5763 3.93199C51.7339 3.5492 51.9428 3.22046 52.207 2.94198C52.4708 2.66581 52.7783 2.44629 53.129 2.28228C53.4819 2.12098 53.8589 2.04266 54.2623 2.04733C54.856 2.05421 55.3953 2.252 55.8818 2.64149C56.3666 3.03288 56.6174 3.6231 56.6314 4.41058C56.6391 4.84759 56.5651 5.25674 56.4086 5.63954C56.2531 6.02236 56.0442 6.35109 55.78 6.62957C55.5183 6.90616 55.208 7.12487 54.858 7.28735C54.5048 7.45134 54.1291 7.5266 53.7271 7.52194Z" fill="white"/>
<path d="M59.3495 5.36389L63.8429 4.66744L62.8242 9.49253L67.6511 9.5493L66.8487 13.3453L62.0509 13.2888L60.8773 19.0151C60.7683 19.4923 60.7096 19.9385 60.6985 20.3536C60.6849 20.7707 60.7406 21.1296 60.8624 21.4327C60.9835 21.7365 61.1956 21.9721 61.5002 22.1406C61.8033 22.3117 62.2346 22.4012 62.7982 22.4078C63.2624 22.4132 63.7138 22.3712 64.1493 22.2823C64.5824 22.1949 65.0205 22.0714 65.4633 21.9083L65.849 25.4709C65.2716 25.6929 64.6455 25.8824 63.9701 26.0401C63.2935 26.2001 62.4905 26.2716 61.5608 26.2606C60.2239 26.2449 59.1836 26.0197 58.4375 25.5867C57.6923 25.1507 57.1605 24.5608 56.8351 23.8181C56.514 23.0782 56.3611 22.2277 56.3821 21.2718C56.4045 20.3135 56.5208 19.3075 56.7338 18.2491L59.3495 5.36389Z" fill="white"/>
<path d="M67.9599 19.2517C67.9336 17.8339 68.1242 16.4995 68.5315 15.2531C68.9379 14.0055 69.5367 12.9174 70.3225 11.9868C71.1055 11.0608 72.0668 10.3313 73.2045 9.80086C74.3368 9.27347 75.6107 9.01589 77.0203 9.03265C77.9026 9.04315 78.6923 9.14139 79.3889 9.32777C80.0885 9.51573 80.7227 9.75546 81.2978 10.0536L79.8661 13.668C79.4713 13.4941 79.062 13.3401 78.6392 13.1999C78.216 13.0569 77.7012 12.9843 77.0938 12.9771C75.6429 12.9598 74.5058 13.4791 73.6718 14.5311C72.8411 15.584 72.4394 17.0098 72.4727 18.8047C72.4924 19.8685 72.7238 20.7312 73.1682 21.3944C73.6105 22.0575 74.4111 22.3943 75.5647 22.408C76.134 22.4148 76.6823 22.3579 77.2061 22.2405C77.734 22.1216 78.1992 21.9695 78.6081 21.7882L79.0017 25.5155C78.4562 25.7362 77.8536 25.9341 77.1919 26.1059C76.5286 26.2715 75.7368 26.3521 74.8168 26.3411C73.6023 26.3267 72.5707 26.1251 71.7229 25.7422C70.8745 25.3535 70.17 24.8425 69.6106 24.1992C69.0483 23.5543 68.6392 22.8043 68.3789 21.9458C68.1187 21.0882 67.9773 20.1887 67.9599 19.2517Z" fill="white"/>
<path d="M87.7362 26.334C86.6967 26.3216 85.7906 26.1422 85.0184 25.7993C84.2485 25.4564 83.6071 24.9805 83.0955 24.3674C82.5832 23.7573 82.1949 23.037 81.9227 22.209C81.6504 21.3813 81.5099 20.4667 81.4913 19.4662C81.468 18.2112 81.6339 16.9588 81.9933 15.7122C82.3508 14.4629 82.8948 13.3431 83.624 12.3507C84.3473 11.3567 85.2474 10.5476 86.3132 9.92119C87.378 9.29897 88.6104 8.99427 90.0013 9.01084C91.022 9.023 91.9233 9.20271 92.706 9.54573C93.4851 9.88794 94.1305 10.3677 94.6449 10.9779C95.154 11.591 95.5456 12.3083 95.8153 13.1374C96.0867 13.9635 96.2302 14.8804 96.2488 15.8817C96.2721 17.1329 96.1087 18.3853 95.7614 19.6359C95.4136 20.8803 94.8842 22.003 94.1761 22.998C93.4695 23.9906 92.5778 24.7994 91.5003 25.423C90.4242 26.0466 89.1686 26.351 87.7362 26.334ZM89.6638 12.9543C89.0181 12.9466 88.451 13.1394 87.9696 13.5276C87.4865 13.9205 87.0837 14.4169 86.7629 15.0174C86.4384 15.6206 86.2019 16.2798 86.047 16.9975C85.8936 17.7168 85.8246 18.3977 85.8366 19.0455C85.8561 20.0909 86.0296 20.9069 86.3519 21.4965C86.6785 22.0831 87.2512 22.383 88.0756 22.3929C88.7235 22.4006 89.2877 22.2093 89.7719 21.8168C90.2522 21.427 90.6553 20.9303 90.9787 20.3286C91.301 19.7285 91.5397 19.0674 91.6945 18.3485C91.8458 17.6315 91.917 16.9468 91.9049 16.3001C91.8855 15.2575 91.7127 14.4395 91.3875 13.8506C91.0627 13.2641 90.4875 12.9641 89.6638 12.9543Z" fill="white"/>
<path d="M101.533 25.8815L97.2732 25.8321L100.577 9.48683L104.865 9.53653L101.533 25.8815ZM103.275 7.52194C102.682 7.51506 102.14 7.31724 101.656 6.92778C101.17 6.54061 100.918 5.95039 100.904 5.15868C100.897 4.7232 100.972 4.31562 101.128 3.93203C101.283 3.54921 101.493 3.2205 101.758 2.94202C102.02 2.66583 102.33 2.44635 102.68 2.28232C103.031 2.121 103.408 2.04268 103.81 2.04734C104.405 2.05424 104.946 2.25205 105.432 2.64152C105.918 3.03292 106.17 3.62316 106.184 4.41063C106.192 4.84765 106.113 5.25674 105.959 5.63957C105.805 6.0224 105.595 6.35112 105.331 6.62961C105.067 6.90616 104.76 7.12491 104.409 7.28739C104.056 7.45137 103.679 7.52662 103.275 7.52194Z" fill="white"/>
<path d="M108.252 10.1355C108.581 10.0365 108.948 9.91706 109.348 9.78717C109.749 9.65731 110.197 9.53729 110.699 9.43029C111.195 9.31974 111.755 9.23201 112.372 9.16624C112.989 9.09892 113.692 9.07094 114.475 9.08027C116.775 9.10771 118.374 9.83911 119.276 11.2703C120.177 12.7014 120.364 14.6476 119.843 17.1053L118.002 25.9827L113.612 25.9303L115.394 17.2395C115.503 16.6968 115.586 16.172 115.645 15.6588C115.705 15.1503 115.693 14.7014 115.605 14.3118C115.52 13.927 115.331 13.6106 115.044 13.3638C114.751 13.1208 114.314 12.9952 113.724 12.9882C113.156 12.9814 112.579 13.0395 111.99 13.1579L109.369 25.8793L104.978 25.8269L108.252 10.1355Z" fill="white"/>
</g>
</svg>
