<svg width="122" height="25" viewBox="0 0 122 25" fill="none" xmlns="http://www.w3.org/2000/svg">
<g opacity="0.7">
<path d="M7.5511 10.3307L12.2547 5.6273L16.9607 10.3332L19.6976 7.5963L12.2547 0.153198L4.81424 7.59381L7.5511 10.3307Z" fill="white"/>
<path d="M5.61823 12.2627L2.88138 9.52588L0.144391 12.2628L2.88124 14.9996L5.61823 12.2627Z" fill="white"/>
<path d="M7.55069 14.196L12.2543 18.8994L16.9601 14.1937L19.6985 16.9291L19.6972 16.9306L12.2543 24.3735L4.81364 16.9331L4.80981 16.9292L7.55069 14.196Z" fill="white"/>
<path d="M21.6278 15.0014L24.3648 12.2645L21.6279 9.52776L18.891 12.2647L21.6278 15.0014Z" fill="white"/>
<path d="M15.0309 12.2616H15.0321L12.2548 9.48438L10.2024 11.5368H10.2023L9.96658 11.7726L9.48011 12.2591L9.47629 12.2629L9.48011 12.267L12.2548 15.0417L15.0321 12.2645L15.0334 12.2629L15.0309 12.2616Z" fill="white"/>
<path d="M28.6318 6.02197H34.5843C36.0617 6.02197 37.1789 6.40112 37.936 7.15941C38.522 7.74669 38.8148 8.47457 38.8148 9.34286V9.37958C38.8148 9.74649 38.7695 10.0707 38.6782 10.3519C38.5872 10.6335 38.4655 10.887 38.3134 11.1133C38.1617 11.3398 37.9854 11.5385 37.7849 11.7096C37.5842 11.881 37.3686 12.0279 37.1377 12.1499C37.8804 12.4315 38.465 12.8135 38.8912 13.2967C39.3172 13.7801 39.5305 14.4499 39.5305 15.3059V15.3424C39.5305 15.9297 39.4176 16.4433 39.1917 16.8839C38.9658 17.3241 38.6421 17.6912 38.2207 17.9848C37.7992 18.2784 37.2925 18.4984 36.7003 18.6453C36.108 18.7921 35.4517 18.8653 34.7314 18.8653H28.6318V6.02197ZM33.9892 11.2143C34.6132 11.2143 35.1087 11.1076 35.4754 10.8933C35.8423 10.6792 36.0257 10.3336 36.0257 9.85667V9.81995C36.0257 9.39202 35.8666 9.0649 35.5487 8.83841C35.2305 8.61211 34.7718 8.49886 34.1727 8.49886H31.3838V11.2143H33.9892ZM34.7416 16.3886C35.3654 16.3886 35.8543 16.2758 36.2094 16.0493C36.564 15.823 36.7416 15.4712 36.7416 14.9941V14.9576C36.7416 14.5294 36.5763 14.1901 36.2461 13.9391C35.9157 13.6887 35.3838 13.5632 34.6498 13.5632H31.3838V16.3888H34.7416V16.3886Z" fill="white"/>
<path d="M43.0758 6.02197L45.9016 6.02197L45.9016 18.8657L43.0758 18.8657L43.0758 6.02197Z" fill="white"/>
<path d="M50.1806 6.02197H52.7857L58.804 13.9301V6.02197H61.5929V18.8657H59.1895L52.9693 10.7009V18.8657H50.1806V6.02197Z" fill="white"/>
<path d="M70.1481 5.93054H72.7533L78.258 18.8659H75.3039L74.1295 15.9854H68.6985L67.5243 18.8659H64.6432L70.1481 5.93054ZM73.1204 13.4898L71.4139 9.32488L69.7079 13.4898H73.1204Z" fill="white"/>
<path d="M81.3081 6.02063H83.9138L89.9317 13.9288V6.02063H92.7206V18.8644H90.3172L84.097 10.6995V18.8644H81.3081V6.02063Z" fill="white"/>
<path d="M102.89 19.0847C101.947 19.0847 101.073 18.9133 100.266 18.5711C99.4583 18.2288 98.7612 17.7607 98.1741 17.1673C97.5869 16.5741 97.128 15.8738 96.7982 15.0665C96.4678 14.2591 96.3027 13.3967 96.3027 12.4793V12.4427C96.3027 11.5253 96.4678 10.6662 96.7982 9.86485C97.1281 9.0637 97.5869 8.36031 98.1741 7.75486C98.761 7.14941 99.4646 6.67213 100.284 6.32359C101.103 5.97505 102.009 5.80078 103 5.80078C103.599 5.80078 104.146 5.84994 104.641 5.9475C105.137 6.04564 105.586 6.17993 105.99 6.35114C106.394 6.52254 106.767 6.73048 107.11 6.97495C107.452 7.21981 107.77 7.48877 108.064 7.78241L106.266 9.85566C105.764 9.40325 105.253 9.04821 104.733 8.79149C104.213 8.53477 103.629 8.40622 102.981 8.40622C102.443 8.40622 101.944 8.51029 101.486 8.71822C101.027 8.92616 100.633 9.21349 100.302 9.58039C99.9723 9.94729 99.7154 10.3725 99.5316 10.8556C99.3485 11.339 99.2569 11.8557 99.2569 12.406V12.4425C99.2569 12.9929 99.3485 13.513 99.5316 14.002C99.7154 14.4915 99.9687 14.9194 100.293 15.2863C100.617 15.6532 101.009 15.944 101.467 16.1581C101.926 16.3723 102.431 16.4791 102.981 16.4791C103.715 16.4791 104.336 16.3446 104.843 16.0754C105.351 15.8067 105.856 15.4396 106.357 14.9745L108.155 16.7911C107.825 17.1459 107.482 17.464 107.128 17.7451C106.773 18.0266 106.385 18.2681 105.963 18.4701C105.541 18.6717 105.079 18.8249 104.578 18.9286C104.076 19.0325 103.513 19.0847 102.89 19.0847Z" fill="white"/>
<path d="M111.481 6.02063H121.151V8.53444H114.27V11.1399H120.325V13.6535H114.27V16.3508H121.243V18.8644H111.481V6.02063Z" fill="white"/>
</g>
</svg>
