<svg width="117" height="38" viewBox="0 0 117 38" fill="none" xmlns="http://www.w3.org/2000/svg">
<path d="M37.7805 20.19C37.7805 20.3812 37.6206 20.5369 37.4291 20.5369L30.6621 20.5369C30.831 22.2085 32.0892 23.7338 33.859 23.7338C35.0682 23.7338 35.9666 23.2714 36.6424 22.3067C36.7402 22.1732 36.8869 22.0889 37.0735 22.169C37.1759 22.2134 37.247 22.3067 37.2647 22.4136C37.2824 22.5246 37.2515 22.587 37.2203 22.6491C36.54 23.8361 35.1841 24.4185 33.8545 24.4185C31.5779 24.4185 29.9551 22.3823 29.9551 20.2036C29.9551 18.0248 31.5779 15.9882 33.8545 15.9882C36.1311 15.9841 37.776 18.0158 37.7805 20.19ZM37.0559 19.8612C36.9091 18.1895 35.6288 16.6643 33.859 16.6643C32.0895 16.6643 30.831 18.1892 30.6621 19.8612L37.0559 19.8612ZM45.9926 16.153C46.1883 16.153 46.3305 16.3219 46.3305 16.4909C46.3305 16.6865 46.1838 16.8287 45.9926 16.8287L44.1784 16.8287L44.1784 23.9471C44.1784 24.1161 44.0317 24.285 43.8406 24.285C43.6449 24.285 43.5027 24.1161 43.5027 23.9471L43.5027 16.8287L41.7596 16.8287C41.564 16.8287 41.4217 16.682 41.4217 16.4909C41.4217 16.3219 41.5685 16.153 41.7596 16.153L43.5027 16.153L43.5027 13.5476C43.5027 13.3831 43.6137 13.2319 43.774 13.2052C44.0008 13.1695 44.1784 13.3252 44.1784 13.5385L44.1784 16.153L45.9926 16.153ZM57.0593 19.5941L57.0593 23.9069C57.0593 24.1025 56.8903 24.2448 56.7214 24.2448C56.5257 24.2448 56.3835 24.098 56.3835 23.9069L56.3835 19.5941C56.3835 18.1403 55.5611 16.6862 53.938 16.6862C51.857 16.6862 50.959 18.5045 51.079 20.3676C51.079 20.4165 51.1012 20.6344 51.1012 20.6566L51.1012 23.8934C51.1012 24.0578 50.9902 24.209 50.8299 24.2357C50.6031 24.2715 50.4255 24.1157 50.4255 23.9024L50.4254 9.73704C50.4254 9.56811 50.5722 9.39918 50.7633 9.39918C50.959 9.39918 51.1012 9.56811 51.1012 9.73704L51.1012 17.7535C51.6836 16.7132 52.7239 16.0104 53.9335 16.0104C55.9211 16.0104 57.0593 17.7535 57.0593 19.5941ZM69.1932 20.19C69.1932 20.3812 69.0333 20.5369 68.8419 20.5369L62.0703 20.5369C62.2393 22.2086 63.4974 23.7338 65.2672 23.7338C66.4765 23.7338 67.3749 23.2714 68.0506 22.3067C68.1484 22.1732 68.2952 22.0889 68.4818 22.169C68.5841 22.2134 68.6552 22.3067 68.6729 22.4136C68.6906 22.5246 68.6597 22.587 68.6285 22.6491C67.9483 23.8361 66.5923 24.4185 65.2627 24.4185C62.9861 24.4185 61.3634 22.3823 61.3634 20.2036C61.3634 18.0248 62.9861 15.9886 65.2627 15.9886C67.5435 15.9841 69.1887 18.0158 69.1932 20.19ZM68.4641 19.8612C68.3174 18.1896 67.037 16.6643 65.2672 16.6643C63.4978 16.6643 62.2393 18.1892 62.0703 19.8612L68.4641 19.8612ZM77.4987 16.4687C77.4987 16.6865 77.3787 16.8065 77.183 16.8332C75.1957 17.1222 74.3018 18.7453 74.3018 20.6347L74.3018 23.8715C74.3018 24.0359 74.1908 24.1872 74.0305 24.2139C73.8037 24.2496 73.6261 24.0939 73.6261 23.8805L73.6261 16.5041C73.6261 16.3396 73.7371 16.1884 73.8973 16.1617C74.1242 16.126 74.3018 16.2817 74.3018 16.495L74.3018 17.9977C74.8575 17.0553 75.9734 16.1568 77.1341 16.1568C77.303 16.153 77.4987 16.2772 77.4987 16.4687ZM88.6142 20.19C88.6142 20.3812 88.4543 20.5369 88.2628 20.5369L81.4958 20.5369C81.6648 22.2086 82.9229 23.7338 84.6927 23.7338C85.9019 23.7338 86.8004 23.2714 87.4761 22.3067C87.5739 22.1732 87.7206 22.0889 87.9073 22.169C88.0096 22.2134 88.0807 22.3067 88.0984 22.4136C88.1161 22.5246 88.0852 22.587 88.054 22.6491C87.3738 23.8361 86.0178 24.4186 84.6882 24.4186C82.4116 24.4186 80.7889 22.3823 80.7889 20.2036C80.7889 18.0248 82.4116 15.9886 84.6882 15.9886C86.9648 15.9841 88.6097 18.0158 88.6142 20.19ZM87.8896 19.8612C87.7428 18.1896 86.4625 16.6643 84.6927 16.6643C82.9232 16.6643 81.6648 18.1892 81.4958 19.8612L87.8896 19.8612ZM99.5386 16.553L99.5386 23.9471C99.5386 24.1428 99.3697 24.285 99.2008 24.285C99.0051 24.285 98.8629 24.1383 98.8629 23.9471L98.8629 22.5423C98.3072 23.6582 97.3113 24.4543 96.0528 24.4543C94.043 24.4543 92.927 22.7112 92.927 20.8706L92.927 16.5353C92.927 16.3663 93.0738 16.1974 93.2649 16.1974C93.4605 16.1974 93.6028 16.3663 93.6028 16.5353L93.6028 20.8703C93.6028 22.3241 94.4252 23.7782 96.0483 23.7782C98.3249 23.7782 98.8584 21.6483 98.8584 19.2965L98.8584 16.5353C98.8584 16.3396 99.054 16.1395 99.2941 16.2106C99.4408 16.2595 99.5386 16.4017 99.5386 16.553ZM116.657 19.5677L116.657 23.9028C116.657 24.0984 116.488 24.2406 116.319 24.2406C116.123 24.2406 115.981 24.0939 115.981 23.9028L115.981 19.5677C115.981 18.114 115.158 16.6865 113.535 16.6865C111.499 16.6865 110.725 18.8653 110.725 20.5591L110.725 23.9027C110.725 24.0984 110.556 24.2406 110.387 24.2406C110.192 24.2406 110.05 24.0939 110.05 23.9027L110.05 19.5677C110.05 18.114 109.227 16.6865 107.604 16.6865C105.545 16.6865 104.696 18.3092 104.772 20.4658C104.772 20.5147 104.794 20.6126 104.772 20.6348L104.772 23.8937C104.772 24.0582 104.661 24.2094 104.496 24.2361C104.269 24.2718 104.091 24.1161 104.091 23.9027L104.091 16.5041C104.091 16.3396 104.202 16.1884 104.363 16.1617C104.59 16.126 104.767 16.2817 104.767 16.495L104.767 17.731C105.35 16.6907 106.39 16.0105 107.6 16.0105C108.978 16.0105 110.045 16.8818 110.481 18.167C111.036 16.9089 112.126 16.0105 113.531 16.0105C115.519 16.0105 116.657 17.7268 116.657 19.5677Z" fill="white"/>
<g opacity="0.6">
<g opacity="0.6">
<path opacity="0.6" d="M12.2618 13.697L1.17999 18.8219L12.4986 25.7933L23.5452 19.0949L12.2618 13.697Z" fill="white"/>
</g>
</g>
<g opacity="0.45">
<g opacity="0.45">
<path opacity="0.45" d="M1.41659 18.9451L12.3754 25.7938L11.9089 0.199199L1.41659 18.9451Z" fill="white"/>
</g>
</g>
<g opacity="0.8">
<g opacity="0.8">
<path opacity="0.8" d="M12.3829 0.071167L12.8493 25.6658L23.5588 19.0731L12.3829 0.071167Z" fill="white"/>
</g>
</g>
<g opacity="0.45">
<g opacity="0.45">
<path opacity="0.45" d="M1.07274 20.981L12.3756 37.1927L12.1947 27.8568L1.07274 20.981Z" fill="white"/>
</g>
</g>
<g opacity="0.8">
<g opacity="0.8">
<path opacity="0.8" d="M12.5146 27.7236L12.6955 37.0591L23.3798 21.1144L12.5146 27.7236Z" fill="white"/>
</g>
</g>
</svg>
