<svg width="86" height="24" viewBox="0 0 86 24" fill="none" xmlns="http://www.w3.org/2000/svg">
<g opacity="0.7">
<path d="M82.692 0.649798C83.5594 0.166167 84.5232 0.456345 85.3905 0.456345C85.3905 0.456345 85.4869 0.649798 85.4869 0.746524C84.8123 4.7123 84.1377 8.67807 83.463 12.6438C83.3667 13.4177 83.1739 13.7078 82.3065 13.7078C79.9935 13.6111 79.9935 13.7078 79.4152 11.4831C78.837 9.25843 78.1624 7.13045 77.5841 4.80902C77.1986 5.0992 77.295 5.58283 77.295 5.87301C76.9095 8.19444 76.524 10.5159 76.1385 12.934C76.0421 13.5144 75.8494 13.7078 75.2711 13.7078C73.1508 13.7078 73.1508 13.7078 73.5363 11.6766C74.1146 8.19444 74.6928 4.7123 75.2711 1.23015C75.3675 0.553071 75.5602 0.359619 76.2349 0.359619C78.6442 0.359619 78.6442 0.359619 79.3189 2.68105C79.8971 4.80902 80.4754 7.03372 81.2464 9.1617L82.692 0.649798Z" fill="white"/>
<path d="M36.7194 3.84094C35.7556 3.26058 34.7918 2.77695 33.7317 2.68023C32.1897 2.48677 30.9368 2.97041 29.9731 4.22785C28.8166 5.77546 28.5274 7.51653 28.9129 9.35433C29.2984 11.1921 31.1296 11.9659 32.768 11.2889C33.0571 11.1921 33.1535 10.9987 33.1535 10.7085C33.2498 10.3216 33.2498 9.93469 33.3462 9.54778C33.6353 8.67725 33.3462 8.38707 32.5752 8.58052C31.8042 8.67725 31.8042 8.38707 31.9006 7.70999C32.1897 6.25909 32.1897 6.25909 33.539 6.25909C34.4063 6.25909 35.2737 6.25909 36.1411 6.25909C36.5266 6.25909 36.7194 6.35582 36.623 6.83945C36.3339 8.67725 36.0447 10.4183 35.7556 12.2561C35.6592 12.643 35.5628 12.8365 35.1773 12.9332C33.4426 13.8037 31.6114 14.1906 29.6839 13.8037C27.4673 13.4168 26.0217 11.7725 25.8289 9.45106C25.7325 8.00017 25.8289 6.646 26.3108 5.29183C28.1419 -0.0281054 32.8643 -0.801914 36.7194 0.84243C37.1049 1.03588 37.2012 1.22933 37.1049 1.61624C36.9121 2.29332 36.8157 3.06713 36.7194 3.84094Z" fill="white"/>
<path d="M40.8643 13.7076C39.8041 13.7076 38.6476 13.7076 37.5875 13.7076C37.1056 13.7076 36.9129 13.7076 37.0092 13.1273C37.5875 8.96805 38.2621 4.90555 38.9367 0.843052C39.0331 0.456148 39.1295 0.262695 39.515 0.262695C41.7317 0.262695 44.0447 0.262695 46.2613 0.262695C46.7432 0.262695 46.8396 0.456148 46.7432 0.939779C46.4541 2.8743 46.4541 2.8743 44.5265 2.8743C43.7555 2.8743 43.0809 2.97103 42.3099 2.8743C41.6353 2.77758 41.4425 3.06775 41.3461 3.64811C41.057 5.29246 41.057 5.29246 42.6954 5.29246C43.5628 5.29246 44.3338 5.29246 45.2012 5.29246C45.5867 5.29246 45.7794 5.38918 45.6831 5.87281V5.96954C45.3939 8.00079 45.3939 8.00079 43.4664 8.00079H42.9845C40.7679 8.00079 40.7679 8.00079 40.3824 10.2255C40.286 10.8058 40.3824 10.9993 40.9606 10.9993C42.2135 10.9993 43.4664 10.9993 44.6229 10.9993C45.1048 10.9993 45.2975 11.096 45.2012 11.6764C44.912 13.7076 44.912 13.7076 42.9845 13.7076H40.8643Z" fill="white"/>
<path d="M55.8022 10.2253C55.8022 11.1926 55.6095 11.9664 55.5131 12.7402C55.5131 13.0304 55.224 13.1271 55.0312 13.2238C53.7783 13.7075 52.5255 13.9976 51.2726 13.9009C49.1523 13.8042 47.3212 12.3533 46.9357 10.2253C46.261 7.03336 47.032 4.13158 49.3451 1.90688C51.2726 -0.0276455 54.3566 -0.41455 56.766 0.84289C57.1515 1.03634 57.3442 1.22979 57.2479 1.6167C57.0551 2.29378 56.9587 3.06759 56.8624 3.8414C56.766 3.8414 56.6696 3.74467 56.5732 3.64795C53.8747 1.71343 51.2726 2.58396 50.2124 5.77592C49.8269 6.74318 49.7306 7.80717 49.8269 8.77443C50.1161 10.9024 51.4653 11.8697 53.4892 11.2893C54.2602 11.0959 55.0312 10.6122 55.8022 10.2253Z" fill="white"/>
<path d="M70.2592 13.7079C68.9099 13.7079 68.9099 13.7079 69.1027 12.257C69.6809 8.58141 70.3556 4.90582 70.8374 1.23022C70.9338 0.553141 71.2229 0.262963 71.8976 0.359689C73.9215 0.456415 73.9215 0.359689 73.6323 2.39094C73.0541 5.67963 72.5722 8.87159 71.994 12.1603C71.8012 13.7079 71.8012 13.7079 70.2592 13.7079Z" fill="white"/>
<path d="M58.9826 19.3173C58.9826 18.35 59.079 17.4795 58.9826 16.5122C58.8862 15.7384 59.2717 15.545 59.9463 15.6417C60.5246 15.6417 60.9101 15.6417 60.9101 16.5122C60.9101 18.6402 61.0065 18.6402 63.0304 18.4468C63.4159 18.4468 63.6086 18.2533 63.6086 17.8664C63.6086 17.4795 63.6086 17.1893 63.6086 16.8024C63.6086 15.8351 64.3796 15.3515 65.247 15.7384C65.5361 15.8351 65.4398 16.1253 65.4398 16.3188C65.4398 18.35 65.4398 20.478 65.4398 22.5093C65.4398 23.2831 64.8615 23.0896 64.476 23.0896C64.0905 23.0896 63.5122 23.3798 63.5122 22.5093C63.5122 22.1224 63.5122 21.6387 63.5122 21.2518C63.5122 20.7682 63.8014 20.0911 63.3195 19.8976C62.6449 19.6075 61.7775 19.7042 61.1028 19.8976C60.8137 19.8976 60.9101 20.2846 60.9101 20.478C60.9101 21.1551 60.9101 21.7354 60.9101 22.4125C61.0065 23.2831 60.4282 23.0896 59.9463 23.0896C59.4645 23.0896 58.9826 23.2831 58.9826 22.4125C58.9826 21.9289 58.9826 21.3485 58.9826 20.8649V19.3173Z" fill="white"/>
<path d="M22.36 19.2199C22.36 18.2526 22.36 17.2854 22.36 16.3181C22.36 15.8345 22.4564 15.5443 23.0346 15.5443C24.2875 15.5443 25.5404 15.5443 26.6969 15.5443C27.1788 15.5443 27.3715 15.641 27.3715 16.2214C27.3715 16.705 27.2751 16.9952 26.6969 16.9952C26.1186 16.9952 25.5404 16.9952 24.8658 16.9952C24.3839 16.9952 24.1911 17.0919 24.0947 17.6723C24.0947 18.2526 24.2875 18.3494 24.8658 18.3494C25.3476 18.3494 25.9259 18.3494 26.4078 18.3494C26.8896 18.3494 27.1788 18.4461 27.1788 19.0265C27.1788 19.6068 26.986 19.7035 26.4078 19.7035C26.0223 19.7035 25.6368 19.7035 25.2513 19.7035C24.1911 19.7035 23.902 20.0904 24.0947 21.1544C24.2875 21.5413 24.4802 21.5413 24.7694 21.5413C25.444 21.5413 26.1186 21.5413 26.7933 21.5413C27.3715 21.5413 27.4679 21.7348 27.4679 22.2184C27.4679 22.702 27.3715 22.8955 26.7933 22.8955C25.5404 22.8955 24.1911 22.8955 22.9382 22.8955C22.4564 22.8955 22.36 22.702 22.36 22.3151C22.36 21.3479 22.36 20.2839 22.36 19.2199Z" fill="white"/>
<path d="M66.6932 19.3179C66.6932 18.3507 66.6932 17.2867 66.6932 16.3194C66.6932 15.8358 66.7896 15.6423 67.3679 15.6423C68.6207 15.6423 69.8736 15.6423 71.1265 15.6423C71.6084 15.6423 71.8012 15.8358 71.8012 16.3194C71.8012 16.803 71.7048 17.0932 71.2229 16.9965C70.5483 16.9965 69.8736 16.9965 69.199 16.9965C68.7171 16.9965 68.6208 17.19 68.6208 17.6736C68.6208 18.0605 68.6208 18.4474 69.199 18.4474C69.7773 18.4474 70.3555 18.4474 70.9338 18.4474C71.512 18.4474 71.6084 18.6408 71.6084 19.2212C71.6084 19.8016 71.4157 19.8983 70.9338 19.8983C70.5483 19.8983 70.0664 19.8983 69.6809 19.8983C68.8135 19.8016 68.5244 20.1885 68.6208 21.059C68.6208 21.6394 68.8135 21.8328 69.2954 21.7361C69.8736 21.7361 70.4519 21.7361 71.1265 21.7361C71.6084 21.7361 71.8975 21.8328 71.8975 22.4132C71.8975 22.9935 71.7048 23.187 71.2229 23.0902C69.97 23.0902 68.7171 23.0902 67.4642 23.0902C66.9824 23.0902 66.7896 22.8968 66.7896 22.4132C66.7896 21.2525 66.6932 20.2852 66.6932 19.3179Z" fill="white"/>
<path d="M42.021 19.2197C42.021 18.2525 42.021 17.1885 42.021 16.2212C42.021 15.7376 42.1174 15.5442 42.5993 15.6409C43.8522 15.6409 45.2014 15.6409 46.4543 15.6409C47.0326 15.6409 47.0326 16.0278 47.0326 16.4147C47.0326 16.8983 46.8398 17.0918 46.4543 16.995C45.7797 16.995 45.105 16.995 44.4304 16.995C43.9485 16.995 43.8522 17.1885 43.8522 17.6721C43.8522 18.059 43.8522 18.4459 44.4304 18.4459C44.9123 18.4459 45.3942 18.4459 45.9724 18.4459C46.4543 18.4459 46.8398 18.4459 46.8398 19.2197C46.8398 20.0903 46.3579 19.8001 45.9724 19.8968C45.6833 19.8968 45.2978 19.8968 45.0087 19.8968C43.9485 19.8968 43.6594 20.2837 43.8522 21.3477C44.0449 21.5412 44.2377 21.5412 44.5268 21.5412C45.2014 21.5412 45.876 21.5412 46.5507 21.5412C47.1289 21.5412 47.2253 21.7346 47.2253 22.2183C47.2253 22.7019 47.0326 22.8953 46.5507 22.8953C45.2978 22.8953 43.9485 22.8953 42.6957 22.8953C42.2138 22.8953 42.1174 22.7019 42.1174 22.2183C42.1174 21.3477 42.021 20.2837 42.021 19.2197Z" fill="white"/>
<path d="M80.1854 19.2212C80.1854 18.2539 80.1854 17.2867 80.1854 16.3194C80.1854 15.8358 80.2818 15.6423 80.7636 15.6423C82.0165 15.6423 83.2694 15.6423 84.5223 15.6423C85.0042 15.6423 85.1005 15.8358 85.1005 16.3194C85.1005 16.7063 85.1006 17.0932 84.5223 17.0932C83.8477 17.0932 83.173 17.0932 82.4984 17.0932C82.0165 17.0932 81.9202 17.3834 81.9202 17.7703C81.9202 18.1572 81.9202 18.5441 82.4984 18.5441C83.0767 18.5441 83.6549 18.5441 84.2332 18.5441C84.715 18.5441 84.9078 18.7376 84.9078 19.2212C84.9078 19.7048 84.8114 19.8983 84.2332 19.8983C83.8477 19.8983 83.3658 19.8983 82.9803 19.8983C82.1129 19.8016 81.8238 20.0917 81.9202 20.9623C81.9202 21.6394 82.1129 21.8328 82.6912 21.7361C83.2694 21.7361 83.7513 21.7361 84.3296 21.7361C84.8114 21.7361 85.1969 21.7361 85.1969 22.4132C85.1969 23.0903 84.9078 23.187 84.4259 23.0903C83.2694 23.0903 82.0165 23.0902 80.86 23.0902C80.2818 23.0902 80.089 22.8968 80.089 22.3164C80.1854 21.2525 80.1854 20.1885 80.1854 19.2212Z" fill="white"/>
<path d="M14.3604 21.059C14.4568 22.7034 14.264 22.8968 12.6256 22.9936C9.54162 23.187 7.71048 21.1558 8.38511 18.254C8.86699 15.9325 11.951 14.5784 13.9749 15.8358C14.6495 16.2227 14.1676 16.8998 14.3604 17.4802C13.0111 16.8031 11.6619 16.3195 10.6018 17.7703C9.92712 18.6409 10.0235 20.1885 10.6981 21.059C11.4691 21.8328 12.6256 21.8328 14.3604 21.059Z" fill="white"/>
<path d="M21.1074 21.059C21.3001 22.6067 21.1074 22.8001 19.6617 22.9936C16.4813 23.3805 14.4574 21.2525 15.1321 18.254C15.7103 15.9325 18.7943 14.5784 20.8182 15.8358C21.3965 16.2227 21.2037 16.8031 21.1074 17.19C20.9146 17.5769 20.6255 17.19 20.3363 17.0933C19.3726 16.7064 18.4088 16.7064 17.6378 17.4802C16.9632 18.1572 16.8668 19.6081 17.3487 20.5754C17.8306 21.5427 18.7943 21.9296 19.9508 21.5427C20.3363 21.4459 20.7219 21.2525 21.1074 21.059Z" fill="white"/>
<path d="M38.2619 15.6418C39.1293 15.6418 39.9967 15.6418 40.8641 15.6418C41.346 15.6418 41.5387 15.8352 41.5387 16.3189C41.5387 16.8025 41.4423 16.996 40.9605 16.996C39.2257 17.0927 39.2257 17.0927 39.2257 18.9305C39.2257 19.9945 39.1293 21.0585 39.2257 22.1224C39.3221 22.993 38.8402 22.8963 38.2619 22.993C37.5873 22.993 37.2982 22.8963 37.2982 22.1224C37.3946 20.6716 37.2982 19.3174 37.2982 17.8665C37.2982 17.1894 37.1054 16.8992 36.4308 16.996C36.1417 16.996 35.8526 16.996 35.5634 16.996C35.0815 16.996 34.7924 16.8992 34.7924 16.3189C34.7924 15.7385 34.9852 15.5451 35.467 15.6418C36.4308 15.6418 37.2982 15.6418 38.2619 15.6418Z" fill="white"/>
<path fill-rule="evenodd" clip-rule="evenodd" d="M2.98867 13.7075H3.6633C4.15787 13.7075 4.65244 13.682 5.13399 13.6572C5.59082 13.6337 6.03593 13.6107 6.4582 13.6107C8.48209 13.4173 10.0241 12.45 11.1806 10.709C12.1444 9.16133 12.6262 7.42026 12.5299 5.58247C12.4335 2.29378 10.7951 0.649431 7.51833 0.455979C6.94008 0.407616 6.33773 0.407616 5.72333 0.407616C5.10894 0.407616 4.4825 0.407616 3.85606 0.359253C3.08505 0.359253 2.8923 0.649431 2.79592 1.32651C2.31405 4.71191 1.7358 8.0973 1.15755 11.4827L1.15754 11.4828C0.963665 12.6016 0.867293 13.1577 1.10132 13.4342C1.33265 13.7075 1.88679 13.7075 2.98867 13.7075ZM4.72344 11.0952C7.61472 11.1919 9.44586 9.35408 9.44586 6.25885C9.54223 3.93742 8.4821 2.97016 6.26545 2.87344C5.6872 2.87344 5.49445 3.06689 5.39807 3.64724L5.39798 3.64781C5.01251 5.96905 4.62704 8.29028 4.24156 10.5148C4.04881 11.0952 4.33794 11.0952 4.72344 11.0952Z" fill="white"/>
<path fill-rule="evenodd" clip-rule="evenodd" d="M58.6936 2.77722C57.4407 4.42156 56.9588 6.35608 56.9588 8.38733C56.9588 11.3858 58.4045 13.4171 60.7175 13.9007C63.2233 14.2876 65.4399 13.6105 66.9819 11.4826C68.5239 9.45132 69.1022 7.12989 68.8131 4.61501C68.6203 2.39031 67.271 0.745967 65.3435 0.262336C62.8378 -0.414747 60.2356 0.649241 58.6936 2.77722ZM61.1998 3.93866C60.3324 5.1961 60.0433 6.55026 60.0433 7.90443C60.0433 8.58151 60.0433 9.06514 60.2361 9.54877C60.7179 11.3866 62.4527 11.9669 63.9947 10.8062C64.3802 10.516 64.7657 10.1291 64.9585 9.6455C65.6331 8.29133 66.0186 6.64699 65.8259 5.09937C65.7295 4.03538 65.4404 2.97139 64.1875 2.68122C63.031 2.39104 61.9708 2.87467 61.1998 3.93866Z" fill="white"/>
<path fill-rule="evenodd" clip-rule="evenodd" d="M23.517 11.1939C24.7699 9.54954 25.2517 7.71174 25.2517 5.6805C25.2517 2.97216 24.0952 0.940915 21.8786 0.360558C19.4692 -0.316525 17.2526 0.167106 15.5178 2.10163C13.4939 4.42306 12.8193 7.22811 13.4939 10.2266C13.8794 12.2579 15.2287 13.5153 17.2526 13.8055C19.7583 14.1924 21.975 13.4186 23.517 11.1939ZM21.3007 9.54961C21.879 8.48562 22.1681 7.22818 22.1681 5.97074C22.1681 4.03622 21.5898 2.97223 20.4333 2.68205C19.0841 2.39188 17.8312 3.16569 17.0602 4.81003C16.2892 6.26092 16.0964 7.90527 16.4819 9.45289C16.8674 11.2907 18.5058 11.9678 20.0478 11.0005C20.6261 10.6136 21.0116 10.13 21.3007 9.54961Z" fill="white"/>
<path fill-rule="evenodd" clip-rule="evenodd" d="M48.2855 16.4156V19.3173C48.2855 20.2846 48.2855 21.2519 48.3819 22.3158C48.3819 22.7995 48.5746 22.9929 49.0565 22.9929C49.5183 22.9543 49.9647 22.9465 50.4081 22.9388C51.075 22.9272 51.735 22.9157 52.4297 22.7995C54.0681 22.5093 55.0318 21.2519 55.1282 19.4141C55.1282 17.673 54.1644 16.2221 52.5261 15.8352C51.8032 15.6538 51.0804 15.6614 50.3576 15.6689C49.9239 15.6735 49.4902 15.678 49.0565 15.6417C48.3819 15.545 48.2855 15.8352 48.2855 16.4156ZM50.1166 18.4457V19.2195V20.9606V20.9606C50.1166 21.2508 50.1166 21.4442 50.5021 21.541C51.3695 21.6377 52.4296 21.1541 52.8151 20.3802C53.2006 19.413 53.0079 18.0588 52.2369 17.4785C51.6586 17.0916 50.984 16.8014 50.3094 17.0916C50.0022 17.2149 50.0475 17.5347 50.0957 17.8756C50.1232 18.0696 50.1516 18.2704 50.1166 18.4457Z" fill="white"/>
<path fill-rule="evenodd" clip-rule="evenodd" d="M73.0539 16.3193V19.2211V22.2196C73.0539 22.2506 73.0514 22.2841 73.0488 22.3189C73.0353 22.5011 73.0193 22.7188 73.343 22.8C74.3067 23.1869 74.885 22.8 74.885 21.736V21.0589C74.9176 20.9282 74.9061 20.7863 74.8953 20.6521C74.874 20.3893 74.8551 20.1557 75.1741 20.0917C75.656 19.9949 76.1379 20.0917 76.427 20.5753L77.2944 22.3164C77.4871 22.7033 78.9328 23.0902 79.3183 22.8C79.511 22.7033 79.4146 22.5098 79.3183 22.4131C78.9328 21.4458 78.5473 20.4786 77.8726 19.7048C77.8504 19.6824 77.8281 19.6613 77.8067 19.6411C77.6431 19.4864 77.5317 19.381 77.8726 19.1244C78.6436 18.544 78.74 17.7702 78.5473 16.8997C78.2581 15.9324 77.4871 15.6423 76.6198 15.5455H73.7285C73.1502 15.5455 73.0539 15.8357 73.0539 16.3193ZM74.8837 17.8848C74.8847 17.9418 74.8857 18.0003 74.8857 18.0599C74.7893 18.5435 74.9821 18.8337 75.5603 18.9304C75.6187 18.9207 75.6771 18.9119 75.735 18.9032C76.2495 18.8258 76.7168 18.7555 76.7168 18.0599C76.7168 17.2692 76.2397 17.1967 75.7189 17.1175C75.6663 17.1096 75.6133 17.1015 75.5603 17.0926C74.8684 17.0058 74.875 17.3864 74.8837 17.8848Z" fill="white"/>
<path fill-rule="evenodd" clip-rule="evenodd" d="M6.16855 16.8016C5.87942 15.9311 5.5903 15.3507 4.53016 15.6409C4.40286 15.6665 4.26882 15.6583 4.13695 15.6502C3.76966 15.6277 3.41911 15.6063 3.27728 16.318C2.89178 17.382 2.50627 18.4218 2.12077 19.4616C1.73527 20.5014 1.34977 21.5412 0.964264 22.6052C0.964264 22.657 0.957345 22.7019 0.950922 22.7436C0.933375 22.8574 0.919536 22.9472 1.06064 23.0888C1.54252 23.379 2.7954 22.9921 2.89178 22.5085C2.98815 21.8314 3.37366 21.7347 3.95191 21.7347H5.49392C5.87942 21.6379 6.16855 21.8314 6.16855 22.1216C6.26493 22.9921 6.93956 22.9921 7.61419 22.9921C8.38519 22.9921 8.28881 22.7019 8.09606 22.2183C7.95203 21.8259 7.808 21.438 7.6649 21.0525C7.13776 19.6326 6.62335 18.2471 6.16855 16.8016ZM5.3008 19.607C5.01168 18.9299 4.81893 18.3495 4.62618 17.6725L4.43342 17.7692C4.33705 18.0594 4.24067 18.3388 4.1443 18.6182C3.95154 19.1771 3.75879 19.7359 3.56604 20.3808L4.81892 20.3808C5.49355 20.3808 5.49355 20.0906 5.3008 19.607Z" fill="white"/>
<path fill-rule="evenodd" clip-rule="evenodd" d="M31.1924 15.635C31.0696 15.6387 30.9518 15.6423 30.8411 15.6423C30.1665 15.6423 29.6846 15.6423 29.01 15.5455C28.6245 15.5455 28.4317 15.6423 28.4317 16.0292V22.4131C28.4317 22.9721 28.7601 22.9377 29.0374 22.9087C29.096 22.9026 29.1523 22.8967 29.2027 22.8967C29.2976 22.8967 29.4042 22.9202 29.5124 22.944C29.8437 23.0169 30.1902 23.0931 30.2628 22.5098C30.2976 22.2653 30.2696 21.9956 30.2423 21.7326C30.1939 21.2671 30.1477 20.8225 30.4556 20.5753C30.7768 20.3174 31.2694 20.3174 31.762 20.3174C32.0083 20.3174 32.2546 20.3174 32.4795 20.2851H32.5759C33.7324 20.0917 34.3106 19.3179 34.407 18.2539C34.5034 16.9964 34.0215 16.2226 32.865 15.8357C32.3195 15.6011 31.711 15.6194 31.1924 15.635ZM31.2266 17.0924C30.4556 16.9957 30.3592 17.3826 30.4556 17.9629C30.4556 18.0492 30.4513 18.1333 30.4472 18.214C30.4238 18.6764 30.4061 19.0269 31.2266 19.0269C31.2884 19.018 31.3503 19.01 31.4116 19.002C32.0192 18.9229 32.5758 18.8504 32.5758 18.0596C32.5758 17.2858 31.9012 17.1891 31.2266 17.0924Z" fill="white"/>
</g>
</svg>
