<svg width="102" height="26" viewBox="0 0 102 26" fill="none" xmlns="http://www.w3.org/2000/svg">
<g opacity="0.7">
<path fill-rule="evenodd" clip-rule="evenodd" d="M25.2804 13.0169C25.2804 19.9145 19.6888 25.5061 12.7912 25.5061C5.89366 25.5061 0.302063 19.9145 0.302063 13.0169C0.302063 6.1193 5.89366 0.52771 12.7912 0.52771C19.6888 0.52771 25.2804 6.1193 25.2804 13.0169ZM14.117 14.1802L14.117 14.1822L14.117 14.1842C17.1407 14.062 19.3955 13.5402 19.3918 12.9021C19.388 12.2641 17.129 11.7197 14.1016 11.5672L14.1139 13.6511C14.0261 13.6587 13.5552 13.6968 12.6129 13.6921C11.8283 13.6881 11.2591 13.651 11.0614 13.6358L11.0491 11.55C8.01941 11.6701 5.75864 12.1939 5.76239 12.832C5.76614 13.4721 8.03119 14.0164 11.0645 14.1669L11.0645 14.1649C11.2602 14.176 11.8133 14.2009 12.6019 14.2049C13.5881 14.2098 14.0312 14.1858 14.117 14.1802ZM14.0894 9.4854L14.1004 11.3512L14.1024 11.3532C17.5291 11.5299 20.1085 12.2313 20.1133 13.0531C20.1182 13.877 17.5469 14.5507 14.122 14.6931L14.1571 20.6741L11.1046 20.6588L11.0695 14.6778C7.63875 14.4991 5.05338 13.7996 5.04854 12.9758C5.04371 12.1519 7.61901 11.4783 11.0499 11.3359L11.0389 9.47015L6.81655 9.44903L6.79985 6.60391L18.2951 6.6614L18.3118 9.50652L14.0894 9.4854Z" fill="white"/>
<path d="M39.4761 6.32944V9.63161H42.6854V12.1093H39.454V17.1333C39.454 18.2429 40.0662 18.7844 40.9636 18.7844C41.4123 18.7844 41.9317 18.6429 42.3561 18.4307L43.1584 20.8842C42.334 21.2135 41.6488 21.3549 40.7757 21.3793C38.2516 21.4743 36.6005 20.0354 36.6005 17.1333V12.1093H34.43V9.63161H36.6005V6.63667L39.4761 6.32944ZM94.806 9.47689L95.0182 10.8207C95.9156 9.38184 97.118 9.16966 98.2983 9.16966C99.5007 9.16966 100.657 9.64045 101.293 10.277L99.9958 12.7768C99.4056 12.2817 98.8641 12.0209 97.9203 12.0209C96.4107 12.0209 95.0182 12.8233 95.0182 14.9694V21.103H92.1404V9.47247L94.806 9.47689ZM87.753 13.935C87.5652 12.4254 86.3849 11.6695 84.7338 11.6695C83.1777 11.6695 81.9024 12.4254 81.478 13.935H87.753ZM81.4316 16.3177C81.6195 17.7566 82.8705 18.7954 84.8996 18.7954C85.9605 18.7954 87.353 18.3932 88.0138 17.7102L89.8528 19.527C88.6261 20.8002 86.6214 21.4146 84.8509 21.4146C80.8415 21.4146 78.4566 18.9369 78.4566 15.2104C78.4566 11.6717 80.8636 9.12324 84.6387 9.12324C88.5311 9.12324 90.9624 11.5302 90.5137 16.3177H81.4316ZM68.7402 4.59216V11.055C69.779 9.71118 71.0522 9.3089 72.3739 9.3089C75.6761 9.3089 77.1393 11.5501 77.1393 14.9716V21.1052H74.2615V14.996C74.2615 12.8719 73.1519 11.9767 71.618 11.9767C69.9183 11.9767 68.7402 13.4156 68.7402 15.1617V21.1074H65.8624V4.59437L68.7402 4.59216ZM61.097 6.19683V9.49899H64.3064V11.9767H61.0749V17.0007C61.0749 18.1102 61.6894 18.6518 62.5846 18.6518C63.0332 18.6518 63.5527 18.5103 63.977 18.2981L64.7794 20.7515C63.9549 21.0809 63.2697 21.2223 62.3967 21.2466C59.8725 21.3417 58.2215 19.9006 58.2215 17.0007V11.9767H56.051V9.49899H58.2215V6.50406L61.097 6.19683ZM53.1467 13.935C52.9588 12.4254 51.7785 11.6695 50.1274 11.6695C48.5714 11.6695 47.296 12.4254 46.8717 13.935H53.1467ZM46.8253 16.3177C47.0131 17.7566 48.2641 18.7954 50.2932 18.7954C51.3541 18.7954 52.7466 18.3932 53.4075 17.7102L55.2464 19.527C54.0197 20.8002 52.015 21.4146 50.2446 21.4146C46.2329 21.4146 43.8502 18.9369 43.8502 15.2104C43.8502 11.6717 46.2572 9.12324 50.0302 9.12324C53.9225 9.12324 56.3516 11.5302 55.9051 16.3177H46.8253Z" fill="white"/>
</g>
</svg>
