<svg width="110" height="26" viewBox="0 0 110 26" fill="none" xmlns="http://www.w3.org/2000/svg">
<g opacity="0.7">
<path d="M13.3389 0.527715C10.869 0.527714 8.45459 1.26012 6.40096 2.63231C4.34733 4.00449 2.74673 5.95484 1.80155 8.23671C0.856367 10.5186 0.609065 13.0295 1.09092 15.4519C1.57277 17.8743 2.76212 20.0994 4.50859 21.8459C6.25506 23.5924 8.48019 24.7817 10.9026 25.2636C13.325 25.7454 15.8359 25.4981 18.1178 24.553C20.3997 23.6078 22.35 22.0072 23.7222 19.9535C25.0944 17.8999 25.8268 15.4855 25.8268 13.0156C25.8268 11.3757 25.5038 9.75182 24.8762 8.23672C24.2486 6.72161 23.3288 5.34495 22.1692 4.18534C21.0096 3.02573 19.6329 2.10588 18.1178 1.4783C16.6027 0.850726 14.9788 0.527715 13.3389 0.527715V0.527715ZM13.5413 13.4265L12.2423 17.8096L19.1901 17.8096C19.2847 17.8096 19.3753 17.8472 19.4422 17.914C19.509 17.9809 19.5466 18.0715 19.5466 18.1661C19.546 18.1998 19.5409 18.2333 19.5315 18.2658L18.9273 20.3471C18.8985 20.4465 18.8381 20.5339 18.7553 20.596C18.6725 20.6581 18.5717 20.6916 18.4682 20.6914L7.85616 20.6914L9.6505 14.6317L7.66585 15.2359L8.10386 13.8192L10.0915 13.215L12.6109 4.70244C12.6386 4.60268 12.6981 4.51473 12.7805 4.45201C12.8629 4.38928 12.9635 4.35523 13.067 4.35505L15.7555 4.35505C15.85 4.35505 15.9407 4.3926 16.0076 4.45945C16.0744 4.5263 16.112 4.61696 16.112 4.7115C16.1166 4.74356 16.1166 4.77611 16.112 4.80816L13.9853 12.0067L15.9579 11.4025L15.532 12.8434L13.5413 13.4265Z" fill="white"/>
<path d="M38.4939 5.68909V22.9756H35.2414V5.68909H38.4939Z" fill="white"/>
<path d="M44.5937 10.7985V22.9756H41.3412V10.7985H44.5937ZM41.1387 7.62482C41.1387 7.15214 41.3037 6.76199 41.6339 6.45438C41.964 6.14676 42.4066 5.99295 42.9619 5.99295C43.5096 5.99295 43.9485 6.14676 44.2786 6.45438C44.6162 6.76199 44.785 7.15214 44.785 7.62482C44.785 8.09749 44.6162 8.48764 44.2786 8.79526C43.9485 9.10287 43.5096 9.25668 42.9619 9.25668C42.4066 9.25668 41.964 9.10287 41.6339 8.79526C41.3037 8.48764 41.1387 8.09749 41.1387 7.62482Z" fill="white"/>
<path d="M53.237 10.7985V13.0944H46.1468V10.7985H53.237ZM47.9025 7.79363H51.1437V19.3067C51.1437 19.6594 51.1887 19.9295 51.2787 20.117C51.3763 20.3046 51.5188 20.4359 51.7064 20.5109C51.894 20.5784 52.1303 20.6122 52.4154 20.6122C52.618 20.6122 52.7981 20.6047 52.9556 20.5897C53.1207 20.5672 53.2595 20.5447 53.372 20.5222L53.3833 22.9081C53.1057 22.9981 52.8056 23.0694 52.4829 23.1219C52.1603 23.1744 51.8039 23.2007 51.4138 23.2007C50.701 23.2007 50.0783 23.0844 49.5456 22.8518C49.0204 22.6117 48.6152 22.2291 48.3301 21.7039C48.045 21.1787 47.9025 20.4884 47.9025 19.6331V7.79363Z" fill="white"/>
<path d="M60.6873 23.2007C59.7419 23.2007 58.8941 23.0506 58.1438 22.7505C57.3935 22.4429 56.7558 22.019 56.2306 21.4788C55.7129 20.9386 55.3153 20.3121 55.0377 19.5993C54.76 18.8791 54.6212 18.1138 54.6212 17.3035V16.8533C54.6212 15.9304 54.7525 15.0864 55.0151 14.3211C55.2777 13.5558 55.6529 12.8918 56.1406 12.3291C56.6358 11.7664 57.236 11.335 57.9412 11.0349C58.6465 10.7272 59.4418 10.5734 60.3272 10.5734C61.19 10.5734 61.9553 10.716 62.623 11.0011C63.2908 11.2862 63.8497 11.6913 64.2999 12.2165C64.7576 12.7417 65.1027 13.372 65.3353 14.1073C65.5679 14.835 65.6842 15.6453 65.6842 16.5382V17.8887H56.0055V15.7279H62.4992V15.4803C62.4992 15.0301 62.4167 14.6287 62.2516 14.2761C62.0941 13.9159 61.854 13.6308 61.5314 13.4208C61.2087 13.2107 60.7961 13.1056 60.2934 13.1056C59.8657 13.1056 59.4981 13.1994 59.1905 13.387C58.8829 13.5746 58.6315 13.8372 58.4364 14.1748C58.2489 14.5124 58.1063 14.9101 58.0088 15.3677C57.9187 15.8179 57.8737 16.3131 57.8737 16.8533V17.3035C57.8737 17.7911 57.9412 18.2413 58.0763 18.654C58.2189 19.0666 58.4177 19.423 58.6728 19.7231C58.9354 20.0232 59.2505 20.2558 59.6181 20.4209C59.9933 20.586 60.4172 20.6685 60.8899 20.6685C61.4751 20.6685 62.019 20.5559 62.5217 20.3309C63.0319 20.0983 63.4708 19.7494 63.8385 19.2842L65.4141 20.9949C65.159 21.3625 64.8101 21.7151 64.3674 22.0528C63.9323 22.3904 63.4071 22.668 62.7918 22.8856C62.1766 23.0956 61.4751 23.2007 60.6873 23.2007Z" fill="white"/>
<path d="M72.5605 20.6685C72.9582 20.6685 73.3108 20.5935 73.6184 20.4434C73.926 20.2858 74.1661 20.0683 74.3387 19.7907C74.5188 19.5055 74.6125 19.1717 74.62 18.789H77.6699C77.6624 19.6443 77.4336 20.4059 76.9834 21.0736C76.5333 21.7339 75.9293 22.2553 75.1715 22.638C74.4137 23.0131 73.5659 23.2007 72.628 23.2007C71.6827 23.2007 70.8574 23.0431 70.1521 22.728C69.4543 22.4129 68.8729 21.9777 68.4077 21.4225C67.9425 20.8598 67.5936 20.2071 67.3611 19.4643C67.1285 18.714 67.0122 17.9112 67.0122 17.0559V16.7295C67.0122 15.8667 67.1285 15.0639 67.3611 14.3211C67.5936 13.5708 67.9425 12.9181 68.4077 12.3629C68.8729 11.8001 69.4543 11.3612 70.1521 11.0461C70.8499 10.731 71.6677 10.5734 72.6055 10.5734C73.6034 10.5734 74.4775 10.7648 75.2278 11.1474C75.9856 11.53 76.5783 12.0777 77.0059 12.7905C77.4411 13.4958 77.6624 14.3323 77.6699 15.3002H74.62C74.6125 14.8951 74.5263 14.5274 74.3612 14.1973C74.2036 13.8672 73.971 13.6046 73.6634 13.4095C73.3633 13.2069 72.9919 13.1056 72.5493 13.1056C72.0766 13.1056 71.6902 13.2069 71.3901 13.4095C71.09 13.6046 70.8574 13.8747 70.6923 14.2198C70.5272 14.5574 70.411 14.9438 70.3434 15.379C70.2834 15.8067 70.2534 16.2568 70.2534 16.7295V17.0559C70.2534 17.5285 70.2834 17.9825 70.3434 18.4176C70.4035 18.8528 70.516 19.2392 70.6811 19.5768C70.8536 19.9144 71.09 20.1808 71.3901 20.3759C71.6902 20.5709 72.0803 20.6685 72.5605 20.6685Z" fill="white"/>
<path d="M79.0317 17.0109V16.7745C79.0317 15.8817 79.1593 15.0601 79.4143 14.3098C79.6694 13.5521 80.0408 12.8956 80.5285 12.3403C81.0162 11.7851 81.6164 11.3537 82.3292 11.0461C83.042 10.731 83.8598 10.5734 84.7826 10.5734C85.7055 10.5734 86.527 10.731 87.2473 11.0461C87.9676 11.3537 88.5716 11.7851 89.0592 12.3403C89.5544 12.8956 89.9296 13.5521 90.1847 14.3098C90.4398 15.0601 90.5673 15.8817 90.5673 16.7745V17.0109C90.5673 17.8962 90.4398 18.7177 90.1847 19.4755C89.9296 20.2258 89.5544 20.8823 89.0592 21.445C88.5716 22.0002 87.9713 22.4316 87.2586 22.7393C86.5458 23.0469 85.728 23.2007 84.8051 23.2007C83.8823 23.2007 83.0607 23.0469 82.3405 22.7393C81.6277 22.4316 81.0237 22.0002 80.5285 21.445C80.0408 20.8823 79.6694 20.2258 79.4143 19.4755C79.1593 18.7177 79.0317 17.8962 79.0317 17.0109ZM82.2729 16.7745V17.0109C82.2729 17.521 82.3179 17.9975 82.408 18.4401C82.498 18.8828 82.6406 19.273 82.8356 19.6106C83.0382 19.9407 83.3008 20.1996 83.6234 20.3871C83.9461 20.5747 84.34 20.6685 84.8051 20.6685C85.2553 20.6685 85.6417 20.5747 85.9643 20.3871C86.2869 20.1996 86.5458 19.9407 86.7409 19.6106C86.9359 19.273 87.0785 18.8828 87.1685 18.4401C87.2661 17.9975 87.3148 17.521 87.3148 17.0109V16.7745C87.3148 16.2793 87.2661 15.8142 87.1685 15.379C87.0785 14.9363 86.9322 14.5462 86.7296 14.2085C86.5345 13.8634 86.2757 13.5933 85.9531 13.3982C85.6304 13.2032 85.2403 13.1056 84.7826 13.1056C84.3249 13.1056 83.9348 13.2032 83.6122 13.3982C83.2971 13.5933 83.0382 13.8634 82.8356 14.2085C82.6406 14.5462 82.498 14.9363 82.408 15.379C82.3179 15.8142 82.2729 16.2793 82.2729 16.7745Z" fill="white"/>
<path d="M95.9806 10.7985V22.9756H92.7281V10.7985H95.9806ZM92.5255 7.62482C92.5255 7.15214 92.6906 6.76199 93.0207 6.45438C93.3509 6.14676 93.7935 5.99295 94.3487 5.99295C94.8964 5.99295 95.3354 6.14676 95.6655 6.45438C96.0031 6.76199 96.1719 7.15214 96.1719 7.62482C96.1719 8.09749 96.0031 8.48764 95.6655 8.79526C95.3354 9.10287 94.8964 9.25668 94.3487 9.25668C93.7935 9.25668 93.3509 9.10287 93.0207 8.79526C92.6906 8.48764 92.5255 8.09749 92.5255 7.62482Z" fill="white"/>
<path d="M101.833 13.3982V22.9756H98.5916V10.7985H101.63L101.833 13.3982ZM101.36 16.4594H100.482C100.482 15.5591 100.599 14.7488 100.831 14.0285C101.064 13.3007 101.39 12.6817 101.81 12.1715C102.23 11.6538 102.729 11.2599 103.307 10.9898C103.892 10.7122 104.545 10.5734 105.265 10.5734C105.836 10.5734 106.357 10.656 106.83 10.821C107.302 10.9861 107.708 11.2487 108.045 11.6088C108.39 11.969 108.653 12.4454 108.833 13.0381C109.021 13.6308 109.114 14.3549 109.114 15.2102V22.9756H105.851V15.1989C105.851 14.6587 105.776 14.2386 105.625 13.9384C105.475 13.6383 105.254 13.4283 104.961 13.3082C104.676 13.1807 104.324 13.1169 103.904 13.1169C103.468 13.1169 103.09 13.2032 102.767 13.3757C102.452 13.5483 102.189 13.7884 101.979 14.096C101.777 14.3961 101.623 14.7488 101.518 15.1539C101.413 15.5591 101.36 15.9942 101.36 16.4594Z" fill="white"/>
</g>
</svg>
