<svg width="94" height="29" viewBox="0 0 94 29" fill="none" xmlns="http://www.w3.org/2000/svg">
<g opacity="0.7">
<path d="M37.2396 21.0046L37.1439 11.7805L37.6806 11.7848L37.7763 21.0089L37.2396 21.0046Z" fill="white" stroke="white" stroke-width="0.906383"/>
<path d="M33.0167 8.15092L33.0087 7.41157L44.7042 7.50666L44.7121 8.24601L33.0167 8.15092Z" fill="white" stroke="white" stroke-width="0.906383"/>
<path d="M40.0369 21.0064L39.9412 11.7823L40.4781 11.7866L40.5738 21.0107L40.0369 21.0064Z" fill="white" stroke="white" stroke-width="0.906383"/>
<path d="M84.8683 15.5347L84.9282 21.0193L84.3575 21.0146L84.2904 14.8573L84.8683 15.5347Z" fill="white" stroke="white" stroke-width="0.906383"/>
<path d="M82.1322 10.0898L82.2672 21.0132L81.6402 21.0076L81.4689 7.15128L91.6881 18.7127L92.493 19.6233L92.4781 18.4208L92.3431 7.50081L92.977 7.5065L93.1483 21.3631L82.9221 9.79772L82.1173 8.88756L82.1322 10.0898Z" fill="white" stroke="white" stroke-width="0.906383"/>
<path d="M64.2195 14.1909C64.1726 10.4218 67.1297 7.40127 70.792 7.43429C74.4542 7.46731 77.4874 10.5453 77.5343 14.311C77.5812 18.0801 74.624 21.1007 70.9618 21.0676C67.2995 21.0346 64.2664 17.96 64.2195 14.1909ZM64.8454 14.1966C64.8876 17.5849 67.6191 20.3773 70.9535 20.4074C74.2882 20.4375 76.9505 17.6899 76.9083 14.3054C76.8662 10.9171 74.1347 8.12462 70.8003 8.09455C67.4622 8.06445 64.8033 10.8085 64.8454 14.1966Z" fill="white" stroke="white" stroke-width="0.906383"/>
<path d="M70.3074 14.2445C70.3032 13.9082 70.5644 13.6546 70.8698 13.6574C71.1753 13.6601 71.4429 13.9185 71.4471 14.2548C71.4513 14.5911 71.19 14.8447 70.8846 14.8419C70.5792 14.8392 70.3115 14.5808 70.3074 14.2445Z" fill="white" stroke="white" stroke-width="0.906383"/>
<path d="M57.53 15.9023L60.2642 21.0694L59.511 21.0657L56.6827 15.6984L56.5542 15.4545L56.2796 15.4531L52.7008 15.4352L52.2476 15.433L52.2503 15.8861L52.2805 21.033L51.659 21.0299L51.6223 14.7665L56.5976 14.7946L56.5976 14.7946L56.6031 14.7946C58.3896 14.783 59.8069 13.2985 59.7963 11.4874C59.7856 9.6674 58.3304 8.16037 56.5278 8.15136L49.8725 8.11809L49.4193 8.11582L49.422 8.569L49.495 21.0191L48.8736 21.016L48.794 7.4491L56.5239 7.48775C58.6666 7.49846 60.436 9.28689 60.4489 11.4907C60.4589 13.1988 59.3558 14.7421 57.7833 15.2634L57.2802 15.4302L57.53 15.9023Z" fill="white" stroke="white" stroke-width="0.906383"/>
<path d="M21.8734 5.57617L21.581 5.29834L21.2711 5.55659L15.6999 10.1999L14.3797 11.3002L16.0708 10.9939L24.855 9.40316L25.7341 9.24397L25.0864 8.62867L21.8734 5.57617ZM13.7925 10.5794L14.0826 10.8199L14.372 10.5787L20.2432 5.68419L20.9857 5.06528L20.0351 4.89038L4.90514 2.1065L3.19671 1.79215L4.53383 2.90105L13.7925 10.5794ZM13.8689 11.6454L13.8985 11.4002L13.7084 11.2424L4.06251 3.23611L3.3519 3.75216L11.4907 24.237L12.3618 24.124L13.8689 11.6454ZM14.7336 11.8045L14.4045 11.8641L14.3645 12.1962L12.9376 24.0259L12.7514 25.5698L13.7379 24.3677L24.8909 10.7762L25.673 9.82301L24.4598 10.0428L14.7336 11.8045ZM12.0875 27.2558L1.62572 0.93438L21.6816 4.62361L26.7243 9.42089L12.0875 27.2558Z" fill="#EB0029" stroke="white" stroke-width="0.906383"/>
</g>
</svg>
