<svg width="15" height="15" viewBox="0 0 15 15" fill="none" xmlns="http://www.w3.org/2000/svg">
<path d="M4.66556 0.699951C2.47879 0.699951 0.699997 2.48039 0.699997 4.66773V10.3344C0.699997 12.5212 2.48044 14.3 4.66777 14.3H10.3344C12.5212 14.3 14.3 12.5195 14.3 10.3322V4.66551C14.3 2.47874 12.5196 0.699951 10.3322 0.699951H4.66556ZM11.4667 2.96662C11.7795 2.96662 12.0333 3.22048 12.0333 3.53328C12.0333 3.84608 11.7795 4.09995 11.4667 4.09995C11.1539 4.09995 10.9 3.84608 10.9 3.53328C10.9 3.22048 11.1539 2.96662 11.4667 2.96662ZM7.5 4.09995C9.3751 4.09995 10.9 5.62485 10.9 7.49995C10.9 9.37505 9.3751 10.9 7.5 10.9C5.6249 10.9 4.1 9.37505 4.1 7.49995C4.1 5.62485 5.6249 4.09995 7.5 4.09995ZM7.5 5.23328C6.89884 5.23328 6.3223 5.47209 5.89722 5.89718C5.47214 6.32226 5.23333 6.89879 5.23333 7.49995C5.23333 8.10111 5.47214 8.67764 5.89722 9.10273C6.3223 9.52781 6.89884 9.76662 7.5 9.76662C8.10116 9.76662 8.67769 9.52781 9.10277 9.10273C9.52785 8.67764 9.76666 8.10111 9.76666 7.49995C9.76666 6.89879 9.52785 6.32226 9.10277 5.89718C8.67769 5.47209 8.10116 5.23328 7.5 5.23328Z" fill="white"/>
</svg>
