<svg width="35" height="35" viewBox="0 0 35 35" fill="none" xmlns="http://www.w3.org/2000/svg">
<mask id="path-1-inside-1_49_3" fill="white">
<path d="M33.4772 21.0386C32.557 24.9759 30.2371 28.4445 26.9496 30.7986C23.6621 33.1526 19.6311 34.2316 15.6072 33.8345C11.5833 33.4374 7.84091 31.5914 5.07693 28.6401C2.31294 25.6889 0.715791 21.8337 0.582908 17.7925C0.450025 13.7513 1.79047 9.7995 4.35461 6.67309C6.91875 3.54669 10.5318 1.45879 14.5209 0.798225C18.51 0.137661 22.6032 0.94946 26.0383 3.08244C29.4733 5.21542 32.016 8.52418 33.1929 12.3925L32.6398 12.5608C31.5037 8.82665 29.0492 5.63265 25.7332 3.57365C22.4173 1.51465 18.4661 0.731004 14.6154 1.36866C10.7646 2.00631 7.27689 4.02179 4.80168 7.03976C2.32647 10.0577 1.03252 13.8724 1.1608 17.7735C1.28907 21.6746 2.83083 25.3961 5.49894 28.2449C8.16706 31.0937 11.7797 32.8758 15.664 33.2591C19.5483 33.6424 23.4395 32.6009 26.613 30.3285C29.7865 28.0561 32.0259 24.7077 32.9142 20.907L33.4772 21.0386Z"/>
</mask>
<path d="M33.4772 21.0386C32.557 24.9759 30.2371 28.4445 26.9496 30.7986C23.6621 33.1526 19.6311 34.2316 15.6072 33.8345C11.5833 33.4374 7.84091 31.5914 5.07693 28.6401C2.31294 25.6889 0.715791 21.8337 0.582908 17.7925C0.450025 13.7513 1.79047 9.7995 4.35461 6.67309C6.91875 3.54669 10.5318 1.45879 14.5209 0.798225C18.51 0.137661 22.6032 0.94946 26.0383 3.08244C29.4733 5.21542 32.016 8.52418 33.1929 12.3925L32.6398 12.5608C31.5037 8.82665 29.0492 5.63265 25.7332 3.57365C22.4173 1.51465 18.4661 0.731004 14.6154 1.36866C10.7646 2.00631 7.27689 4.02179 4.80168 7.03976C2.32647 10.0577 1.03252 13.8724 1.1608 17.7735C1.28907 21.6746 2.83083 25.3961 5.49894 28.2449C8.16706 31.0937 11.7797 32.8758 15.664 33.2591C19.5483 33.6424 23.4395 32.6009 26.613 30.3285C29.7865 28.0561 32.0259 24.7077 32.9142 20.907L33.4772 21.0386Z" stroke="#FDFDFD" stroke-opacity="0.41" stroke-width="1.23484" mask="url(#path-1-inside-1_49_3)"/>
<circle cx="32.7137" cy="16.5514" r="1.23484" transform="rotate(2.00807 32.7137 16.5514)" fill="#FFBD00"/>
<path fill-rule="evenodd" clip-rule="evenodd" d="M23.7491 14.2235C23.533 12.8646 22.9367 11.6308 22.0344 10.6426C22.5018 11.4073 22.8194 12.2654 22.965 13.1802C23.2565 15.0126 22.8214 16.8453 21.7374 18.3355L16.7452 25.222C16.6392 25.3699 16.4693 25.4561 16.2883 25.4561C16.1594 25.4561 16.0363 25.4125 15.9367 25.3348L16.613 26.2679C16.7213 26.4135 16.8912 26.4997 17.0723 26.4997C17.2533 26.4997 17.4233 26.4137 17.5292 26.2656L22.5214 19.3791C23.6055 17.8887 24.0404 16.0562 23.7489 14.2238L23.7491 14.2235ZM16.2884 14.0498C15.4605 14.0498 14.787 13.3762 14.787 12.5485C14.787 11.7205 15.4606 11.0471 16.2884 11.0471C17.1164 11.0471 17.7898 11.7207 17.7898 12.5485C17.7896 13.3762 17.1164 14.0498 16.2884 14.0498ZM16.2884 9.91662C17.7391 9.91662 18.9201 11.0978 18.9201 12.5485C18.9201 13.9992 17.7389 15.1802 16.2884 15.1802C14.8378 15.1802 13.6567 13.999 13.6567 12.5483C13.6564 11.0978 14.8378 9.91662 16.2884 9.91662ZM20.8233 17.673L16.2884 23.9258L11.7535 17.673C9.87668 15.0854 10.4552 11.4531 13.043 9.57864C13.9903 8.89189 15.1141 8.51217 16.2887 8.48364C17.4633 8.51233 18.5849 8.89222 19.5344 9.57864C22.1216 11.4531 22.7001 15.0849 20.8233 17.673H20.8233Z" fill="#FFBD00"/>
</svg>
