<svg width="35" height="35" viewBox="0 0 35 35" fill="none" xmlns="http://www.w3.org/2000/svg">
<mask id="path-1-inside-1_49_4" fill="white">
<path d="M1.01141 13.4507C1.93163 9.51336 4.25151 6.04471 7.53903 3.69068C10.8265 1.33664 14.8576 0.257705 18.8815 0.654789C22.9053 1.05187 26.6477 2.89791 29.4117 5.84911C32.1757 8.80032 33.7729 12.6555 33.9057 16.6967C34.0386 20.738 32.6982 24.6898 30.134 27.8162C27.5699 30.9426 23.9569 33.0305 19.9678 33.691C15.9787 34.3516 11.8854 33.5398 8.45039 31.4068C5.01533 29.2738 2.4726 25.9651 1.29571 22.0967L1.84888 21.9284C2.98494 25.6626 5.43949 28.8566 8.7554 30.9156C12.0713 32.9746 16.0226 33.7583 19.8733 33.1206C23.724 32.4829 27.2118 30.4675 29.687 27.4495C32.1622 24.4315 33.4561 20.6168 33.3279 16.7157C33.1996 12.8147 31.6578 9.0932 28.9897 6.24435C26.3216 3.39551 22.709 1.6135 18.8247 1.23019C14.9404 0.846882 11.0491 1.8884 7.87565 4.16078C4.70216 6.43317 2.46274 9.78152 1.57444 13.5823L1.01141 13.4507Z"/>
</mask>
<path d="M1.01141 13.4507C1.93163 9.51336 4.25151 6.04471 7.53903 3.69068C10.8265 1.33664 14.8576 0.257705 18.8815 0.654789C22.9053 1.05187 26.6477 2.89791 29.4117 5.84911C32.1757 8.80032 33.7729 12.6555 33.9057 16.6967C34.0386 20.738 32.6982 24.6898 30.134 27.8162C27.5699 30.9426 23.9569 33.0305 19.9678 33.691C15.9787 34.3516 11.8854 33.5398 8.45039 31.4068C5.01533 29.2738 2.4726 25.9651 1.29571 22.0967L1.84888 21.9284C2.98494 25.6626 5.43949 28.8566 8.7554 30.9156C12.0713 32.9746 16.0226 33.7583 19.8733 33.1206C23.724 32.4829 27.2118 30.4675 29.687 27.4495C32.1622 24.4315 33.4561 20.6168 33.3279 16.7157C33.1996 12.8147 31.6578 9.0932 28.9897 6.24435C26.3216 3.39551 22.709 1.6135 18.8247 1.23019C14.9404 0.846882 11.0491 1.8884 7.87565 4.16078C4.70216 6.43317 2.46274 9.78152 1.57444 13.5823L1.01141 13.4507Z" stroke="#FDFDFD" stroke-opacity="0.41" stroke-width="1.23484" mask="url(#path-1-inside-1_49_4)"/>
<circle cx="1.77506" cy="17.9379" r="1.23484" transform="rotate(-177.992 1.77506 17.9379)" fill="#FFBD00"/>
<path d="M11.4632 13.3438C11.2945 13.3438 11.1353 13.3869 10.9948 13.4615L16.236 18.1409C16.6093 18.4742 17.1611 18.4753 17.535 18.1436L22.7709 13.4983C22.616 13.4014 22.4345 13.3438 22.2401 13.3438L11.4632 13.3438ZM10.537 13.9548C10.4833 14.0776 10.4528 14.2125 10.4528 14.354V21.7631C10.4528 21.9044 10.4829 22.039 10.5363 22.1617L14.7281 17.698L10.537 13.9548ZM23.1924 14.0239L19.0077 17.7375L23.1405 22.2155C23.21 22.0789 23.2504 21.9255 23.2504 21.763V14.3539C23.2504 14.2382 23.2291 14.1276 23.1925 14.0237L23.1924 14.0239ZM15.2308 18.1461L10.996 22.6563C11.1362 22.7305 11.2948 22.7734 11.463 22.7734H22.2398C22.3873 22.7734 22.5273 22.74 22.6542 22.6819L18.5036 18.1842L17.982 18.6473C17.3571 19.2017 16.41 19.1995 15.787 18.6433L15.2308 18.1461Z" fill="#FFBD00"/>
<path d="M13.4837 11.323C12.9299 11.323 12.4734 11.7795 12.4734 12.3333V12.6873H13.1469V12.3333C13.1469 12.1409 13.2913 11.9965 13.4837 11.9965H24.2605C24.4529 11.9965 24.5973 12.1409 24.5973 12.3333V19.7424C24.5973 19.9348 24.4529 20.0792 24.2605 20.0792H23.9237V20.7527H24.2605C24.8143 20.7527 25.2708 20.2963 25.2708 19.7424V12.3333C25.2708 11.7795 24.8144 11.323 24.2605 11.323L13.4837 11.323Z" fill="#FFBD00"/>
</svg>
