<svg width="16" height="13" viewBox="0 0 16 13" fill="none" xmlns="http://www.w3.org/2000/svg">
<path d="M1.48074 5.80164C1.48074 5.80164 7.93756 3.15176 10.1769 2.21867C11.0353 1.84547 13.9465 0.651114 13.9465 0.651114C13.9465 0.651114 15.2901 0.128629 15.1781 1.39757C15.1408 1.92011 14.8422 3.74889 14.5437 5.727C14.0958 8.52621 13.6106 11.5866 13.6106 11.5866C13.6106 11.5866 13.5359 12.4451 12.9015 12.5944C12.267 12.7436 11.2219 12.0719 11.0353 11.9225C10.886 11.8106 8.23612 10.1311 7.26574 9.30996C7.00447 9.08604 6.7059 8.6382 7.30303 8.11566C8.64667 6.88401 10.2515 5.35379 11.2219 4.38341C11.6698 3.93552 12.1176 2.89049 10.2515 4.15944C7.60165 5.98827 4.98906 7.70511 4.98906 7.70511C4.98906 7.70511 4.39189 8.07831 3.27222 7.7424C2.15251 7.40654 0.846213 6.95865 0.846213 6.95865C0.846213 6.95865 -0.0494774 6.39882 1.48074 5.80164Z" fill="white"/>
</svg>
