<svg width="9" height="11" viewBox="0 0 9 11" fill="none" xmlns="http://www.w3.org/2000/svg">
<path d="M7.20535 7.95209H4.67327C3.97504 7.95209 3.40722 7.38427 3.40722 6.68605V6.05303H7.20535C7.54113 6.05303 7.86315 5.91964 8.10058 5.68221C8.33801 5.44478 8.4714 5.12276 8.4714 4.78699C8.4714 4.45121 8.33801 4.12919 8.10058 3.89176C7.86315 3.65433 7.54113 3.52094 7.20535 3.52094H3.40722V1.62188C3.40722 1.2861 3.27384 0.96408 3.03641 0.72665C2.79898 0.489221 2.47696 0.355835 2.14118 0.355835C1.8054 0.355835 1.48338 0.489221 1.24595 0.72665C1.00852 0.96408 0.875137 1.2861 0.875137 1.62188V6.68605C0.875137 8.78072 2.5786 10.4842 4.67327 10.4842H7.20535C7.54113 10.4842 7.86315 10.3508 8.10058 10.1134C8.33801 9.87593 8.4714 9.55391 8.4714 9.21814C8.4714 8.88236 8.33801 8.56034 8.10058 8.32291C7.86315 8.08548 7.54113 7.95209 7.20535 7.95209Z" fill="white"/>
</svg>
