<svg width="12" height="8" viewBox="0 0 12 8" fill="none" xmlns="http://www.w3.org/2000/svg">
<path d="M9.59993 0H1.95549H1.95562C1.43689 0 0.939492 0.205978 0.572793 0.572793C0.205968 0.939492 0 1.43689 0 1.95562V6.04451V6.04438C0 6.56311 0.205978 7.06051 0.572793 7.42721C0.939492 7.79403 1.43689 8 1.95562 8H9.60006H9.59993C10.1187 8 10.6161 7.79402 10.9828 7.42721C11.3496 7.06051 11.5556 6.56311 11.5556 6.04438V1.95549V1.95562C11.5556 1.43689 11.3496 0.939492 10.9828 0.572793C10.6161 0.205968 10.1187 0 9.59993 0ZM8.12263 4.23651L4.65597 6.01428C4.57338 6.05707 4.47442 6.05372 4.39493 6.00535C4.31532 5.95712 4.26671 5.87081 4.26658 5.7778V2.22224C4.26671 2.12924 4.31532 2.04293 4.39493 1.99469C4.47442 1.94633 4.57338 1.94298 4.65597 1.98576L8.12263 3.76354C8.21167 3.80917 8.26772 3.90081 8.26772 4.00089C8.26772 4.10097 8.21167 4.19261 8.12263 4.23824V4.23651Z" fill="white"/>
</svg>
