<svg width="17" height="17" viewBox="0 0 17 17" fill="none" xmlns="http://www.w3.org/2000/svg">
<path d="M12.3413 10.3645V6.26829C12.3413 5.6952 11.8986 5.22619 11.3362 5.17294V3.401C11.3362 1.66123 9.92072 0.245728 8.18082 0.245728C6.44105 0.245728 5.02555 1.66123 5.02555 3.401V5.17294C4.46343 5.22648 4.021 5.69534 4.021 6.26829V10.3645C4.021 10.9763 4.51836 11.4737 5.13019 11.4737H11.2323C11.8442 11.4737 12.3415 10.9763 12.3415 10.3645H12.3413ZM5.6801 3.4011C5.6801 2.02202 6.80187 0.900248 8.18096 0.900248C9.56004 0.900248 10.682 2.02202 10.682 3.4011V5.16183H5.68024L5.6801 3.4011Z" fill="white"/>
<path d="M16.032 14.4281H15.4103L15.7211 13.8915C15.8128 13.7344 15.7604 13.5349 15.6034 13.4433C15.4463 13.3517 15.2468 13.4073 15.1552 13.5643L14.8444 14.101L14.5335 13.5643C14.4419 13.4073 14.2423 13.3517 14.0852 13.4433C13.9281 13.5349 13.8758 13.7346 13.9641 13.8915L14.275 14.4281H13.6533C13.4734 14.4281 13.3262 14.5753 13.3262 14.7553C13.3262 14.9385 13.4734 15.0824 13.6533 15.0824H14.275L13.9641 15.6222C13.8758 15.7793 13.9281 15.9788 14.0852 16.0704C14.1375 16.0998 14.1932 16.113 14.2488 16.113C14.3633 16.113 14.4713 16.0541 14.5335 15.9493L14.8444 15.4127L15.1552 15.9493C15.2174 16.0541 15.3253 16.113 15.4399 16.113C15.4955 16.113 15.5511 16.0998 15.6035 16.0704C15.7606 15.9788 15.8129 15.7791 15.7213 15.6222L15.4105 15.0824H16.032C16.2152 15.0824 16.3591 14.9385 16.3591 14.7553C16.3591 14.5753 16.2152 14.4281 16.032 14.4281H16.032Z" fill="white"/>
<path d="M7.47599 14.7556C7.47599 14.5757 7.32878 14.4285 7.14885 14.4285H6.52718L6.83802 13.8918C6.92963 13.7348 6.87404 13.5353 6.71697 13.4437C6.56319 13.3521 6.36039 13.4076 6.27208 13.5647L5.96124 14.1045L5.64711 13.5647C5.55879 13.4076 5.35914 13.3521 5.20222 13.4437C5.04516 13.5353 4.99285 13.7349 5.08117 13.8918L5.39202 14.4285H4.77034C4.59041 14.4285 4.44321 14.5757 4.44321 14.7556C4.44321 14.9389 4.59041 15.0828 4.77034 15.0828H5.39202L5.08117 15.6226C4.99285 15.7796 5.04516 15.9792 5.20222 16.0708C5.25453 16.1002 5.31026 16.1133 5.36586 16.1133C5.47705 16.1133 5.58838 16.0545 5.64726 15.9497L5.96139 15.4099L6.27223 15.9497C6.33112 16.0545 6.44231 16.1133 6.55364 16.1133C6.60923 16.1133 6.66811 16.1002 6.71727 16.0708C6.87434 15.9791 6.92993 15.7795 6.83832 15.6226L6.52748 15.0828H7.14915C7.32881 15.0828 7.47602 14.9389 7.47602 14.7556H7.47599Z" fill="white"/>
<path d="M0.32713 15.0826H0.952099L0.641255 15.6226C0.549645 15.7796 0.601955 15.9792 0.759021 16.0708C0.81133 16.1002 0.867061 16.1133 0.922659 16.1133C1.03714 16.1133 1.14518 16.0545 1.20735 15.9497L1.51819 15.4099L1.82904 15.9497C1.8912 16.0545 1.99911 16.1133 2.11372 16.1133C2.16932 16.1133 2.22492 16.1002 2.27736 16.0708C2.43443 15.9791 2.48674 15.7795 2.39513 15.6226L2.08428 15.0828H2.70596C2.88918 15.0828 3.03309 14.9389 3.03309 14.7556C3.03309 14.5757 2.88917 14.4285 2.70596 14.4285H2.08428L2.39513 13.8918C2.48674 13.7348 2.43443 13.5353 2.27736 13.4437C2.1203 13.3521 1.92078 13.4077 1.82918 13.5647L1.51834 14.1045L1.20749 13.5647C1.11588 13.4076 0.91623 13.3521 0.759308 13.4437C0.602242 13.5353 0.549932 13.7349 0.641542 13.8918L0.952386 14.4285L0.327137 14.4284C0.147205 14.4284 0 14.5756 0 14.7555C0 14.9387 0.147205 15.0826 0.327137 15.0826L0.32713 15.0826Z" fill="white"/>
<path d="M11.9193 14.7556C11.9193 14.5757 11.7721 14.4285 11.5921 14.4285H10.9705L11.2813 13.8918C11.3696 13.7348 11.3173 13.5353 11.1602 13.4437C11.0032 13.3521 10.8037 13.4076 10.7119 13.5647L10.4011 14.1014L10.0902 13.5647C9.99863 13.4076 9.79898 13.3521 9.64205 13.4437C9.48828 13.5353 9.43268 13.7348 9.52429 13.8918L9.83513 14.4285H9.21346C9.03024 14.4285 8.88632 14.5757 8.88632 14.7556C8.88632 14.9389 9.03024 15.0828 9.21346 15.0828H9.83513L9.52429 15.6226C9.43268 15.7798 9.48828 15.9793 9.64205 16.0709C9.69436 16.1003 9.74996 16.1135 9.80569 16.1135C9.92017 16.1135 10.0315 16.0546 10.0904 15.9498L10.4012 15.4132L10.7121 15.9498C10.7742 16.0546 10.8854 16.1135 10.9968 16.1135C11.0524 16.1135 11.1079 16.1003 11.1604 16.0709C11.3175 15.9793 11.3698 15.7796 11.2814 15.6227L10.9706 15.0829H11.5923C11.7721 15.0828 11.9193 14.9389 11.9193 14.7556L11.9193 14.7556Z" fill="white"/>
</svg>
