<svg width="157" height="34" viewBox="0 0 157 34" fill="none" xmlns="http://www.w3.org/2000/svg">
<path d="M20.1472 0.283442C20.1279 0.264225 20.1039 0.249813 20.0847 0.235401C20.0799 0.235401 20.0751 0.230596 20.0751 0.225792C20.0655 0.220988 20.0559 0.216185 20.0511 0.211381L20.0463 0.206578C20.0126 0.182557 19.979 0.16334 19.9454 0.148928C19.9454 0.148928 19.9454 0.148928 19.9406 0.148928C19.9214 0.13932 19.8973 0.124907 19.8781 0.115299C19.8733 0.110495 19.8637 0.110494 19.8589 0.10569C19.8541 0.100886 19.8493 0.100887 19.8397 0.100887C19.8013 0.0864752 19.7628 0.0720618 19.7244 0.0576495C19.686 0.0480414 19.6427 0.0336285 19.5995 0.0240204C19.5563 0.0144122 19.5082 0.00960992 19.4602 0.00480584C19.4073 1.75923e-06 19.3497 0 19.292 0C19.22 0 19.1431 0.00960933 19.0662 0.0192175C18.9798 0.0336297 18.8885 0.0576513 18.802 0.0864757L6.34023 4.17955L3.44818 1.7679L3.79888 5.01546L3.78447 5.02026L3.80369 5.03468L4.26968 9.38237L16.251 12.4474L13.5752 10.2135L26.0129 6.13C26.1042 6.10118 26.1907 6.07716 26.282 6.06755C26.3588 6.05314 26.4309 6.04834 26.503 6.04353C26.5606 6.04353 26.6135 6.04353 26.6711 6.04834C26.7191 6.05314 26.7672 6.06275 26.8104 6.07236C26.8537 6.08196 26.8921 6.09157 26.9353 6.10598C26.9738 6.1204 27.0122 6.13481 27.0506 6.14922C27.0554 6.15402 27.065 6.15402 27.0698 6.15883C27.0746 6.16363 27.0842 6.16363 27.0891 6.16844C27.1131 6.17805 27.1323 6.19246 27.1563 6.20207C27.1899 6.22128 27.2236 6.2405 27.2572 6.26452C27.2668 6.26932 27.2764 6.27893 27.286 6.28854C27.2908 6.28854 27.2956 6.29334 27.2956 6.29334C27.3148 6.30775 27.3293 6.31736 27.3485 6.33178C24.9416 4.30926 22.5444 2.29635 20.1472 0.283442Z" fill="url(#paint0_linear_1_3511)"/>
<path d="M27.2764 6.79302C27.2668 6.78341 27.2572 6.77861 27.2476 6.769C27.214 6.74498 27.1803 6.72576 27.1467 6.71135C27.1227 6.70174 27.1035 6.69213 27.0795 6.67772C27.0747 6.67292 27.065 6.67292 27.0602 6.66811C27.0554 6.66331 27.0458 6.66331 27.041 6.6585C27.0026 6.64409 26.9642 6.62968 26.9257 6.61527C26.8825 6.60085 26.8441 6.59125 26.8008 6.58164C26.7528 6.57203 26.7095 6.56242 26.6567 6.56242C26.6039 6.55762 26.5462 6.55762 26.4886 6.55762C26.4165 6.55762 26.3396 6.56723 26.2676 6.57683C26.1811 6.59125 26.0898 6.61046 25.9985 6.64409L20.6468 8.40238L20.618 19.4566L27.8289 25.5001L27.8962 8.1862C27.901 7.6001 27.6992 7.13411 27.3677 6.85547L27.3341 6.82665C27.3197 6.81704 27.3101 6.80743 27.2956 6.79782C27.2812 6.79782 27.2764 6.79302 27.2764 6.79302Z" fill="url(#paint1_linear_1_3511)"/>
<path d="M8.76237 32.7646C8.75713 32.7594 8.75713 32.7594 8.75189 32.7542L8.76237 32.7646Z" fill="#5C003C"/>
<path d="M1.54102 26.7107C1.54625 26.7159 1.54625 26.7159 1.55149 26.7212L1.54102 26.7107Z" fill="#5C003C"/>
<path d="M7.67097 31.3082L7.76705 13.9847L0.556125 7.94116L0.460043 25.2647C0.455239 25.8604 0.661812 26.336 0.998097 26.6194L8.20902 32.6629C7.87274 32.3747 7.66616 31.9039 7.67097 31.3082Z" fill="url(#paint2_linear_1_3511)"/>
<path d="M8.75672 32.8166C8.78555 32.8406 8.81918 32.8646 8.84801 32.8838H8.8432C8.85281 32.8886 8.85761 32.8934 8.86722 32.8982C8.87683 32.903 8.88643 32.9126 8.90085 32.9174C8.93447 32.9367 8.96811 32.9559 9.00174 32.9703C9.01134 32.9751 9.02575 32.9799 9.03536 32.9895C9.0786 33.0087 9.12664 33.0279 9.17468 33.0423C9.18428 33.0472 9.18909 33.0471 9.1987 33.0471C9.23713 33.0568 9.28037 33.0664 9.3188 33.076C9.33801 33.0808 9.35724 33.0808 9.37646 33.0856C9.41009 33.0904 9.44371 33.0952 9.47734 33.0952C9.50136 33.0952 9.53018 33.1 9.55421 33.1C9.59744 33.1 9.64068 33.1 9.68872 33.0952C9.69353 33.0952 9.69833 33.0952 9.69833 33.0952C9.75117 33.0904 9.80402 33.0856 9.85686 33.0712C9.87128 33.0664 9.88568 33.0664 9.9001 33.0616C9.95775 33.052 10.0154 33.0327 10.073 33.0135L22.5492 28.9445L25.5085 31.4138L24.6918 23.7945L12.7105 20.7295L15.3191 22.9057L8.23308 25.2165L8.18984 31.4378C8.18504 32.0335 8.39162 32.5091 8.72791 32.7925" fill="url(#paint3_linear_1_3511)"/>
<path d="M39.1992 3.96094H45.9961C46.5664 3.96094 47.0391 4.25391 47.4141 4.83984C47.5469 5.10547 47.6133 5.35937 47.6133 5.60156V22.3828C47.6133 23.0078 47.2969 23.5039 46.6641 23.8711C46.4531 23.957 46.3047 24 46.2188 24H45.6445C45.3711 23.9844 45.0625 23.8281 44.7188 23.5312C44.4062 23.2031 44.25 22.7656 44.25 22.2188V7.3125H39.1758C38.6523 7.3125 38.1953 7.04297 37.8047 6.50391C37.6484 6.18359 37.5703 5.89453 37.5703 5.63672C37.5703 5.05859 37.8359 4.58203 38.3672 4.20703C38.6484 4.04297 38.9258 3.96094 39.1992 3.96094ZM52.5586 3.96094H52.6875C53.2188 3.96094 53.6797 4.23437 54.0703 4.78125C54.2188 5.0625 54.293 5.35547 54.293 5.66016C54.293 6.26172 53.9961 6.75 53.4023 7.125C53.1367 7.25 52.8945 7.3125 52.6758 7.3125H52.5469C51.9766 7.3125 51.5078 7.02344 51.1406 6.44531C51 6.17188 50.9297 5.89844 50.9297 5.625C50.9297 5.02344 51.2188 4.53906 51.7969 4.17188C52.0547 4.03125 52.3086 3.96094 52.5586 3.96094ZM67.3242 3.96094H67.4883C68.1758 3.96094 68.7695 4.37891 69.2695 5.21484C70.1055 6.45703 70.5234 7.8125 70.5234 9.28125V9.32812C70.5234 11.1328 69.9062 12.7539 68.6719 14.1914C68.0547 14.8164 67.6289 15.1914 67.3945 15.3164C67.0195 15.5742 66.6602 15.7812 66.3164 15.9375V15.9609C68.7148 19.0312 70.0234 20.7188 70.2422 21.0234C70.4141 21.3516 70.5 21.6523 70.5 21.9258V22.125C70.5 22.7734 70.1641 23.3242 69.4922 23.7773C69.1875 23.9258 68.9648 24 68.8242 24H68.1562C67.8047 23.9688 67.4336 23.7773 67.043 23.4258C63.4883 18.8711 61.6758 16.5352 61.6055 16.418C61.4648 16.0977 61.3945 15.7773 61.3945 15.457V15.293C61.3945 14.5352 61.7422 13.8711 62.4375 13.3008C62.8906 12.9961 63.3164 12.8438 63.7148 12.8438C64.0742 12.7734 64.3828 12.6836 64.6406 12.5742C65.4688 12.1758 66.0742 11.5664 66.457 10.7461C66.6523 10.2539 66.75 9.82031 66.75 9.44531V9.38672C66.75 9.35547 66.7539 9.33203 66.7617 9.31641L66.75 9.23438V9.17578C66.75 8.51953 66.5234 7.86328 66.0703 7.20703C66.0781 7.18359 66.082 7.16797 66.082 7.16016C65.7148 6.80078 65.5312 6.36328 65.5312 5.84766V5.8125C65.5312 5.15625 65.832 4.62891 66.4336 4.23047C66.7305 4.05078 67.0273 3.96094 67.3242 3.96094ZM85.7344 3.96094H85.8633C86.457 3.96094 86.9492 4.25391 87.3398 4.83984C87.4727 5.10547 87.5391 5.35937 87.5391 5.60156V22.3594C87.5391 23.0625 87.1758 23.582 86.4492 23.918C86.2852 23.9727 86.1719 24 86.1094 24H85.4883C85.207 24 84.8711 23.8203 84.4805 23.4609C84.1992 23.1328 84.0586 22.75 84.0586 22.3125V5.66016C84.0586 4.92578 84.4336 4.39063 85.1836 4.05469C85.3867 3.99219 85.5703 3.96094 85.7344 3.96094Z" fill="white"/>
<path d="M99.8203 3.96094H103.395C105.465 3.96094 107.461 4.67188 109.383 6.09375C109.68 6.32031 110.098 6.71094 110.637 7.26562C112.387 9.26562 113.262 11.457 113.262 13.8398V14.1562C113.262 16.6875 112.266 19.0156 110.273 21.1406C109.461 21.8828 108.809 22.375 108.316 22.6172C108.051 22.7969 107.578 23.0352 106.898 23.332C105.695 23.7773 104.719 24 103.969 24H99.5859C99.3594 24 99.0781 23.8633 98.7422 23.5898C98.3828 23.2383 98.2031 22.8242 98.2031 22.3477C98.2031 21.6914 98.5273 21.1875 99.1758 20.8359C99.4102 20.7344 99.6641 20.6836 99.9375 20.6836H103.242C105.008 20.6836 106.531 20.082 107.812 18.8789C108.344 18.3242 108.723 17.8555 108.949 17.4727C109.598 16.3633 109.922 15.2656 109.922 14.1797V13.8281C109.922 12.3984 109.406 11.0352 108.375 9.73828C107.008 8.12109 105.234 7.3125 103.055 7.3125H101.566V10.0312C101.566 10.8984 101.152 11.4766 100.324 11.7656C100.16 11.7969 100.02 11.8125 99.9023 11.8125H99.8906C99.2031 11.8125 98.6875 11.4805 98.3438 10.8164C98.25 10.5898 98.2031 10.3477 98.2031 10.0898V5.66016C98.2031 4.93359 98.5586 4.40625 99.2695 4.07812C99.4648 4 99.6484 3.96094 99.8203 3.96094ZM120.762 3.96094H130.559L130.605 3.98438H130.641C131.227 3.98438 131.703 4.28516 132.07 4.88672C132.195 5.13672 132.258 5.39453 132.258 5.66016C132.258 6.30859 131.938 6.80859 131.297 7.16016C131.078 7.26172 130.859 7.3125 130.641 7.3125H120.656C120.188 7.3125 119.773 7.09766 119.414 6.66797C119.18 6.35547 119.062 6.03516 119.062 5.70703V5.56641C119.062 5.05078 119.32 4.60937 119.836 4.24219C120.117 4.07031 120.395 3.98438 120.668 3.98438H120.715L120.762 3.96094ZM120.738 12.3398L125.789 12.3633C126.125 12.3633 126.484 12.5352 126.867 12.8789C127.172 13.2305 127.324 13.6133 127.324 14.0273C127.324 14.6055 127.055 15.0781 126.516 15.4453C126.25 15.6016 125.992 15.6797 125.742 15.6797H120.633C120.133 15.6797 119.699 15.4297 119.332 14.9297C119.152 14.6484 119.062 14.3672 119.062 14.0859V13.9453C119.062 13.4141 119.34 12.957 119.895 12.5742C120.176 12.4336 120.441 12.3633 120.691 12.3633H120.715C120.73 12.3633 120.738 12.3555 120.738 12.3398ZM130.547 12.3633H130.629C131.262 12.3633 131.758 12.6914 132.117 13.3477C132.211 13.582 132.258 13.8086 132.258 14.0273C132.258 14.6836 131.934 15.1875 131.285 15.5391C131.051 15.6328 130.844 15.6797 130.664 15.6797H130.5C129.969 15.6797 129.516 15.4023 129.141 14.8477C128.992 14.5664 128.918 14.2891 128.918 14.0156C128.918 13.375 129.238 12.875 129.879 12.5156C130.121 12.4141 130.344 12.3633 130.547 12.3633ZM120.762 20.6836H130.559C130.559 20.6992 130.68 20.7188 130.922 20.7422C131.328 20.8438 131.637 21.0273 131.848 21.293C132.121 21.6133 132.258 21.9805 132.258 22.3945C132.258 23.0273 131.938 23.5273 131.297 23.8945C131.102 23.9648 130.969 24 130.898 24H120.422C120.148 24 119.82 23.8164 119.438 23.4492C119.188 23.1133 119.062 22.7734 119.062 22.4297V22.3242C119.062 21.7461 119.355 21.2734 119.941 20.9062C120.113 20.8047 120.379 20.7344 120.738 20.6953C120.738 20.6875 120.746 20.6836 120.762 20.6836ZM152.73 3.96094C152.941 3.96094 153.176 4.01563 153.434 4.125C154.059 4.48438 154.371 4.97656 154.371 5.60156C154.371 5.78125 154.328 5.99609 154.242 6.24609C153.891 6.91016 153.398 7.24219 152.766 7.24219H152.684C152.418 7.24219 152.152 7.16797 151.887 7.01953C151.348 6.66016 151.078 6.19922 151.078 5.63672V5.57812C151.078 5.30469 151.152 5.03906 151.301 4.78125C151.66 4.23437 152.137 3.96094 152.73 3.96094ZM139.641 3.96094C139.789 3.96094 139.988 3.99609 140.238 4.06641C140.559 4.17578 140.949 4.54688 141.41 5.17969C145.426 10.3281 149.59 15.668 153.902 21.1992C154.215 21.543 154.371 21.9375 154.371 22.3828C154.371 22.7422 154.246 23.0898 153.996 23.4258C153.613 23.8086 153.273 24 152.977 24H152.414C152.141 24 151.82 23.8281 151.453 23.4844C148.211 19.3359 146.453 17.0781 146.18 16.7109L144.199 19.2305C142.074 21.9648 140.938 23.4102 140.789 23.5664C140.445 23.8555 140.156 24 139.922 24H139.371C139.246 24 139.09 23.9531 138.902 23.8594C138.277 23.5078 137.965 23.0195 137.965 22.3945V22.3242C137.965 22.0508 138.039 21.7852 138.188 21.5273C138.336 21.3242 140.289 18.8164 144.047 14.0039V13.9922L138.574 6.96094C138.168 6.53906 137.965 6.10937 137.965 5.67188V5.60156C137.965 5.34375 138.031 5.09375 138.164 4.85156C138.523 4.25781 139.016 3.96094 139.641 3.96094Z" fill="#FFBD00"/>
<path d="M39.1992 4.96094H45.9961C46.5664 4.96094 47.0391 5.25391 47.4141 5.83984C47.5469 6.10547 47.6133 6.35937 47.6133 6.60156V23.3828C47.6133 24.0078 47.2969 24.5039 46.6641 24.8711C46.4531 24.957 46.3047 25 46.2188 25H45.6445C45.3711 24.9844 45.0625 24.8281 44.7188 24.5312C44.4062 24.2031 44.25 23.7656 44.25 23.2188V8.3125H39.1758C38.6523 8.3125 38.1953 8.04297 37.8047 7.50391C37.6484 7.18359 37.5703 6.89453 37.5703 6.63672C37.5703 6.05859 37.8359 5.58203 38.3672 5.20703C38.6484 5.04297 38.9258 4.96094 39.1992 4.96094ZM52.5586 4.96094H52.6875C53.2188 4.96094 53.6797 5.23437 54.0703 5.78125C54.2188 6.0625 54.293 6.35547 54.293 6.66016C54.293 7.26172 53.9961 7.75 53.4023 8.125C53.1367 8.25 52.8945 8.3125 52.6758 8.3125H52.5469C51.9766 8.3125 51.5078 8.02344 51.1406 7.44531C51 7.17188 50.9297 6.89844 50.9297 6.625C50.9297 6.02344 51.2188 5.53906 51.7969 5.17188C52.0547 5.03125 52.3086 4.96094 52.5586 4.96094ZM67.3242 4.96094H67.4883C68.1758 4.96094 68.7695 5.37891 69.2695 6.21484C70.1055 7.45703 70.5234 8.8125 70.5234 10.2812V10.3281C70.5234 12.1328 69.9062 13.7539 68.6719 15.1914C68.0547 15.8164 67.6289 16.1914 67.3945 16.3164C67.0195 16.5742 66.6602 16.7812 66.3164 16.9375V16.9609C68.7148 20.0312 70.0234 21.7188 70.2422 22.0234C70.4141 22.3516 70.5 22.6523 70.5 22.9258V23.125C70.5 23.7734 70.1641 24.3242 69.4922 24.7773C69.1875 24.9258 68.9648 25 68.8242 25H68.1562C67.8047 24.9688 67.4336 24.7773 67.043 24.4258C63.4883 19.8711 61.6758 17.5352 61.6055 17.418C61.4648 17.0977 61.3945 16.7773 61.3945 16.457V16.293C61.3945 15.5352 61.7422 14.8711 62.4375 14.3008C62.8906 13.9961 63.3164 13.8438 63.7148 13.8438C64.0742 13.7734 64.3828 13.6836 64.6406 13.5742C65.4688 13.1758 66.0742 12.5664 66.457 11.7461C66.6523 11.2539 66.75 10.8203 66.75 10.4453V10.3867C66.75 10.3555 66.7539 10.332 66.7617 10.3164L66.75 10.2344V10.1758C66.75 9.51953 66.5234 8.86328 66.0703 8.20703C66.0781 8.18359 66.082 8.16797 66.082 8.16016C65.7148 7.80078 65.5312 7.36328 65.5312 6.84766V6.8125C65.5312 6.15625 65.832 5.62891 66.4336 5.23047C66.7305 5.05078 67.0273 4.96094 67.3242 4.96094ZM85.7344 4.96094H85.8633C86.457 4.96094 86.9492 5.25391 87.3398 5.83984C87.4727 6.10547 87.5391 6.35937 87.5391 6.60156V23.3594C87.5391 24.0625 87.1758 24.582 86.4492 24.918C86.2852 24.9727 86.1719 25 86.1094 25H85.4883C85.207 25 84.8711 24.8203 84.4805 24.4609C84.1992 24.1328 84.0586 23.75 84.0586 23.3125V6.66016C84.0586 5.92578 84.4336 5.39063 85.1836 5.05469C85.3867 4.99219 85.5703 4.96094 85.7344 4.96094Z" fill="white"/>
<path d="M99.8203 4.96094H103.395C105.465 4.96094 107.461 5.67188 109.383 7.09375C109.68 7.32031 110.098 7.71094 110.637 8.26562C112.387 10.2656 113.262 12.457 113.262 14.8398V15.1562C113.262 17.6875 112.266 20.0156 110.273 22.1406C109.461 22.8828 108.809 23.375 108.316 23.6172C108.051 23.7969 107.578 24.0352 106.898 24.332C105.695 24.7773 104.719 25 103.969 25H99.5859C99.3594 25 99.0781 24.8633 98.7422 24.5898C98.3828 24.2383 98.2031 23.8242 98.2031 23.3477C98.2031 22.6914 98.5273 22.1875 99.1758 21.8359C99.4102 21.7344 99.6641 21.6836 99.9375 21.6836H103.242C105.008 21.6836 106.531 21.082 107.812 19.8789C108.344 19.3242 108.723 18.8555 108.949 18.4727C109.598 17.3633 109.922 16.2656 109.922 15.1797V14.8281C109.922 13.3984 109.406 12.0352 108.375 10.7383C107.008 9.12109 105.234 8.3125 103.055 8.3125H101.566V11.0312C101.566 11.8984 101.152 12.4766 100.324 12.7656C100.16 12.7969 100.02 12.8125 99.9023 12.8125H99.8906C99.2031 12.8125 98.6875 12.4805 98.3438 11.8164C98.25 11.5898 98.2031 11.3477 98.2031 11.0898V6.66016C98.2031 5.93359 98.5586 5.40625 99.2695 5.07812C99.4648 5 99.6484 4.96094 99.8203 4.96094ZM120.762 4.96094H130.559L130.605 4.98438H130.641C131.227 4.98438 131.703 5.28516 132.07 5.88672C132.195 6.13672 132.258 6.39453 132.258 6.66016C132.258 7.30859 131.938 7.80859 131.297 8.16016C131.078 8.26172 130.859 8.3125 130.641 8.3125H120.656C120.188 8.3125 119.773 8.09766 119.414 7.66797C119.18 7.35547 119.062 7.03516 119.062 6.70703V6.56641C119.062 6.05078 119.32 5.60937 119.836 5.24219C120.117 5.07031 120.395 4.98438 120.668 4.98438H120.715L120.762 4.96094ZM120.738 13.3398L125.789 13.3633C126.125 13.3633 126.484 13.5352 126.867 13.8789C127.172 14.2305 127.324 14.6133 127.324 15.0273C127.324 15.6055 127.055 16.0781 126.516 16.4453C126.25 16.6016 125.992 16.6797 125.742 16.6797H120.633C120.133 16.6797 119.699 16.4297 119.332 15.9297C119.152 15.6484 119.062 15.3672 119.062 15.0859V14.9453C119.062 14.4141 119.34 13.957 119.895 13.5742C120.176 13.4336 120.441 13.3633 120.691 13.3633H120.715C120.73 13.3633 120.738 13.3555 120.738 13.3398ZM130.547 13.3633H130.629C131.262 13.3633 131.758 13.6914 132.117 14.3477C132.211 14.582 132.258 14.8086 132.258 15.0273C132.258 15.6836 131.934 16.1875 131.285 16.5391C131.051 16.6328 130.844 16.6797 130.664 16.6797H130.5C129.969 16.6797 129.516 16.4023 129.141 15.8477C128.992 15.5664 128.918 15.2891 128.918 15.0156C128.918 14.375 129.238 13.875 129.879 13.5156C130.121 13.4141 130.344 13.3633 130.547 13.3633ZM120.762 21.6836H130.559C130.559 21.6992 130.68 21.7188 130.922 21.7422C131.328 21.8438 131.637 22.0273 131.848 22.293C132.121 22.6133 132.258 22.9805 132.258 23.3945C132.258 24.0273 131.938 24.5273 131.297 24.8945C131.102 24.9648 130.969 25 130.898 25H120.422C120.148 25 119.82 24.8164 119.438 24.4492C119.188 24.1133 119.062 23.7734 119.062 23.4297V23.3242C119.062 22.7461 119.355 22.2734 119.941 21.9062C120.113 21.8047 120.379 21.7344 120.738 21.6953C120.738 21.6875 120.746 21.6836 120.762 21.6836ZM152.73 4.96094C152.941 4.96094 153.176 5.01563 153.434 5.125C154.059 5.48438 154.371 5.97656 154.371 6.60156C154.371 6.78125 154.328 6.99609 154.242 7.24609C153.891 7.91016 153.398 8.24219 152.766 8.24219H152.684C152.418 8.24219 152.152 8.16797 151.887 8.01953C151.348 7.66016 151.078 7.19922 151.078 6.63672V6.57812C151.078 6.30469 151.152 6.03906 151.301 5.78125C151.66 5.23437 152.137 4.96094 152.73 4.96094ZM139.641 4.96094C139.789 4.96094 139.988 4.99609 140.238 5.06641C140.559 5.17578 140.949 5.54688 141.41 6.17969C145.426 11.3281 149.59 16.668 153.902 22.1992C154.215 22.543 154.371 22.9375 154.371 23.3828C154.371 23.7422 154.246 24.0898 153.996 24.4258C153.613 24.8086 153.273 25 152.977 25H152.414C152.141 25 151.82 24.8281 151.453 24.4844C148.211 20.3359 146.453 18.0781 146.18 17.7109L144.199 20.2305C142.074 22.9648 140.938 24.4102 140.789 24.5664C140.445 24.8555 140.156 25 139.922 25H139.371C139.246 25 139.09 24.9531 138.902 24.8594C138.277 24.5078 137.965 24.0195 137.965 23.3945V23.3242C137.965 23.0508 138.039 22.7852 138.188 22.5273C138.336 22.3242 140.289 19.8164 144.047 15.0039V14.9922L138.574 7.96094C138.168 7.53906 137.965 7.10937 137.965 6.67188V6.60156C137.965 6.34375 138.031 6.09375 138.164 5.85156C138.523 5.25781 139.016 4.96094 139.641 4.96094Z" fill="#FFBD00"/>
<defs>
<linearGradient id="paint0_linear_1_3511" x1="9.02074" y1="13.3447" x2="20.0133" y2="0.173735" gradientUnits="userSpaceOnUse">
<stop stop-color="#FFAA00"/>
<stop offset="0.3844" stop-color="#FFAC00"/>
<stop offset="0.5816" stop-color="#FFB400"/>
<stop offset="0.7363" stop-color="#FFC100"/>
<stop offset="0.8682" stop-color="#FFD400"/>
<stop offset="0.9856" stop-color="#FFEC00"/>
<stop offset="1" stop-color="#FFF000"/>
</linearGradient>
<linearGradient id="paint1_linear_1_3511" x1="24.1587" y1="24.5797" x2="29.2719" y2="4.2023" gradientUnits="userSpaceOnUse">
<stop stop-color="#FFAA00"/>
<stop offset="0.3709" stop-color="#FFA800"/>
<stop offset="0.5045" stop-color="#FFA100"/>
<stop offset="0.5998" stop-color="#FF9600"/>
<stop offset="0.6768" stop-color="#FF8500"/>
<stop offset="0.7429" stop-color="#FF6F00"/>
<stop offset="0.8012" stop-color="#FF5300"/>
<stop offset="0.8541" stop-color="#FF3300"/>
<stop offset="0.9011" stop-color="#FF0F00"/>
<stop offset="0.9176" stop-color="#FF0000"/>
</linearGradient>
<linearGradient id="paint2_linear_1_3511" x1="4.26931" y1="31.6721" x2="9.65176" y2="10.2218" gradientUnits="userSpaceOnUse">
<stop stop-color="#2391A6"/>
<stop offset="0.4041" stop-color="#22A5BD"/>
<stop offset="1" stop-color="#1AB7D3"/>
</linearGradient>
<linearGradient id="paint3_linear_1_3511" x1="8.01677" y1="34.3234" x2="23.4074" y2="22.1689" gradientUnits="userSpaceOnUse">
<stop stop-color="#1C8295"/>
<stop offset="0.263542" stop-color="#2190A5"/>
<stop offset="0.6122" stop-color="#1CA7C0"/>
<stop offset="0.7892" stop-color="#1CB3CE"/>
<stop offset="1" stop-color="#17BDDB"/>
</linearGradient>
</defs>
</svg>
