<svg width="11" height="17" viewBox="0 0 11 17" fill="none" xmlns="http://www.w3.org/2000/svg">
<path d="M5.76517 6.55011C6.51763 6.55011 7.13275 5.93828 7.13275 5.18252C7.13275 4.43006 6.52093 3.81494 5.76517 3.81494C5.0127 3.81494 4.39758 4.42676 4.39758 5.18252C4.39758 5.93828 5.0127 6.55011 5.76517 6.55011Z" fill="white"/>
<path d="M3.87078 8.95814H7.65958C7.8428 8.95814 7.98671 8.81421 7.98671 8.631C7.98671 7.86209 7.59413 7.18482 6.99857 6.78564C6.65829 7.04733 6.22966 7.20438 5.76504 7.20438C5.30041 7.20438 4.87183 7.04732 4.53151 6.78564C3.93599 7.18482 3.54337 7.86209 3.54337 8.631C3.5435 8.81408 3.69084 8.95814 3.87078 8.95814H3.87078Z" fill="white"/>
<path d="M9.99882 0H1.53468C0.981753 0 0.530273 0.451479 0.530273 1.00441V15.3579C0.530273 15.9108 0.981753 16.359 1.53468 16.359H9.99882C10.5517 16.359 11 15.9108 11 15.3579V1.00441C11 0.451479 10.5518 0 9.99882 0ZM10.3457 14.1505H1.18429V2.20814H10.3453L10.3457 14.1505Z" fill="white"/>
<path d="M2.57511 11.9977H2.634L2.60456 12.05C2.51295 12.2071 2.56854 12.4066 2.72561 12.4982C2.77792 12.5277 2.83351 12.5408 2.88924 12.5408C3.00372 12.5408 3.11177 12.4819 3.17393 12.3772L3.20337 12.3249L3.23282 12.3772C3.29498 12.4819 3.40289 12.5408 3.5175 12.5408C3.5731 12.5408 3.6287 12.5277 3.68114 12.4982C3.83821 12.4066 3.89052 12.207 3.80219 12.05L3.77275 11.9977H3.83163C4.01157 11.9977 4.15877 11.8505 4.15877 11.6706C4.15877 11.4907 4.01157 11.3435 3.83163 11.3435L3.76933 11.3433L3.79877 11.291C3.89038 11.1339 3.83478 10.9344 3.67772 10.8428C3.52066 10.7512 3.32114 10.8068 3.22954 10.9639L3.2001 11.0162L3.17066 10.9639C3.07904 10.8068 2.87939 10.7545 2.72247 10.8428C2.56541 10.9344 2.5131 11.1341 2.60142 11.291L2.63086 11.3433H2.57198C2.39205 11.3433 2.24484 11.4905 2.24484 11.6705C2.24471 11.8504 2.3952 11.9977 2.57513 11.9977L2.57511 11.9977Z" fill="white"/>
<path d="M6.39338 11.3433H6.3345L6.36394 11.291C6.45555 11.1339 6.39995 10.9344 6.24289 10.8428C6.08582 10.7512 5.88631 10.8068 5.79471 10.9639L5.76513 11.0162L5.73569 10.9639C5.64408 10.8068 5.44443 10.7545 5.2875 10.8428C5.13044 10.9344 5.07813 11.1341 5.16645 11.291L5.1959 11.3433H5.13701C4.95708 11.3433 4.80988 11.4905 4.80988 11.6705C4.80988 11.8504 4.95708 11.9976 5.13701 11.9976H5.1959L5.16645 12.0499C5.07484 12.207 5.13044 12.4065 5.2875 12.4981C5.33981 12.5275 5.39541 12.5407 5.45114 12.5407C5.56562 12.5407 5.67366 12.4818 5.73583 12.377L5.76514 12.3249L5.79458 12.3772C5.85674 12.4819 5.96465 12.5408 6.07927 12.5408C6.13486 12.5408 6.19046 12.5277 6.2429 12.4982C6.39997 12.4066 6.45228 12.207 6.36395 12.05L6.33451 11.9977H6.3934C6.57333 11.9977 6.72053 11.8505 6.72053 11.6706C6.72053 11.4905 6.57333 11.3433 6.3934 11.3433H6.39338Z" fill="white"/>
<path d="M7.85274 10.8462C7.69567 10.9379 7.64336 11.1375 7.73169 11.2944L7.76113 11.3467H7.69896C7.51903 11.3467 7.37183 11.4939 7.37183 11.6739C7.37183 11.8538 7.51903 12.001 7.69896 12.001H7.75785L7.72841 12.0533C7.6368 12.2104 7.69239 12.4099 7.84946 12.5015C7.90177 12.531 7.95736 12.5441 8.01309 12.5441C8.12757 12.5441 8.23562 12.4852 8.29778 12.3805L8.32722 12.3281L8.35667 12.3805C8.41883 12.4852 8.52674 12.5441 8.64135 12.5441C8.69695 12.5441 8.75255 12.531 8.80499 12.5015C8.96206 12.4099 9.01437 12.2102 8.92604 12.0533L8.8966 12.001H8.95548C9.13542 12.001 9.28262 11.8538 9.28262 11.6739C9.28262 11.4939 9.13542 11.3467 8.95548 11.3467H8.89332L8.92276 11.2944C9.01437 11.1374 8.95877 10.9378 8.80171 10.8462C8.64464 10.7546 8.44512 10.8102 8.35352 10.9673L8.32408 11.0196L8.29464 10.9673C8.20933 10.8102 8.00982 10.7546 7.85277 10.8462H7.85274Z" fill="white"/>
</svg>
