<svg width="6" height="7" viewBox="0 0 6 7" fill="none" xmlns="http://www.w3.org/2000/svg">
<path d="M4.75534 0.915991L1.29112 1.2736C1.12894 1.28619 0.980655 1.36341 0.879856 1.48783C0.779088 1.61221 0.734283 1.77319 0.755728 1.93429C0.777129 2.09537 0.862893 2.24299 0.993581 2.34354C1.12426 2.4441 1.28882 2.48922 1.4499 2.46855L3.4959 2.25582L0.54302 6.00072C0.411642 6.16733 0.381827 6.39354 0.464772 6.59405C0.547728 6.79457 0.730837 6.93895 0.94517 6.97285C1.1595 7.00675 1.37251 6.92499 1.50389 6.75837L4.44854 3.02391L4.71999 5.04705C4.75329 5.25639 4.89435 5.43615 5.09154 5.52061C5.28873 5.60506 5.51308 5.58179 5.68259 5.45933C5.85204 5.33687 5.94182 5.13313 5.91901 4.92271L5.45877 1.47063C5.4381 1.31197 5.3545 1.16632 5.2267 1.0662C5.22296 1.06273 5.21897 1.05959 5.21477 1.05679C5.21104 1.0534 5.20705 1.05025 5.20283 1.04738C5.0754 0.94697 4.91448 0.899739 4.75543 0.916046L4.75534 0.915991Z" fill="#18AECA"/>
</svg>
