<svg width="6" height="7" viewBox="0 0 6 7" fill="none" xmlns="http://www.w3.org/2000/svg">
<path d="M4.79879 0.915991L1.33458 1.2736C1.1724 1.28619 1.02411 1.36341 0.923314 1.48783C0.822545 1.61221 0.77774 1.77319 0.799185 1.93429C0.820586 2.09537 0.90635 2.24299 1.03704 2.34354C1.16772 2.4441 1.33228 2.48922 1.49335 2.46855L3.53936 2.25582L0.586477 6.00072C0.4551 6.16733 0.425284 6.39354 0.50823 6.59405C0.591185 6.79457 0.774294 6.93895 0.988627 6.97285C1.20296 7.00675 1.41597 6.92499 1.54735 6.75837L4.492 3.02391L4.76345 5.04705C4.79675 5.25639 4.93781 5.43615 5.135 5.52061C5.33218 5.60506 5.55654 5.58179 5.72605 5.45933C5.8955 5.33687 5.98528 5.13313 5.96247 4.92271L5.50222 1.47063C5.48155 1.31197 5.39796 1.16632 5.27016 1.0662C5.26642 1.06273 5.26243 1.05959 5.25822 1.05679C5.2545 1.0534 5.2505 1.05025 5.24629 1.04738C5.11886 0.94697 4.95793 0.899739 4.79889 0.916046L4.79879 0.915991Z" fill="#FFBD00"/>
</svg>
