<svg width="19" height="20" viewBox="0 0 19 20" fill="none" xmlns="http://www.w3.org/2000/svg">
<path d="M3.83108 4.67021C5.01265 4.67021 5.9705 3.71236 5.9705 2.53078C5.9705 1.34921 5.01265 0.391357 3.83108 0.391357C2.6495 0.391357 1.69165 1.34921 1.69165 2.53078C1.69165 3.71236 2.6495 4.67021 3.83108 4.67021Z" fill="white"/>
<path d="M4.87613 5.2793L3.83314 7.35247L2.79014 5.2793H1.68516C0.875127 5.2793 0.199744 5.83713 0.0223494 6.59159C0.0138003 6.63006 0.000976562 6.6664 0.000976562 6.70487V12.2511C0.000976562 12.7812 0.428434 13.2086 0.956345 13.2086C1.22137 13.2086 1.45861 13.1018 1.63173 12.9287C1.80485 12.7555 1.88179 12.5162 1.88179 12.2511V8.34844V18.4429C1.88179 18.7079 2.01644 18.9473 2.1917 19.1204C2.36482 19.2935 2.60633 19.4004 2.87135 19.4004C3.38858 19.4004 3.81176 18.99 3.82886 18.4771C3.82886 18.4813 3.82886 13.2193 3.82886 13.2193C3.82886 13.2193 3.82886 18.4749 3.82886 18.4771C3.84168 18.7228 3.94855 18.9579 4.11312 19.1204C4.28624 19.2935 4.52989 19.4004 4.79278 19.4004C5.32282 19.4004 5.74815 18.9708 5.74815 18.4429L5.75028 8.34844V12.2511C5.75028 12.7812 6.17133 13.2086 6.69924 13.2086C6.96426 13.2086 7.19723 13.1018 7.37035 12.9287C7.54347 12.7555 7.65033 12.5162 7.65033 12.2511V6.98485C7.65033 6.04017 6.88732 5.2793 5.94264 5.2793H4.87613ZM8.12695 19.1054C8.53517 18.5903 8.94339 18.0752 9.35161 17.5602C10.0035 16.7394 10.6532 15.9187 11.3051 15.098C11.4547 14.9099 11.6043 14.7218 11.7518 14.5338C11.5402 14.5615 11.3286 14.5893 11.117 14.615C11.7967 15.0424 12.4763 15.4678 13.156 15.8952C13.2522 15.9551 13.3483 16.017 13.4445 16.0769C13.6412 16.2008 13.919 16.156 14.0793 15.9957C14.526 15.5511 14.9727 15.1066 15.4194 14.662C16.1247 13.9588 16.83 13.2578 17.5374 12.5546C17.6999 12.3922 17.8623 12.2298 18.0269 12.0695C18.2214 11.875 18.2342 11.5202 18.0269 11.33C17.8174 11.1376 17.4947 11.1226 17.2874 11.33C16.8407 11.7745 16.394 12.2191 15.9473 12.6636C15.242 13.3668 14.5367 14.0678 13.8292 14.771C13.6668 14.9334 13.5044 15.0959 13.3398 15.2562C13.5514 15.2284 13.763 15.2006 13.9746 15.1749C13.2949 14.7475 12.6153 14.3222 11.9356 13.8947C11.8394 13.8349 11.7432 13.7729 11.6471 13.713C11.4697 13.6019 11.1512 13.619 11.0123 13.7943C10.6041 14.3093 10.1958 14.8244 9.78762 15.3395C9.13575 16.1602 8.48601 16.981 7.83414 17.8017C7.68453 17.9898 7.53492 18.1778 7.38745 18.3659C7.29768 18.4792 7.23356 18.5861 7.23356 18.7357C7.23356 18.8639 7.29127 19.0178 7.38745 19.1054C7.57553 19.2785 7.94528 19.3341 8.12695 19.1054Z" fill="white"/>
<path d="M15.5006 12.2191C16.1311 12.2191 16.7616 12.2191 17.3921 12.2191C17.4819 12.2191 17.5717 12.2191 17.6614 12.2191C17.4862 12.0438 17.3131 11.8707 17.1378 11.6954C17.1378 12.3259 17.1378 12.9564 17.1378 13.5869C17.1378 13.6767 17.1378 13.7665 17.1378 13.8562C17.1378 14.1298 17.3793 14.3927 17.6614 14.3799C17.9457 14.367 18.1851 14.149 18.1851 13.8562C18.1851 13.2257 18.1851 12.5952 18.1851 11.9647C18.1851 11.875 18.1851 11.7852 18.1851 11.6954C18.1851 11.4133 17.9457 11.1718 17.6614 11.1718C17.0309 11.1718 16.4004 11.1718 15.7699 11.1718C15.6802 11.1718 15.5904 11.1718 15.5006 11.1718C15.2271 11.1718 14.9642 11.4133 14.977 11.6954C14.9898 11.9797 15.2078 12.2191 15.5006 12.2191ZM16.4817 6.00596V6.01237C16.4817 7.76495 15.0625 9.18625 13.3099 9.18625C11.5573 9.18625 10.1425 7.76495 10.1425 6.01237C10.1425 4.2598 11.5659 2.8385 13.3185 2.8385V6.00596H16.4817Z" fill="white"/>
<path d="M17.234 5.21529H14.0879V2.09485H14.0964C14.3679 2.09485 14.6308 2.12263 14.8808 2.18675C14.9065 2.19316 14.93 2.20171 14.9556 2.20171C16.2722 2.58643 17.234 3.78331 17.234 5.21529Z" fill="white"/>
</svg>
