<svg width="19" height="16" viewBox="0 0 19 16" fill="none" xmlns="http://www.w3.org/2000/svg">
<path d="M9.46722 0C9.29281 0 9.15164 0.141165 9.15164 0.315575V1.63605C8.16406 1.98938 8.40736 3.46159 9.46722 3.47132C10.5272 3.46146 10.7702 1.98924 9.78279 1.63605V0.315575C9.78279 0.141165 9.64163 0 9.46722 0Z" fill="white"/>
<path d="M12.3074 0C12.133 0 11.9919 0.141165 11.9919 0.315575V1.63605C11.0043 1.98938 11.2476 3.46159 12.3074 3.47132C13.3674 3.46146 13.6104 1.98924 12.623 1.63605V0.315575C12.623 0.141165 12.4818 0 12.3074 0Z" fill="white"/>
<path d="M15.1476 0C14.9732 0 14.8321 0.141165 14.8321 0.315575V1.63605C13.8445 1.98938 14.0878 3.46159 15.1476 3.47132C16.2076 3.46146 16.4507 1.98924 15.4632 1.63605V0.315575C15.4632 0.141165 15.322 0 15.1476 0Z" fill="white"/>
<path d="M3.78692 0C3.61251 0 3.47135 0.141165 3.47135 0.315575V1.63605C2.48376 1.98938 2.72706 3.46159 3.78692 3.47132C4.84693 3.46146 5.08994 1.98924 4.1025 1.63605V0.315575C4.1025 0.141165 3.96133 0 3.78692 0Z" fill="white"/>
<path d="M8.21191 1.57781C8.3001 1.46144 8.40252 1.35563 8.52058 1.26688V0.946655H7.57385V1.26688C7.69191 1.35563 7.79419 1.46158 7.88252 1.57781H8.21205H8.21191Z" fill="white"/>
<path d="M11.052 1.57781C11.1402 1.46144 11.2426 1.35563 11.3607 1.26688V0.946655H10.4139V1.26688C10.532 1.35563 10.6343 1.46158 10.7226 1.57781H11.0521H11.052Z" fill="white"/>
<path d="M5.3717 1.57781C5.45989 1.46144 5.56231 1.35563 5.68037 1.26688V0.946655H4.73364V1.26688C4.8517 1.35563 4.95398 1.46158 5.04231 1.57781H5.37184H5.3717Z" fill="white"/>
<path d="M17.0411 0.946655H16.0943V1.26688C16.2124 1.35563 16.3147 1.46158 16.403 1.57781H17.0411C17.7373 1.57781 18.3034 2.14386 18.3034 2.8401V4.1024H0.631164V2.8401C0.631164 2.14386 1.19722 1.57781 1.89346 1.57781H2.5315C2.61969 1.46144 2.72212 1.35563 2.84017 1.26688V0.946655H1.89345C0.849384 0.946655 0 1.79604 0 2.8401V13.8852C0 14.9293 0.849384 15.7787 1.89345 15.7787H17.041C18.0851 15.7787 18.9345 14.9293 18.9345 13.8852V2.8401C18.9345 1.79604 18.0851 0.946655 17.041 0.946655H17.0411ZM18.3034 12.3074C18.3034 13.0036 17.7373 13.5697 17.0411 13.5697H1.89348C1.19723 13.5697 0.631179 13.0036 0.631179 12.3074V4.73355H18.3034V12.3074Z" fill="white"/>
<path d="M13.8922 1.57781C13.9804 1.46144 14.0828 1.35563 14.2009 1.26688V0.946655H13.2542V1.26688C13.3722 1.35563 13.4745 1.46158 13.5628 1.57781H13.8923H13.8922Z" fill="white"/>
<path d="M6.62713 0C6.45272 0 6.31156 0.141165 6.31156 0.315575V1.63605C5.32397 1.98938 5.56727 3.46159 6.62713 3.47132C7.68714 3.46146 7.93015 1.98924 6.94271 1.63605V0.315575C6.94271 0.141165 6.80154 0 6.62713 0Z" fill="white"/>
<path d="M2.5247 5.6803H3.15585C3.5044 5.6803 3.787 6.02884 3.787 6.31145V6.9426C3.787 7.29114 3.5044 7.57375 3.15585 7.57375H2.5247C2.17616 7.57375 1.89355 7.2252 1.89355 6.9426V6.31145C1.89355 5.96291 2.17616 5.6803 2.5247 5.6803Z" fill="white"/>
<path d="M5.36479 5.6803H5.99594C6.34448 5.6803 6.62709 6.02884 6.62709 6.31145V6.9426C6.62709 7.29114 6.34448 7.57375 5.99594 7.57375H5.36479C5.01625 7.57375 4.73364 7.2252 4.73364 6.9426V6.31145C4.73364 5.96291 5.01625 5.6803 5.36479 5.6803Z" fill="white"/>
<path d="M2.5247 8.83606H3.15585C3.5044 8.83606 3.787 9.1846 3.787 9.46721V10.0984C3.787 10.4469 3.5044 10.7295 3.15585 10.7295H2.5247C2.17616 10.7295 1.89355 10.381 1.89355 10.0984V9.46721C1.89355 9.11867 2.17616 8.83606 2.5247 8.83606Z" fill="white"/>
<path d="M5.36479 8.83606H5.99594C6.34448 8.83606 6.62709 9.1846 6.62709 9.46721V10.0984C6.62709 10.4469 6.34448 10.7295 5.99594 10.7295H5.36479C5.01625 10.7295 4.73364 10.381 4.73364 10.0984V9.46721C4.73364 9.11867 5.01625 8.83606 5.36479 8.83606Z" fill="white"/>
<path d="M8.205 5.6803H8.83615C9.18469 5.6803 9.4673 6.02884 9.4673 6.31145V6.9426C9.4673 7.29114 9.18469 7.57375 8.83615 7.57375H8.205C7.85646 7.57375 7.57385 7.2252 7.57385 6.9426V6.31145C7.57385 5.96291 7.85646 5.6803 8.205 5.6803Z" fill="white"/>
<path d="M13.3239 11.7689C13.3091 11.6099 13.2795 11.4542 13.2371 11.3027C12.9701 11.3534 12.8243 10.9757 13.052 10.8299C12.9665 10.6609 12.8632 10.5004 12.7413 10.3516C12.4955 10.6096 12.1167 10.2372 12.3608 9.98846C12.2213 9.85828 12.0614 9.75544 11.8929 9.67007C11.7472 9.8966 11.3722 9.75107 11.4205 9.48481C11.2685 9.44212 11.1121 9.41226 10.9524 9.39746C11.0475 10.6251 12.0965 11.673 13.3237 11.7689L13.3239 11.7689Z" fill="white"/>
<path d="M14.1938 7.19261C14.2222 7.30264 14.1756 7.41253 14.0874 7.47353C14.1729 7.64258 14.2762 7.80305 14.398 7.95169C14.6487 7.69641 15.0213 8.06608 14.7786 8.31487C14.9186 8.44532 15.0789 8.54859 15.248 8.63411C15.3959 8.40701 15.7632 8.54873 15.7188 8.81852C15.8711 8.86121 16.0277 8.89108 16.1877 8.90601C16.0906 7.67934 15.0479 6.63557 13.8221 6.53455C13.8305 6.69417 13.8605 6.85068 13.903 7.00282C14.033 6.98549 14.1597 7.06199 14.1938 7.19259L14.1938 7.19261Z" fill="white"/>
<path d="M11.5515 8.95831C11.6765 8.5834 12.1955 8.79657 12.0426 9.15948C12.2927 9.27656 12.5281 9.42533 12.7424 9.60706C13.0016 9.30459 13.4166 9.72019 13.1142 9.97897C13.2959 10.1932 13.4447 10.4287 13.5617 10.6787C13.9376 10.5222 14.1381 11.0681 13.7457 11.1743C13.7984 11.3659 13.8339 11.563 13.8498 11.7646C15.0232 11.6723 16.0909 10.6242 16.185 9.43106C15.9827 9.41514 15.7848 9.38006 15.5925 9.32723C15.4853 9.72114 14.941 9.51826 15.0968 9.14366C14.8467 9.02659 14.6113 8.87782 14.3969 8.69609C14.1377 8.99856 13.7226 8.58296 14.0251 8.32418C13.8434 8.1099 13.6946 7.87447 13.5775 7.62443C13.2032 7.78067 13.0002 7.23589 13.3935 7.12881C13.3407 6.93651 13.3052 6.73858 13.2893 6.53625C12.0963 6.63065 11.0483 7.6988 10.9565 8.87223C11.158 8.88815 11.3551 8.92323 11.5467 8.97592L11.5513 8.95817L11.5515 8.95831Z" fill="white"/>
<path d="M13.5698 12.9371C16.9078 12.9492 18.632 8.85266 16.2478 6.47341C14.8394 5.00727 12.3029 5.00233 10.8917 6.47341C8.50756 8.84671 10.2432 12.9595 13.5697 12.9371H13.5698ZM15.0547 6.36521C17.9151 7.92758 16.856 12.2371 13.6163 12.3038C11.8963 12.3675 10.3847 10.8675 10.4153 9.14887C10.3889 6.8108 12.9809 5.23394 15.0548 6.36532L15.0547 6.36521Z" fill="white"/>
</svg>
