<svg width="17" height="16" viewBox="0 0 17 16" fill="none" xmlns="http://www.w3.org/2000/svg">
<path d="M6.46463 5.6446C6.46463 5.5448 6.50427 5.44909 6.57484 5.37852C6.64541 5.30795 6.74113 5.26831 6.84093 5.26831H8.34612C8.44592 5.26831 8.54164 5.30795 8.61221 5.37852C8.68278 5.44909 8.72242 5.5448 8.72242 5.6446V6.3972H14.7432V4.89201C14.7432 4.393 14.545 3.91444 14.1921 3.56159C13.8393 3.20874 13.3607 3.01051 12.8617 3.01051H11.3565V1.12902C11.3565 0.829617 11.2376 0.542477 11.0259 0.330768C10.8142 0.119059 10.527 0.00012207 10.2276 0.00012207H4.95943C4.66003 0.00012207 4.37289 0.119059 4.16118 0.330768C3.94947 0.542477 3.83054 0.829617 3.83054 1.12902V3.01051H2.32534C1.82634 3.01051 1.34777 3.20874 0.994924 3.56159C0.642076 3.91444 0.443848 4.393 0.443848 4.89201V6.3972H6.46463V5.6446ZM4.58313 1.12902C4.58313 1.02922 4.62278 0.933505 4.69335 0.862935C4.76392 0.792365 4.85963 0.75272 4.95943 0.75272H10.2276C10.3274 0.75272 10.4231 0.792365 10.4937 0.862935C10.5643 0.933505 10.6039 1.02922 10.6039 1.12902V3.01051H4.58313V1.12902ZM9.85132 12.418C9.85071 12.8009 9.90909 13.1817 10.0244 13.5469H2.32534C1.82634 13.5469 1.34777 13.3487 0.994924 12.9958C0.642076 12.643 0.443848 12.1644 0.443848 11.6654V7.1498H6.46463V7.9024C6.46463 8.0022 6.50427 8.09791 6.57484 8.16848C6.64541 8.23905 6.74113 8.2787 6.84093 8.2787H8.34612C8.44592 8.2787 8.54164 8.23905 8.61221 8.16848C8.68278 8.09791 8.72242 8.0022 8.72242 7.9024V7.1498H14.7432V8.82809C14.378 8.71277 13.9973 8.65439 13.6143 8.65499C12.6163 8.65499 11.6592 9.05145 10.9535 9.75715C10.2478 10.4628 9.85132 11.42 9.85132 12.418ZM7.21723 7.5261V6.0209H7.96982V7.5261H7.21723ZM13.6143 9.03129C12.9445 9.03129 12.2897 9.22992 11.7328 9.60205C11.1758 9.97419 10.7417 10.5031 10.4854 11.122C10.2291 11.7408 10.162 12.4217 10.2927 13.0787C10.4234 13.7356 10.7459 14.3391 11.2196 14.8127C11.6932 15.2864 12.2966 15.6089 12.9536 15.7396C13.6105 15.8703 14.2915 15.8032 14.9103 15.5469C15.5292 15.2905 16.0581 14.8565 16.4302 14.2995C16.8024 13.7426 17.001 13.0878 17.001 12.418C17.001 11.5198 16.6442 10.6584 16.0091 10.0232C15.3739 9.3881 14.5125 9.03129 13.6143 9.03129ZM14.7432 11.6654H13.238V12.0417H14.3669C14.4667 12.0417 14.5624 12.0813 14.633 12.1519C14.7036 12.2225 14.7432 12.3182 14.7432 12.418V13.5469C14.7432 13.6467 14.7036 13.7424 14.633 13.813C14.5624 13.8835 14.4667 13.9232 14.3669 13.9232H13.9906V14.2995H13.238V13.9232H12.4854V13.1706H13.9906V12.7943H12.8617C12.7619 12.7943 12.6662 12.7546 12.5956 12.6841C12.5251 12.6135 12.4854 12.5178 12.4854 12.418V11.2891C12.4854 11.1893 12.5251 11.0936 12.5956 11.023C12.6662 10.9524 12.7619 10.9128 12.8617 10.9128H13.238V10.5365H13.9906V10.9128H14.7432V11.6654Z" fill="white"/>
</svg>
