<svg width="17" height="16" viewBox="0 0 17 16" fill="none" xmlns="http://www.w3.org/2000/svg">
<path d="M16.5288 10.7246C16.5274 10.2759 16.3486 9.84602 16.0313 9.52874C15.7141 9.21147 15.2841 9.03263 14.8354 9.03129H12.8091C12.751 8.06627 12.4914 7.12412 12.0471 6.2655L11.2286 4.71327C11.0808 4.44024 10.9028 4.18464 10.698 3.95126H11.4488V2.82236H10.207L10.7658 1.66524C10.8554 1.47801 10.8962 1.27112 10.8844 1.06386C10.8726 0.856599 10.8084 0.655708 10.698 0.479903C10.6122 0.335789 10.4908 0.216046 10.3456 0.132067C10.2004 0.0480881 10.036 0.00266599 9.8683 0.00012207H5.12693C4.95919 0.00266599 4.79488 0.0480881 4.64965 0.132067C4.50441 0.216046 4.38308 0.335789 4.29719 0.479903C4.18679 0.655708 4.12267 0.856599 4.11083 1.06386C4.09899 1.27112 4.1398 1.47801 4.22946 1.66524L4.78826 2.82236H3.54648V3.95126H4.30284C4.09443 4.18304 3.91442 4.43885 3.76661 4.71327L2.94816 6.2655C2.4234 7.27055 2.15212 8.38858 2.15794 9.52237V10.973C2.16763 11.314 2.10065 11.6528 1.96192 11.9644C1.8232 12.2761 1.61628 12.5526 1.35642 12.7736C1.15605 12.9399 0.995317 13.1488 0.885949 13.3851C0.776582 13.6214 0.721335 13.8792 0.724237 14.1396C0.704186 14.5581 0.849996 14.9677 1.13003 15.2794C1.41006 15.5912 1.80172 15.7799 2.22003 15.8047H14.8354C15.2841 15.8033 15.7141 15.6245 16.0313 15.3072C16.3486 14.99 16.5274 14.56 16.5288 14.1113V13.5469C16.5277 13.1289 16.3707 12.7263 16.0885 12.418C16.3707 12.1096 16.5277 11.7071 16.5288 11.2891V10.7246ZM7.49762 9.03129C7.77673 9.03243 8.05132 9.10197 8.29732 9.23383C8.54333 9.36569 8.75326 9.55585 8.90874 9.78766C8.72627 10.0662 8.62826 10.3916 8.62651 10.7246V11.2891C8.6272 11.4877 8.66352 11.6847 8.73376 11.8705C8.54855 12.0705 8.31827 12.2233 8.06206 12.3164V12.9824H6.93317V12.3164C6.60424 12.1992 6.3194 11.9836 6.1174 11.6988C5.91541 11.4139 5.80607 11.0738 5.80427 10.7246H6.93317C6.93317 10.8363 6.96627 10.9454 7.0283 11.0382C7.09032 11.1311 7.17847 11.2034 7.28161 11.2461C7.38475 11.2888 7.49824 11.3 7.60773 11.2782C7.71723 11.2565 7.8178 11.2027 7.89674 11.1238C7.97568 11.0448 8.02944 10.9443 8.05122 10.8348C8.073 10.7253 8.06182 10.6118 8.0191 10.5086C7.97638 10.4055 7.90403 10.3173 7.81121 10.2553C7.71838 10.1933 7.60925 10.1602 7.49762 10.1602C7.1005 10.1571 6.71711 10.0146 6.41444 9.75745C6.11178 9.50034 5.90911 9.14504 5.84187 8.75365C5.77462 8.36226 5.84707 7.95968 6.04655 7.6163C6.24603 7.27291 6.55986 7.01056 6.93317 6.8751V6.20905H8.06206V6.8751C8.39099 6.99226 8.67584 7.20792 8.87783 7.49273C9.07983 7.77755 9.18916 8.11768 9.19096 8.46685H8.06206C8.06206 8.35521 8.02896 8.24608 7.96694 8.15326C7.90492 8.06043 7.81676 7.98809 7.71362 7.94536C7.61048 7.90264 7.49699 7.89146 7.3875 7.91324C7.27801 7.93502 7.17743 7.98878 7.09849 8.06772C7.01955 8.14666 6.96579 8.24724 6.94401 8.35673C6.92223 8.46622 6.93341 8.57971 6.97613 8.68285C7.01886 8.78599 7.0912 8.87415 7.18403 8.93617C7.27685 8.99819 7.38598 9.03129 7.49762 9.03129ZM8.95389 2.82236H6.04134L5.25111 1.17417C5.24213 1.16093 5.23813 1.14493 5.23982 1.12902H9.75541C9.7571 1.14493 9.7531 1.16093 9.74412 1.17417L8.95389 2.82236ZM15.3999 14.1113C15.3999 14.261 15.3404 14.4046 15.2346 14.5105C15.1287 14.6163 14.9851 14.6758 14.8354 14.6758H10.3199C10.1702 14.6758 10.0266 14.6163 9.92073 14.5105C9.81488 14.4046 9.75541 14.261 9.75541 14.1113V13.5469C9.75541 13.3972 9.81488 13.2536 9.92073 13.1478C10.0266 13.0419 10.1702 12.9824 10.3199 12.9824H14.8354C14.9851 12.9824 15.1287 13.0419 15.2346 13.1478C15.3404 13.2536 15.3999 13.3972 15.3999 13.5469V14.1113ZM15.3999 11.2891C15.3999 11.4388 15.3404 11.5824 15.2346 11.6882C15.1287 11.7941 14.9851 11.8535 14.8354 11.8535H10.3199C10.1702 11.8535 10.0266 11.7941 9.92073 11.6882C9.81488 11.5824 9.75541 11.4388 9.75541 11.2891V10.7246C9.75541 10.5749 9.81488 10.4314 9.92073 10.3255C10.0266 10.2197 10.1702 10.1602 10.3199 10.1602H14.8354C14.9851 10.1602 15.1287 10.2197 15.2346 10.3255C15.3404 10.4314 15.3999 10.5749 15.3999 10.7246V11.2891Z" fill="white"/>
</svg>
