<svg width="14" height="14" viewBox="0 0 14 14" fill="none" xmlns="http://www.w3.org/2000/svg">
<path d="M2.73279 9.09778V3.71153H1.90414C0.988889 3.71153 0.246826 4.45359 0.246826 5.36884V11.9981C0.246826 12.9133 0.988889 13.6554 1.90414 13.6554H8.53337C9.44862 13.6554 10.1907 12.9133 10.1907 11.9981V11.1694H4.80443C3.88918 11.1694 2.73279 10.013 2.73279 9.09778ZM11.848 0.396912H5.21875C4.30351 0.396912 3.56144 1.13897 3.56144 2.05422V8.68346C3.56144 9.5987 4.30351 10.3408 5.21875 10.3408H11.848C12.7632 10.3408 13.5053 9.5987 13.5053 8.68346V2.05422C13.5053 1.13897 12.7632 0.396912 11.848 0.396912Z" fill="#146597"/>
</svg>
