<svg width="7" height="7" viewBox="0 0 7 7" fill="none" xmlns="http://www.w3.org/2000/svg">
<path d="M5.23349 0.915869L1.76927 1.27348C1.60709 1.28606 1.4588 1.36329 1.35801 1.48771C1.25724 1.61209 1.21243 1.77307 1.23388 1.93417C1.25528 2.09525 1.34104 2.24286 1.47173 2.34342C1.60241 2.44397 1.76697 2.48909 1.92805 2.46842L3.97405 2.2557L1.02117 6.0006C0.889792 6.16721 0.859976 6.39342 0.942922 6.59393C1.02588 6.79445 1.20899 6.93883 1.42332 6.97273C1.63765 7.00663 1.85066 6.92487 1.98204 6.75825L4.92669 3.02379L5.19814 5.04692C5.23144 5.25627 5.3725 5.43603 5.56969 5.52048C5.76687 5.60494 5.99123 5.58167 6.16074 5.4592C6.33019 5.33675 6.41997 5.13301 6.39716 4.92259L5.93692 1.47051C5.91625 1.31184 5.83265 1.1662 5.70485 1.06608C5.70111 1.06261 5.69712 1.05946 5.69292 1.05667C5.68919 1.05327 5.6852 1.05013 5.68098 1.04726C5.55355 0.946848 5.39263 0.899617 5.23358 0.915924L5.23349 0.915869Z" fill="#FF8A00"/>
</svg>
