<svg width="1023" height="220" viewBox="0 0 1023 220" fill="none" xmlns="http://www.w3.org/2000/svg">
<mask id="mask0_37_10729" style="mask-type:alpha" maskUnits="userSpaceOnUse" x="0" y="0" width="1023" height="220">
<rect width="1023" height="220" rx="13.2703" fill="white"/>
</mask>
<g mask="url(#mask0_37_10729)">
<g opacity="0.35">
<path opacity="0.4" d="M477.86 324.126C471.171 324.136 464.537 323.204 458.294 321.376C439.233 315.693 424.27 302.199 418.258 285.296C415.944 278.806 414.884 271.967 413.872 265.349C411.86 252.369 409.968 240.122 399.209 231.991C393.727 227.848 386.402 225.244 378.643 222.485C371.185 219.754 363.354 217.003 356.727 212.64C341.679 202.667 337.727 189.008 333.908 175.79C331.92 168.896 330.041 162.397 326.679 156.475C323.522 150.902 318.498 146.474 313.185 141.808C304.269 133.934 294.161 125.006 294.98 110.293C295.896 93.582 310.992 77.9344 331.679 72.251C341.824 69.5009 352.474 69.0518 362.775 68.6484C374.209 68.2084 385.017 67.7867 394.282 64.2392C406.752 59.4725 414.944 49.4532 422.872 39.7639C423.956 38.4439 425.029 37.1239 426.113 35.8314C435.113 25.0329 446.848 19.0745 458.197 13.3178C466.812 8.94521 474.944 4.811 482.005 -1.34908C492.788 -10.7725 504.824 -26.0169 500.944 -45.1296C500.764 -46.0463 500.547 -46.9629 500.33 -47.9346C499.125 -53.3247 497.691 -59.4389 500.764 -65.3515C506.788 -76.9108 516.101 -79.3308 522.86 -79.3308C542.692 -79.3308 562.378 -58.3847 567.933 -51.968C574.607 -44.2679 579.258 -36.7878 580.402 -31.9752C585.065 -12.2025 579.125 7.77189 572.692 24.7121C570.595 30.2121 568.812 36.5831 566.92 43.2748C560.559 65.8801 553.342 91.5012 529.185 104.555C520.33 109.34 510.161 111.714 500.342 114.015C492.113 115.931 484.33 117.746 477.547 120.853C460.173 128.792 451.041 145.998 456.354 160.884C456.788 162.067 457.294 163.268 457.836 164.551C459.414 168.291 461.221 172.535 460.824 177.119C460.185 184.379 454.438 189.952 449.354 194.912C446.434 197.53 443.905 200.386 441.812 203.428C435.788 213.181 442.185 225.061 451.535 231.762C460.884 238.463 474.137 242.606 492.499 244.742C495.655 245.109 498.932 245.421 502.137 245.714C510.824 246.539 519.812 247.391 528.523 249.564C543.294 253.231 554.222 260.454 558.475 269.337C559.855 272.328 560.424 275.502 560.147 278.666C559.869 281.83 558.751 284.918 556.86 287.743C555.393 290.068 553.306 292.135 550.732 293.813C548.158 295.49 545.153 296.742 541.908 297.488C539.697 297.935 537.44 298.241 535.161 298.404C533.146 298.496 531.159 298.804 529.258 299.321C526.173 300.348 523.86 303.098 521.414 306.004C520.438 307.168 519.426 308.369 518.318 309.533C509.535 318.7 494.426 324.2 477.908 324.2L477.86 324.126Z" stroke="#3366CC" stroke-width="1.0208" stroke-miterlimit="10"/>
<path d="M562.92 -49.4561C546.92 -67.9272 518.872 -87.6724 506.378 -63.6738C503.463 -58.0729 505.703 -51.812 506.908 -45.8536C510.523 -28.0242 501.812 -11.6982 486.559 1.63026C469.306 16.7096 446.053 20.4496 431.209 38.2973C421.752 49.6366 412.776 62.3143 396.992 68.346C377.715 75.6795 353.98 71.0136 333.739 76.5961C315.342 81.6562 301.824 95.6538 301.004 110.513C299.8 131.303 322.92 138.334 332.221 154.715C342.414 172.646 339.788 195.379 360.691 209.239C373.282 217.59 391.595 219.827 403.45 228.774C421.667 242.524 417.366 265.285 424.065 284.132C429.185 298.514 442.258 311.705 460.499 317.132C478.74 322.559 501.872 318.856 513.402 306.81C517.463 302.575 520.463 297.222 526.776 295.104C530.969 293.702 535.812 294.05 540.21 293.097C551.631 290.622 556.836 279.411 552.764 270.923C548.692 262.434 537.884 256.714 526.607 253.9C515.33 251.086 503.306 250.618 491.571 249.252C475.535 247.419 459.234 243.541 447.414 235.08C435.595 226.619 429.511 212.659 436.366 201.475C441.679 192.785 453.993 186.359 454.824 176.798C455.258 171.747 452.294 166.953 450.559 162.067C444.535 145.255 454.836 125.886 474.45 116.921C490.354 109.642 510.595 108.982 525.704 100.815C554.836 85.0662 557.764 47.565 566.92 23.4288C573.655 5.68197 578.776 -12.9999 574.487 -31.1684C573.499 -35.3393 569.113 -42.2969 562.92 -49.4561Z" stroke="#282828" stroke-opacity="0.05" stroke-width="1.0208" stroke-miterlimit="10"/>
<path d="M477.86 310.377C473.427 310.379 469.032 309.757 464.896 308.543C451.342 304.501 440.161 294.197 435.704 281.666C433.74 276.166 432.8 270.107 431.812 263.709C429.643 249.647 427.185 233.706 411.932 222.192C404.222 216.371 394.703 213.026 386.294 209.991C379.619 207.617 373.306 205.408 368.607 202.255C358.065 195.269 355.053 184.838 351.571 172.82C349.487 165.597 347.33 158.153 343.282 151.003C339.029 143.505 332.571 137.812 326.884 132.789C317.715 124.685 312.559 119.68 313.041 110.789C313.655 99.6784 324.077 88.8799 337.824 85.1215C345.438 83.0315 354.318 82.6832 363.715 82.3165C376.511 81.8215 389.752 81.3081 402.414 76.4589C419.426 69.9505 429.414 57.7404 438.234 46.9602C439.282 45.6769 440.33 44.3936 441.378 43.1285C448.342 34.7868 457.559 30.1117 468.234 24.685C477.463 20.0099 487.005 15.1699 495.643 7.60728C514.716 -9.04875 522.728 -28.0332 518.824 -47.2925C518.607 -48.3101 518.378 -49.3276 518.149 -50.3542C517.234 -54.3051 516.39 -58.036 517.583 -60.3369C518.234 -61.5744 520.523 -65.6261 522.872 -65.6261C528.595 -65.6261 541.378 -57.706 552.86 -44.4417C559.174 -37.1541 562.162 -31.6082 562.619 -29.5915C566.631 -12.6055 561.198 5.44391 555.39 20.8258C553.113 26.83 551.27 33.3843 549.366 40.3235C543.692 60.4904 537.258 83.3157 518.824 93.2708C512.342 96.7725 503.993 98.7709 495.149 100.797C486.306 102.823 477.077 105.023 468.342 108.992C460.862 112.502 454.376 117.112 449.265 122.552C444.153 127.991 440.518 134.151 438.571 140.672C436.595 147.19 435.981 154.514 438.005 161.087C440.414 168.851 441.535 177.715 437.318 185.562C432.318 194.848 422.053 199.587 421.571 210.496C421.053 222.22 428.137 233.724 439.258 241.663C451.222 250.234 467.776 255.651 489.86 258.218C493.27 258.621 496.667 258.942 499.969 259.254C508.161 260.024 515.908 260.757 522.957 262.517C532.294 264.845 539.246 269.117 541.559 273.939C542.616 276.399 542.352 279.078 540.824 281.391C540.079 282.653 538.712 283.641 537.017 284.141C535.752 284.363 534.467 284.517 533.174 284.6C529.299 284.834 525.497 285.534 521.908 286.671C513.848 289.421 509.571 294.454 506.149 298.533C505.282 299.56 504.451 300.541 503.655 301.366C498.27 307.013 488.619 310.377 477.86 310.377Z" stroke="#282828" stroke-opacity="0.05" stroke-width="2.04159" stroke-miterlimit="10"/>
<path d="M472.39 97.9272C466.137 97.9272 460.414 96.763 454.619 95.4705L440.8 92.3813C438.294 91.8221 432.451 90.5479 428.944 86.1479C425.029 81.262 426.005 75.1019 431.535 69.6477C437.27 64.0101 444.342 60.1326 451.173 56.3742C456.8 53.2941 462.113 50.3791 465.728 46.8866C468.47 43.9919 470.827 40.8965 472.764 37.6465C475.03 33.9795 477.66 30.4492 480.631 27.0864C485.197 22.434 491.568 18.991 498.846 17.244C506.123 15.4971 513.938 15.5346 521.186 17.3512C529.487 19.4871 535.559 23.9146 537.836 29.5155C539.523 33.6864 539.921 40.2957 532.186 48.1241C529.439 50.8741 526.668 53.4042 523.993 55.8242C518.318 60.9576 513.414 65.3943 509.993 71.1511C509.451 72.0677 508.908 72.9844 508.366 73.9652C503.547 82.4078 497.523 92.9221 482.716 96.6897C479.384 97.5229 475.897 97.9408 472.39 97.9272V97.9272Z" stroke="#282828" stroke-opacity="0.05" stroke-width="1.0208" stroke-miterlimit="10"/>
<path d="M517.342 26.0412C508.908 23.8687 496.86 25.4728 490.499 32.3663C484.619 38.783 481.535 46.4648 475.209 52.5882C465.812 61.645 450.354 66.155 441.065 75.2851C439.282 77.0359 437.727 79.4743 439.246 81.3718C440.27 82.646 442.318 83.1594 444.197 83.581L458.029 86.6702C464.836 88.1919 472.161 89.7136 478.884 87.9994C489.908 85.1944 494.234 75.4318 499.017 67.3742C504.92 57.4282 514.21 51.0573 522.559 42.6239C530.908 34.1904 525.884 28.232 517.342 26.0412Z" stroke="#282828" stroke-opacity="0.05" stroke-width="1.0208" stroke-miterlimit="10"/>
<path d="M472.39 84.1495C464.752 84.5711 456.174 81.7386 448.896 80.5377C447.547 80.3177 445.981 79.9602 445.523 78.9702C444.945 77.7419 446.451 76.5685 447.788 75.771C458.523 69.4001 471.427 63.6251 479.921 55.4208C483.445 51.7973 486.465 47.9049 488.933 43.8065C490.807 40.7562 492.973 37.8148 495.415 35.0064C499.716 30.3496 518.692 25.6379 520.198 34.5664C520.788 38.0773 517.089 41.0564 513.872 43.614C504.603 50.9748 497.038 59.4764 491.499 68.7584C489.089 72.8101 486.993 77.091 483.065 80.3361C480.311 82.633 476.472 84.0045 472.39 84.1495V84.1495Z" stroke="#282828" stroke-opacity="0.05" stroke-width="1.0208" stroke-miterlimit="10"/>
<path d="M422.993 136.813C414.137 122.311 339.679 77.2285 336.908 113.813C336.185 123.392 346.547 131.322 349.619 140.626C351.655 146.704 350.511 153.12 351.547 159.345C353.221 169.501 362.547 183.178 370.824 191.236C374.631 194.948 380.74 197.652 386.848 196.919C402.366 195.086 398.752 182.106 403.619 174.323C409.113 165.532 423.318 160.573 426.222 150.645C427.511 145.998 425.595 141.139 422.993 136.813Z" stroke="#282828" stroke-opacity="0.05" stroke-width="1.0208" stroke-miterlimit="10"/>
<path d="M384.752 192.464C381.643 192.464 378.017 190.869 375.511 188.412C367.92 180.997 359.029 168.09 357.438 158.767C357.11 156.395 356.945 154.011 356.944 151.626C357.046 147.55 356.516 143.48 355.366 139.499C353.956 135.254 351.342 131.459 348.836 127.783C345.571 123.035 342.498 118.552 342.812 114.033C343.547 104.362 349.691 104.362 352.643 104.362C372.583 104.362 411.487 129.003 417.414 138.701C420.137 143.156 421.029 146.722 420.197 149.619C419.005 153.945 414.559 157.42 409.74 161.086C405.402 164.414 400.92 167.861 398.089 172.389C396.427 175.379 395.293 178.523 394.715 181.739C392.993 188.935 391.776 191.722 385.824 192.437C385.468 192.464 385.109 192.473 384.752 192.464V192.464Z" stroke="#282828" stroke-opacity="0.05" stroke-width="1.0208" stroke-miterlimit="10"/>
<path d="M382.969 180.529C377.655 181.216 372.366 173.654 371.282 170.757C369.402 165.725 370.173 160.38 370.173 155.174C370.126 143.541 366.134 132.114 358.583 121.999C357.354 120.602 356.461 119.05 355.944 117.416C355.702 116.594 355.785 115.736 356.181 114.95C356.578 114.164 357.271 113.485 358.173 112.997C361.005 111.741 364.463 113.401 366.993 114.977L395.438 132.669C400.523 135.832 405.981 139.498 406.776 144.467C407.511 149.05 403.957 153.441 399.764 156.796C395.571 160.151 390.571 162.993 387.246 166.88C385.321 169.052 384.243 171.594 384.137 174.213C384.137 176.477 387.089 179.796 383.185 180.483L382.969 180.529Z" stroke="#282828" stroke-opacity="0.05" stroke-width="1.0208" stroke-miterlimit="10"/>
<path d="M382.173 157.136C382.024 157.12 381.882 157.076 381.762 157.007C381.642 156.938 381.547 156.846 381.486 156.741C381.318 156.43 381.571 156.081 381.752 155.77C382.956 153.836 381.679 150.994 381.101 149.014C380.462 146.795 379.679 144.605 378.92 142.405C378.23 140.575 377.694 138.713 377.318 136.831C377.185 135.988 376.848 134.43 377.956 133.834C378.015 133.799 378.08 133.772 378.149 133.751C380.679 132.908 383.643 135.685 385.005 136.914C385.884 137.702 386.583 138.619 387.414 139.398C388.768 140.524 390.23 141.572 391.788 142.533C392.92 143.294 394.595 144.366 394.788 145.595C394.884 146.163 394.209 147.923 391.005 150.499C389.8 151.416 388.595 152.332 387.161 153.341C385.727 154.349 385.137 155.733 383.619 156.686C383.312 156.907 382.933 157.062 382.523 157.136C382.407 157.148 382.289 157.148 382.173 157.136V157.136Z" stroke="#3366CC" stroke-width="1.0208" stroke-miterlimit="10"/>
<path opacity="0.4" d="M626.608 298.45C613.8 298.45 600.27 292.034 592.126 282.161C586.27 275.029 583.174 267.1 580.174 259.427C579.077 256.613 577.945 253.698 576.704 250.93C571.463 239.242 564.138 231.68 554.921 228.499C550.327 227.001 545.362 226.279 540.366 226.381C533.962 226.526 527.582 227.044 521.282 227.93C517.86 228.343 514.318 228.764 510.824 229.067C508.257 229.295 505.674 229.408 503.089 229.406C482.884 229.406 468.234 223.072 463.896 212.457C460.282 203.657 465.282 194.637 469.342 188.623C470.354 187.129 471.402 185.626 472.463 184.131C477.282 177.266 481.896 170.785 482.101 163.919C482.11 161.856 481.941 159.795 481.595 157.749C480.947 154.299 480.89 150.798 481.427 147.336C484.354 132.495 505.053 124.071 524.27 122.292C526.623 122.079 528.925 121.862 531.174 121.642C541.222 120.679 550.716 119.762 559.415 119.762C584.282 119.762 599.174 127.756 609.041 146.493C611.535 151.204 613.547 156.054 615.487 160.738C617.792 166.801 620.643 172.737 624.017 178.503C633.138 193.17 650.27 206.37 673.559 216.793C675.343 217.59 677.174 218.379 678.993 219.176C690.331 224.08 702.066 229.159 709.246 238.087C711.897 241.565 713.463 245.46 713.824 249.471C714.185 253.482 713.332 257.503 711.331 261.224C708.138 266.852 702.391 270.593 695.174 271.738C693.219 272.037 691.228 272.178 689.234 272.16V272.16C688.029 272.16 686.825 272.16 685.62 272.078C684.415 271.995 683.511 272.013 682.463 272.013C681.695 272.01 680.926 272.037 680.162 272.096C672.186 272.747 665.945 277.981 659.343 283.518C652.318 289.403 645.065 295.499 634.379 297.69C631.844 298.206 629.231 298.461 626.608 298.45V298.45Z" stroke="#3366CC" stroke-width="1.0208" stroke-miterlimit="10"/>
<path d="M704.102 240.461C696.632 231.175 682.837 226.244 670.511 220.725C648.824 211.045 629.33 197.698 618.583 180.446C612.15 170.125 609.065 158.785 603.451 148.188C587.909 118.809 561.68 123.438 524.993 126.83C508.342 128.361 489.872 135.373 487.378 147.996C486.33 153.304 488.366 158.675 488.161 164.038C487.8 173.645 480.451 182.151 474.692 190.704C470.427 197.02 466.872 204.317 469.643 211.091C474.39 222.723 494.222 225.914 510.113 224.52C526.005 223.127 542.848 219.277 557.415 224.328C570.33 228.81 577.812 239.224 582.391 249.454C586.969 259.684 589.692 270.537 597.222 279.704C604.752 288.871 619.065 296.039 632.776 293.225C651.716 289.329 659.981 269.089 679.487 267.485C684.306 267.091 689.21 267.962 693.945 267.21C707.957 265.01 711.572 249.747 704.102 240.461Z" stroke="#282828" stroke-opacity="0.05" stroke-width="1.0208" stroke-miterlimit="10"/>
<path d="M626.608 284.7C620.089 284.7 612.15 280.658 607.451 274.873C602.897 269.373 600.222 262.617 597.499 255.513C596.294 252.571 595.162 249.518 593.812 246.493C586.909 231.084 576.342 220.826 562.487 215.986C555.541 213.662 548.013 212.518 540.427 212.631C533.086 212.768 525.77 213.341 518.547 214.345C515.149 214.748 511.945 215.133 508.8 215.408C506.924 215.574 505.038 215.657 503.149 215.656C494.402 215.656 483.414 213.749 481.21 208.368C480.005 205.334 481.33 201.035 485.475 194.893C486.439 193.472 487.439 192.051 488.451 190.631C493.812 183.031 499.896 174.424 500.282 164.294C500.309 161.626 500.108 158.959 499.68 156.31C499.228 154.011 499.123 151.679 499.366 149.362C500.463 143.862 510.137 137.445 526.523 135.933L533.511 135.263C543.391 134.347 551.933 133.494 559.487 133.494C574.583 133.494 584.294 136.382 592.355 151.617C594.583 155.824 596.403 160.215 598.379 164.854C600.936 171.519 604.092 178.043 607.824 184.379C618.499 201.502 638.114 216.811 664.535 228.627C666.391 229.461 668.282 230.286 670.186 231.102C679.969 235.337 689.21 239.352 693.957 245.246C695.111 246.84 695.791 248.606 695.949 250.421C696.107 252.237 695.74 254.056 694.873 255.751C693.668 257.942 692.114 258.181 691.608 258.263C690.868 258.361 690.117 258.404 689.367 258.391C688.415 258.391 687.451 258.391 686.487 258.327C685.282 258.281 683.957 258.245 682.56 258.245C681.143 258.238 679.727 258.29 678.319 258.401C663.511 259.62 654.222 267.393 646.053 274.259C640.535 278.842 635.33 283.252 629.764 284.398C628.735 284.608 627.673 284.71 626.608 284.7V284.7Z" stroke="#282828" stroke-opacity="0.05" stroke-width="1.0208" stroke-miterlimit="10"/>
<path d="M561.668 153.02C552.8 144.815 539.246 140.388 525.523 147.171C518.908 150.453 518.559 157.603 514.812 162.892C510.655 168.741 501.981 172.6 499.752 179.026C497.426 185.727 503.137 192.583 510.005 197.13C514.571 200.155 517.571 200.063 522.848 198.817C527.762 197.581 532.962 197.14 538.113 197.524C550.848 198.294 563.342 201.191 576.21 200.604C580.872 200.403 586.125 199.422 588.366 196.305C590.836 192.849 588.427 188.632 586.029 185.149C578.571 174.259 571.981 162.553 561.668 153.02Z" stroke="#282828" stroke-opacity="0.05" stroke-width="1.0208" stroke-miterlimit="10"/>
<path d="M572.885 196.076C561.33 195.764 550.162 193.647 538.632 192.95C537.126 192.858 535.752 192.812 534.403 192.812C525.511 192.812 516.33 197.212 509.222 190.686C507.669 189.205 506.583 187.474 506.046 185.624C505.509 183.774 505.536 181.856 506.125 180.016C508.089 173.764 516.222 170.555 520.113 165.065C521.54 162.928 522.709 160.697 523.607 158.4C525.029 155.109 526.258 152.277 528.812 151.012C531.896 149.385 535.542 148.486 539.294 148.427C547.62 148.427 553.945 153.129 556.969 155.925C564.608 162.993 570.306 171.637 575.824 179.997C577.692 182.839 579.439 185.497 581.571 188.247C583.162 190.264 583.981 193.106 581.861 194.792C580.318 196.002 577.861 196.131 575.656 196.131C574.8 196.112 573.824 196.094 572.885 196.076Z" stroke="#282828" stroke-opacity="0.05" stroke-width="1.0208" stroke-miterlimit="10"/>
<path d="M564.836 185.388C564.004 186.036 562.881 186.422 561.692 186.469C560.077 186.468 558.475 186.254 556.957 185.837C550.134 184.355 543.064 183.632 535.969 183.692C532.335 183.699 528.708 183.935 525.125 184.398C522.897 184.719 519.222 186.112 517.897 183.802C516.571 181.492 520.921 178.806 522.656 177.385C525.845 175.019 528.59 172.329 530.812 169.392C532.812 166.577 533.222 163.699 534.885 160.876C535.207 160.242 535.692 159.664 536.313 159.176C536.934 158.688 537.677 158.3 538.499 158.034C539.655 157.784 540.877 157.768 542.044 157.988C543.211 158.209 544.281 158.657 545.15 159.29C548.824 161.719 552.017 165.908 554.68 169.007C557.993 172.848 561.005 176.817 564.186 180.722C565.126 181.877 566.101 183.234 565.523 184.526C565.382 184.849 565.148 185.143 564.836 185.388Z" stroke="#282828" stroke-opacity="0.05" stroke-width="1.0208" stroke-miterlimit="10"/>
<path d="M549.427 177.742C549.321 177.899 549.173 178.038 548.992 178.148C548.812 178.259 548.603 178.339 548.379 178.384C547.851 178.486 547.303 178.511 546.764 178.457C544.11 178.393 541.462 178.21 538.836 177.907C538.172 177.889 537.526 177.734 536.969 177.458C536.702 177.289 536.503 177.066 536.396 176.814C536.29 176.563 536.279 176.293 536.366 176.037C536.668 175.258 537.884 175.02 538.415 174.323C538.961 173.433 539.342 172.489 539.547 171.518C539.86 170.602 541.33 167.631 542.993 169.217C543.327 169.59 543.568 170.006 543.704 170.446C544.593 172.551 546.183 174.445 548.318 175.946C548.945 176.386 549.68 176.927 549.523 177.568C549.502 177.63 549.47 177.688 549.427 177.742V177.742Z" stroke="#282828" stroke-opacity="0.05" stroke-width="1.0208" stroke-miterlimit="10"/>
<path d="M643.138 225.19C635.065 223.182 627.065 220.019 619.571 217.04C604.981 211.256 600.873 220.991 599.571 230.341C598.674 236.763 599.734 243.256 602.668 249.316C605.475 255.064 613.595 259.959 614.222 266.083C614.523 269.007 613.921 273.095 617.668 273.764C620.824 274.323 622.969 271.528 625.089 269.667C629.499 265.808 636.897 265.203 643.27 263.562C654.692 260.619 664.427 252.754 664.957 243.587C665.439 235.053 654.993 228.123 643.138 225.19Z" stroke="#282828" stroke-opacity="0.05" stroke-width="1.0208" stroke-miterlimit="10"/>
<path d="M870.548 255.403C856.487 243.34 846.596 224.988 858.102 211.449C863.777 204.757 873.463 200.806 881.632 195.865C903.729 182.417 915.174 157.786 903.319 138.261C891.463 118.736 853.403 110.22 832.608 124.823C819.74 133.852 816.632 141.204 800.078 144.989C787.584 147.822 770.909 147.419 764.548 158.107C760.331 165.184 762.138 176.101 752.307 178.274C749.451 178.745 746.48 178.599 743.728 177.852C717.837 172.233 701.198 153.249 677.969 142.899C669.427 139.095 659.33 136.437 649.704 138.133C640.077 139.829 631.74 147.153 633.776 154.514C635.704 161.462 645.041 165.376 652.065 170.042C666.367 179.484 672.644 194.224 685.162 205.087C696.885 215.28 713.331 221.504 727.029 230.158C769.837 257.227 736.319 296.938 685.306 287.487C682.367 286.937 679.391 286.213 676.379 286.396C654.511 287.744 692.367 301.741 693.499 303.877C696.439 309.377 695.788 315.565 697.74 321.294C701.355 331.937 713.668 339.838 727.114 343.844C740.56 347.85 755.246 348.611 769.644 349.564C795.415 351.26 818.644 359.648 844.789 358.786C868.21 358.016 892.451 351.068 906.235 336.621C912.22 330.168 915.893 322.639 916.89 314.777C917.887 306.915 916.175 298.991 911.921 291.786C902.957 277.183 884.596 267.467 870.548 255.403Z" stroke="#282828" stroke-opacity="0.05" stroke-width="1.0208" stroke-miterlimit="10"/>
<path d="M850.873 349.253C848.692 349.446 846.475 349.583 844.27 349.656C830.861 350.096 817.897 347.722 804.162 345.21C793.499 343.258 782.475 341.232 770.68 340.462L768.114 340.288C754.969 339.435 742.547 338.629 731.511 335.338C719.969 331.9 711.716 325.814 709.403 319.039C707.583 313.704 703.379 306.389 707.246 300.706C712.981 292.126 726.656 294.876 735.776 290.1C745.726 284.988 753.08 277.442 756.62 268.714C762.825 252.791 754.644 235.777 734.728 223.182C729.174 219.671 723.331 216.601 717.68 213.631C708.873 209.047 700.559 204.629 694.234 199.12C689.535 195.04 685.68 190.118 681.608 184.911C675.668 177.321 669.559 169.465 659.921 163.112C658.114 161.912 656.306 160.821 654.511 159.757C650.367 157.292 646.077 154.734 645.499 152.598C645.005 150.82 648.306 147.749 652.342 147.043C652.854 146.949 653.374 146.879 653.897 146.832C658.824 146.392 665.017 147.749 671.8 150.783C680.089 154.45 687.656 159.547 695.656 164.909C708.704 173.654 722.162 182.702 740.343 186.634C744.126 187.533 748.109 187.845 752.053 187.551C753.248 187.447 754.429 187.266 755.584 187.01C769.126 184.022 771.801 173.865 773.403 167.76C773.829 165.729 774.511 163.733 775.439 161.802C777.548 158.254 782.439 157.172 793.102 155.522C796.487 155.009 799.993 154.468 803.451 153.689C818.222 150.334 825.138 144.376 831.801 138.619C834.602 136.127 837.574 133.75 840.704 131.496C844.638 128.794 849.61 127.126 854.885 126.739C869.837 125.4 886.21 132.129 892.319 142.056C896.68 149.206 897.138 157.924 893.656 166.605C890.161 175.276 883.344 182.955 874.078 188.66C872.09 189.87 869.933 191.053 867.656 192.327C860.933 195.994 853.319 200.165 847.957 206.48C838.126 218.058 835.777 239.408 861.499 261.481C866.319 265.579 871.427 269.355 876.403 273.013C886.367 280.346 895.777 287.24 900.921 295.664C904.279 301.388 905.635 307.674 904.858 313.914C904.081 320.154 901.198 326.135 896.487 331.277C887.246 340.93 870.644 347.484 850.873 349.253Z" stroke="#282828" stroke-opacity="0.05" stroke-width="1.0208" stroke-miterlimit="10"/>
<path d="M847.198 340.755C837.56 341.057 827.704 339.838 818.078 338.692L752.752 330.672C744.559 329.672 729.065 326.088 722.885 321.899C718.342 318.837 716.752 312.778 721.294 309.707C723.704 308.057 727.222 307.69 730.427 307.159C749.921 303.923 764.812 291.575 769.692 277.092C775.451 259.968 768.15 241.341 754.355 227.124C743.403 215.821 722.282 207.443 707.571 199.009C705.559 198.04 703.901 196.7 702.752 195.113C701.776 193.463 702.246 191.172 704.367 190.356C707.198 189.265 710.258 191.318 712.559 192.987C727.15 203.556 751.752 202.96 768.499 195.608C778.523 191.199 782.102 184.113 789.487 177.916C793.27 174.745 797.993 172.334 802.668 169.941L840.198 150.792C848.367 146.621 858.138 142.267 867.439 144.696C876.162 146.969 880.692 154.853 879.487 161.801C878.283 168.75 872.415 174.754 865.74 179.603C859.066 184.452 851.403 188.449 844.909 193.427C832.268 203.141 824.781 216.062 823.883 229.716C822.985 243.369 828.738 256.794 840.042 267.421C849.68 276.413 862.656 282.922 872.897 291.493C883.138 300.064 890.596 312.219 885.475 323.118C881.174 332.285 868.813 338.17 856.234 339.976C853.252 340.404 850.231 340.665 847.198 340.755V340.755Z" stroke="#282828" stroke-opacity="0.05" stroke-width="1.0208" stroke-miterlimit="10"/>
<path opacity="0.4" d="M860.994 326.638C856.783 326.745 852.567 326.586 848.391 326.162L772.62 319.974C769.873 319.745 766.825 319.406 765.09 317.765C763.042 315.831 763.813 312.824 765.861 310.881C767.909 308.937 770.897 307.746 773.68 306.416C801.512 293.161 805.403 266.083 796.03 244.082C793.555 238.382 790.325 232.887 786.391 227.683C782.849 222.916 761.017 214.85 778.186 208.9C781.487 207.754 785.222 207.635 788.74 206.939C799.331 204.83 804.283 195.746 810.825 190.008C817.62 184.049 825.957 179.282 834.56 174.947C842.006 171.188 854.656 167.787 860.234 162.681C861.921 161.141 863.367 159.372 865.572 158.291C867.777 157.209 871.15 157.09 872.729 158.694C873.237 159.295 873.518 159.991 873.542 160.706C873.565 161.42 873.33 162.126 872.861 162.746C871.9 163.975 870.651 165.059 869.174 165.945C856.09 174.791 841.463 183.032 831.692 194.279C821.009 206.549 815.75 221.093 816.68 235.794C817.609 250.495 824.679 264.586 836.861 276.019C843.114 281.886 850.114 286.552 856.909 291.062C861.636 294.076 866.133 297.293 870.379 300.696C878.741 307.691 885.439 319.708 870.463 324.961C867.473 325.966 864.26 326.535 860.994 326.638Z" stroke="#3366CC" stroke-width="1.0208" stroke-miterlimit="10"/>
<path d="M803.331 235.438C797.873 237.4 798.584 227.298 795.584 223.264C793.632 220.634 785.355 221.972 787.331 216.444C789.307 210.917 789.391 216.124 790.499 215.904C799.271 214.162 802.692 203.987 809.656 205.435C816.62 206.883 803.897 220.698 803.367 228.609C803.222 230.882 808.777 233.504 803.331 235.438Z" stroke="#282828" stroke-opacity="0.05" stroke-width="1.0208" stroke-miterlimit="10"/>
<path d="M168.45 384.453C149.253 394.637 127.236 401.327 104.101 404.006C57.1848 409.286 23.2088 395.499 -16.0443 378.916C-60.1889 360.271 -43.7552 335.64 -22.0684 307.021C0.377454 277.385 5.90758 241.149 -4.38159 208.02C-14.9479 173.92 -57.7311 145.952 -35.2612 108.836C-19.9238 83.4253 23.0522 71.7193 56.9318 67.6676C64.7029 66.7509 73.3053 66.3476 79.8234 69.7484C87.3897 73.7268 89.462 81.3811 91.6788 88.1645C96.7511 103.336 122.113 116.077 142.932 113.446C156.185 111.769 169.077 105.297 181.896 108.212C198.848 112.062 202.992 129.03 216.173 138.013C234.318 150.398 267.342 146.172 280.812 161.627C290.559 172.81 284.041 187.853 287.342 201.044C296.245 236.611 369.342 245.283 378.354 280.795C382.679 297.864 367.234 316.463 345.101 320.817C311.752 327.371 270.27 296.159 241.788 314.254C229.137 322.302 223.077 334.659 215.065 345.632C203.628 361.111 187.682 374.392 168.45 384.453V384.453Z" stroke="#282828" stroke-opacity="0.05" stroke-width="1.0208" stroke-miterlimit="10"/>
<path d="M84.1127 395.994C49.1728 395.994 20.3414 383.812 -10.1887 370.914C-21.9719 365.937 -28.7671 360.592 -30.9599 354.579C-34.9237 343.716 -24.5261 328.692 -11.5863 311.605C11.7631 280.795 18.6788 242.277 7.38962 205.93C3.47394 193.335 -4.17667 181.904 -11.5743 170.849C-25.0803 150.682 -36.743 133.265 -24.3092 112.622C-8.64656 86.6248 43.2692 78.5397 58.8234 76.688C61.3074 76.3608 63.8209 76.18 66.3415 76.1472C68.641 76.0218 70.9389 76.4071 72.956 77.2564C76.2331 78.9797 77.8837 84.0031 79.4741 88.8615L79.9801 90.3832C85.8717 108.02 112.101 122.925 137.257 122.925C139.812 122.925 142.363 122.766 144.884 122.449C150.08 121.701 155.189 120.637 160.161 119.268C165.607 117.893 170.751 116.591 174.956 116.591C176.13 116.581 177.3 116.705 178.426 116.958C184.137 118.259 188.233 123.457 192.98 129.489C196.968 134.558 201.498 140.296 208.101 144.806C218.535 151.92 231.968 154.532 243.824 156.842C255.679 159.152 265.944 161.151 270.74 166.66C274.727 171.243 274.547 177.807 274.354 185.415C274.185 191.016 274.017 196.8 275.559 202.713C280.92 224.136 304.836 237.024 325.944 248.4C344.993 258.676 362.993 268.374 366.583 282.519C369.692 294.793 358.053 308.809 342.149 311.926C339.866 312.366 337.517 312.579 335.161 312.558C325.45 312.558 314.33 309.561 302.559 306.389C289.752 302.933 276.511 299.358 263.354 299.358C252.687 299.22 242.311 302.009 234.125 307.214C222.523 314.593 216.053 324.292 209.764 333.66C208.004 336.291 206.342 338.766 204.595 341.168C193.996 355.411 179.303 367.647 161.612 376.96C143.922 386.274 123.693 392.423 102.438 394.949C96.3718 395.641 90.2466 395.99 84.1127 395.994V395.994Z" stroke="#282828" stroke-opacity="0.05" stroke-width="1.0208" stroke-miterlimit="10"/>
<path d="M84.0883 381.758C60.4121 382.273 37.0104 377.793 16.4737 368.815C7.06404 364.662 -1.94803 359.299 -6.69503 351.856C-14.2734 339.939 -7.42997 330.03 1.42547 320.405C10.0399 311.055 15.9918 300.925 20.7026 289.852C32.4787 261.656 33.9571 231.554 24.9797 202.768C20.5821 188.587 12.4134 176.395 4.53391 164.615C-9.40587 143.779 -16.2854 132.266 -7.8878 118.369C-1.93598 108.496 12.9677 101.979 24.4255 98.2022C33.5822 95.223 49.2569 89.5671 59.6545 92.7021C66.8834 94.8471 67.0039 97.5238 69.4979 102.538C73.4497 110.513 76.522 115.216 85.9437 121.403C100.028 130.671 118.474 136.666 137.233 136.666C149.57 136.666 159.98 129.571 172.317 134.035C183.233 137.986 187.378 147.409 194.727 154.074C203.607 162.122 213.739 165.129 227.185 166.733C238.028 168.016 250.233 170.244 255.257 177.623C258.486 182.362 257.775 188.009 257.824 193.344C258.089 223.659 285.113 243.294 315.39 259.611C325.342 264.973 339.98 271.418 346.113 279.677C349.932 284.81 349.788 292.162 343.703 295.801C337.619 299.44 328.956 297.983 321.559 296.397C288.065 289.201 253.052 277.211 222.462 296.654C201.98 309.643 196.342 328.93 180.619 344.321C163.935 360.63 140.895 372.502 114.799 378.238C104.794 380.375 94.4775 381.558 84.0883 381.758V381.758Z" stroke="#282828" stroke-opacity="0.05" stroke-width="1.0208" stroke-miterlimit="10"/>
<path opacity="0.4" d="M80.5945 377.202C59.155 377.253 38.0783 372.994 19.498 364.855C8.99198 360.216 2.19679 355.312 -1.28515 349.849C-7.11648 340.682 -2.8996 333.092 6.36547 323.036C14.6908 313.997 21.0643 303.896 26.4258 291.255C38.6053 262.273 40.1302 231.308 30.8354 201.714C26.2571 186.983 17.9559 174.562 9.9197 162.544C-7.26106 136.877 -13.1044 115.546 26.9318 100.485C36.98 96.6991 50.0041 96.2224 58.727 101.576C61.5552 103.464 64.0535 105.621 66.1608 107.993C84.8837 127.243 103.004 141.25 137.245 141.25C142.92 141.25 148.089 140.021 152.679 138.94C156.595 138.023 160.306 137.106 163.751 137.106C165.837 137.087 167.9 137.439 169.775 138.133C175.559 140.223 179.257 144.66 183.161 149.362C185.273 152.015 187.611 154.56 190.161 156.98C201.245 167.063 214.089 169.767 226.306 171.225C235.944 172.371 246.27 174.277 249.956 179.695C251.968 182.656 251.92 186.552 251.86 190.695C251.86 191.612 251.86 192.483 251.86 193.372C252.161 226.638 282.414 247.456 311.968 263.342C313.764 264.313 315.715 265.322 317.728 266.358C326.571 270.941 336.571 276.065 340.932 281.941C343.342 285.195 343.559 290.09 340.029 292.199C338.272 293.137 336.146 293.59 334.005 293.482C330.321 293.347 326.676 292.848 323.161 291.997C318.956 291.08 314.619 290.081 310.426 289.11C294.306 285.379 277.643 281.52 261.149 281.52C245.565 281.314 230.418 285.448 218.559 293.143C205.39 301.521 198.016 312.182 190.848 322.477C186.161 329.251 181.751 335.649 175.788 341.47C159.899 357.02 137.939 368.337 113.064 373.792C103.554 375.829 93.7482 376.959 83.8716 377.156L80.5945 377.202Z" stroke="#3366CC" stroke-width="1.0208" stroke-miterlimit="10"/>
<path d="M84.2089 360.418C66.8912 360.544 49.7849 357.517 34.3172 351.59C28.4738 349.354 22.4979 346.365 20.3051 341.672C18.4738 337.758 19.7027 333.321 22.3292 329.682C26.4377 324.008 44.1365 300.055 47.2329 292.73C58.3412 266.318 61.2933 238.312 55.8594 210.89C53.3632 199.003 49.6654 187.28 44.7992 175.827C40.6546 165.743 29.7268 159.051 23.6184 149.683C18.2328 141.433 16.1726 131.432 20.9919 122.971C25.8112 114.51 38.775 108.542 50.3895 111.173C61.4498 113.685 67.5944 122.32 74.7269 129.223C85.7751 139.893 101.113 146.236 117.751 150.471C133.414 154.468 150.281 146.951 165.438 151.801C178.691 156.036 183.052 169.355 195.474 174.901C205.293 179.283 218.366 177.944 227.836 182.702C238.257 187.899 240.932 198.34 244.703 207.369C252.044 224.946 266.353 240.364 285.667 251.508C289.992 253.983 294.703 256.357 297.366 259.95C300.029 263.543 299.776 268.805 295.209 271.033C287.462 274.828 275.715 267.614 267.739 266.596C256.371 265.179 244.715 266.015 233.896 269.025C208.763 276.029 190.522 296.012 178.474 313.347C173.992 319.837 170.125 325.438 165.149 330.296C145.173 349.867 115.064 360.18 84.2089 360.418Z" stroke="#282828" stroke-opacity="0.05" stroke-width="1.0208" stroke-miterlimit="10"/>
<path d="M83.2329 347.282C80.3619 347.375 77.4865 347.353 74.6184 347.218C66.281 346.814 57.3051 345.128 52.1967 340.086C47.8352 335.778 47.2689 329.81 48.8232 324.503C50.3774 319.195 53.8232 314.327 56.9075 309.423C88.7389 258.786 83.7027 195.755 44.04 148.436C41.4738 145.375 38.7388 142.313 37.4256 138.83C36.1123 135.346 36.4497 131.267 39.5701 128.526C53.3412 116.444 64.1244 141.057 70.5943 146.209C84.0642 156.98 104.92 164.753 124.679 164.212C137.486 163.855 151.438 162.938 161.956 168.493C170.715 173.122 175.209 181.428 184.197 185.828C192.474 189.907 203.197 189.999 211.811 193.656C222.799 198.322 226.269 206.746 230.811 214.987C235.992 224.392 244.438 232.963 251.595 241.626C253.607 244.064 255.703 246.961 254.402 249.665C251.257 256.201 235.583 254.45 228.703 255.862C217.317 258.19 207.016 263.195 198.522 269.374C185.739 278.66 176.619 290.457 167.329 301.842C148.353 325.172 120.402 346.063 83.2329 347.282Z" stroke="#282828" stroke-opacity="0.05" stroke-width="2.04159" stroke-miterlimit="10"/>
<path d="M88.1246 339.499C79.1728 338.583 74.3776 333.083 79.2692 323.916C86.5945 310.166 94.3777 297.259 98.5463 282.583C103.507 264.597 104.912 246.149 102.715 227.848C100.968 212.43 95.9319 198.643 89.8234 183.958C88.7391 181.373 87.8114 178.238 90.1728 176.212C92.8716 173.911 97.7512 174.736 101.57 175.735C111.462 178.329 118.811 182.097 129.281 181.923C141.691 181.712 152.679 182.427 163.016 188.339C170.378 192.538 175.968 198.423 183.751 202.135C191.113 205.655 199.956 207.04 207.354 210.514C220.016 216.472 242.197 236.071 231.522 247.777C226.956 252.782 219.282 255.513 211.896 257.86C201.053 261.371 189.004 266.22 181.956 273.691C170.775 285.516 163.065 298.817 150.691 310.175C137.438 322.339 120.872 332.854 101.293 338.143C97.1037 339.373 92.5932 339.837 88.1246 339.499V339.499Z" stroke="#282828" stroke-opacity="0.05" stroke-width="1.0208" stroke-miterlimit="10"/>
<path d="M90.9437 335.054C90.2711 335.057 89.5989 335.026 88.9317 334.962C87.269 334.788 85.0642 334.302 84.0401 332.964C82.8352 331.442 83.1726 328.756 84.8473 325.63C86.0521 323.274 87.3654 320.946 88.6304 318.627C94.9196 307.04 100.871 296.104 104.426 283.536C109.511 265.105 110.953 246.2 108.703 227.445C107.908 220.46 104.871 213.85 102.064 207.223C99.8594 202.053 92.6545 189.889 95.9678 184.517C99.4497 178.852 120.221 186.497 128.582 186.497H129.438C130.534 186.497 131.631 186.497 132.727 186.497C142.932 186.497 151.378 187.413 159.438 191.997C162.417 193.788 165.235 195.73 167.872 197.809C171.704 200.884 175.966 203.632 180.582 206.004C184.691 207.834 189.015 209.369 193.498 210.587C197.211 211.604 200.8 212.868 204.221 214.364C212.342 218.177 225.462 228.765 227.968 237.913C228.775 240.865 228.33 243.221 226.607 245.109C222.992 249.06 216.51 251.388 209.582 253.616C199.679 256.815 185.486 262.095 177.052 271.033C172.113 276.258 167.823 281.776 163.679 287.102C158.088 294.271 152.835 301.054 146.04 307.269C131.751 320.377 116.016 329.269 99.269 333.853C96.5997 334.599 93.7868 335.005 90.9437 335.054V335.054Z" stroke="#282828" stroke-opacity="0.05" stroke-width="1.0208" stroke-miterlimit="10"/>
<path opacity="0.4" d="M111.161 313.365C104.281 310.615 119.498 295.572 122.088 286.415C127.552 266.672 129.116 246.42 126.727 226.327C126.016 220.047 123.655 212.723 119.558 207.296C117.92 205.124 116.908 202.09 119.257 200.339C121.293 198.826 124.619 199.211 127.353 199.835C134.582 201.485 141.968 199.202 148.594 202.979C150.916 204.403 153.121 205.934 155.197 207.562C159.937 211.362 165.223 214.744 170.956 217.646C175.998 219.954 181.319 221.888 186.848 223.421C189.558 224.155 192.188 225.05 194.715 226.097C199.474 228.334 209.173 232.936 206.57 238.069C204.161 242.818 190.342 245.403 184.763 247.997C176.197 251.957 168.329 256.788 162.438 263.012C157.028 268.732 152.534 274.516 148.185 280.099C142.739 287.084 138.04 293.116 132.173 298.497C126.305 303.878 118.04 316.124 111.161 313.365Z" stroke="#3366CC" stroke-width="1.0208" stroke-miterlimit="10"/>
<path d="M140.848 263.947C138.052 263.718 136.703 262.113 135.956 260.069C134.245 255.403 136.209 250.077 137.04 245.402C138.245 238.931 141.378 232.569 140.799 225.95C140.468 222.852 139.09 219.871 136.799 217.297C134.763 214.749 134.149 213.392 138.293 211.797C147.402 208.314 151.763 221.706 161.908 226.574C165.968 228.517 185.787 227.591 183.595 234.476C183.301 235.187 182.708 235.805 181.908 236.236C178.896 238.069 174.992 238.821 171.799 240.452C168.255 242.255 164.84 244.201 161.57 246.282C157.68 248.76 154.013 251.433 150.595 254.285C148.808 255.642 147.195 257.124 145.775 258.713C143.86 261.142 146.823 263.919 141.582 263.947C141.338 263.961 141.092 263.961 140.848 263.947V263.947Z" stroke="#282828" stroke-opacity="0.05" stroke-width="1.0208" stroke-miterlimit="10"/>
<path d="M456.728 -37.53C448.945 -48.2918 431.704 -56.0194 431.908 -68.2937C432.029 -75.2788 438.053 -81.2647 442.149 -87.5439C458.655 -112.771 439.354 -142.81 407.499 -155.378C390.173 -162.207 371.354 -158.706 354.487 -164.838C335.86 -171.594 324.149 -186.243 309.294 -196.555C298.191 -204.25 285.042 -210.037 270.739 -213.523C241.751 -220.572 184.221 -214.495 180.799 -184.464C179.751 -175.197 185.619 -165.938 194.595 -159.641C215.956 -144.644 266.366 -139.584 260.559 -108.747C259.257 -101.762 253.8 -95.1065 255.306 -88.1489C257.715 -76.8555 275.788 -72.4921 285.908 -64.0403C295.474 -56.0744 297.667 -44.4509 296.92 -33.68C296.173 -22.909 292.956 -12.2297 293.511 -1.45877C294.233 12.6856 302.246 27.0499 317.318 35.3367C332.39 43.6234 354.812 44.5034 369.125 35.4925C383.438 26.4815 389.161 9.29385 407.005 5.32464C414.017 3.76629 421.535 4.70131 428.776 4.02297C452.728 1.76795 468.342 -21.4698 456.728 -37.53Z" stroke="#282828" stroke-opacity="0.05" stroke-width="1.0208" stroke-miterlimit="10"/>
<path d="M344.318 32.7515C337.178 32.7423 330.215 31.0586 324.378 27.9298C313.233 21.7972 306.185 10.6871 305.547 -1.79806C305.245 -7.56396 306.209 -13.4949 307.209 -19.7649C307.908 -24.11 308.631 -28.5925 308.956 -33.1759C310.053 -49.0161 305.342 -61.4737 294.812 -70.2005C290.407 -73.6378 285.537 -76.7105 280.281 -79.3673C272.619 -83.529 267.908 -86.2974 267.185 -89.6066C266.715 -91.7699 267.956 -94.7308 269.39 -98.15C270.763 -101.171 271.799 -104.274 272.486 -107.427C277.667 -135.22 247.583 -147.046 225.619 -155.672C216.631 -159.21 208.125 -162.547 202.727 -166.323C195.92 -171.09 192.113 -177.708 192.775 -183.603C193.607 -190.936 198.968 -196.5 209.149 -200.717C218.715 -204.677 232.04 -206.95 245.619 -206.95C252.868 -207.024 260.092 -206.276 267.052 -204.732C279.699 -201.64 291.326 -196.52 301.149 -189.717C305.875 -186.321 310.371 -182.744 314.619 -179.001C324.522 -170.558 334.751 -161.822 349.294 -156.552C359.33 -152.885 369.595 -152.06 378.655 -151.308C387.089 -150.611 395.029 -149.961 401.968 -147.22C427.27 -137.265 445.077 -112.551 431.378 -91.6233C430.511 -90.3032 429.511 -88.9374 428.438 -87.489C424.486 -82.1357 420.005 -76.0581 419.872 -68.4313C419.679 -57.0829 429.161 -48.9244 436.74 -42.3702C440.462 -39.171 443.968 -36.146 446.149 -33.1301C449.679 -28.2534 449.378 -21.7633 445.342 -15.7682C441.306 -9.77314 434.583 -5.77644 427.33 -5.0981C424.928 -4.91581 422.515 -4.83624 420.101 -4.85976C414.58 -4.99171 409.063 -4.52564 403.715 -3.47557C388.836 -0.166361 380.824 8.9454 373.595 16.9938C369.643 21.4489 365.908 25.6564 361.547 28.4156C356.634 31.3313 350.546 32.8634 344.318 32.7515V32.7515Z" stroke="#282828" stroke-opacity="0.05" stroke-width="1.0208" stroke-miterlimit="10"/>
<path d="M332.209 18.7447C330.834 18.928 329.428 18.928 328.053 18.7447C316.884 17.1314 311.932 5.07709 311.559 -2.33883C311.318 -6.99555 312.149 -12.1381 313.101 -18.0965C313.836 -22.6799 314.595 -27.3916 314.956 -32.4517C315.715 -43.4518 314.149 -54.8094 308.342 -65.0212C301.944 -76.2505 289.776 -81.9431 279.498 -90.5232C276.979 -92.4655 275.494 -95.0484 275.33 -97.7741C275.33 -101.697 278.751 -104.97 279.354 -108.774C279.98 -112.798 279.125 -117.684 278.294 -121.663C276.007 -131.767 269.659 -141.083 260.125 -148.329C245.173 -160.007 225.185 -165.746 207.281 -174.124C203.438 -175.958 199.233 -178.323 199.004 -181.76C198.824 -184.281 201.004 -186.618 203.763 -188.021C211.848 -192.109 224.149 -193.2 233.583 -193.2C238.958 -193.277 244.319 -192.758 249.498 -191.66C259.67 -189.177 269.022 -185.06 276.92 -179.588C280.776 -176.911 284.8 -173.473 289.065 -169.834C299.643 -160.805 311.631 -150.584 329.462 -144.112C342.258 -139.474 354.667 -138.447 364.643 -137.622C371.619 -137.045 377.655 -136.55 381.595 -134.991C398.86 -128.189 411.956 -111.213 403.137 -97.7374C402.475 -96.7291 401.583 -95.5099 400.631 -94.2266C396.113 -88.0848 389.932 -79.7156 389.788 -68.5596C389.643 -60.4287 392.968 -52.9761 398.222 -45.9818C400.005 -43.6443 401.703 -40.8943 404.173 -38.9234C407.571 -36.1734 412.125 -34.8625 414.92 -31.59C417.896 -28.0791 418.185 -22.8632 414.053 -20.1132C410.499 -17.739 405.222 -17.959 400.487 -17.8857C390.884 -17.6537 381.497 -15.6587 373.127 -12.0706C364.756 -8.48244 357.65 -3.40766 352.414 2.72122C349.33 6.38793 346.944 10.4671 343.161 13.7213C340.372 16.2985 336.507 18.0714 332.209 18.7447V18.7447Z" stroke="#282828" stroke-opacity="0.05" stroke-width="2.04159" stroke-miterlimit="10"/>
<path d="M330.571 2.98709C329.601 2.9903 328.639 2.85019 327.739 2.57457C319.691 0.127046 320.402 -8.19637 320.631 -10.9281C321.147 -14.8845 322.309 -18.7767 324.089 -22.5149C325.462 -25.8241 326.776 -28.9316 326.98 -31.9933C327.944 -45.8077 325.39 -58.1553 319.39 -68.6604C316.112 -74.2711 311.679 -79.4481 306.257 -83.9964C304.686 -85.219 303.003 -86.3555 301.221 -87.3973C297.185 -89.8815 292.607 -92.7049 290.571 -96.5183C288.535 -100.332 289.523 -104.127 290.366 -107.069C290.683 -108.044 290.92 -109.033 291.077 -110.03C291.508 -114.405 291.209 -118.803 290.185 -123.12C288.306 -132.04 279.667 -138.456 269.703 -145.891C267.522 -147.504 265.282 -149.172 263.077 -150.896C262.932 -151.006 249.932 -162.547 253.318 -169.944C253.917 -171.233 254.991 -172.364 256.412 -173.201C257.832 -174.038 259.54 -174.546 261.33 -174.665C261.777 -174.709 262.228 -174.731 262.679 -174.729C265.518 -174.622 268.261 -173.91 270.595 -172.676L273.751 -171.264C278.896 -168.972 284.233 -166.607 288.547 -162.757C290.776 -160.768 292.776 -158.678 294.715 -156.661C296.053 -155.268 297.318 -153.911 298.643 -152.674C307.342 -144.277 315.511 -138.924 324.258 -135.844C338.98 -130.509 353.089 -129.344 363.402 -128.51C375.089 -127.594 389.619 -123.799 392.39 -111.433C394.318 -102.825 388.703 -95.0332 384.185 -88.7815C379.571 -82.3648 377.896 -77.1489 377.752 -68.7154C377.77 -61.8041 379.828 -54.9841 383.776 -48.7594C384.113 -48.191 385.137 -46.926 386.185 -45.7343C390.33 -40.6926 395.475 -34.4042 393.559 -29.2341C393.172 -28.1881 392.5 -27.2158 391.586 -26.3804C390.673 -25.5449 389.539 -24.865 388.258 -24.3849C385.532 -23.4418 382.549 -23.0111 379.559 -23.129H377.487C370.631 -23.0557 362.932 -19.9848 353.981 -13.7331C353.306 -13.2564 351.173 -11.1664 349.619 -9.63555C343.595 -3.69548 338.98 0.631242 334.631 2.22626C333.372 2.7132 331.983 2.9735 330.571 2.98709V2.98709Z" stroke="#282828" stroke-opacity="0.05" stroke-width="1.0208" stroke-miterlimit="10"/>
<path d="M942.271 -216.585C933.837 -227.585 920.295 -235.835 906.186 -242.618C832.692 -278.158 739.861 -282.769 653.656 -273.217C635.583 -271.21 617.101 -268.469 601.969 -260.732C592.827 -255.966 585.336 -249.587 580.137 -242.141C574.939 -234.694 572.185 -226.401 572.113 -217.969C572.222 -187.627 619.451 -171.466 618.029 -143.049C617.126 -125.174 604.451 -108.362 611.222 -90.2116C614.836 -80.3573 626.222 -72.1347 625.788 -61.8954C625.282 -49.8869 609.162 -41.9577 602.897 -30.9209C589.354 -7.00475 625.21 22.6039 607.716 44.98C602.354 51.8276 592.981 56.191 585.86 62.0394C578.74 67.8878 574.017 77.1462 580.017 83.673C590.752 95.3331 615.764 83.4805 633.367 88.2563C646.427 91.8314 652.222 103.84 664.306 108.992C678.234 114.95 697.078 109.606 706.282 99.669C715.487 89.7322 716.764 76.6695 714.572 64.6244C712.74 54.5409 708.547 44.4575 700.367 36.4366C687.331 23.6489 663.668 14.4363 663.933 -1.77054C664.174 -17.3082 687.764 -28.5009 687.331 -44.0294C686.909 -59.1454 663.788 -70.0355 664.584 -85.1424C664.897 -91.0274 669.017 -96.5 674.475 -100.726C697.945 -118.674 737.981 -112.203 767.596 -100.662C797.21 -89.1207 827.222 -73.2439 860.283 -76.0856C890.186 -78.6523 915.909 -98.5992 918.717 -121.397C920.271 -134.001 915.741 -147.541 923.102 -158.889C928.355 -166.992 938.861 -172.474 944.729 -180.321C953.006 -191.294 950.632 -205.585 942.271 -216.585Z" stroke="#282828" stroke-opacity="0.05" stroke-width="1.0208" stroke-miterlimit="10"/>
<path d="M680.824 102.355C678.376 102.387 675.959 101.932 673.812 101.035C670.198 99.4854 666.8 96.4512 663.222 93.2428C657.583 88.1827 651.174 82.4443 641.041 79.6668C636.361 78.4424 631.435 77.8499 626.487 77.916C621.24 77.9957 616.006 78.3541 610.824 78.9885C607.084 79.45 603.31 79.7316 599.523 79.8318C594.704 79.8318 593.969 78.9793 593.499 78.4201C591.8 76.5868 594.089 71.7375 598.318 68.2633C600.511 66.43 603.138 64.7341 605.872 62.8916C611.234 59.3074 617.318 55.2465 621.68 49.6731C633.439 34.658 627.077 18.1853 621.463 3.65595C616.993 -7.88502 612.788 -18.7935 617.595 -27.3003C619.451 -30.5728 622.885 -33.882 626.523 -37.3837C633.318 -43.9288 640.981 -51.3539 641.451 -61.6023C641.812 -70.2741 636.716 -77.2408 632.21 -83.3826C629.8 -86.6734 627.511 -89.7993 626.427 -92.7143C623.065 -101.707 625.812 -110.635 628.981 -120.975C631.101 -127.896 633.294 -135.056 633.68 -142.701C634.559 -160.2 620.921 -173.529 608.897 -185.299C598.053 -195.896 587.824 -205.896 587.776 -217.997C587.87 -224.918 590.147 -231.721 594.416 -237.834C598.684 -243.947 604.82 -249.19 612.306 -253.124C625.764 -260.008 643.475 -262.419 659.005 -264.142C683.438 -266.903 708.1 -268.318 732.8 -268.377C799.993 -268.377 857.379 -257.111 903.343 -234.882C913.319 -230.06 927.439 -222.442 935.439 -212.029C942.439 -202.862 943.391 -192.146 937.849 -184.776C935.319 -181.747 932.375 -178.929 929.066 -176.37C924.548 -172.594 919.427 -168.304 915.897 -162.868C909.741 -153.334 910.114 -143.077 910.475 -134.084C910.738 -130.113 910.693 -126.134 910.343 -122.167C908.078 -103.834 886.632 -87.1776 862.548 -85.1151C860.392 -84.9311 858.223 -84.8393 856.054 -84.8401V-84.8401C834.74 -84.8401 814.15 -93.3652 792.343 -102.385C787.234 -104.503 781.945 -106.694 776.68 -108.738C756.451 -116.63 735.258 -120.966 717.017 -120.966C697.812 -120.966 681.391 -116.172 669.535 -107.106C661.318 -100.818 656.559 -93.136 656.15 -85.4726C655.583 -74.7566 662.969 -66.3874 669.487 -58.9989C674.306 -53.5997 678.752 -48.503 678.885 -43.8004C679.029 -38.8229 674.499 -33.717 669.246 -27.7127C662.861 -20.4618 655.644 -12.2392 655.475 -1.84412C655.234 13.2536 669.053 23.0803 681.246 31.7521C686.001 34.9392 690.431 38.3958 694.499 42.0922C700.523 48.0048 704.487 56.0257 706.294 65.9258C707.8 74.2401 707.957 85.9369 700.09 94.4253C695.728 99.0912 687.824 102.355 680.824 102.355Z" stroke="#282828" stroke-opacity="0.05" stroke-width="1.0208" stroke-miterlimit="10"/>
<path d="M678.801 98.5139C675.993 97.8723 673.981 95.5806 671.668 93.5364C666.849 89.1547 661.728 84.8646 655.644 81.4362C646.969 76.5412 639.511 75.5512 629.017 74.4512C626.487 74.1945 623.728 73.837 622.029 72.3886C619.921 70.5553 620.306 67.6861 622.029 65.6786C625.439 61.7644 629.355 60.426 631.837 55.8059C634.847 50.2127 636.284 44.2015 636.054 38.1599C635.608 25.6656 629.379 13.7855 624.8 1.94199C621.005 -7.86646 622.246 -18.0049 625.198 -23.2116C626.403 -25.2925 629.572 -28.3817 632.668 -31.3609C637.752 -36.256 639.596 -43.1861 643.981 -48.4753C647.596 -52.7928 654.632 -55.9737 659.102 -50.5653C663.8 -44.8819 657.367 -39.3452 653.427 -34.8626C645.8 -26.1909 642.752 -15.3924 642.584 -0.771394C642.367 12.6488 647.969 28.0398 660.656 37.8207C671.704 46.2908 683.066 54.9534 688.367 66.4577C691.873 74.0937 695.789 92.2439 684.752 97.5698C682.355 98.7523 680.451 98.8989 678.801 98.5139Z" stroke="#282828" stroke-opacity="0.05" stroke-width="1.0208" stroke-miterlimit="10"/>
<path d="M679.319 84.6355C673.174 83.9663 667.909 76.9354 662.812 74.0662C656.921 70.7387 640.716 70.6837 640.029 63.5428C639.837 61.4436 644.403 53.3401 645.391 50.7093C647.005 46.4009 648.704 42.5784 655.644 45.2092C665.704 49.0226 673.511 61.8836 677.017 69.5195C679.162 74.1579 681.499 79.8046 679.319 84.6355Z" stroke="#282828" stroke-opacity="0.05" stroke-width="1.0208" stroke-miterlimit="10"/>
<path opacity="0.4" d="M756.56 136.51C738.825 136.51 728.005 127.454 726.825 118.929C726.482 115.289 727.147 111.635 728.776 108.203C731.921 100.916 737.126 94.0866 742.162 87.4774C750.74 76.2297 758.837 65.6146 755.331 54.6328C752.596 46.0802 743.379 39.6268 733.644 32.7884C731.439 31.2392 729.138 29.635 726.957 28.0217C709.74 15.3349 703.716 0.970529 710.849 -10.2771C713.114 -13.5281 715.951 -16.5288 719.282 -19.1964C723.078 -22.4964 726.355 -25.3564 726.837 -28.6106C727.234 -31.2415 725.728 -34.2115 724.138 -37.3558C723.475 -38.6666 722.788 -40.0233 722.198 -41.4349C717.282 -53.1226 721.186 -66.0661 731.837 -73.647C736.381 -76.9318 742.436 -78.7317 748.704 -78.6612C761.439 -78.6612 775.054 -72.2445 788.222 -65.9469C797.138 -61.7119 805.572 -57.6968 812.258 -56.4226C816.138 -55.6893 820.15 -54.9834 824.042 -54.3051C838.656 -51.7476 853.777 -49.1075 867.475 -43.4608C880.295 -38.1716 894.066 -26.869 903.415 -13.953C920.813 10.064 918.632 32.3392 897.716 44.1827C885.15 51.287 869.005 51.3419 854.765 51.3878H850.198C831.909 51.5528 820.078 54.9812 814.957 61.5721C812.548 64.7254 811.584 68.6855 810.596 72.8747L810.439 73.5439C807.198 87.294 803.319 98.2942 798.222 107.928C790.764 122.073 780.969 130.845 768.27 134.787C764.525 135.929 760.522 136.505 756.487 136.483L756.56 136.51Z" stroke="#3366CC" stroke-width="1.0208" stroke-miterlimit="10"/>
<path d="M897.006 -9.91074C888.138 -22.1576 875.234 -32.7452 863.463 -37.6036C846.921 -44.4236 827.909 -46.6603 809.656 -50.1529C787.511 -54.3788 754.234 -82.2366 734.8 -68.4864C725.282 -61.7397 722.752 -50.4554 726.752 -40.9861C728.788 -36.1094 732.403 -31.3335 731.644 -26.2551C730.439 -18.3717 719.596 -13.5866 715.065 -6.4457C707.957 4.77443 718.198 17.8921 729.933 26.5547C741.668 35.2173 756.102 43.2749 759.969 55.375C766.282 75.1294 741.62 92.1429 733.294 111.457C731.93 114.272 731.355 117.273 731.608 120.267C733.102 131.056 751.668 136.483 764.873 132.394C778.078 128.306 786.186 118.14 791.499 108.075C797.162 97.3222 800.704 85.992 803.379 74.5886C804.475 69.941 805.475 65.156 808.632 61.0951C816.343 51.1308 833.789 48.7933 848.993 48.6558C864.198 48.5183 880.789 49.2241 892.981 42.3215C914.488 30.1664 910.198 8.29447 897.006 -9.91074Z" stroke="#282828" stroke-opacity="0.05" stroke-width="1.0208" stroke-miterlimit="10"/>
<path d="M756.559 122.76C751.343 122.76 745.222 120.597 744.8 117.48C744.761 115.77 745.17 114.072 746.005 112.484C748.547 106.572 753.065 100.65 757.849 94.3797C767.367 81.8854 778.162 67.7319 772.933 51.3875C768.861 38.7832 756.644 30.2215 745.885 22.6681C743.668 21.1097 741.572 19.6339 739.559 18.1488C731.126 11.9613 722.921 2.36367 727.15 -4.30974C728.765 -6.42985 730.71 -8.39358 732.945 -10.1581C737.764 -14.3474 743.716 -19.5449 744.849 -27.0709C745.74 -33.0476 743.138 -38.181 741.053 -42.306C740.451 -43.4885 739.849 -44.6069 739.451 -45.6244C736.68 -52.2428 738.656 -59.6312 744.27 -63.6004C744.867 -64.0497 745.58 -64.3992 746.364 -64.6265C747.148 -64.8538 747.986 -64.9539 748.825 -64.9205C756.391 -64.9205 768.282 -59.2737 778.776 -54.287C788.933 -49.4653 798.535 -44.9002 807.981 -43.1035C812.041 -42.3244 816.15 -41.6093 820.114 -40.9127C834.174 -38.456 847.451 -36.1368 858.981 -31.3792C868.777 -27.3458 880.054 -17.9041 887.704 -7.32562C893.813 1.09865 897.186 9.61458 897.21 16.6547C897.21 23.8597 893.909 29.2498 887.054 33.1549C879.258 37.5641 867.379 37.6099 854.801 37.6466H850.102C825.054 37.8757 808.029 43.5775 799.499 54.5959C795.403 59.8943 794.09 65.5136 792.921 70.482L792.776 71.1328C789.752 83.9663 786.198 94.0497 781.56 102.822C776.102 113.172 769.391 119.643 761.584 122.073C759.998 122.543 758.309 122.776 756.608 122.76H756.559Z" stroke="#282828" stroke-opacity="0.05" stroke-width="1.0208" stroke-miterlimit="10"/>
<path d="M789.03 34.9059C777.488 32.7975 775.102 21.5866 767.343 15.5732C760.716 10.4215 748.259 6.17723 746.777 -1.45869C745.006 -10.6255 759.741 -19.5081 759.704 -30.2332C759.704 -35.5957 761.331 -42.0675 767.933 -43.9834C777.572 -46.7334 793.741 -35.3024 803.512 -33.4415C807.729 -32.6349 811.946 -31.9015 815.933 -31.1957C829.379 -28.849 840.933 -26.8323 850.295 -22.9456C862.464 -17.9222 885.62 3.44553 876.873 14.5282C873.476 18.8457 866.717 21.1008 860.126 21.4766C845.271 22.3291 835.849 20.3674 821.006 24.4741C811.283 27.16 801.837 36.2351 790.717 35.1442C790.149 35.0888 789.586 35.0092 789.03 34.9059Z" stroke="#282828" stroke-opacity="0.05" stroke-width="1.0208" stroke-miterlimit="10"/>
<path d="M792.728 20.6054C786.861 20.2846 785.499 15.4628 783.09 11.9795C779.905 7.21667 775.078 3.20214 769.126 0.365182C765.005 -1.46817 760.596 -4.05321 760.282 -7.69242C760.297 -9.37432 760.773 -11.0354 761.68 -12.5692C764.893 -19.2915 768.142 -25.9893 771.427 -32.6627C775.114 -40.2895 782.27 -37.2461 788.921 -34.0011C798.969 -29.0877 810.222 -27.236 821.716 -25.256C839.054 -22.2584 855.005 -16.5567 864.078 -4.22738C866.319 -1.20235 866.74 2.87686 863.885 5.59023C859.668 9.59611 851.56 8.58775 844.849 8.10191C831.42 7.15748 817.981 9.82726 806.873 15.6462C802.993 17.6812 799.174 20.2296 794.487 20.5687C793.904 20.6223 793.315 20.6346 792.728 20.6054Z" stroke="#282828" stroke-opacity="0.05" stroke-width="1.0208" stroke-miterlimit="10"/>
<path d="M798.246 1.00724C792.584 -0.0836056 788.114 -3.57614 784.078 -6.92201C780.596 -9.80955 777.005 -12.8071 775.331 -16.5196C768.909 -30.774 787.993 -27.3456 798.222 -25.3106C808.837 -23.2114 819.909 -21.5338 829.885 -17.9771C832.596 -17.0055 840.728 -14.5488 839.728 -11.5604C838.849 -8.81037 819.716 -3.61282 816.114 -2.21031C811.017 -0.23945 805.499 1.79558 799.837 1.20891C799.302 1.16473 798.771 1.0974 798.246 1.00724Z" stroke="#282828" stroke-opacity="0.05" stroke-width="1.0208" stroke-miterlimit="10"/>
<path d="M273.016 11.1271L272.294 10.2104C263.607 -0.313041 259.438 -9.74567 258.691 -22.3775C257.86 -36.5768 258.474 -51.9953 247.402 -63.4446C238.101 -73.0514 221.872 -78.2123 214.474 -88.7357C208.197 -97.6642 209.655 -108.417 209.655 -118.546C209.486 -138.915 190.305 -156.845 163.064 -159.742C147.655 -161.382 118.402 -157.239 104.028 -151.381C81.486 -142.215 79.3294 -121.644 75.1848 -104.723C67.2209 -72.4739 18.9437 -57.9996 18.9437 -24.3392C18.926 -15.7529 21.3081 -7.26192 25.9319 0.57056C30.5557 8.40304 37.3155 15.398 45.763 21.0914C52.992 25.8948 61.5221 29.7173 70.9197 31.1748C96.7993 35.0982 124.209 20.5505 148.968 27.5081C161.956 31.1748 171.257 40.2591 176.161 50.1134C181.245 60.3435 179.257 71.857 188.113 80.272C193.787 85.6621 206.185 90.5755 213.607 94.8197C221.462 99.3481 252.233 120.844 263.547 114.812C274.125 109.166 270.607 88.733 272.354 79.7495C277.041 55.6684 290.92 32.284 273.016 11.1271Z" stroke="#282828" stroke-opacity="0.05" stroke-width="1.0208" stroke-miterlimit="10"/>
<path d="M248.655 93.7196C233.45 95.4979 209.064 77.5035 203.317 68.3093C197.57 59.115 194.992 49.169 188.98 40.2314C184.365 33.4913 177.962 27.5538 170.174 22.7947C162.386 18.0357 153.385 14.5588 143.739 12.5844C113.149 6.46104 83.8714 28.223 57.6545 10.7511C51.1485 6.37277 45.9429 0.990267 42.3843 -5.03813C38.8256 -11.0665 36.9956 -17.6025 37.0159 -24.211V-24.3301C37.0159 -37.3928 48.028 -47.3204 60.775 -58.8064C76.1847 -72.7032 88.9076 -86.9576 93.3052 -105.154C95.2449 -113.321 96.6666 -121.736 101.643 -129.125C111.281 -143.489 135.956 -146.303 155.317 -146.303C157.073 -146.321 158.829 -146.245 160.57 -146.074C203.944 -141.491 183.546 -104.659 196.486 -84.125C204.426 -71.5207 223.884 -65.2873 233.281 -53.2788C250.149 -31.6636 238.39 -5.03409 257.04 17.5712L257.896 18.5887C268.269 30.863 267.86 49.0499 265.956 62.9559C264.92 70.5826 263.462 79.2911 259.004 86.2853C255.848 91.1345 252.378 93.2521 248.655 93.7196Z" stroke="#282828" stroke-opacity="0.05" stroke-width="1.0208" stroke-miterlimit="10"/>
<path d="M240.631 74.9188C234.101 76.7063 225.896 72.4071 219.631 62.3969C217.376 58.5489 215.409 54.607 213.739 50.5901C211.403 44.8887 208.503 39.33 205.065 33.9616C199.279 25.4977 191.245 18.0406 181.472 12.0632C171.7 6.08577 160.401 1.71838 148.293 -0.762125C142.915 -1.82018 137.379 -2.34701 131.823 -2.32964C120.823 -2.32964 110.57 -0.413777 101.522 1.28208C94.2933 2.63876 87.4981 3.91294 81.8836 3.91294C79.6178 3.97691 77.3578 3.69876 75.2341 3.09459C73.1103 2.49042 71.1649 1.5722 69.5101 0.392898C64.9526 -2.67663 61.3061 -6.44923 58.8133 -10.674C56.3205 -14.8988 55.0384 -19.4789 55.0522 -24.1099V-24.3391C55.0522 -32.0025 62.1004 -38.7217 74.5462 -49.9419C86.474 -60.6945 97.4379 -72.2721 104.366 -85.3989C111.426 -98.7641 107.835 -115.998 122.872 -126.2C131.595 -132.113 152.727 -136.999 163.751 -131.48C173.39 -126.631 172.39 -116.52 172.86 -108.444C173.414 -98.7549 174.064 -87.764 180.089 -78.1939C185.92 -68.9354 195.354 -62.7295 203.679 -57.2569C209.366 -53.5169 214.739 -49.9877 217.655 -46.2568C223.8 -38.4101 224.968 -28.9316 226.306 -17.9498C227.932 -4.62133 229.775 10.4672 241.643 24.8682L242.595 26.0049C250.667 35.5291 253.065 50.2601 250.812 61.2786C249.233 69.1345 245.378 73.6262 240.631 74.9188Z" stroke="#282828" stroke-opacity="0.05" stroke-width="1.0208" stroke-miterlimit="10"/>
<path opacity="0.4" d="M237.643 70.7297C234.595 70.7297 229.522 67.5489 225.077 60.4355C222.925 56.7476 221.047 52.9711 219.45 49.1236C217.021 43.1955 214.004 37.4161 210.426 31.8351C204.255 22.8046 195.686 14.8475 185.262 8.46784C174.839 2.08822 162.787 -2.5749 149.872 -5.22614C143.994 -6.38616 137.944 -6.96538 131.872 -6.9495C120.149 -6.9495 109.522 -4.96031 100.149 -3.20029C93.2811 -1.91694 86.8112 -0.706929 81.9317 -0.706929C80.3852 -0.642121 78.8377 -0.821196 77.3864 -1.23291C75.9351 -1.64463 74.6112 -2.28008 73.498 -3.09944C69.5939 -5.72741 66.4701 -8.95784 64.3345 -12.5758C62.199 -16.1937 61.1006 -20.1162 61.1124 -24.0822V-24.3114C61.1124 -30.4164 67.6425 -36.5949 79.1847 -46.9991C94.245 -60.5843 103.751 -71.8961 109.98 -83.6662C112.799 -88.983 114.028 -94.6664 115.221 -100.166C117.137 -108.985 118.932 -117.299 126.92 -122.726C131.655 -125.934 142.101 -129.253 151.39 -129.253C154.568 -129.372 157.725 -128.796 160.486 -127.593C165.896 -124.889 166.51 -119.444 166.739 -111.442C166.739 -110.332 166.811 -109.251 166.872 -108.187C167.462 -98.0581 168.137 -86.5721 174.691 -76.1586C181.064 -66.0294 191.004 -59.5026 199.775 -53.7367C205.077 -50.2442 210.101 -46.9441 212.522 -43.8549C217.968 -36.8974 219.065 -27.8864 220.342 -17.4638C222.028 -3.63114 223.956 12.0532 236.583 27.3709C236.872 27.7284 237.209 28.1318 237.571 28.5534C244.161 36.3268 247.209 49.5178 244.896 60.6371C243.559 67.1364 240.667 70.0972 238.595 70.6656C238.285 70.7287 237.963 70.7504 237.643 70.7297Z" stroke="#3366CC" stroke-width="1.0208" stroke-miterlimit="10"/>
<path d="M237.848 44.0176C236.305 41.2675 233.775 38.9483 231.896 36.3358C228.113 31.1107 227.077 25.0332 224.498 19.3956C222.86 15.7289 219.775 14.5831 216.269 12.2822C215.73 11.8615 215.082 11.5306 214.366 11.3105C214.004 11.2072 213.608 11.1999 213.24 11.2897C212.873 11.3796 212.556 11.5614 212.342 11.8055C212.22 12.0679 212.179 12.3478 212.22 12.6242C212.262 12.9005 212.386 13.166 212.583 13.4005C213.811 15.4945 214.892 17.6364 215.823 19.8173C220.643 31.7341 220.908 45.0534 229.486 55.7418C230.884 57.4927 233.558 59.3536 235.896 58.336C236.76 57.8924 237.414 57.2499 237.763 56.5027C238.89 54.5349 239.479 52.4132 239.494 50.2667C239.508 48.1203 238.948 45.994 237.848 44.0176Z" stroke="#282828" stroke-opacity="0.05" stroke-width="1.0208" stroke-miterlimit="10"/>
<path d="M1077.63 -67.3223C1071.97 -81.9892 1065.1 -96.5185 1055.49 -109.966C1048.69 -119.417 1040.23 -128.584 1028.28 -134.451C1017.36 -139.776 1004.34 -141.912 991.632 -143.957C952.97 -150.172 965.982 -105.291 957.078 -90.3126C953.393 -84.1874 948.106 -78.698 941.539 -74.1794C934.972 -69.6608 927.264 -66.2079 918.885 -64.0314C912.741 -62.4731 906.078 -61.5289 901.078 -58.403C896.078 -55.2772 893.849 -48.8788 898.512 -45.4962C900.367 -44.167 902.921 -43.5712 905.211 -42.7462C917.933 -37.9886 921.849 -25.696 922.572 -14.9251C923.295 -4.1541 922.572 7.53356 930.873 16.2878C936.09 21.7879 944.331 25.4546 948.705 31.3855C956.307 41.6431 949.801 54.7516 953.705 66.1551C957.126 76.1744 970.729 84.3419 984.066 82.2702C1001.5 79.5202 1008.16 63.2034 1008.3 49.6732C1008.43 36.143 1006.08 21.0912 1017.16 10.5036C1030.07 -1.82572 1055.33 -2.15572 1070.34 -13.0183C1079.49 -19.6368 1083.6 -29.5185 1083.97 -39.0886C1084.34 -48.6588 1081.19 -58.1097 1077.63 -67.3223Z" stroke="#282828" stroke-opacity="0.05" stroke-width="1.0208" stroke-miterlimit="10"/>
<path d="M979.837 78.0352C971.09 78.0352 961.981 72.1959 959.524 65.0275C958.09 60.82 958.319 56.1632 958.499 51.2223C958.825 43.8248 959.15 36.1797 953.957 29.1579C951.078 25.262 947.042 22.3837 943.114 19.597C940.414 17.7933 937.941 15.8016 935.728 13.6478C929.704 7.23101 929.234 -1.44991 928.789 -10.6075C928.716 -12.1292 928.644 -13.6326 928.548 -15.1268C927.475 -31.1961 920.319 -42.1596 907.837 -46.8254C907.15 -47.0913 906.439 -47.3205 905.728 -47.5588C904.61 -47.8721 903.555 -48.3041 902.596 -48.8421C902.326 -49.0544 902.124 -49.3114 902.007 -49.5929C901.89 -49.8745 901.861 -50.1729 901.921 -50.4647C902.007 -51.3078 902.31 -52.1298 902.815 -52.8834C903.319 -53.6369 904.015 -54.3072 904.861 -54.8555C907.813 -56.6889 911.981 -57.6514 916.391 -58.6506C917.861 -58.9898 919.319 -59.3198 920.765 -59.6864C929.923 -62.0765 938.347 -65.8569 945.528 -70.7984C952.708 -75.7399 958.494 -81.7395 962.536 -88.4334C965.68 -93.7318 966.403 -101.487 967.162 -109.691C968.861 -128.025 971.006 -139.942 984.789 -139.942C986.661 -139.924 988.526 -139.761 990.355 -139.456C1002.4 -137.522 1014.84 -135.523 1024.99 -130.573C1034.26 -126.063 1042.25 -118.812 1050.16 -107.757C1058.39 -96.2435 1065.27 -83.0067 1071.85 -66.0115C1074.97 -57.9264 1078.27 -48.5121 1077.95 -39.162C1077.62 -29.8119 1073.34 -21.4702 1066.2 -16.2451C1060.07 -11.8176 1051.74 -9.28752 1042.85 -6.61082C1031.79 -3.27411 1020.35 0.181764 1012.44 7.74435C1001.76 17.947 1002.01 31.4496 1002.21 43.3573C1002.21 45.5665 1002.28 47.6473 1002.21 49.7282C1002.07 62.25 996.006 75.8076 982.801 77.8702C981.805 78.0199 980.792 78.0966 979.777 78.0993L979.837 78.0352Z" stroke="#282828" stroke-opacity="0.05" stroke-width="1.0208" stroke-miterlimit="10"/>
<path d="M972.295 62.7358C970.827 61.9502 969.76 60.8044 969.271 59.4908C968.319 57.0157 969.271 54.2015 969.343 51.6807C969.705 43.2564 970.15 32.7879 962.476 22.4203C955.319 12.731 943.114 9.321 940.789 -2.7608C939.331 -10.1859 939.994 -17.9868 936.199 -24.9169C932.789 -31.1687 925.861 -36.4945 925.247 -43.2505C924.464 -51.9314 934.367 -58.9073 944.054 -63.5365C954.512 -68.5232 964.175 -72.85 970.223 -81.3476C977.211 -91.1469 978.813 -102.431 977.247 -113.367C976.801 -116.539 976.042 -119.885 977.777 -122.8C982.849 -131.472 997.91 -125.55 1004.87 -122.057C1013.15 -117.932 1019.58 -109.086 1024.79 -102.853C1037.16 -88.058 1045.94 -71.6919 1050.7 -54.5348C1052.86 -46.7247 1054.03 -38.1721 1049.1 -31.1228C1042.96 -22.341 1029.37 -18.546 1017.15 -14.971C1001.81 -10.4792 992.934 -4.49333 985.018 6.2593C976.801 17.4153 976.717 31.0737 976.934 43.4856C977.018 49.2515 976.223 57.7399 972.295 62.7358Z" stroke="#282828" stroke-opacity="0.05" stroke-width="1.0208" stroke-miterlimit="10"/>
<path d="M969.235 16.8654C965.548 17.5162 962.223 12.777 959.693 10.4486C956.718 7.88877 954.703 4.76667 953.861 1.41017C953.452 -0.661523 953.235 -2.86154 952.994 -5.19907C952.428 -10.6991 951.789 -16.8592 948.488 -22.9093C946.928 -25.5963 945.107 -28.1915 943.042 -30.6735C940.765 -33.5427 938.608 -36.2561 938.428 -38.3461C938.126 -41.7103 943.054 -46.1562 951.681 -50.2629L953.126 -50.9596C963.765 -56.0197 974.753 -61.2539 982.042 -71.4748C989.584 -82.0625 988.934 -94.7951 989.681 -106.464C989.789 -108.032 990.03 -109.801 991.681 -110.736C992.365 -111.069 993.15 -111.261 993.961 -111.295C994.771 -111.329 995.58 -111.203 996.307 -110.929C997.752 -110.358 999.043 -109.587 1000.11 -108.655C1020.7 -92.4759 1034.15 -68.954 1040.16 -47.1462C1041.69 -41.6462 1043.03 -34.6428 1039.73 -29.9402C1035.84 -24.3851 1025.27 -21.2868 1015.02 -18.2984L1014.08 -18.0234C1004.44 -15.1817 995.307 -11.1942 988.006 -5.50159C983.687 -1.99969 980.037 1.94708 977.163 6.22272C975.09 9.14692 974.632 13.1436 971.608 15.7012C970.999 16.2708 970.168 16.6784 969.235 16.8654V16.8654Z" stroke="#282828" stroke-opacity="0.05" stroke-width="1.0208" stroke-miterlimit="10"/>
<path d="M969.982 7.08476C968.777 7.3506 967.572 6.38807 966.958 3.06053C966.608 1.22718 966.391 -0.835341 966.162 -3.03537C965.235 -12.1288 963.536 -21.5889 956.524 -29.234C954.813 -31.0674 953.138 -33.1299 953.102 -35.3941C953.102 -39.1524 958.271 -40.335 961.741 -41.985C972.885 -47.2925 985.512 -53.306 994.006 -65.2228C998.797 -72.0939 1001.11 -79.8085 1000.7 -87.5805C1000.62 -89.3039 1000.63 -91.3847 1002.56 -92.2923C1004.19 -93.0714 1006.45 -92.4756 1007.72 -91.3756C1012.21 -87.4155 1015.54 -81.0721 1018.72 -76.3879C1024.14 -68.384 1028.66 -60.0426 1032.22 -51.4543C1034.49 -45.9542 1036.38 -40.0508 1034.42 -34.4866C1031.32 -25.6865 1022.2 -24.0456 1012.33 -21.7723C1002.46 -19.4989 991.849 -13.5222 984.62 -7.87542C981.657 -5.50079 979.035 -2.89173 976.801 -0.0928117C975.235 1.82304 972.391 6.57142 969.982 7.08476Z" stroke="#282828" stroke-opacity="0.05" stroke-width="1.0208" stroke-miterlimit="10"/>
<path d="M1021.49 106.847C1014.89 97.3315 1001.74 88.9531 988.211 89.3198C978.331 89.5764 968.789 93.4173 958.994 92.4548C945.006 91.089 936.102 80.8222 924.681 74.4605C906.15 64.0837 881.054 64.267 858.186 66.2104C853.729 66.5954 848.548 67.402 846.608 70.4821C845.042 72.9571 846.271 75.918 847.813 78.393C853.615 87.4077 863.56 94.4913 875.765 98.3032C886.439 101.603 898.343 102.227 908.849 105.838C930.066 113.172 941.681 132.248 939.403 149.894C937.126 167.54 922.994 183.408 904.813 194.509C894.102 201.063 880.717 207.91 880.295 218.342C880.102 223.842 884.006 229.186 889.391 232.936C894.777 236.685 901.536 239.077 908.331 241.094C914.162 242.827 920.644 244.642 923.596 248.84C926.379 252.809 925.15 257.778 927.379 261.948C929.994 266.834 936.717 269.593 943.042 271.711C949.367 273.829 956.464 275.699 963.03 274.085C967.355 273.013 970.813 270.565 973.994 268.09C987.464 257.594 998.873 244.862 1002.1 230.396C1003.98 221.963 1003.03 213.337 1002.91 204.794C1002.66 185.211 1006.86 165.744 1015.34 147.254C1019.92 137.308 1027.61 126.922 1025.58 116.087C1024.92 112.852 1023.53 109.727 1021.49 106.847V106.847Z" stroke="#282828" stroke-opacity="0.05" stroke-width="1.0208" stroke-miterlimit="10"/>
<path opacity="0.4" d="M957.62 264.955C955.122 265.399 952.512 265.323 950.066 264.735C947.336 264.062 944.845 262.922 942.784 261.403C940.722 259.884 939.146 258.026 938.174 255.971C937.042 253.542 936.813 250.93 936.15 248.4C933.909 239.884 922.897 235.566 913.259 232.724L912.765 232.578C907.596 231.047 901.752 229.085 897.584 226.161C894.307 223.879 892.319 220.963 892.403 218.571C892.572 213.511 900.837 208.543 908.897 203.739C910.102 203.033 911.307 202.318 912.427 201.622C934.849 187.871 949.09 169.382 951.488 150.792C954.427 128.031 938.97 106.113 913.909 97.487C907.584 95.4748 901.014 93.9397 894.295 92.9036C889.567 92.1485 884.92 91.1282 880.391 89.8511C876.138 88.3933 872.293 86.3268 869.066 83.7643C865.018 80.7851 855.078 75.1567 864.331 72.8284C867.355 72.0675 871.391 72.9292 874.319 73.5801C889.234 76.9076 903.945 74.2034 917.596 81.8302C920.743 83.6936 923.752 85.6889 926.608 87.8069C934.765 93.6278 944.006 100.219 957.524 101.557C959.122 101.714 960.732 101.791 962.343 101.786C967.838 101.655 973.292 101.015 978.584 99.8795C981.899 99.1701 985.296 98.7035 988.729 98.4862H989.15C996.56 98.4862 1005.92 103.931 1010.92 111.136C1012.34 113.094 1013.31 115.22 1013.79 117.425C1014.99 124.016 1011.22 130.973 1007.76 136.84C1003.5 144.021 1000.2 151.512 997.909 159.198C993.295 174.442 992.03 190.145 991.343 205.728C990.825 217.388 990.536 229.269 985.62 240.315C982.03 247.987 970.656 262.727 957.62 264.955Z" stroke="#3366CC" stroke-width="1.0208" stroke-miterlimit="10"/>
<path d="M954.319 260.317C953.02 260.312 951.734 260.126 950.524 259.767C948.803 259.153 947.27 258.271 946.025 257.178C944.78 256.086 943.85 254.806 943.295 253.423C941.307 249.151 942.09 245.127 938.777 241.158C935.861 237.785 931.992 234.951 927.451 232.862C920.223 229.425 910.982 228.425 904.198 224.768C901.15 223.127 898.885 220.331 899.475 217.526C900.066 214.721 902.933 212.851 905.885 211.348C932.391 197.872 954.259 175.946 957.452 151.278C960.644 126.61 943.741 102.776 916.355 93.3438C909.691 91.198 902.766 89.5554 895.68 88.4395C891.245 87.7411 886.884 86.7944 882.632 85.607C880.319 84.892 872.415 82.3986 872.475 79.9328C872.596 75.5052 887.054 79.9328 889.933 80.1711C898.909 80.8495 906.668 81.4361 914.03 85.5337C916.977 87.2884 919.793 89.1675 922.464 91.1621C930.897 97.1388 941.283 104.582 956.729 106.095C958.571 106.272 960.426 106.361 962.283 106.361C968.248 106.227 974.17 105.547 979.921 104.335C982.849 103.707 985.845 103.281 988.873 103.061H989.09C993.608 103.061 1001.31 107.167 1005.54 113.272C1006.62 114.765 1007.38 116.385 1007.76 118.067C1008.75 123.347 1005.36 129.534 1002.17 134.924C997.752 142.391 994.321 150.176 991.934 158.162C987.187 173.856 985.909 190.246 985.211 205.563L985.138 207.323C984.668 217.966 984.199 228.975 979.801 238.83C976.921 245.292 970.849 253.396 963.717 257.695C961.063 259.351 957.751 260.275 954.319 260.317V260.317Z" stroke="#282828" stroke-opacity="0.05" stroke-width="1.0208" stroke-miterlimit="10"/>
<path d="M955.608 249.326C952.765 248.757 952.801 243.514 951.379 241.011C949.513 237.68 946.981 234.588 943.873 231.845C937.638 226.276 928.987 222.591 919.488 221.459C917.596 221.248 915.403 221.009 914.403 219.772C913.199 218.342 914.403 216.499 915.608 215.069C922.777 206.489 932.006 199.037 940.825 191.392C949.644 183.746 958.15 175.753 963.596 166.449C969.042 157.145 971.174 146.364 966.813 136.758C965.09 132.972 962.44 129.424 960.789 125.647C955.897 113.914 968.789 114.877 980.066 113.355C984.211 112.796 988.946 112.328 992.247 114.317C994.885 115.903 995.861 118.69 995.512 121.229C994.995 123.755 993.975 126.206 992.488 128.498C980.711 149.708 974.231 172.401 973.379 195.416C973.03 205.298 973.717 215.253 971.729 225.034C970.809 230.124 969.006 235.099 966.367 239.829C964.729 242.634 962.15 246.566 958.885 248.446C957.512 249.261 956.44 249.491 955.608 249.326Z" stroke="#282828" stroke-opacity="0.05" stroke-width="1.0208" stroke-miterlimit="10"/>
<path d="M956.584 233.403C956.389 233.392 956.198 233.358 956.018 233.302C954.596 232.862 954.042 230.552 953.391 229.635C952.001 227.569 950.29 225.636 948.295 223.879C945.242 221.379 941.552 219.376 937.452 217.994C934.849 217.031 927.102 215.858 926.741 213.199C926.379 210.541 931.56 208.13 933.391 206.379C936.235 203.693 939.186 201.081 942.199 198.496L945.813 195.434C951.086 190.883 955.861 186.011 960.09 180.868C962.09 178.421 964.909 175.579 965.994 172.811C966.5 171.546 965.885 167.045 968.656 167.045C970.548 167.045 964.813 188.128 964.512 189.888C963.44 196.048 964.198 202.667 963.705 208.891C963.211 215.115 962.5 221.541 961.524 227.839C961.444 229.153 961.001 230.44 960.223 231.615C959.548 232.404 957.994 233.504 956.584 233.403Z" stroke="#282828" stroke-opacity="0.05" stroke-width="1.0208" stroke-miterlimit="10"/>
<path d="M954.138 221.119C952.933 221.55 952.006 220.203 951.729 219.414C950.018 215.234 945.187 214.198 940.56 212.475C939.801 212.215 939.19 211.756 938.837 211.183C938.15 209.89 939.693 208.708 940.693 207.809C942.114 206.535 943.452 205.188 944.825 203.886L949.006 199.907C949.777 199.165 950.668 198.487 951.415 197.744C952.162 197.002 952.62 196.232 953.307 195.572C953.484 195.393 953.708 195.245 953.966 195.138C954.224 195.03 954.508 194.966 954.801 194.948C955.312 194.98 955.791 195.15 956.151 195.428C956.511 195.705 956.729 196.072 956.765 196.461C956.726 197.245 956.552 198.021 956.247 198.771C956.09 199.642 956.126 200.604 956.078 201.521C955.97 203.446 955.97 205.371 955.873 207.305C955.672 211.112 955.528 214.92 955.44 218.727C955.527 219.456 955.275 220.186 954.729 220.789C954.561 220.926 954.36 221.038 954.138 221.119V221.119Z" stroke="#282828" stroke-opacity="0.05" stroke-width="1.0208" stroke-miterlimit="10"/>
<path d="M-43.2734 16.1411C-22.7915 28.6354 -1.27336 41.5513 24.4978 45.1722C56.546 49.6823 91.6545 39.2413 121.233 49.6456C125.715 51.2223 130.04 53.3123 132.871 56.3924C141.57 65.8066 133.522 80.3085 142.51 89.5394C148.835 96.0112 160.956 97.0928 171.546 96.6437C182.137 96.1945 193.341 94.8561 202.872 98.3578C216.125 103.207 221.185 115.326 230.763 123.805C241.908 133.677 258.799 138.316 274.137 144.109C289.474 149.903 305.028 158.538 308.378 171.298C309.992 177.476 308.486 183.875 309.245 190.145C310.908 203.895 323.233 215.665 337.053 224.667C350.872 233.669 366.703 240.92 379.33 250.884C391.956 260.848 401.318 274.717 397.8 288.257C395.113 298.67 385.462 307.122 376.113 314.96C356.029 331.735 334.233 348.794 305.872 355.807C286.45 360.61 265.438 360.289 245.715 364.332C225.992 368.374 206.028 378.999 203.968 394.472" stroke="#282828" stroke-opacity="0.05" stroke-width="2.04159" stroke-miterlimit="10"/>
<path d="M136.86 -196.876C144.191 -183.931 155.56 -172.541 169.98 -163.692C182.703 -155.891 197.51 -150.254 210.33 -142.545C223.149 -134.835 234.33 -124.211 235.402 -111.772C235.8 -107.097 234.739 -102.376 235.511 -97.7191C238.511 -79.7431 266.125 -70.3654 275.86 -53.8286C285.932 -36.7326 274.74 -16.2448 281.884 1.73123C287.185 15.1422 302.535 27.1324 299.149 40.8825C296.643 51.0301 285.077 57.9969 280.414 67.4662C277.258 73.8829 277.402 91.694 292.993 83.8014C296.113 82.2247 298.246 79.7496 300.029 77.2379C304.715 70.6287 307.74 64.0653 318.475 62.1219C325.643 60.8203 333.125 61.6911 340.45 62.2869C360.089 63.8636 381.896 58.7486 394.294 46.5109C404.945 36.0058 408.149 21.1648 422.005 13.1622C431.643 7.66214 444.39 6.58044 455.053 2.31789C488.848 -11.1939 488.15 -42.8926 494.812 -67.3496C501.029 -90.1565 542.33 -95.1707 558.487 -112.633C565.632 -120.343 566.8 -130.655 563.463 -139.74C560.126 -148.824 552.704 -156.781 543.969 -163.463" stroke="#282828" stroke-opacity="0.05" stroke-width="2.04159" stroke-miterlimit="10"/>
<path d="M1046.89 -200.653C1022.07 -205.41 996.114 -193.677 980.994 -177.965C965.873 -162.253 958.813 -143.04 949.668 -124.862C940.524 -106.684 927.813 -88.2497 905.921 -78.1663C899.982 -75.4162 893.464 -73.3446 887.982 -70.0904C883.162 -67.2487 879.295 -63.5728 874.235 -61.0061C860.909 -54.241 842.62 -56.7619 828.632 -62.7019C814.644 -68.642 803.162 -77.4971 789.596 -83.9963C772.355 -92.228 752.305 -96.4083 731.957 -96.014C721.475 -95.794 710.68 -94.2265 702.138 -89.5972C693.596 -84.968 687.885 -76.7638 690.09 -68.9353C693.487 -57.0919 713.451 -48.2368 708.704 -36.6591C705.523 -28.8857 693.041 -26.1173 685.909 -20.0123C672.849 -8.76462 682.294 9.32142 695.897 20.1749C709.499 31.0283 727.463 40.0484 733.367 54.3761C740.596 72.0038 726.837 90.2732 713.608 105.765C708.56 111.696 703.066 117.911 694.62 120.854C683.403 124.777 669.993 121.77 659.427 116.903C648.861 112.035 639.728 105.417 628.632 101.319C620.367 98.23 607.969 97.6525 604.258 104.069C601.788 108.313 605.041 113.465 610.029 116.142C615.017 118.819 621.258 119.625 627.282 120.359C659.523 124.319 694.427 129.525 715.849 148.308C734.873 164.973 759.138 154.67 778.415 141.836C796.487 129.855 805.704 104.033 834.295 104.161C848.379 104.225 862.427 111.65 876.295 114.18C887.632 116.252 899.186 118.223 909.295 122.669C919.403 127.114 927.909 134.585 929.09 143.395C930.994 157.649 910.753 181.987 898.692 192.327C886.259 202.997 868.572 209.936 870.355 226.363C870.909 231.68 875.331 234.347 878.403 238.94C881.873 244.138 883.379 249.94 886.668 255.248C901.126 278.385 933.464 292.3 924.572 321.468C916.885 346.695 883.933 359.401 863.716 378.11" stroke="#282828" stroke-opacity="0.05" stroke-width="2.04159" stroke-miterlimit="10"/>
</g>
</g>
</svg>
