<svg width="65" height="57" viewBox="0 0 65 57" fill="none" xmlns="http://www.w3.org/2000/svg">
<rect x="37.7179" y="0.352912" width="39.8741" height="39.8741" transform="rotate(48.4523 37.7179 0.352912)" stroke="white" stroke-opacity="0.14" stroke-width="0.5"/>
<rect x="37.1639" y="7.12247" width="30.7701" height="30.7701" transform="rotate(48.4523 37.1639 7.12247)" fill="#FFBD00"/>
<rect x="14.4385" y="12.2682" width="19.2923" height="19.2923" transform="rotate(48.4523 14.4385 12.2682)" fill="#FFBD00"/>
<path d="M41 21.0007H40.3333V20.3333C40.3333 20.1492 40.1841 20 40 20C39.8158 20 39.6666 20.1492 39.6666 20.3333V21.0007H38.3333V20.3333C38.3333 20.1492 38.1841 20 37.9999 20C37.8157 20 37.6665 20.1492 37.6665 20.3333V21.0007H34.3333V20.3333C34.3333 20.1492 34.1841 20 34 20C33.8158 20 33.6666 20.1492 33.6666 20.3333V21.0007H32.3333L32.3334 20.3333C32.3334 20.1492 32.1842 20 32.0001 20C31.8159 20 31.6667 20.1492 31.6667 20.3333V21.0007H31C30.45 21.0007 30 21.4473 30 22.0007V35C30 35.55 30.45 36 31 36H41C41.55 36 42 35.55 42 35V22.0007C42 21.4473 41.55 21.0007 41 21.0007H41ZM38.6666 23.9998C38.6666 24.1839 38.5174 24.3331 38.3333 24.3331H34.3333C34.1492 24.3331 34 24.1839 34 23.9998C34 23.8156 34.1492 23.6664 34.3333 23.6664H38.3333C38.5174 23.6664 38.6666 23.8156 38.6666 23.9998ZM32.6669 34.3327H32.3335C32.1494 34.3327 32.0002 34.1836 32.0002 33.9993C32.0002 33.8151 32.1494 33.666 32.3335 33.666H32.6669C32.851 33.666 33.0002 33.8151 33.0002 33.9993C33.0002 34.1836 32.8509 34.3327 32.6669 34.3327ZM32.6669 32.3327H32.3335C32.1494 32.3327 32.0002 32.1837 32.0002 31.9994C32.0002 31.8151 32.1494 31.6661 32.3335 31.6661H32.6669C32.851 31.6661 33.0002 31.8151 33.0002 31.9994C33.0002 32.1837 32.8509 32.3327 32.6669 32.3327ZM32.6669 30.3329H32.3335C32.1494 30.3329 32.0002 30.1838 32.0002 29.9996C32.0002 29.8153 32.1494 29.6662 32.3335 29.6662H32.6669C32.851 29.6662 33.0002 29.8153 33.0002 29.9996C33.0002 30.1838 32.8509 30.3329 32.6669 30.3329ZM32.6669 28.3328H32.3335C32.1494 28.3328 32.0002 28.1837 32.0002 27.9995C32.0002 27.8154 32.1494 27.6662 32.3335 27.6662H32.6669C32.851 27.6662 33.0002 27.8154 33.0002 27.9995C33.0002 28.1837 32.8509 28.3328 32.6669 28.3328ZM32.6669 26.3329H32.3335C32.1494 26.3329 32.0002 26.1837 32.0002 25.9996C32.0002 25.8154 32.1494 25.6662 32.3335 25.6662H32.6669C32.851 25.6662 33.0002 25.8154 33.0002 25.9996C33.0002 26.1837 32.8509 26.3329 32.6669 26.3329ZM32.6669 24.3331H32.3335C32.1494 24.3331 32.0002 24.1839 32.0002 23.9997C32.0002 23.8156 32.1494 23.6664 32.3335 23.6664H32.6669C32.851 23.6664 33.0002 23.8156 33.0002 23.9997C33.0002 24.1837 32.8509 24.3331 32.6669 24.3331ZM39.6667 34.3327H34.3333C34.1492 34.3327 34 34.1836 34 33.9993C34 33.815 34.1492 33.666 34.3333 33.666H39.6667C39.8508 33.666 40 33.815 40 33.9993C40 34.1836 39.8508 34.3327 39.6667 34.3327ZM34 31.9994C34 31.8151 34.1492 31.666 34.3333 31.666H38.3333C38.5174 31.666 38.6666 31.8151 38.6666 31.9994C38.6666 32.1836 38.5174 32.3327 38.3333 32.3327H34.3333C34.1493 32.3327 34 32.1836 34 31.9994ZM39.6667 30.3329H34.3333C34.1492 30.3329 34 30.1838 34 29.9995C34 29.8152 34.1492 29.6662 34.3333 29.6662H39.6667C39.8508 29.6662 40 29.8152 40 29.9995C40 30.1838 39.8508 30.3329 39.6667 30.3329ZM34 27.9994C34 27.8153 34.1492 27.6661 34.3333 27.6661H38.3333C38.5174 27.6661 38.6666 27.8153 38.6666 27.9994C38.6666 28.1836 38.5174 28.3328 38.3333 28.3328H34.3333C34.1493 28.3328 34 28.1836 34 27.9994ZM39.6667 26.3328H34.3333C34.1492 26.3328 34 26.1836 34 25.9995C34 25.8153 34.1492 25.6661 34.3333 25.6661H39.6667C39.8508 25.6661 40 25.8153 40 25.9995C40 26.1836 39.8508 26.3328 39.6667 26.3328Z" fill="white"/>
</svg>
