<svg width="65" height="71" viewBox="0 0 65 71" fill="none" xmlns="http://www.w3.org/2000/svg">
<path opacity="0.5" d="M63.4927 59.0237L44.6488 69.8813C43.8059 70.3699 42.5279 70.4242 41.7937 69.9899L0.516648 46.1846C-0.217529 45.7774 -0.108765 45.0446 0.734179 44.556L19.5781 33.6984C20.421 33.2098 21.699 33.1555 22.4332 33.5898L63.7102 57.3951C64.4172 57.8022 64.3357 58.5351 63.4927 59.0237Z" fill="#13247A"/>
<path d="M64.1997 52.2106L60.3113 51.532L22.406 29.6811C21.6718 29.2739 20.3938 29.3011 19.5509 29.7896L1.98499 39.9143L0 39.5615V41.5701C0 41.8416 0.163147 42.0859 0.489448 42.2759L41.7665 66.0811C42.5007 66.4883 43.7787 66.4611 44.6217 65.9725L63.4655 55.115C63.9278 54.8435 64.1725 54.4907 64.1725 54.1649V52.2106H64.1997Z" fill="url(#paint0_linear_1_10231)"/>
<path d="M63.4927 53.1335L44.6488 63.991C43.8059 64.4796 42.5279 64.5339 41.7937 64.0996L0.516648 40.2944C-0.217529 39.8872 -0.108765 39.1543 0.734179 38.6657L19.5781 27.8081C20.421 27.3195 21.699 27.2653 22.4332 27.6996L63.7102 51.5048C64.4172 51.912 64.3357 52.6449 63.4927 53.1335Z" fill="url(#paint1_linear_1_10231)"/>
<path d="M63.4927 52.8891L44.6488 63.7467C43.8059 64.2353 42.5279 64.2896 41.7937 63.8553L0.516643 40.0501C0.244726 39.8872 0.0815788 39.6972 0.0271953 39.48C-0.0271881 39.7786 0.135959 40.1043 0.516643 40.3215L41.7937 64.1268C42.5279 64.5339 43.8059 64.5068 44.6488 64.0182L63.4927 53.1606C64.0094 52.862 64.2541 52.4548 64.1725 52.102C64.1181 52.3734 63.9006 52.6449 63.4927 52.8891Z" fill="white"/>
<path d="M63.5199 51.3962L41.6306 64.0182L0.707001 40.4301L22.5964 27.8081L63.5199 51.3962Z" fill="#0F65B2"/>
<path d="M12.9705 32.7483L10.061 34.4313C9.92499 34.5127 9.73466 34.5127 9.62589 34.4584L9.59869 34.4313C9.48992 34.377 9.48993 34.2684 9.62589 34.187L12.5354 32.504C12.6714 32.4226 12.8617 32.4226 12.9705 32.4769L12.9977 32.504C13.1064 32.5583 13.1064 32.6669 12.9705 32.7483Z" fill="#0063AD"/>
<path d="M6.03658 40.6201L5.65589 40.8372L4.78577 40.3487L5.16644 40.1315L6.03658 40.6201Z" fill="white"/>
<path d="M6.71636 40.2401L6.33567 40.4572L5.46555 39.9415L5.84622 39.7243L6.71636 40.2401Z" fill="white"/>
<path d="M7.39617 39.8601L7.01548 40.0501L6.14536 39.5615L6.52603 39.3443L7.39617 39.8601Z" fill="white"/>
<path d="M8.04876 39.4529L7.69526 39.6701L6.82513 39.1815L7.17862 38.9643L8.04876 39.4529Z" fill="white"/>
<path d="M20.4754 3.07998C21.1824 3.07998 21.7806 3.65 21.7806 4.38289C21.7806 5.08863 21.2095 5.6858 20.4754 5.6858C19.7684 5.6858 19.1702 5.11577 19.1702 4.38289C19.1974 3.67714 19.7684 3.07998 20.4754 3.07998Z" fill="white"/>
<path d="M16.3151 3.07998C17.022 3.07998 17.6203 3.65 17.6203 4.38289C17.6203 5.08863 17.0492 5.6858 16.3151 5.6858C15.6081 5.6858 15.0099 5.11577 15.0099 4.38289C15.0099 3.67714 15.6081 3.07998 16.3151 3.07998Z" fill="#7BDAFF"/>
<path opacity="0.5" d="M12.1275 3.07998C12.8345 3.07998 13.4327 3.65 13.4327 4.38289C13.4327 5.08863 12.8617 5.6858 12.1275 5.6858C11.3934 5.6858 10.8223 5.11577 10.8223 4.38289C10.8495 3.67714 11.4206 3.07998 12.1275 3.07998Z" fill="#7BDAFF"/>
<path opacity="0.1" d="M7.96719 3.07998C8.67417 3.07998 9.2724 3.65 9.2724 4.38288C9.2724 5.08863 8.70136 5.68579 7.96719 5.68579C7.2602 5.68579 6.66199 5.11577 6.66199 4.38288C6.66199 3.67714 7.23301 3.07998 7.96719 3.07998Z" fill="#7BDAFF"/>
<path opacity="0.6" d="M27.7084 47.2703C31.7481 47.2703 35.023 45.3867 35.023 43.063C35.023 40.7394 31.7481 38.8557 27.7084 38.8557C23.6687 38.8557 20.3938 40.7394 20.3938 43.063C20.3938 45.3867 23.6687 47.2703 27.7084 47.2703Z" fill="#041860"/>
<path d="M27.7084 49.659C24.7989 49.659 21.8894 49.0076 19.6868 47.7318C17.5115 46.4832 16.3423 44.8274 16.3423 43.0359C16.3423 41.2715 17.5387 39.5886 19.6868 38.34C24.1191 35.7884 31.3249 35.7884 35.7571 38.34C37.9325 39.5886 39.1017 41.2444 39.1017 43.0359C39.1017 44.8002 37.9053 46.4832 35.7571 47.7318C33.5274 49.0347 30.6179 49.659 27.7084 49.659ZM27.7084 36.6571C24.8261 36.6571 21.9709 37.2814 19.7684 38.5571C17.6746 39.7786 16.5054 41.3801 16.5054 43.063C16.5054 44.7731 17.6746 46.3746 19.7684 47.5689C24.1463 50.0933 31.2705 50.0933 35.6212 47.5689C37.715 46.3474 38.8842 44.746 38.8842 43.063C38.8842 41.353 37.715 39.7515 35.6212 38.5571C33.4458 37.2814 30.5635 36.6571 27.7084 36.6571Z" fill="white"/>
<path d="M57.293 18.2263L25.8865 0.121284C25.6418 -0.0144354 25.4243 -0.0415806 25.2339 0.0669952L24.7717 0.338435C24.7717 0.338435 24.8804 0.36558 24.9892 0.36558C24.9348 0.5013 24.9076 0.664163 24.9076 0.854171V22.4608C24.9076 23.1937 25.3427 24.008 25.8865 24.3337L57.293 42.4387C57.3474 42.4659 57.4017 42.493 57.4561 42.5202V42.7644L57.9184 42.493C58.1359 42.3844 58.2447 42.0858 58.2447 41.7058V20.0992C58.2719 19.3664 57.8368 18.5249 57.293 18.2263Z" fill="white"/>
<path d="M56.8307 42.683L25.4243 24.578C24.8804 24.2794 24.4454 23.4379 24.4454 22.7051V1.12561C24.4454 0.392721 24.8804 0.0669944 25.4243 0.392722L56.8307 18.4977C57.3746 18.7963 57.8096 19.6378 57.8096 20.3707V41.9773C57.8096 42.6559 57.3746 43.0087 56.8307 42.683Z" fill="url(#paint2_linear_1_10231)"/>
<path d="M47.4768 19.6106V16.5162L48.1294 16.8962C48.2654 16.9777 48.3741 17.032 48.4557 17.1134C48.5373 17.1948 48.6189 17.2763 48.7004 17.3848C48.782 17.4934 48.8364 17.602 48.8636 17.7106C48.8908 17.8463 48.918 17.982 48.918 18.1177C48.918 18.4977 48.782 18.6335 48.5373 18.5249C48.7004 18.6606 48.8092 18.7963 48.8908 18.9592C48.9723 19.1221 48.9995 19.3392 48.9995 19.5564C48.9995 19.8549 48.9452 20.0449 48.8092 20.1264C48.6732 20.2078 48.4829 20.1807 48.2382 20.0449L47.4768 19.6106ZM47.9663 18.0634L48.1294 18.1449C48.2654 18.2263 48.3741 18.2534 48.4285 18.1992C48.4829 18.172 48.5101 18.0634 48.5101 17.9006C48.5101 17.8191 48.5101 17.7377 48.4829 17.6834C48.4557 17.6291 48.4285 17.5748 48.4013 17.5206C48.3469 17.4663 48.3197 17.412 48.2654 17.3848C48.211 17.3577 48.1566 17.3034 48.0478 17.2491L47.9934 17.222V18.0634H47.9663ZM47.9663 19.5021L48.1566 19.6106C48.2926 19.6921 48.4013 19.7192 48.4557 19.6649C48.5101 19.6106 48.5373 19.5021 48.5373 19.3392C48.5373 19.1492 48.5101 19.0135 48.4557 18.8778C48.4013 18.7692 48.2925 18.6606 48.1294 18.5792L47.9663 18.4977V19.5021Z" fill="white"/>
<path d="M49.1627 20.5878L49.7065 17.8192L50.2231 18.1177L50.767 21.5107L50.3047 21.2393L50.196 20.4521L49.7337 20.1807L49.6249 20.8321L49.1627 20.5878ZM49.7881 19.855L50.1416 20.0721L49.9512 18.7149L49.7881 19.855Z" fill="white"/>
<path d="M51.0117 21.6465V18.552L51.338 18.742L51.9906 20.8593V19.1221L52.3985 19.3664V22.4608L52.0722 22.2708L51.4196 20.045V21.8908L51.0117 21.6465Z" fill="white"/>
<path d="M52.8064 22.6779V19.5835L53.2958 19.855V21.185L53.8125 20.1535L54.2748 20.425L53.7581 21.5107L54.3291 23.5465L53.8397 23.2751L53.3774 21.565L53.2687 21.7007V22.9494L52.8064 22.6779Z" fill="white"/>
<path d="M33.1195 24.5508L27.1646 21.1036V20.3164L33.1195 23.7365V24.5508Z" fill="white"/>
<path d="M40.4613 28.7582L34.5063 25.338V24.5237L40.4613 27.971V28.7582Z" fill="white"/>
<path d="M47.7759 32.9926L41.8209 29.5453V28.7582L47.7759 32.2054V32.9926Z" fill="white"/>
<path d="M55.1177 37.1999L49.1355 33.7798V32.9926L55.1177 36.4128V37.1999Z" fill="white"/>
<path opacity="0.2" d="M31.5152 8.88878L24.4454 8.31876V22.7322C24.4454 23.4651 24.8804 24.2794 25.4243 24.6051L39.0201 32.4226C42.5279 27.4552 41.7393 19.8549 41.7393 19.8549L31.5152 8.88878Z" fill="#041860"/>
<path d="M39.3193 21.5379L29.0952 10.5717L18.8711 9.75739C18.8711 9.75739 17.2396 23.6008 29.0952 38.2585C40.978 37.2542 39.3193 21.5379 39.3193 21.5379Z" fill="url(#paint3_linear_1_10231)"/>
<path d="M18.8711 9.73025L16.5869 11.0603L26.811 11.9018L29.0951 10.5717L18.8711 9.73025Z" fill="url(#paint4_linear_1_10231)"/>
<path d="M37.0351 22.8408L26.8111 11.8746L22.5963 11.4403L16.587 11.0332C16.587 11.0332 14.9555 24.8766 26.8111 39.5343C38.6667 38.5843 37.0351 22.8408 37.0351 22.8408Z" fill="url(#paint5_linear_1_10231)"/>
<path d="M37.0351 22.8408L26.811 11.8746L16.5869 11.0603C16.8861 10.8974 16.8861 10.8974 16.8861 10.8974L27.2461 11.7389L37.4702 22.7051C37.4702 22.7051 38.8298 35.8427 30.0197 38.8557C38.3675 35.5713 37.0351 22.8408 37.0351 22.8408Z" fill="white"/>
<path opacity="0.2" d="M35.7843 23.0308L26.5935 13.1775L22.8139 12.7975L17.4027 12.4447C17.4027 12.4447 15.9343 24.8766 26.5935 38.0685C37.2527 37.1457 35.7843 23.0308 35.7843 23.0308Z" fill="white"/>
<path d="M20.0983 16.1487L19.7329 15.7841L19.3676 16.1487L19.7329 16.5134L20.0983 16.1487Z" fill="white"/>
<path d="M21.4056 16.1439L21.0403 15.7793L20.675 16.1439L21.0403 16.5086L21.4056 16.1439Z" fill="white"/>
<path d="M20.7498 15.4949L20.3845 15.1302L20.0192 15.4949L20.3845 15.8596L20.7498 15.4949Z" fill="white"/>
<path d="M20.754 16.7978L20.3887 16.4331L20.0234 16.7978L20.3887 17.1625L20.754 16.7978Z" fill="white"/>
<path d="M57.6736 14.2361L56.9395 13.5033L58.7341 11.7118L56.9395 9.92026L57.6736 9.18738L60.2025 11.7118L57.6736 14.2361ZM57.2386 13.5033L57.6736 13.9376L59.9033 11.7118L57.6736 9.48596L57.2386 9.92026L59.0332 11.7118L57.2386 13.5033Z" fill="white"/>
<path opacity="0.5" d="M54.9001 9.32309L54.3019 9.92026L56.0965 11.7118L54.3019 13.5033L54.9001 14.0733L56.6947 12.3089L57.293 11.7118L54.9001 9.32309Z" fill="#7BDAFF"/>
<path d="M43.0717 57.2864C42.9901 57.2864 42.9358 57.2322 42.9358 57.1507C42.9358 57.0693 42.9901 57.015 43.0717 56.9879C45.2199 56.825 47.3952 56.1735 49.1627 55.1421C51.0661 54.0292 52.2353 52.9434 52.5616 51.8848C52.5888 51.8034 52.6704 51.7762 52.752 51.8034C52.8335 51.8305 52.8607 51.9119 52.8335 51.9934C52.4529 53.1334 51.2836 54.2735 49.2986 55.4135C47.4768 56.445 45.2743 57.1236 43.0717 57.2864Z" fill="white"/>
<path d="M52.7792 51.3148C52.6976 51.3148 52.6432 51.2605 52.6432 51.1791C52.616 50.3376 51.9906 49.5504 50.8486 48.8718C48.3469 47.4332 45.0567 47.4332 41.6306 48.899C41.549 48.9261 41.4674 48.899 41.4402 48.8175C41.413 48.7361 41.4402 48.6547 41.5218 48.6275C45.0567 47.1346 48.4013 47.1346 51.0117 48.6275C52.2353 49.3333 52.9151 50.2019 52.9423 51.1519C52.9423 51.2605 52.8608 51.3148 52.7792 51.3148Z" fill="white"/>
<path d="M40.8964 57.2865C40.8964 57.2865 40.8692 57.2865 40.8964 57.2865C39.6727 57.1779 38.6123 56.8793 37.8237 56.4178C36.9264 55.9021 36.3825 55.2235 36.2194 54.4092C36.1922 54.3006 36.2194 54.192 36.301 54.0835C36.4369 53.9206 36.7089 53.8392 37.008 53.8392C37.3343 53.8663 37.6062 54.002 37.6606 54.2192C37.8237 54.7621 38.2316 55.2507 38.857 55.6035C41.0867 56.8793 45.383 56.4993 48.4285 54.7349C50.3863 53.5949 51.4468 52.4548 51.4468 51.3962C51.4468 50.6633 50.9301 49.9576 49.924 49.3876C47.3408 47.8946 43.8603 48.2204 40.3525 50.2562C39.0745 50.9891 38.1772 51.8848 37.7965 52.7806C37.7149 52.9706 37.4702 53.0791 37.1711 53.1063C36.872 53.1063 36.6273 52.9977 36.5185 52.8348C36.4641 52.7263 36.4369 52.6177 36.4913 52.5091C37.008 51.4505 38.0412 50.4733 39.5096 49.6319C39.5912 49.6047 39.6727 49.6047 39.6999 49.6861C39.7271 49.7676 39.7271 49.849 39.6455 49.8762C38.2316 50.6905 37.2255 51.6405 36.736 52.6448C36.736 52.672 36.736 52.672 36.736 52.6991C36.7904 52.7806 36.9264 52.8348 37.1439 52.8348C37.3615 52.8348 37.4702 52.7534 37.4974 52.6991C37.9053 51.7491 38.857 50.799 40.1894 50.039C43.8059 47.9489 47.3952 47.6504 50.06 49.1704C51.1477 49.7947 51.7187 50.5819 51.7187 51.4234C51.7187 52.5905 50.6582 53.812 48.5645 55.0064C45.4374 56.7979 41.0051 57.205 38.6938 55.875C37.9869 55.4678 37.5246 54.9249 37.3615 54.3278C37.3343 54.2463 37.1711 54.1649 36.9536 54.1649C36.736 54.1649 36.5457 54.2192 36.4913 54.3006C36.4641 54.3278 36.4641 54.3549 36.4641 54.382C36.6001 55.0878 37.1167 55.7121 37.9325 56.1736C38.6938 56.6079 39.6999 56.9064 40.8692 57.015C40.9508 57.015 41.0051 57.0964 41.0051 57.1779C41.0323 57.2322 40.9508 57.2865 40.8964 57.2865Z" fill="white"/>
<path d="M44.4857 55.8207C44.2681 55.8207 44.0234 55.7392 43.9146 55.6035C43.8331 55.4949 43.8059 55.3864 43.8331 55.2778C43.8875 55.1149 44.0506 55.0064 44.2681 54.9521C45.247 54.7621 46.1716 54.4092 46.9873 53.9477C48.3197 53.1877 49.0539 52.4277 49.1626 51.7491C49.217 51.4234 49.0811 51.0976 48.8092 50.799C48.7004 50.6905 48.6732 50.5819 48.7004 50.4733C48.7276 50.3105 48.8635 50.2019 49.0811 50.1204C49.4346 49.9847 49.8696 50.0662 50.06 50.2833C50.4407 50.6905 50.631 51.1519 50.6038 51.6405C50.5494 52.3463 50.0328 53.0791 49.0811 53.812C49.0267 53.8663 48.9179 53.8392 48.8907 53.7849C48.8363 53.7306 48.8635 53.622 48.9179 53.5949C49.8153 52.9163 50.2775 52.2648 50.3319 51.6405C50.3591 51.2334 50.2231 50.8533 49.8696 50.5005C49.7609 50.3919 49.4346 50.3105 49.1898 50.419C49.0539 50.4733 48.9995 50.5276 48.9995 50.5548C48.9995 50.5548 48.9995 50.5819 49.0267 50.6362C49.3802 50.9891 49.5162 51.3962 49.4618 51.8034C49.353 52.5905 48.5644 53.4049 47.1505 54.2192C46.3075 54.7078 45.3558 55.0606 44.3497 55.2507C44.2138 55.2778 44.1322 55.3321 44.1322 55.3864C44.1322 55.3864 44.1322 55.4135 44.1594 55.4407C44.241 55.5221 44.4585 55.5764 44.676 55.5492C45.7909 55.3049 46.8514 54.8978 47.7487 54.382C47.8303 54.3549 47.9118 54.3549 47.939 54.4363C47.9662 54.5178 47.9662 54.5992 47.8846 54.6263C46.9601 55.1692 45.8453 55.5764 44.7304 55.8207C44.6216 55.7935 44.5673 55.8207 44.4857 55.8207Z" fill="white"/>
<path d="M42.2288 56.0378H42.2016C41.1411 56.0107 40.2438 55.7935 39.5912 55.4135C38.8298 54.9792 38.4491 54.382 38.4491 53.6763C38.4491 52.5905 39.4008 51.3962 40.978 50.4733C43.5068 49.0347 46.0084 48.5461 48.075 49.1704C48.2925 49.2247 48.4557 49.3604 48.4829 49.5233C48.5101 49.6318 48.4829 49.7676 48.4013 49.8761C48.211 50.0933 47.8031 50.1747 47.4496 50.0661C45.9812 49.6318 44.1322 49.9304 42.256 50.9348C42.1744 50.9619 42.1472 51.0162 42.1472 51.0433C42.1472 51.0705 42.1744 51.0976 42.2288 51.1248C42.3919 51.2062 42.6638 51.2062 42.827 51.1248C44.7032 50.1204 46.4707 49.9576 47.6399 50.6362C48.1022 50.9076 48.3741 51.2605 48.3741 51.6676C48.3741 52.3191 47.7215 53.052 46.4435 53.7849C44.676 54.7892 42.3647 55.1149 41.2771 54.4906C40.9236 54.3006 40.7332 54.0292 40.6789 53.6763C40.6245 53.242 40.8148 52.7534 41.2771 52.2648C41.3043 52.2377 41.3043 52.2105 41.3043 52.2105C41.3043 52.1834 41.2499 52.1291 41.1683 52.1019C40.9508 52.0205 40.6517 52.0748 40.5701 52.1834C40.0806 52.7263 39.8359 53.2691 39.9175 53.7577C39.9719 54.1377 40.2166 54.4635 40.6517 54.7078C41.0867 54.9521 41.6849 55.1149 42.3647 55.1421C42.7182 55.1692 42.9901 55.3321 43.0173 55.5764C43.0173 55.6849 42.9901 55.7664 42.9086 55.8478C42.6638 55.9564 42.4463 56.0378 42.2288 56.0378ZM46.1988 49.1704C44.6217 49.1704 42.8814 49.6861 41.1139 50.6905C39.6184 51.5591 38.721 52.6448 38.721 53.622C38.721 54.2192 39.0745 54.7349 39.7271 55.1149C40.3526 55.4678 41.1955 55.6849 42.2016 55.7121C42.3919 55.7121 42.5279 55.6578 42.5823 55.6035C42.6095 55.5764 42.6095 55.5764 42.6095 55.5492C42.6095 55.4678 42.4735 55.3864 42.2288 55.3592C41.4946 55.3049 40.8692 55.1421 40.3797 54.8706C39.8903 54.572 39.5912 54.192 39.5096 53.7306C39.428 53.1606 39.6727 52.5362 40.2438 51.9391C40.4341 51.7219 40.8692 51.6676 41.1683 51.8034C41.3315 51.8848 41.4402 51.9934 41.4674 52.1019C41.4946 52.2105 41.4674 52.3191 41.3858 52.4005C41.0051 52.8077 40.8148 53.242 40.8692 53.5677C40.8964 53.812 41.0595 54.002 41.3314 54.1649C42.3375 54.7621 44.5401 54.4363 46.226 53.4591C47.3952 52.7805 48.0206 52.1291 48.0206 51.5862C48.0206 51.2876 47.8303 51.0162 47.4496 50.799C46.3619 50.1747 44.7032 50.3647 42.9086 51.3148C42.6638 51.4505 42.2832 51.4505 42.0384 51.3148C41.9025 51.2333 41.8209 51.0976 41.8209 50.9619C41.8209 50.8262 41.9025 50.6905 42.0656 50.609C44.0234 49.5776 45.9541 49.2518 47.4768 49.7133C47.7487 49.7947 48.0206 49.7133 48.1294 49.6047C48.1566 49.5504 48.1566 49.5504 48.1566 49.5233C48.1294 49.469 48.075 49.4147 47.939 49.3604C47.4224 49.2518 46.8242 49.1704 46.1988 49.1704Z" fill="white"/>
<path d="M42.9086 54.1378C42.5551 54.1378 42.2832 54.0835 42.0656 53.9477C41.8481 53.812 41.7121 53.622 41.7121 53.3777C41.7121 52.862 42.256 52.2377 43.1805 51.7219C44.676 50.8533 45.9812 50.6362 46.7698 51.0705C47.0961 51.2605 47.1777 51.5048 47.1777 51.6677C47.1777 52.0748 46.797 52.5634 46.0356 53.052C45.7909 53.2149 45.383 53.2149 45.1383 53.0791C45.0023 52.9977 44.9207 52.8891 44.9207 52.7534C44.9207 52.6177 44.9751 52.5091 45.1111 52.4277C45.7365 52.0205 45.7365 51.8577 45.7365 51.8577C45.5734 51.7491 45.0295 51.8305 44.0778 52.4005C43.4252 52.7806 43.1533 53.1063 43.1533 53.1877C43.1533 53.2691 43.0989 53.3234 43.0173 53.3234C42.9358 53.3234 42.8814 53.2691 42.8814 53.1877C42.8814 52.8077 43.6971 52.292 43.969 52.1291C44.6216 51.7491 45.4918 51.3419 45.8996 51.5862C46.0084 51.6405 46.0628 51.7219 46.0628 51.8305C46.0628 51.9662 45.9812 52.2105 45.3014 52.6448C45.2471 52.672 45.2471 52.6991 45.2471 52.7263C45.2471 52.7534 45.2742 52.7806 45.3286 52.8077C45.4918 52.9163 45.7909 52.8891 45.9268 52.8077C46.8242 52.2105 46.9601 51.8305 46.9601 51.6677C46.9601 51.5319 46.8514 51.3962 46.6882 51.2876C46.3619 51.0976 45.383 50.7719 43.398 51.9391C42.5823 52.4005 42.0656 52.9706 42.0656 53.3506C42.0656 53.4863 42.12 53.5949 42.2831 53.6763C42.6366 53.8663 43.3164 53.8663 44.105 53.6492C44.1866 53.622 44.2681 53.6763 44.2681 53.7577C44.2953 53.8392 44.241 53.9206 44.1594 53.9206C43.6699 54.0835 43.262 54.1378 42.9086 54.1378Z" fill="white"/>
<path d="M40.5429 49.2518C40.5157 49.2518 40.5157 49.2518 40.4885 49.2518L36.736 47.0803C36.6817 47.0532 36.6816 46.9989 36.7088 46.9446C36.736 46.8903 36.7904 46.8903 36.8448 46.9175L40.5973 49.089C40.6516 49.1161 40.6516 49.1704 40.6245 49.2247C40.5973 49.2247 40.5701 49.2518 40.5429 49.2518Z" fill="white"/>
<defs>
<linearGradient id="paint0_linear_1_10231" x1="4.38842" y1="33.3205" x2="58.7733" y2="62.0264" gradientUnits="userSpaceOnUse">
<stop stop-color="#3A9BD5"/>
<stop offset="0.3053" stop-color="#3A9BD5"/>
<stop offset="0.3555" stop-color="#3A9BD5"/>
<stop offset="0.5988" stop-color="#3999D4"/>
<stop offset="0.6883" stop-color="#3592CF"/>
<stop offset="0.7522" stop-color="#2F86C7"/>
<stop offset="0.8039" stop-color="#2676BC"/>
<stop offset="0.8102" stop-color="#2573BA"/>
</linearGradient>
<linearGradient id="paint1_linear_1_10231" x1="5.87871" y1="51.5563" x2="54.2145" y2="31.14" gradientUnits="userSpaceOnUse">
<stop stop-color="#59BDEF"/>
<stop offset="1" stop-color="#7BDAFF"/>
</linearGradient>
<linearGradient id="paint2_linear_1_10231" x1="69.2203" y1="42.4855" x2="11.8595" y2="36.6766" gradientUnits="userSpaceOnUse">
<stop stop-color="#59BDEF"/>
<stop offset="1" stop-color="#7BDAFF"/>
</linearGradient>
<linearGradient id="paint3_linear_1_10231" x1="26.1491" y1="21.3353" x2="56.8702" y2="30.779" gradientUnits="userSpaceOnUse">
<stop stop-color="#2573BA"/>
<stop offset="0.907" stop-color="#0364AE"/>
<stop offset="1" stop-color="#0063AD"/>
</linearGradient>
<linearGradient id="paint4_linear_1_10231" x1="29.1058" y1="10.8187" x2="16.5847" y2="10.8187" gradientUnits="userSpaceOnUse">
<stop stop-color="#0063AD"/>
<stop offset="1" stop-color="#2573BA"/>
</linearGradient>
<linearGradient id="paint5_linear_1_10231" x1="16.5074" y1="19.7971" x2="37.1046" y2="19.7971" gradientUnits="userSpaceOnUse">
<stop stop-color="#7BDAFF"/>
<stop offset="1" stop-color="#59BDEF"/>
</linearGradient>
</defs>
</svg>
