<svg width="65" height="64" viewBox="0 0 65 64" fill="none" xmlns="http://www.w3.org/2000/svg">
<path opacity="0.6" d="M11.9468 34.5904L6.60077 31.5136L10.8558 29.0631L16.1746 32.1399L11.9468 34.5904Z" fill="#041860"/>
<path d="M12.1378 35.7612L4.58235 31.4047L10.6376 27.9195L18.193 32.276L12.1378 35.7612ZM4.96421 31.4047L12.165 35.5434L17.8384 32.276L10.6376 28.1374L4.96421 31.4047Z" fill="white"/>
<path d="M11.9468 27.4839L6.60077 24.4071L10.8558 21.9566L16.1746 25.0334L11.9468 27.4839Z" fill="url(#paint0_linear_1_10082)"/>
<path d="M16.1746 28.328V25.0334L11.9468 27.4839V30.7785L16.1746 28.328Z" fill="url(#paint1_linear_1_10082)"/>
<path d="M6.60077 24.4071V27.7017L11.9468 30.7785V27.4839L6.60077 24.4071Z" fill="url(#paint2_linear_1_10082)"/>
<path d="M9.87388 23.6175L7.5827 24.9517V25.6596L8.2646 26.068V25.3601L10.5558 24.0259L9.87388 23.6175Z" fill="white"/>
<path d="M11.3468 24.4616L9.02832 25.7958V26.5037L9.7375 26.9121V26.2042L12.0287 24.87L11.3468 24.4616Z" fill="white"/>
<path d="M12.8197 25.3057L10.5012 26.6398V27.375L11.1831 27.7562V27.0483L13.5016 25.7141L12.8197 25.3057Z" fill="white"/>
<path d="M9.87387 23.6175V23.917L10.3103 24.1621L10.5558 24.026L9.87387 23.6175Z" fill="#A9EBFF"/>
<path d="M7.82818 25.5235L7.5827 25.6596L8.2646 26.0681V25.7685L7.82818 25.5235Z" fill="#A9EBFF"/>
<path d="M9.87388 23.6175L7.5827 24.9517V25.6596L7.82818 25.5235V25.0878L9.87388 23.917V23.6175Z" fill="url(#paint3_linear_1_10082)"/>
<path d="M11.3468 24.4616V24.7611L11.7832 25.0061L12.0287 24.87L11.3468 24.4616Z" fill="#A9EBFF"/>
<path d="M9.30108 26.3675L9.02832 26.5037L9.7375 26.9121V26.6126L9.30108 26.3675Z" fill="#A9EBFF"/>
<path d="M11.3468 24.4616L9.02832 25.7958V26.5037L9.30108 26.3676V25.9319L11.3468 24.7611V24.4616Z" fill="url(#paint4_linear_1_10082)"/>
<path d="M12.8197 25.3057V25.6052L13.2561 25.8502L13.5016 25.7141L12.8197 25.3057Z" fill="#A9EBFF"/>
<path d="M10.7467 27.2116L10.5012 27.375L11.1831 27.7562V27.4567L10.7467 27.2116Z" fill="#A9EBFF"/>
<path d="M12.8197 25.3057L10.5012 26.6398V27.375L10.7467 27.2116V26.8032L12.8197 25.6052V25.3057Z" fill="url(#paint5_linear_1_10082)"/>
<path d="M39.6864 63.7788C33.413 63.7788 27.1668 62.4174 22.3935 59.6673C17.7566 56.999 15.1927 53.4321 15.1927 49.6475C15.1927 45.8628 17.7566 42.2959 22.3935 39.6276C31.9401 34.1275 47.4601 34.1275 56.9793 39.6276C61.6162 42.2959 64.1529 45.8355 64.1529 49.6475C64.1529 53.4321 61.589 56.999 56.9521 59.6673C52.2061 62.4174 45.9326 63.7788 39.6864 63.7788ZM39.6591 35.6795C33.4402 35.6795 27.1941 37.0409 22.4481 39.7909C17.8657 42.4321 15.3563 45.9445 15.3563 49.6475C15.3563 53.3777 17.8657 56.8629 22.4481 59.504C31.9401 64.9768 47.3782 64.9768 56.8702 59.504C61.4526 56.8629 63.962 53.3505 63.962 49.6475C63.962 45.9172 61.4526 42.4321 56.8702 39.7909C52.1242 37.0409 45.9053 35.6795 39.6591 35.6795Z" fill="white"/>
<path opacity="0.5" d="M39.6592 59.7218C49.3152 59.7218 57.143 55.2114 57.143 49.6475C57.143 44.0836 49.3152 39.5731 39.6592 39.5731C30.0031 39.5731 22.1753 44.0836 22.1753 49.6475C22.1753 55.2114 30.0031 59.7218 39.6592 59.7218Z" fill="#13247A"/>
<path d="M50.815 10.4664L32.8947 0.147024C32.5947 -0.0163438 32.3492 -0.0435705 32.131 0.0653413L30.9036 0.773268L31.6946 1.26337V43.14C31.6946 44.0113 32.2128 45.0187 32.8675 45.3999L50.5695 55.6104L50.324 56.5089L51.5514 55.801C51.7969 55.6648 51.9606 55.3381 51.9606 54.848V12.7263C51.9879 11.855 51.4696 10.8476 50.815 10.4664Z" fill="url(#paint6_linear_1_10082)"/>
<path d="M49.5603 56.4544L31.6673 46.1078C31.0127 45.7266 30.4944 44.7192 30.4944 43.8479V1.75347C30.4944 0.882179 31.0127 0.500989 31.6673 0.854952L49.5876 11.1743C50.2422 11.5555 50.7604 12.563 50.7604 13.4343V55.5559C50.7604 56.4272 50.2149 56.8356 49.5603 56.4544Z" fill="url(#paint7_linear_1_10082)"/>
<path d="M50.7604 55.5831L30.4944 43.9024V1.72624L50.7604 13.407V55.5831Z" fill="#0F65B2"/>
<path opacity="0.4" d="M47.5146 56.4L29.4307 45.9717C28.7488 45.5905 28.3396 44.8553 28.3396 44.0657V4.42182C28.3396 3.87726 28.9397 3.5233 29.4307 3.79558L47.5146 14.2239C48.1965 14.6051 48.6056 15.3402 48.6056 16.1298V55.801C48.6056 56.3183 47.9783 56.6723 47.5146 56.4Z" fill="white"/>
<path d="M47.8692 56.5634C47.7328 56.5634 47.5964 56.5361 47.46 56.4545L29.3761 46.0261C28.667 45.6177 28.2305 44.8826 28.2305 44.0657V4.42181C28.2305 4.12231 28.3669 3.87725 28.6397 3.74111C28.8852 3.60497 29.1852 3.60497 29.4307 3.74111L47.5146 14.1694C48.2238 14.5778 48.6602 15.313 48.6602 16.1298V55.801C48.6602 56.1005 48.5238 56.3455 48.2511 56.4817C48.142 56.5361 48.0056 56.5634 47.8692 56.5634ZM29.0488 3.76834C28.9397 3.76834 28.8306 3.79557 28.7215 3.85003C28.5306 3.95894 28.3942 4.17676 28.3942 4.39459V44.0657C28.3942 44.8281 28.8033 45.5088 29.458 45.89L47.5419 56.3183C47.7328 56.4272 47.9783 56.4272 48.1965 56.3183C48.3874 56.2094 48.5238 55.9916 48.5238 55.7738V16.1026C48.5238 15.3402 48.1147 14.6595 47.46 14.2783L29.3761 3.85003C29.267 3.79557 29.1579 3.76834 29.0488 3.76834Z" fill="white"/>
<path d="M41.9503 7.79808L39.2773 6.24608C39.1955 6.19163 39.1136 6.05549 39.1136 5.91935C39.1136 5.81044 39.1955 5.75598 39.2773 5.78321L41.9503 7.3352C42.0322 7.38966 42.114 7.5258 42.114 7.66194C42.114 7.79808 42.0322 7.85254 41.9503 7.79808Z" fill="#0063AD"/>
<path opacity="0.2" d="M43.0414 31.7315C43.3959 31.9493 43.696 31.7315 43.696 31.2414V16.5927C43.696 16.1026 43.3959 15.5308 43.0414 15.313L28.3669 6.8451C28.3396 7.00847 28.3124 7.19906 28.3124 7.36243V23.2363L43.0414 31.7315Z" fill="#041860"/>
<path d="M32.0219 26.3131V26.667C31.7219 26.5309 31.3127 26.4492 30.849 26.5037C29.1852 26.6126 27.2486 27.9468 26.5394 29.4443C26.3485 29.8527 26.2394 30.2339 26.2667 30.5879L25.9394 30.479L26.294 31.0235C26.594 31.4864 27.1941 31.7587 28.0396 31.677C29.7035 31.5681 31.64 30.2339 32.3492 28.7364C32.7038 28.0012 32.7038 27.3477 32.4038 26.8849L32.0219 26.3131Z" fill="#FFBD00"/>
<path d="M31.9946 28.1646C31.2582 29.6621 29.3489 30.9691 27.685 31.1052C26.0212 31.2141 25.2575 30.125 25.9939 28.6275C26.7304 27.1299 28.6397 25.823 30.3035 25.6869C31.9673 25.5507 32.7038 26.6671 31.9946 28.1646Z" fill="#FFBD00"/>
<path d="M31.9946 28.1646C31.2582 29.6621 29.3489 30.9691 27.685 31.1052C26.0212 31.2141 25.2575 30.125 25.9939 28.6275C26.7304 27.1299 28.6397 25.823 30.3035 25.6869C31.9673 25.5507 32.7038 26.6671 31.9946 28.1646Z" fill="url(#paint8_radial_1_10082)"/>
<path d="M30.0308 29.8799C29.3761 30.3428 28.5851 30.6423 27.876 30.6968C27.1941 30.7512 26.6486 30.5606 26.3758 30.1522C26.103 29.7438 26.103 29.172 26.4031 28.573C27.0031 27.3205 28.6397 26.2042 30.058 26.0953C30.7399 26.0408 31.2855 26.2314 31.5582 26.6398C31.831 27.0482 31.831 27.62 31.5309 28.219C31.2309 28.8453 30.6581 29.4171 30.0308 29.8799ZM27.9578 26.9393C27.3032 27.375 26.7577 27.9468 26.4576 28.573C26.1576 29.172 26.1576 29.7166 26.4031 30.0978C26.6758 30.479 27.1668 30.6696 27.8487 30.6151C29.2398 30.5062 30.849 29.4171 31.4491 28.1646C31.7491 27.5656 31.7491 27.021 31.5037 26.6398C31.2309 26.2586 30.7399 26.068 30.058 26.1225C29.3761 26.1769 28.6124 26.5037 27.9578 26.9393Z" fill="#FFBD00"/>
<path d="M31.5037 28.1918C30.9036 29.4443 29.267 30.5606 27.876 30.6423C26.4849 30.7512 25.8575 29.7983 26.4576 28.5458C27.0577 27.2933 28.6942 26.1769 30.0853 26.0953C31.4764 26.0136 32.1037 26.9393 31.5037 28.1918Z" fill="url(#paint9_radial_1_10082)"/>
<path d="M26.5394 28.6819C27.1395 27.4294 28.7761 26.3131 30.1671 26.2314C30.8218 26.1769 31.3127 26.3675 31.5855 26.6943C31.34 26.2859 30.8218 26.0408 30.0853 26.0953C28.6942 26.2042 27.0577 27.2933 26.4576 28.5458C26.1303 29.1992 26.1576 29.771 26.4576 30.1522C26.2394 29.7983 26.2394 29.2809 26.5394 28.6819Z" fill="#FFBD00"/>
<path d="M31.9128 28.0557C31.1763 29.5532 29.267 30.8601 27.6032 30.9963C26.8122 31.0507 26.2121 30.8329 25.9121 30.4245C26.2121 30.9146 26.8122 31.1869 27.685 31.1324C29.3489 31.0235 31.2854 29.6893 31.9946 28.1918C32.3765 27.4022 32.3492 26.7487 31.9946 26.2858C32.2674 26.6943 32.2401 27.3205 31.9128 28.0557Z" fill="#F8D981"/>
<path d="M31.4764 29.9344C31.8582 29.5532 32.1583 29.1448 32.3492 28.7092C32.7038 27.974 32.7038 27.3205 32.4038 26.8577L32.0219 26.3131C32.0219 26.3131 32.0219 26.2859 31.9946 26.2859L31.9673 26.2586C31.64 25.8502 31.0672 25.6052 30.249 25.6596C29.3216 25.7413 28.2851 26.177 27.4395 26.8304L30.4399 29.9344H31.4764Z" fill="#FFBD00"/>
<path d="M41.1593 16.5383L19.8569 4.25845C19.6932 4.14954 19.5295 4.14954 19.4204 4.23122L19.0931 4.42182C19.0931 4.42182 19.175 4.42182 19.2295 4.44904C19.2022 4.53073 19.175 4.63964 19.175 4.77578V19.4244C19.175 19.9145 19.475 20.4863 19.8296 20.7041L41.132 32.9839C41.1593 33.0112 41.2139 33.0112 41.2411 33.0384V33.2018L41.5685 33.0112C41.7048 32.9295 41.7867 32.7389 41.7867 32.4666V17.7907C41.8139 17.3006 41.5139 16.7289 41.1593 16.5383Z" fill="white"/>
<path d="M40.832 33.1201L19.5295 20.8403C19.175 20.6225 18.8749 20.0507 18.8749 19.5606V4.91192C18.8749 4.42182 19.175 4.204 19.5295 4.42182L40.832 16.7016C41.1866 16.9195 41.4866 17.4912 41.4866 17.9813V32.63C41.5139 33.1201 41.2139 33.3379 40.832 33.1201Z" fill="url(#paint10_linear_1_10082)"/>
<path d="M34.504 17.464V15.3675L34.9404 15.6125C35.0222 15.667 35.1041 15.7214 35.1586 15.7759C35.2132 15.8303 35.2677 15.8848 35.3223 15.9665C35.3768 16.0209 35.4041 16.1026 35.4314 16.1843C35.4587 16.266 35.4587 16.3749 35.4587 16.4566C35.4587 16.7016 35.3768 16.8105 35.1859 16.7289C35.295 16.8105 35.3768 16.9194 35.4314 17.0284C35.4859 17.1373 35.5132 17.2734 35.5132 17.4368C35.5132 17.6274 35.4587 17.7635 35.3768 17.818C35.295 17.8724 35.1586 17.8452 34.995 17.7635L34.504 17.464ZM34.8313 16.4293L34.9404 16.4838C35.0495 16.5383 35.1041 16.5655 35.1313 16.5383C35.1586 16.511 35.1859 16.4293 35.1859 16.3204C35.1859 16.266 35.1859 16.2115 35.1586 16.1571C35.1586 16.1026 35.1313 16.0754 35.1041 16.0482C35.0768 16.0209 35.0495 15.9937 35.0222 15.9665C34.995 15.9392 34.9404 15.912 34.8859 15.8848L34.8313 15.8576V16.4293ZM34.8313 17.3823L34.9404 17.464C35.0495 17.5185 35.1041 17.5457 35.1586 17.4912C35.1859 17.464 35.2132 17.3823 35.2132 17.2734C35.2132 17.1373 35.1859 17.0556 35.1586 16.9739C35.1041 16.8922 35.0495 16.8105 34.9404 16.7561L34.8313 16.7016V17.3823Z" fill="white"/>
<path d="M35.6496 18.1447L36.0315 16.266L36.386 16.4566L36.7406 18.7709L36.4406 18.5803L36.3588 18.063L36.0315 17.8724L35.9496 18.3081L35.6496 18.1447ZM36.0587 17.6546L36.3042 17.7907L36.1951 16.865L36.0587 17.6546Z" fill="white"/>
<path d="M36.9043 18.8526V16.7561L37.1225 16.8922L37.5589 18.3353V17.1645L37.8317 17.3279V19.4244L37.6135 19.2883L37.177 17.7907V19.0432L36.9043 18.8526Z" fill="white"/>
<path d="M38.1317 19.5606V17.464L38.459 17.6546V18.5531L38.8136 17.8452L39.1409 18.0358L38.7863 18.7709L39.1682 20.1596L38.8409 19.969L38.5408 18.7982L38.4863 18.9071V19.7511L38.1317 19.5606Z" fill="white"/>
<path d="M24.7665 20.8131L20.7297 18.4987V17.9541L24.7665 20.2685V20.8131Z" fill="white"/>
<path d="M29.7307 23.672L25.6939 21.3576V20.8131L29.7307 23.1547V23.672Z" fill="white"/>
<path d="M34.6949 26.5582L30.6581 24.2166V23.672L34.6949 26.0136V26.5582Z" fill="white"/>
<path d="M39.6592 29.4171L35.6223 27.0755V26.5309L39.6592 28.8725V29.4171Z" fill="white"/>
<path opacity="0.2" d="M40.832 16.7016L19.5568 4.44904C19.2022 4.23122 18.9022 4.44904 18.9022 4.93915V19.5878C18.9022 19.6695 18.9022 19.7784 18.9295 19.8601C20.0751 19.0432 24.6574 16.511 33.4675 21.3576C36.6588 23.1274 39.3591 22.8824 41.5139 21.7388V17.9813C41.5139 17.4912 41.2139 16.9194 40.832 16.7016Z" fill="white"/>
<path opacity="0.2" d="M27.7123 15.9665C30.7127 15.5853 33.1948 14.6595 35.2677 13.516L19.5568 4.44904C19.2022 4.23122 18.9022 4.44904 18.9022 4.93915V18.9615C20.4569 17.7091 23.1572 16.5655 27.7123 15.9665Z" fill="white"/>
<path d="M32.5401 51.4173L32.3492 51.7168C32.1855 51.4173 31.8855 51.145 31.4764 50.9C30.0308 50.0559 27.7123 50.0559 26.2667 50.8727C25.8575 51.0906 25.5848 51.3628 25.3938 51.6624L25.1756 51.3901V52.0435C25.1484 52.5881 25.5029 53.1599 26.2394 53.5955C27.685 54.4396 30.0035 54.4396 31.4491 53.6228C32.1583 53.2144 32.5401 52.6698 32.5401 52.1252V51.4173Z" fill="#FFBD00"/>
<path d="M31.4491 52.9148C30.0035 53.7317 27.6577 53.7317 26.2394 52.8876C24.7938 52.0435 24.8211 50.7094 26.2394 49.8653C27.685 49.0485 30.0308 49.0485 31.4491 49.8925C32.922 50.7366 32.8947 52.0708 31.4491 52.9148Z" fill="#FFBD00"/>
<path d="M31.4491 52.9148C30.0035 53.7317 27.6577 53.7317 26.2394 52.8876C24.7938 52.0435 24.8211 50.7094 26.2394 49.8653C27.685 49.0485 30.0308 49.0485 31.4491 49.8925C32.922 50.7366 32.8947 52.0708 31.4491 52.9148Z" fill="url(#paint11_radial_1_10082)"/>
<path d="M28.8852 53.2143C28.0669 53.2143 27.2759 53.0238 26.6485 52.6698C26.0485 52.3158 25.7212 51.8529 25.7212 51.3628C25.7212 50.8727 26.0485 50.4099 26.6485 50.0831C27.876 49.3752 29.8398 49.4024 31.0672 50.1104C31.6673 50.4643 31.9946 50.9272 31.9946 51.4173C31.9946 51.9074 31.6673 52.3703 31.0672 52.697C30.4672 53.0238 29.6762 53.2143 28.8852 53.2143ZM28.8306 49.6475C28.0396 49.6475 27.2759 49.8108 26.6758 50.1648C26.103 50.4915 25.7757 50.9272 25.7757 51.3901C25.7757 51.8529 26.0757 52.2886 26.6485 52.6426C27.8487 53.3505 29.7853 53.3505 31.0127 52.6698C31.5855 52.3431 31.9128 51.9074 31.9128 51.4445C31.9128 50.9817 31.6128 50.546 31.04 50.192C30.4399 49.8109 29.6489 49.6475 28.8306 49.6475Z" fill="#FFBD00"/>
<path d="M31.04 52.6698C29.8398 53.3505 27.876 53.3505 26.6485 52.6426C25.4484 51.9346 25.4484 50.8183 26.6485 50.1104C27.8487 49.4297 29.8126 49.4297 31.04 50.1376C32.2674 50.8455 32.2674 51.9619 31.04 52.6698Z" fill="url(#paint12_radial_1_10082)"/>
<path d="M26.6758 50.2737C27.876 49.593 29.8398 49.593 31.0672 50.3009C31.64 50.6277 31.9401 51.0633 31.9673 51.499C31.9946 51.0089 31.6946 50.5188 31.0672 50.1648C29.8671 49.4569 27.9032 49.4569 26.6758 50.1376C26.0485 50.4915 25.7212 50.9817 25.7757 51.4718C25.803 51.0089 26.103 50.6005 26.6758 50.2737Z" fill="#FFBD00"/>
<path d="M31.4491 52.7515C30.0035 53.5683 27.6577 53.5683 26.2394 52.7242C25.5575 52.3158 25.2029 51.7985 25.1756 51.2812C25.1484 51.8529 25.5029 52.4247 26.2394 52.8604C27.685 53.7044 30.0035 53.7044 31.4491 52.8876C32.2128 52.452 32.5674 51.8802 32.5401 51.3084C32.5129 51.8529 32.1583 52.3703 31.4491 52.7515Z" fill="#F8D981"/>
<path d="M33.1948 50.4915L33.0038 50.7911C32.8402 50.4915 32.5401 50.2193 32.131 49.9742C30.6854 49.1301 28.3669 49.1301 26.9213 49.947C26.5122 50.1648 26.2394 50.4371 26.0485 50.7366L25.8303 50.4643V51.1178C25.803 51.6623 26.1576 52.2341 26.894 52.6698C28.3397 53.5138 30.6581 53.5139 32.1037 52.697C32.8129 52.2886 33.1948 51.744 33.1948 51.1995V50.4915Z" fill="#FFBD00"/>
<path d="M32.1037 51.9891C30.6581 52.8059 28.3124 52.8059 26.894 51.9618C25.4484 51.1178 25.4757 49.7836 26.894 48.9395C28.3397 48.1227 30.6854 48.1227 32.1037 48.9668C33.5494 49.8381 33.5494 51.1722 32.1037 51.9891Z" fill="#FFBD00"/>
<path d="M32.1037 51.9891C30.6581 52.8059 28.3124 52.8059 26.894 51.9618C25.4484 51.1178 25.4757 49.7836 26.894 48.9395C28.3397 48.1227 30.6854 48.1227 32.1037 48.9668C33.5494 49.8381 33.5494 51.1722 32.1037 51.9891Z" fill="url(#paint13_radial_1_10082)"/>
<path d="M29.5125 52.2886C28.6942 52.2886 27.9032 52.098 27.2759 51.744C26.6758 51.3901 26.3485 50.9272 26.3485 50.4371C26.3485 49.947 26.6758 49.4841 27.2759 49.1574C28.5033 48.4495 30.4672 48.4767 31.6946 49.1846C32.2947 49.5386 32.622 50.0014 32.622 50.4915C32.622 50.9816 32.2947 51.4445 31.6946 51.7713C31.0945 52.1252 30.3035 52.2886 29.5125 52.2886ZM29.4852 48.7217C28.6942 48.7217 27.9305 48.8851 27.3304 49.2391C26.7577 49.5658 26.4303 50.0014 26.4303 50.4643C26.4303 50.9272 26.7304 51.3628 27.3032 51.7168C28.5033 52.4247 30.4399 52.4247 31.6673 51.744C32.2401 51.4173 32.5674 50.9817 32.5674 50.5188C32.5674 50.0559 32.2674 49.6203 31.6946 49.2663C31.0672 48.9123 30.2762 48.7217 29.4852 48.7217Z" fill="#FFBD00"/>
<path d="M31.6673 51.7712C30.4672 52.4519 28.5033 52.452 27.2759 51.744C26.0758 51.0361 26.0758 49.9197 27.2759 49.2118C28.476 48.5311 30.4399 48.5311 31.6673 49.2391C32.8947 49.947 32.8947 51.0633 31.6673 51.7712Z" fill="url(#paint14_radial_1_10082)"/>
<path d="M27.3032 49.348C28.5033 48.6673 30.4672 48.6673 31.6946 49.3752C32.2674 49.7019 32.5674 50.1376 32.5947 50.5732C32.622 50.0831 32.3219 49.593 31.6946 49.2391C30.4945 48.5311 28.5306 48.5311 27.3032 49.2118C26.6758 49.5658 26.3485 50.0559 26.4031 50.546C26.4304 50.1103 26.7304 49.6747 27.3032 49.348Z" fill="#FFBD00"/>
<path d="M32.1037 51.8529C30.6581 52.6698 28.3124 52.6698 26.894 51.8257C26.2121 51.4173 25.8575 50.9 25.8303 50.3826C25.803 50.9544 26.1576 51.5262 26.894 51.9619C28.3397 52.8059 30.6581 52.8059 32.1037 51.9891C32.8675 51.5534 33.222 50.9816 33.1948 50.4099C33.1402 50.9544 32.7856 51.4717 32.1037 51.8529Z" fill="#F8D981"/>
<path d="M38.0499 54.9842L37.8589 55.2837C37.6953 54.9842 37.3952 54.7119 36.9861 54.4668C35.5405 53.6228 33.222 53.6228 31.7764 54.4396C31.3673 54.6574 31.0945 54.9297 30.9036 55.2292L30.6854 54.9569V55.6104C30.6581 56.155 31.0127 56.7268 31.7491 57.1624C33.1948 58.0065 35.5132 58.0065 36.9588 57.1896C37.668 56.7812 38.0499 56.2367 38.0499 55.6921V54.9842Z" fill="#FFBD00"/>
<path d="M38.05 54.9767C38.0552 53.8038 36.4109 52.8455 34.3773 52.8364C32.3436 52.8273 30.6908 53.7708 30.6855 54.9437C30.6802 56.1167 32.3245 57.0749 34.3582 57.084C36.3918 57.0931 38.0447 56.1497 38.05 54.9767Z" fill="#FFBD00"/>
<path d="M36.9588 56.4818C35.5132 57.2987 33.1675 57.2987 31.7491 56.4546C30.3035 55.6105 30.3308 54.2764 31.7491 53.4323C33.1948 52.6154 35.5405 52.6154 36.9588 53.4595C38.4044 54.3308 38.4044 55.665 36.9588 56.4818Z" fill="url(#paint15_radial_1_10082)"/>
<path d="M34.3676 56.7812C33.5493 56.7812 32.7583 56.5906 32.131 56.2367C31.5309 55.8827 31.2036 55.4198 31.2036 54.9297C31.2036 54.4396 31.5309 53.9767 32.131 53.65C33.3584 52.9421 35.3223 52.9693 36.5497 53.6772C37.1498 54.0312 37.4771 54.4941 37.4771 54.9842C37.4771 55.4743 37.1498 55.9371 36.5497 56.2639C35.9496 56.6178 35.1586 56.7812 34.3676 56.7812ZM34.3403 53.2144C33.5493 53.2144 32.7856 53.3777 32.1855 53.7317C31.6127 54.0584 31.2854 54.4941 31.2854 54.9569C31.2854 55.4198 31.5855 55.8555 32.1583 56.2094C33.3584 56.9174 35.295 56.9174 36.5224 56.2367C37.0952 55.9099 37.4225 55.4743 37.4225 55.0114C37.4225 54.5485 37.1225 54.1129 36.5497 53.7589C35.9223 53.405 35.1313 53.2144 34.3403 53.2144Z" fill="#FFBD00"/>
<path d="M36.5497 56.2367C35.3496 56.9174 33.3857 56.9174 32.1583 56.2094C30.9581 55.5015 30.9581 54.3852 32.1583 53.6772C33.3584 52.9965 35.3223 52.9965 36.5497 53.7045C37.7498 54.4124 37.7498 55.556 36.5497 56.2367Z" fill="url(#paint16_radial_1_10082)"/>
<path d="M32.1583 53.8406C33.3584 53.1599 35.3223 53.1599 36.5497 53.8678C37.1225 54.1946 37.4225 54.6302 37.4498 55.0658C37.4771 54.5757 37.177 54.0856 36.5497 53.7317C35.3495 53.0238 33.3857 53.0238 32.1583 53.7045C31.5309 54.0584 31.2036 54.5485 31.2582 55.0386C31.2854 54.603 31.5855 54.1673 32.1583 53.8406Z" fill="#FFBD00"/>
<path d="M36.9588 56.3456C35.5132 57.1624 33.1675 57.1624 31.7491 56.3183C31.0672 55.9099 30.7127 55.3926 30.6854 54.8753C30.6581 55.447 31.0127 56.0188 31.7491 56.4545C33.1948 57.2985 35.5132 57.2985 36.9588 56.4817C37.7226 56.0461 38.0771 55.4743 38.0499 54.9025C38.0226 55.447 37.6407 55.9644 36.9588 56.3456Z" fill="#F8D981"/>
<path d="M30.6581 56.2639L30.4672 56.5634C30.3035 56.2639 30.0035 55.9916 29.5943 55.7465C28.1487 54.9025 25.8303 54.9025 24.3846 55.7193C23.9755 55.9371 23.7027 56.2094 23.5118 56.5089L23.2936 56.2366V56.8901C23.2663 57.4347 23.6209 58.0065 24.3574 58.4421C25.803 59.2862 28.1214 59.2862 29.5671 58.4693C30.2762 58.0609 30.6581 57.5164 30.6581 56.9718V56.2639Z" fill="#FFBD00"/>
<path d="M30.6692 56.2644C30.6745 55.0915 29.0302 54.1332 26.9965 54.1241C24.9629 54.115 23.31 55.0585 23.3048 56.2314C23.2995 57.4043 24.9438 58.3626 26.9775 58.3717C29.0111 58.3808 30.664 57.4373 30.6692 56.2644Z" fill="#FFBD00"/>
<path d="M29.5671 57.7614C28.1214 58.5782 25.7757 58.5782 24.3574 57.7342C22.9117 56.8901 22.939 55.5559 24.3574 54.7119C25.803 53.895 28.1487 53.895 29.5671 54.7391C31.04 55.5832 31.0127 56.9446 29.5671 57.7614Z" fill="url(#paint17_radial_1_10082)"/>
<path d="M27.0031 58.0609C26.1848 58.0609 25.3939 57.8703 24.7665 57.5163C24.1664 57.1624 23.8391 56.6995 23.8391 56.2094C23.8391 55.7193 24.1664 55.2564 24.7665 54.9297C25.9939 54.2218 27.9578 54.249 29.1852 54.9569C29.7853 55.3109 30.1126 55.7738 30.1126 56.2639C30.1126 56.754 29.7853 57.2168 29.1852 57.5436C28.5578 57.8975 27.7941 58.0609 27.0031 58.0609ZM26.9486 54.494C26.1576 54.494 25.3939 54.6574 24.7938 55.0114C24.221 55.3381 23.8937 55.7738 23.8937 56.2366C23.8937 56.6995 24.1937 57.1352 24.7665 57.4891C25.9666 58.197 27.9032 58.197 29.1306 57.5163C29.7034 57.1896 30.0307 56.754 30.0307 56.2911C30.0307 55.8282 29.7307 55.3926 29.1579 55.0386C28.5579 54.6846 27.7396 54.494 26.9486 54.494Z" fill="#FFBD00"/>
<path d="M29.1579 57.5164C27.9578 58.1971 25.9939 58.1971 24.7665 57.4891C23.5664 56.7812 23.5664 55.6649 24.7665 54.9569C25.9667 54.2762 27.9305 54.2762 29.1579 54.9842C30.3853 55.6921 30.3853 56.8357 29.1579 57.5164Z" fill="url(#paint18_radial_1_10082)"/>
<path d="M24.7938 55.1203C25.9939 54.4396 27.9578 54.4396 29.1852 55.1475C29.758 55.4743 30.058 55.9099 30.0853 56.3456C30.1126 55.8555 29.8125 55.3654 29.1852 55.0114C27.9851 54.3035 26.0212 54.3035 24.7938 54.9842C24.1664 55.3381 23.8391 55.8282 23.8937 56.3183C23.921 55.8827 24.221 55.447 24.7938 55.1203Z" fill="#FFBD00"/>
<path d="M29.5671 57.6253C28.1214 58.4421 25.7757 58.4421 24.3574 57.598C23.6755 57.1896 23.3209 56.6723 23.2936 56.155C23.2663 56.7267 23.6209 57.2985 24.3574 57.7342C25.803 58.5782 28.1214 58.5782 29.5671 57.7614C30.3308 57.3258 30.6854 56.754 30.6581 56.1822C30.6308 56.7267 30.2762 57.2441 29.5671 57.6253Z" fill="#F8D981"/>
<path d="M34.1494 54.9025L33.9585 55.202C33.7948 54.9025 33.4948 54.6302 33.0857 54.3851C31.64 53.5411 29.3216 53.5411 27.876 54.3579C27.4668 54.5757 27.1941 54.848 27.0031 55.1475L26.7849 54.8752V55.5287C26.7576 56.0733 27.1122 56.6451 27.8487 57.0807C29.2943 57.9248 31.6128 57.9248 33.0584 57.1079C33.7676 56.6995 34.1494 56.155 34.1494 55.6104V54.9025Z" fill="#FFBD00"/>
<path d="M34.1556 54.9107C34.1608 53.7377 32.5165 52.7795 30.4829 52.7704C28.4492 52.7613 26.7963 53.7047 26.7911 54.8777C26.7858 56.0506 28.4301 57.0088 30.4638 57.0179C32.4974 57.0271 34.1503 56.0836 34.1556 54.9107Z" fill="#FFBD00"/>
<path d="M33.0584 56.4C31.6128 57.2168 29.267 57.2168 27.8487 56.3728C26.4031 55.5287 26.4303 54.1945 27.8487 53.3505C29.2943 52.5336 31.64 52.5336 33.0584 53.3777C34.5313 54.249 34.504 55.5832 33.0584 56.4Z" fill="url(#paint19_radial_1_10082)"/>
<path d="M30.4944 56.6995C29.6762 56.6995 28.8852 56.5089 28.2578 56.1549C27.6578 55.801 27.3304 55.3381 27.3304 54.848C27.3304 54.3579 27.6578 53.895 28.2578 53.5683C29.4852 52.8604 31.4491 52.8876 32.6765 53.5955C33.2766 53.9495 33.6039 54.4124 33.6039 54.9025C33.6039 55.3926 33.2766 55.8554 32.6765 56.1822C32.0765 56.5361 31.2854 56.6995 30.4944 56.6995ZM30.4399 53.1326C29.6489 53.1326 28.8852 53.296 28.2851 53.65C27.7123 53.9767 27.385 54.4124 27.385 54.8752C27.385 55.3381 27.685 55.7738 28.2578 56.1277C29.458 56.8356 31.3946 56.8356 32.622 56.1549C33.1948 55.8282 33.5221 55.3926 33.5221 54.9297C33.5221 54.4668 33.222 54.0312 32.6492 53.6772C32.0492 53.3232 31.2582 53.1326 30.4399 53.1326Z" fill="#FFBD00"/>
<path d="M32.6493 56.1822C31.4491 56.8629 29.4852 56.8629 28.2578 56.155C27.0577 55.447 27.0577 54.3307 28.2578 53.6228C29.458 52.9421 31.4218 52.9421 32.6493 53.65C33.8767 54.3579 33.8767 55.4743 32.6493 56.1822Z" fill="url(#paint20_radial_1_10082)"/>
<path d="M28.2851 53.7589C29.4852 53.0782 31.4491 53.0782 32.6765 53.7861C33.2493 54.1129 33.5493 54.5485 33.5766 54.9842C33.6039 54.4941 33.3039 54.004 32.6765 53.65C31.4764 52.9421 29.5125 52.9421 28.2851 53.6228C27.6578 53.9767 27.3304 54.4668 27.385 54.9569C27.4123 54.5213 27.7123 54.0856 28.2851 53.7589Z" fill="#FFBD00"/>
<path d="M33.0584 56.2639C31.6128 57.0807 29.267 57.0807 27.8487 56.2366C27.1668 55.8282 26.8122 55.3109 26.7849 54.7936C26.7576 55.3653 27.1122 55.9371 27.8487 56.3728C29.2943 57.2168 31.6128 57.2168 33.0584 56.4C33.8221 55.9644 34.1767 55.3926 34.1494 54.8208C34.1221 55.3653 33.7676 55.8827 33.0584 56.2639Z" fill="#F8D981"/>
<path d="M35.1041 54.1673L34.9131 54.4668C34.7495 54.1673 34.4494 53.895 34.0403 53.65C32.5947 52.8059 30.2762 52.8059 28.8306 53.6228C28.4215 53.8406 28.1487 54.1129 27.9578 54.4124L27.7396 54.1401V54.7936C27.7123 55.3381 28.0669 55.9099 28.8033 56.3456C30.249 57.1896 32.5674 57.1896 34.013 56.3728C34.7222 55.9644 35.1041 55.4198 35.1041 54.8752V54.1673Z" fill="#FFBD00"/>
<path d="M34.013 55.6648C32.5674 56.4817 30.2217 56.4817 28.8033 55.6376C27.3577 54.7936 27.385 53.4594 28.8033 52.6153C30.249 51.7985 32.5947 51.7985 34.013 52.6425C35.4859 53.5138 35.4587 54.848 34.013 55.6648Z" fill="#FFBD00"/>
<path d="M34.013 55.6648C32.5674 56.4817 30.2217 56.4817 28.8033 55.6376C27.3577 54.7936 27.385 53.4594 28.8033 52.6153C30.249 51.7985 32.5947 51.7985 34.013 52.6425C35.4859 53.5138 35.4587 54.848 34.013 55.6648Z" fill="url(#paint21_radial_1_10082)"/>
<path d="M31.4491 55.9644C30.6308 55.9644 29.8398 55.7738 29.2125 55.4198C28.6124 55.0658 28.2851 54.603 28.2851 54.1129C28.2851 53.6228 28.6124 53.1599 29.2125 52.8332C30.4399 52.1252 32.4038 52.1524 33.6312 52.8604C34.2312 53.2143 34.5585 53.6772 34.5585 54.1673C34.5585 54.6574 34.2312 55.1203 33.6312 55.447C33.0311 55.801 32.2401 55.9644 31.4491 55.9644ZM31.3945 52.3975C30.6035 52.3975 29.8398 52.5609 29.2398 52.9148C28.667 53.2416 28.3397 53.6772 28.3397 54.1401C28.3397 54.603 28.6397 55.0386 29.2125 55.3926C30.4126 56.1005 32.3492 56.1005 33.5766 55.4198C34.1494 55.0931 34.4767 54.6574 34.4767 54.1945C34.4767 53.7317 34.1767 53.296 33.6039 52.9421C33.0038 52.5881 32.2128 52.3975 31.3945 52.3975Z" fill="#FFBD00"/>
<path d="M33.6039 55.4198C32.4038 56.1005 30.4399 56.1005 29.2125 55.3926C28.0123 54.6847 28.0123 53.5683 29.2125 52.8604C30.4126 52.1797 32.3765 52.1797 33.6039 52.8876C34.8313 53.6228 34.8313 54.7391 33.6039 55.4198Z" fill="url(#paint22_radial_1_10082)"/>
<path d="M29.2397 53.0237C30.4399 52.343 32.4038 52.343 33.6312 53.051C34.204 53.3777 34.504 53.8133 34.5313 54.249C34.5585 53.7589 34.2585 53.2688 33.6312 52.9148C32.431 52.2069 30.4672 52.2069 29.2397 52.8876C28.6124 53.2416 28.2851 53.7317 28.3396 54.2218C28.3669 53.7861 28.667 53.3505 29.2397 53.0237Z" fill="#FFBD00"/>
<path d="M34.013 55.5287C32.5674 56.3456 30.2217 56.3456 28.8033 55.5015C28.1214 55.0931 27.7669 54.5757 27.7396 54.0584C27.7123 54.6302 28.0669 55.202 28.8033 55.6376C30.249 56.4817 32.5674 56.4817 34.013 55.6649C34.7768 55.2292 35.1313 54.6574 35.1041 54.0856C35.0768 54.6302 34.7222 55.1475 34.013 55.5287Z" fill="#F8D981"/>
<path d="M35.6223 52.7515L35.4314 53.051C35.2677 52.7515 34.9677 52.4792 34.5585 52.2341C33.1129 51.3901 30.7945 51.3901 29.3488 52.2069C28.9397 52.4247 28.667 52.697 28.476 52.9965L28.2578 52.7242V53.3777C28.2305 53.9223 28.5851 54.494 29.3216 54.9297C30.7672 55.7738 33.0856 55.7738 34.5313 54.9569C35.2404 54.5485 35.6223 54.0039 35.6223 53.4594V52.7515Z" fill="#FFBD00"/>
<path d="M35.6182 52.7452C35.6235 51.5722 33.9791 50.614 31.9455 50.6049C29.9118 50.5958 28.259 51.5392 28.2537 52.7122C28.2484 53.8851 29.8927 54.8433 31.9264 54.8525C33.96 54.8616 35.6129 53.9181 35.6182 52.7452Z" fill="#FFBD00"/>
<path d="M34.5314 54.2491C33.0858 55.0659 30.7401 55.0659 29.3217 54.2218C27.8761 53.3778 27.9034 52.0436 29.3217 51.1995C30.7673 50.3827 33.1131 50.3827 34.5314 51.2268C35.977 52.0981 35.977 53.4322 34.5314 54.2491Z" fill="url(#paint23_radial_1_10082)"/>
<path d="M31.9401 54.5485C31.1218 54.5485 30.3308 54.3579 29.7034 54.0039C29.1034 53.65 28.7761 53.1871 28.7761 52.697C28.7761 52.2069 29.1034 51.744 29.7034 51.4173C30.9309 50.7094 32.8947 50.7366 34.1221 51.4445C34.7222 51.7985 35.0495 52.2613 35.0495 52.7515C35.0495 53.2416 34.7222 53.7044 34.1221 54.0312C33.5221 54.3851 32.7311 54.5485 31.9401 54.5485ZM31.9128 50.9816C31.1218 50.9816 30.3581 51.145 29.758 51.499C29.1852 51.8257 28.8579 52.2613 28.8579 52.7242C28.8579 53.1871 29.1579 53.6227 29.7307 53.9767C30.9309 54.6846 32.8674 54.6846 34.0949 54.0039C34.6677 53.6772 34.995 53.2416 34.995 52.7787C34.995 52.3158 34.6949 51.8802 34.1221 51.5262C33.4948 51.1722 32.7038 50.9816 31.9128 50.9816Z" fill="#FFBD00"/>
<path d="M34.1221 54.0039C32.922 54.6846 30.9581 54.6846 29.7307 53.9767C28.5306 53.2688 28.5306 52.1524 29.7307 51.4445C30.9309 50.7638 32.8947 50.7638 34.1221 51.4717C35.3223 52.1797 35.3223 53.3232 34.1221 54.0039Z" fill="url(#paint24_radial_1_10082)"/>
<path d="M29.7307 51.6079C30.9309 50.9272 32.8947 50.9272 34.1221 51.6351C34.6949 51.9618 34.995 52.3975 35.0222 52.8331C35.0495 52.343 34.7495 51.8529 34.1221 51.499C32.922 50.791 30.9581 50.791 29.7307 51.4717C29.1034 51.8257 28.7761 52.3158 28.8306 52.8059C28.8579 52.3703 29.1579 51.9346 29.7307 51.6079Z" fill="#FFBD00"/>
<path d="M34.5313 54.1129C33.0856 54.9297 30.7399 54.9297 29.3216 54.0856C28.6397 53.6772 28.2851 53.1599 28.2578 52.6425C28.2305 53.2143 28.5851 53.7861 29.3216 54.2218C30.7672 55.0658 33.0856 55.0658 34.5313 54.249C35.295 53.8133 35.6496 53.2416 35.6223 52.6698C35.595 53.2143 35.2132 53.7317 34.5313 54.1129Z" fill="#F8D981"/>
<path d="M38.159 53.3505L37.8862 53.5955C37.7771 53.2688 37.5589 52.942 37.2043 52.6153C35.9769 51.499 33.6857 51.0089 32.1037 51.5262C31.6673 51.6623 31.34 51.8802 31.0945 52.1252L30.9309 51.7985L30.7945 52.4247C30.6581 52.9693 30.9036 53.5955 31.5309 54.1401C32.7583 55.2564 35.0495 55.7465 36.6315 55.2292C37.4225 54.9841 37.8862 54.5213 37.9953 53.9767L38.159 53.3505Z" fill="#FFBD00"/>
<path d="M36.7952 54.603C35.2132 55.1203 32.922 54.6302 31.6946 53.5138C30.4672 52.3975 30.7399 51.0905 32.3219 50.5732C33.9039 50.0559 36.1951 50.546 37.4225 51.6623C38.6499 52.7515 38.3772 54.0856 36.7952 54.603Z" fill="#FFBD00"/>
<path d="M36.7952 54.603C35.2132 55.1203 32.922 54.6302 31.6946 53.5138C30.4672 52.3975 30.7399 51.0905 32.3219 50.5732C33.9039 50.0559 36.1951 50.546 37.4225 51.6623C38.6499 52.7515 38.3772 54.0856 36.7952 54.603Z" fill="url(#paint25_radial_1_10082)"/>
<path d="M34.204 54.3579C33.413 54.1945 32.6492 53.8406 32.131 53.3777C31.6128 52.9148 31.3945 52.3975 31.5036 51.9346C31.6127 51.4445 32.0219 51.0905 32.6765 50.8727C34.013 50.4371 35.9496 50.8455 36.9861 51.7985C37.5043 52.2613 37.7226 52.7787 37.6135 53.2416C37.5043 53.7317 37.0952 54.0856 36.4406 54.3034C35.786 54.5213 34.9677 54.5213 34.204 54.3579ZM34.9131 50.8455C34.1494 50.6821 33.3584 50.6821 32.7038 50.9C32.0764 51.0905 31.6673 51.4717 31.5855 51.9346C31.4764 52.3975 31.6946 52.8876 32.1855 53.3232C33.222 54.249 35.1313 54.6574 36.4406 54.2218C37.0679 54.0312 37.4771 53.65 37.5589 53.1871C37.668 52.7242 37.4498 52.2341 36.9588 51.7985C36.4133 51.3628 35.6769 51.0089 34.9131 50.8455Z" fill="#FFBD00"/>
<path d="M36.4406 54.2762C35.1041 54.7119 33.1948 54.3034 32.1583 53.3505C31.1218 52.4247 31.3673 51.3084 32.6765 50.8727C34.013 50.4371 35.9223 50.8455 36.9588 51.7985C37.9953 52.7242 37.7771 53.8406 36.4406 54.2762Z" fill="url(#paint26_radial_1_10082)"/>
<path d="M32.6492 51.0361C33.9858 50.6004 35.8951 51.0089 36.9316 51.9618C37.4225 52.3975 37.6407 52.8876 37.5589 53.3232C37.6953 52.8604 37.5043 52.3158 36.9588 51.8257C35.9223 50.8999 34.013 50.4915 32.6765 50.8999C31.9673 51.1178 31.5855 51.5534 31.5036 52.0163C31.64 51.5806 32.0219 51.2267 32.6492 51.0361Z" fill="#FFBD00"/>
<path d="M36.8225 54.4668C35.2405 54.9841 32.9493 54.494 31.7219 53.3777C31.1218 52.8331 30.8763 52.2613 30.9581 51.744C30.7945 52.2886 31.04 52.9148 31.6946 53.5138C32.922 54.6302 35.2132 55.1203 36.7952 54.6029C37.6135 54.3307 38.1044 53.8406 38.1862 53.296C38.0499 53.7861 37.5862 54.2218 36.8225 54.4668Z" fill="#F8D981"/>
<path d="M32.5401 37.8305L32.2128 37.9939C32.2128 37.6399 32.0765 37.2587 31.8583 36.8503C31.0127 35.4072 28.9943 34.2637 27.3305 34.2637C26.8668 34.2637 26.4849 34.3453 26.1849 34.5087L26.1303 34.1547L25.803 34.7265C25.503 35.1894 25.5575 35.8701 25.9667 36.6053C26.8122 38.0483 28.8306 39.1919 30.4945 39.1919C31.34 39.1919 31.9128 38.8924 32.1856 38.4295L32.5401 37.8305Z" fill="#FFBD00"/>
<path d="M32.5418 37.8164C33.1249 36.7981 32.1664 35.1558 30.4007 34.1483C28.6351 33.1407 26.7311 33.1495 26.1479 34.1679C25.5648 35.1862 26.5234 36.8285 28.289 37.836C30.0546 38.8435 31.9586 38.8348 32.5418 37.8164Z" fill="#FFBD00"/>
<path d="M30.849 38.6201C29.1852 38.6201 27.1668 37.4765 26.3212 36.0335C25.4757 34.5904 26.1576 33.4196 27.8214 33.4196C29.4852 33.4196 31.5037 34.5632 32.3492 36.0062C33.1948 37.4221 32.5129 38.5929 30.849 38.6201Z" fill="url(#paint27_radial_1_10082)"/>
<path d="M28.4488 37.5855C27.7396 37.1771 27.1395 36.6325 26.7849 36.0335C26.4303 35.4345 26.3758 34.8899 26.6213 34.4543C26.8668 34.0186 27.385 33.8008 28.0669 33.8008C29.4853 33.8008 31.2036 34.781 31.8855 35.979C32.2401 36.578 32.2947 37.1226 32.0492 37.5582C31.8037 37.9939 31.2855 38.2117 30.6036 38.2117C29.9217 38.2117 29.1307 37.9939 28.4488 37.5855ZM30.1944 34.4815C29.5125 34.1003 28.7488 33.8552 28.0669 33.8552C27.4123 33.8552 26.9213 34.0731 26.6758 34.4815C26.4576 34.8899 26.5122 35.4345 26.8395 36.0062C27.5487 37.2043 29.2398 38.1573 30.6308 38.1573C31.2855 38.1573 31.7764 37.9394 32.0219 37.531C32.2401 37.1226 32.1856 36.578 31.8583 36.0062C31.4764 35.4072 30.8763 34.8627 30.1944 34.4815Z" fill="#FFBD00"/>
<path d="M30.6036 38.1845C29.2125 38.1845 27.4941 37.2315 26.7849 36.0062C26.0758 34.8082 26.6486 33.828 28.0396 33.8008C29.4307 33.8008 31.1491 34.7538 31.8583 35.979C32.5674 37.2043 31.9946 38.1845 30.6036 38.1845Z" fill="url(#paint28_radial_1_10082)"/>
<path d="M27.9851 33.9641C29.3761 33.9641 31.0945 34.9171 31.8037 36.1424C32.131 36.7142 32.1856 37.2315 31.9946 37.6127C32.2674 37.2043 32.2401 36.6325 31.8855 36.0062C31.1764 34.8082 29.4853 33.828 28.0669 33.828C27.3305 33.828 26.8395 34.1003 26.6213 34.5359C26.8395 34.182 27.3304 33.9641 27.9851 33.9641Z" fill="#FFBD00"/>
<path d="M30.9309 38.484C29.267 38.484 27.2486 37.3404 26.4031 35.8973C25.9939 35.2166 25.9394 34.5904 26.1849 34.1275C25.8848 34.6176 25.9121 35.2711 26.3485 36.0335C27.1941 37.4765 29.2125 38.6201 30.8763 38.6201C31.7491 38.6201 32.3492 38.2934 32.5947 37.7761C32.2947 38.2117 31.7219 38.484 30.9309 38.484Z" fill="#F8D981"/>
<path d="M31.831 44.2835L31.8037 44.6375C31.5037 44.4741 31.1218 44.3652 30.6308 44.3652C28.967 44.338 26.9213 45.4816 26.0758 46.9247C25.8303 47.3331 25.7212 47.687 25.6939 48.041L25.3666 47.9049L25.6939 48.4766C25.9667 48.9668 26.5395 49.2663 27.385 49.2935C29.0488 49.3207 31.0945 48.1771 31.9401 46.7341C32.3765 46.0261 32.4038 45.3727 32.1583 44.8826L31.831 44.2835Z" fill="#FFBD00"/>
<path d="M31.6128 46.1351C30.7672 47.5509 28.7215 48.6945 27.0577 48.6945C25.3939 48.6673 24.7392 47.4965 25.5848 46.0806C26.4303 44.6647 28.476 43.5212 30.1399 43.5212C31.8037 43.5212 32.4856 44.692 31.6128 46.1351Z" fill="#FFBD00"/>
<path d="M31.6128 46.1351C30.7672 47.5509 28.7215 48.6945 27.0577 48.6945C25.3939 48.6673 24.7392 47.4965 25.5848 46.0806C26.4303 44.6647 28.476 43.5212 30.1399 43.5212C31.8037 43.5212 32.4856 44.692 31.6128 46.1351Z" fill="url(#paint29_radial_1_10082)"/>
<path d="M29.5125 47.6598C28.8034 48.0682 28.0124 48.2861 27.3032 48.2861C26.6213 48.2861 26.103 48.041 25.8576 47.6054C25.6121 47.1697 25.6666 46.6251 26.0212 46.0261C26.7304 44.8281 28.476 43.8479 29.8671 43.8751C30.549 43.8751 31.0673 44.1202 31.3127 44.5558C31.5582 44.9915 31.5037 45.536 31.1491 46.135C30.8218 46.7341 30.1944 47.2786 29.5125 47.6598ZM27.7396 44.5558C27.0577 44.937 26.4576 45.4816 26.1303 46.0534C25.803 46.6252 25.7212 47.1697 25.9667 47.5781C26.1849 47.9865 26.6758 48.2044 27.3577 48.2316C28.7488 48.2588 30.4399 47.3058 31.1491 46.1078C31.4764 45.536 31.5582 44.9915 31.3127 44.5831C31.0945 44.1746 30.6036 43.9568 29.9217 43.9296C29.2125 43.9296 28.4215 44.1746 27.7396 44.5558Z" fill="#FFBD00"/>
<path d="M31.1491 46.1078C30.4399 47.3058 28.7215 48.2588 27.3305 48.2588C25.9394 48.2316 25.3666 47.2514 26.103 46.0534C26.8122 44.8553 28.5306 43.9024 29.9217 43.9024C31.2855 43.9296 31.8582 44.9098 31.1491 46.1078Z" fill="url(#paint30_radial_1_10082)"/>
<path d="M26.1576 46.1895C26.8668 44.9915 28.5851 44.0385 29.9762 44.0385C30.6308 44.0385 31.1218 44.2835 31.34 44.6375C31.1218 44.2019 30.6308 43.9296 29.8944 43.9024C28.5033 43.8751 26.7849 44.8553 26.0758 46.0534C25.6939 46.6796 25.6666 47.2514 25.9394 47.6598C25.7485 47.2786 25.803 46.7613 26.1576 46.1895Z" fill="#FFBD00"/>
<path d="M31.5582 45.9989C30.7127 47.4148 28.667 48.5583 27.0031 48.5583C26.2121 48.5583 25.6394 48.2861 25.3666 47.8232C25.6121 48.3405 26.2121 48.6673 27.085 48.6673C28.7488 48.6945 30.7945 47.5509 31.64 46.1078C32.0765 45.3727 32.1037 44.692 31.8037 44.2019C32.0219 44.692 31.9674 45.3182 31.5582 45.9989Z" fill="#F8D981"/>
<path d="M9.98298 44.3108C9.8466 44.3108 9.7375 44.2836 9.62839 44.2019L0.0818327 38.7018C0.0272809 38.6746 0 38.6201 0 38.5385C0 38.484 0.0272809 38.4295 0.0818327 38.3751L8.53736 33.5013L8.61918 33.6374L0.163657 38.5112L9.71022 44.0385C9.87387 44.1474 10.0921 44.1474 10.2557 44.0385L15.9564 40.7712C16.1746 40.635 16.4746 40.635 16.6928 40.7712L19.0386 42.1325L18.9567 42.2687L16.611 40.9073C16.4474 40.7984 16.2292 40.7984 16.0655 40.9073L10.3648 44.1746C10.2285 44.2563 10.0921 44.3108 9.98298 44.3108Z" fill="white"/>
<path d="M52.6697 36.1696L43.7778 26.6398L34.8859 25.9319C34.8859 25.9319 33.4675 37.9666 43.7778 50.7366C54.1154 49.8653 52.6697 36.1696 52.6697 36.1696Z" fill="url(#paint31_linear_1_10082)"/>
<path d="M34.8859 25.9319L32.8947 27.0755L41.7867 27.8106L43.7778 26.6398L34.8859 25.9319Z" fill="url(#paint32_linear_1_10082)"/>
<path d="M50.6786 37.3404L41.7867 27.8106L38.1317 27.4294L32.8947 27.0755C32.8947 27.0755 31.4764 39.1102 41.7867 51.8801C52.0969 51.0088 50.6786 37.3404 50.6786 37.3404Z" fill="url(#paint33_linear_1_10082)"/>
<path d="M50.6786 37.3404L41.7867 27.8106L32.8947 27.1027C33.1402 26.9665 33.1402 26.9665 33.1402 26.9665L42.1685 27.7017L51.0605 37.2315C51.0605 37.2315 52.2606 48.6672 44.5688 51.3083C51.8242 48.395 50.6786 37.3404 50.6786 37.3404Z" fill="white"/>
<path opacity="0.2" d="M49.5876 37.4765L41.5957 28.8997L38.2954 28.573L33.5766 28.2463C33.5766 28.2463 32.2947 39.083 41.5685 50.546C50.8968 49.7836 49.5876 37.4765 49.5876 37.4765Z" fill="white"/>
<defs>
<linearGradient id="paint0_linear_1_10082" x1="11.909" y1="25.1092" x2="4.33326" y2="19.2461" gradientUnits="userSpaceOnUse">
<stop stop-color="#59BDEF"/>
<stop offset="1" stop-color="#7BDAFF"/>
</linearGradient>
<linearGradient id="paint1_linear_1_10082" x1="11.9395" y1="27.8998" x2="16.184" y2="27.8998" gradientUnits="userSpaceOnUse">
<stop stop-color="#2573BA"/>
<stop offset="1" stop-color="#0063AD"/>
</linearGradient>
<linearGradient id="paint2_linear_1_10082" x1="6.59804" y1="27.5839" x2="11.9395" y2="27.5839" gradientUnits="userSpaceOnUse">
<stop stop-color="#3A9BD5"/>
<stop offset="1" stop-color="#2573BA"/>
</linearGradient>
<linearGradient id="paint3_linear_1_10082" x1="7.57005" y1="24.645" x2="9.88359" y2="24.645" gradientUnits="userSpaceOnUse">
<stop stop-color="#2573BA"/>
<stop offset="1" stop-color="#0063AD"/>
</linearGradient>
<linearGradient id="paint4_linear_1_10082" x1="9.03896" y1="25.4912" x2="11.3525" y2="25.4912" gradientUnits="userSpaceOnUse">
<stop stop-color="#2573BA"/>
<stop offset="1" stop-color="#0063AD"/>
</linearGradient>
<linearGradient id="paint5_linear_1_10082" x1="10.5095" y1="26.3385" x2="12.823" y2="26.3385" gradientUnits="userSpaceOnUse">
<stop stop-color="#2573BA"/>
<stop offset="1" stop-color="#0063AD"/>
</linearGradient>
<linearGradient id="paint6_linear_1_10082" x1="30.9296" y1="28.2527" x2="85.614" y2="28.2527" gradientUnits="userSpaceOnUse">
<stop stop-color="#3A9BD5"/>
<stop offset="0.522" stop-color="#3088C8"/>
<stop offset="1" stop-color="#297BBF"/>
</linearGradient>
<linearGradient id="paint7_linear_1_10082" x1="26.4607" y1="10.5729" x2="63.381" y2="29.5084" gradientUnits="userSpaceOnUse">
<stop stop-color="#59BDEF"/>
<stop offset="1" stop-color="#7BDAFF"/>
</linearGradient>
<radialGradient id="paint8_radial_1_10082" cx="0" cy="0" r="1" gradientUnits="userSpaceOnUse" gradientTransform="translate(26.5245 28.5808) rotate(-51.4674) scale(5.26624 5.26832)">
<stop stop-color="#FCE586"/>
<stop offset="0.2273" stop-color="#FCDB7B"/>
<stop offset="0.6161" stop-color="#FCD06F"/>
<stop offset="1" stop-color="#FCCC6B"/>
</radialGradient>
<radialGradient id="paint9_radial_1_10082" cx="0" cy="0" r="1" gradientUnits="userSpaceOnUse" gradientTransform="translate(31.8092 29.5145) rotate(-51.4674) scale(12.5274 12.5324)">
<stop stop-color="#FCE586"/>
<stop offset="0.2273" stop-color="#FCDB7B"/>
<stop offset="0.6161" stop-color="#FCD06F"/>
<stop offset="1" stop-color="#FCCC6B"/>
</radialGradient>
<linearGradient id="paint10_linear_1_10082" x1="18.8892" y1="18.7808" x2="41.5095" y2="18.7808" gradientUnits="userSpaceOnUse">
<stop stop-color="#7BDAFF"/>
<stop offset="1" stop-color="#59BDEF"/>
</linearGradient>
<radialGradient id="paint11_radial_1_10082" cx="0" cy="0" r="1" gradientUnits="userSpaceOnUse" gradientTransform="translate(26.7211 50.1723) rotate(-17.0458) scale(5.27108 5.26341)">
<stop stop-color="#FCE586"/>
<stop offset="0.2273" stop-color="#FCDB7B"/>
<stop offset="0.6161" stop-color="#FCD06F"/>
<stop offset="1" stop-color="#FCCC6B"/>
</radialGradient>
<radialGradient id="paint12_radial_1_10082" cx="0" cy="0" r="1" gradientUnits="userSpaceOnUse" gradientTransform="translate(30.5503 53.9258) rotate(-17.0458) scale(12.5391 12.5208)">
<stop stop-color="#FCE586"/>
<stop offset="0.2273" stop-color="#FCDB7B"/>
<stop offset="0.6161" stop-color="#FCD06F"/>
<stop offset="1" stop-color="#FCCC6B"/>
</radialGradient>
<radialGradient id="paint13_radial_1_10082" cx="0" cy="0" r="1" gradientUnits="userSpaceOnUse" gradientTransform="translate(27.3548 49.2694) rotate(-17.0458) scale(5.27111 5.26344)">
<stop stop-color="#FCE586"/>
<stop offset="0.2273" stop-color="#FCDB7B"/>
<stop offset="0.6161" stop-color="#FCD06F"/>
<stop offset="1" stop-color="#FCCC6B"/>
</radialGradient>
<radialGradient id="paint14_radial_1_10082" cx="0" cy="0" r="1" gradientUnits="userSpaceOnUse" gradientTransform="translate(31.184 53.0229) rotate(-17.0458) scale(12.5391 12.5208)">
<stop stop-color="#FCE586"/>
<stop offset="0.2273" stop-color="#FCDB7B"/>
<stop offset="0.6161" stop-color="#FCD06F"/>
<stop offset="1" stop-color="#FCCC6B"/>
</radialGradient>
<radialGradient id="paint15_radial_1_10082" cx="0" cy="0" r="1" gradientUnits="userSpaceOnUse" gradientTransform="translate(32.2195 53.757) rotate(-17.0458) scale(5.27108 5.26341)">
<stop stop-color="#FCE586"/>
<stop offset="0.2273" stop-color="#FCDB7B"/>
<stop offset="0.6161" stop-color="#FCD06F"/>
<stop offset="1" stop-color="#FCCC6B"/>
</radialGradient>
<radialGradient id="paint16_radial_1_10082" cx="0" cy="0" r="1" gradientUnits="userSpaceOnUse" gradientTransform="translate(36.0487 57.5104) rotate(-17.0459) scale(12.5391 12.5209)">
<stop stop-color="#FCE586"/>
<stop offset="0.2273" stop-color="#FCDB7B"/>
<stop offset="0.6161" stop-color="#FCD06F"/>
<stop offset="1" stop-color="#FCCC6B"/>
</radialGradient>
<radialGradient id="paint17_radial_1_10082" cx="0" cy="0" r="1" gradientUnits="userSpaceOnUse" gradientTransform="translate(24.8372 55.035) rotate(-17.0458) scale(5.27108 5.26341)">
<stop stop-color="#FCE586"/>
<stop offset="0.2273" stop-color="#FCDB7B"/>
<stop offset="0.6161" stop-color="#FCD06F"/>
<stop offset="1" stop-color="#FCCC6B"/>
</radialGradient>
<radialGradient id="paint18_radial_1_10082" cx="0" cy="0" r="1" gradientUnits="userSpaceOnUse" gradientTransform="translate(28.6665 58.7885) rotate(-17.0458) scale(12.5391 12.5208)">
<stop stop-color="#FCE586"/>
<stop offset="0.2273" stop-color="#FCDB7B"/>
<stop offset="0.6161" stop-color="#FCD06F"/>
<stop offset="1" stop-color="#FCCC6B"/>
</radialGradient>
<radialGradient id="paint19_radial_1_10082" cx="0" cy="0" r="1" gradientUnits="userSpaceOnUse" gradientTransform="translate(28.3299 53.6799) rotate(-17.0458) scale(5.27108 5.26341)">
<stop stop-color="#FCE586"/>
<stop offset="0.2273" stop-color="#FCDB7B"/>
<stop offset="0.6161" stop-color="#FCD06F"/>
<stop offset="1" stop-color="#FCCC6B"/>
</radialGradient>
<radialGradient id="paint20_radial_1_10082" cx="0" cy="0" r="1" gradientUnits="userSpaceOnUse" gradientTransform="translate(32.1592 57.4334) rotate(-17.0458) scale(12.5391 12.5209)">
<stop stop-color="#FCE586"/>
<stop offset="0.2273" stop-color="#FCDB7B"/>
<stop offset="0.6161" stop-color="#FCD06F"/>
<stop offset="1" stop-color="#FCCC6B"/>
</radialGradient>
<radialGradient id="paint21_radial_1_10082" cx="0" cy="0" r="1" gradientUnits="userSpaceOnUse" gradientTransform="translate(29.2846 52.9434) rotate(-17.0458) scale(5.27108 5.26341)">
<stop stop-color="#FCE586"/>
<stop offset="0.2273" stop-color="#FCDB7B"/>
<stop offset="0.6161" stop-color="#FCD06F"/>
<stop offset="1" stop-color="#FCCC6B"/>
</radialGradient>
<radialGradient id="paint22_radial_1_10082" cx="0" cy="0" r="1" gradientUnits="userSpaceOnUse" gradientTransform="translate(33.1139 56.6969) rotate(-17.0458) scale(12.5391 12.5209)">
<stop stop-color="#FCE586"/>
<stop offset="0.2273" stop-color="#FCDB7B"/>
<stop offset="0.6161" stop-color="#FCD06F"/>
<stop offset="1" stop-color="#FCCC6B"/>
</radialGradient>
<radialGradient id="paint23_radial_1_10082" cx="0" cy="0" r="1" gradientUnits="userSpaceOnUse" gradientTransform="translate(29.7905 51.5269) rotate(-17.0458) scale(5.27108 5.26341)">
<stop stop-color="#FCE586"/>
<stop offset="0.2273" stop-color="#FCDB7B"/>
<stop offset="0.6161" stop-color="#FCD06F"/>
<stop offset="1" stop-color="#FCCC6B"/>
</radialGradient>
<radialGradient id="paint24_radial_1_10082" cx="0" cy="0" r="1" gradientUnits="userSpaceOnUse" gradientTransform="translate(33.6196 55.2803) rotate(-17.0458) scale(12.5391 12.5208)">
<stop stop-color="#FCE586"/>
<stop offset="0.2273" stop-color="#FCDB7B"/>
<stop offset="0.6161" stop-color="#FCD06F"/>
<stop offset="1" stop-color="#FCCC6B"/>
</radialGradient>
<radialGradient id="paint25_radial_1_10082" cx="0" cy="0" r="1" gradientUnits="userSpaceOnUse" gradientTransform="translate(32.7173 50.9483) rotate(-5.25216) scale(5.2718 5.26269)">
<stop stop-color="#FCE586"/>
<stop offset="0.2273" stop-color="#FCDB7B"/>
<stop offset="0.6161" stop-color="#FCD06F"/>
<stop offset="1" stop-color="#FCCC6B"/>
</radialGradient>
<radialGradient id="paint26_radial_1_10082" cx="0" cy="0" r="1" gradientUnits="userSpaceOnUse" gradientTransform="translate(35.6957 55.4048) rotate(-5.25216) scale(12.5408 12.5191)">
<stop stop-color="#FCE586"/>
<stop offset="0.2273" stop-color="#FCDB7B"/>
<stop offset="0.6161" stop-color="#FCD06F"/>
<stop offset="1" stop-color="#FCCC6B"/>
</radialGradient>
<radialGradient id="paint27_radial_1_10082" cx="0" cy="0" r="1" gradientUnits="userSpaceOnUse" gradientTransform="translate(28.0764 33.899) rotate(12.4001) scale(5.27147 5.26306)">
<stop stop-color="#FCE586"/>
<stop offset="0.2273" stop-color="#FCDB7B"/>
<stop offset="0.6161" stop-color="#FCD06F"/>
<stop offset="1" stop-color="#FCCC6B"/>
</radialGradient>
<radialGradient id="paint28_radial_1_10082" cx="0" cy="0" r="1" gradientUnits="userSpaceOnUse" gradientTransform="translate(29.558 39.0482) rotate(12.4001) scale(12.5399 12.5199)">
<stop stop-color="#FCE586"/>
<stop offset="0.2273" stop-color="#FCDB7B"/>
<stop offset="0.6161" stop-color="#FCD06F"/>
<stop offset="1" stop-color="#FCCC6B"/>
</radialGradient>
<radialGradient id="paint29_radial_1_10082" cx="0" cy="0" r="1" gradientUnits="userSpaceOnUse" gradientTransform="translate(26.1487 46.0793) rotate(-46.5664) scale(5.26701 5.26753)">
<stop stop-color="#FCE586"/>
<stop offset="0.2273" stop-color="#FCDB7B"/>
<stop offset="0.6161" stop-color="#FCD06F"/>
<stop offset="1" stop-color="#FCCC6B"/>
</radialGradient>
<radialGradient id="paint30_radial_1_10082" cx="0" cy="0" r="1" gradientUnits="userSpaceOnUse" gradientTransform="translate(31.3342 47.4601) rotate(-46.5664) scale(12.5293 12.5305)">
<stop stop-color="#FCE586"/>
<stop offset="0.2273" stop-color="#FCDB7B"/>
<stop offset="0.6161" stop-color="#FCD06F"/>
<stop offset="1" stop-color="#FCCC6B"/>
</radialGradient>
<linearGradient id="paint31_linear_1_10082" x1="41.2112" y1="36.0155" x2="67.9523" y2="44.2357" gradientUnits="userSpaceOnUse">
<stop stop-color="#2573BA"/>
<stop offset="0.907" stop-color="#0364AE"/>
<stop offset="1" stop-color="#0063AD"/>
</linearGradient>
<linearGradient id="paint32_linear_1_10082" x1="43.7848" y1="26.8613" x2="32.8858" y2="26.8613" gradientUnits="userSpaceOnUse">
<stop stop-color="#0063AD"/>
<stop offset="1" stop-color="#2573BA"/>
</linearGradient>
<linearGradient id="paint33_linear_1_10082" x1="32.8186" y1="34.6765" x2="50.7474" y2="34.6765" gradientUnits="userSpaceOnUse">
<stop stop-color="#7BDAFF"/>
<stop offset="1" stop-color="#59BDEF"/>
</linearGradient>
</defs>
</svg>
