<svg width="62" height="70" viewBox="0 0 62 70" fill="none" xmlns="http://www.w3.org/2000/svg">
<path opacity="0.5" d="M61.3097 58.7962L43.1218 69.2922C42.2987 69.7692 41.0773 69.8223 40.387 69.3982L0.47988 46.3919C-0.237014 45.9943 -0.130808 45.2786 0.665741 44.8016L18.8536 34.3056C19.6767 33.8285 20.8981 33.7755 21.5884 34.1996L61.469 57.1794C62.2124 57.6035 62.1328 58.3191 61.3097 58.7962Z" fill="#13247A"/>
<path d="M62 51.0832L58.2562 50.4206L21.6415 29.3226C20.9246 28.9251 19.7033 28.9781 18.9067 29.4287L1.94023 39.209L0.028511 38.8644V40.7993C0.028511 41.0643 0.187821 41.3029 0.50644 41.4884L40.387 64.4947C41.1039 64.8923 42.3253 64.8393 43.1218 64.3887L61.3097 53.8928C61.761 53.6277 62 53.3096 61.9735 52.9916V51.0832H62Z" fill="url(#paint0_linear_1_10288)"/>
<path d="M61.3097 51.9579L43.1218 62.4538C42.2987 62.9309 41.0773 62.984 40.387 62.5599L0.47988 39.5801C-0.237014 39.1825 -0.130808 38.4669 0.665741 37.9898L18.8536 27.4938C19.6767 27.0167 20.8981 26.9637 21.5884 27.3878L61.469 50.3676C62.2124 50.7917 62.1328 51.5073 61.3097 51.9579Z" fill="url(#paint1_linear_1_10288)"/>
<path d="M61.3097 51.7193L43.1218 62.2153C42.2987 62.6924 41.0773 62.7454 40.387 62.3213L0.47988 39.3415C0.214364 39.1825 0.0550546 38.997 0.028503 38.7849C-0.0246003 39.0765 0.134709 39.368 0.47988 39.5801L40.3604 62.5599C41.0773 62.9575 42.2987 62.9044 43.0952 62.4538L61.2831 51.9579C61.7876 51.6663 62.0266 51.2953 61.9469 50.9242C61.9203 51.2157 61.7079 51.5073 61.3097 51.7193Z" fill="white"/>
<path d="M61.3362 50.2881L40.2011 62.4804L0.665741 39.6861L21.8008 27.4938L61.3362 50.2881Z" fill="#0F65B2"/>
<path d="M12.5078 32.2647L9.69329 33.8815C9.56053 33.961 9.37467 33.961 9.26846 33.908L9.24191 33.8815C9.13571 33.8285 9.16226 33.7225 9.26846 33.6429L12.0829 32.0261C12.2157 31.9466 12.4016 31.9466 12.5078 31.9996L12.5343 32.0261C12.6405 32.0792 12.6405 32.1852 12.5078 32.2647Z" fill="#0063AD"/>
<path d="M48.6976 35.6043H12.9326V54.7409H48.6976V35.6043Z" fill="white"/>
<path d="M43.7891 51.2743C44.7954 49.1587 39.8019 44.6901 32.6358 41.2935C25.4697 37.8969 18.8446 36.8585 17.8383 38.9742C16.832 41.0898 21.8255 45.5584 28.9916 48.955C36.1577 52.3515 42.7828 53.39 43.7891 51.2743Z" fill="white"/>
<path d="M43.7411 51.2516C44.7411 49.1492 39.764 44.7015 32.6244 41.3175C25.4848 37.9334 18.8863 36.8945 17.8863 38.9969C16.8863 41.0993 21.8634 45.547 29.003 48.931C36.1426 52.3151 42.7411 53.354 43.7411 51.2516Z" fill="white"/>
<path d="M43.6932 51.2288C44.6932 49.1264 39.7375 44.6889 32.6244 41.3175C25.5113 37.946 18.9343 36.9172 17.9343 39.0196C16.9342 41.122 21.8899 45.5595 29.003 48.931C36.1161 52.3025 42.6931 53.3313 43.6932 51.2288Z" fill="white"/>
<path d="M43.6452 51.2061C44.6389 49.1169 39.6996 44.7003 32.613 41.3414C25.5264 37.9824 18.976 36.9531 17.9822 39.0423C16.9885 41.1315 21.9278 45.5481 29.0144 48.907C36.101 52.2659 42.6515 53.2953 43.6452 51.2061Z" fill="white"/>
<path d="M43.5972 51.1834C44.5847 49.1074 39.6618 44.7117 32.6016 41.3654C25.5415 38.019 19.0176 36.9891 18.0302 39.0651C17.0428 41.1411 21.9657 45.5368 29.0258 48.8831C36.0859 52.2295 42.6098 53.2594 43.5972 51.1834Z" fill="#FEFFFF"/>
<path d="M43.5253 51.1492C44.5127 49.0732 39.622 44.6928 32.6016 41.3653C25.5812 38.0378 19.0896 37.0232 18.1021 39.0991C17.1147 41.1751 22.0054 45.5555 29.0258 48.8831C36.0462 52.2106 42.5378 53.2252 43.5253 51.1492Z" fill="#FEFEFF"/>
<path d="M43.4773 51.1265C44.4584 49.0637 39.5841 44.7042 32.5902 41.3892C25.5963 38.0742 19.1312 37.0591 18.1501 39.1219C17.1689 41.1846 22.0432 45.5441 29.0372 48.8591C36.0311 52.1741 42.4961 53.1892 43.4773 51.1265Z" fill="#FEFEFF"/>
<path d="M43.4293 51.1038C44.4105 49.041 39.5577 44.6917 32.5902 41.3892C25.6228 38.0868 19.1792 37.0819 18.1981 39.1446C17.2169 41.2074 22.0698 45.5567 29.0372 48.8591C36.0046 52.1616 42.4482 53.1665 43.4293 51.1038Z" fill="#FEFEFE"/>
<path d="M43.3813 51.081C44.3562 49.0315 39.5197 44.703 32.5788 41.4132C25.6379 38.1233 19.2209 37.1178 18.246 39.1674C17.2712 41.2169 22.1076 45.5453 29.0485 48.8352C35.9895 52.125 42.4065 53.1305 43.3813 51.081Z" fill="#FDFEFE"/>
<path d="M43.3334 51.0583C44.302 49.022 39.4819 44.7145 32.5675 41.4372C25.653 38.1599 19.2626 37.1539 18.294 39.1902C17.3254 41.2265 22.1455 45.534 29.06 48.8113C35.9744 52.0886 42.3648 53.0946 43.3334 51.0583Z" fill="#FDFDFE"/>
<path d="M43.2854 51.0356C44.254 48.9993 39.4554 44.7019 32.5675 41.4372C25.6795 38.1724 19.3106 37.1766 18.342 39.2129C17.3734 41.2492 22.172 45.5466 29.06 48.8113C35.9479 52.0761 42.3169 53.0719 43.2854 51.0356Z" fill="#FDFDFE"/>
<path d="M43.2375 51.0129C44.1998 48.9898 39.4175 44.7133 32.5561 41.4611C25.6946 38.2089 19.3522 37.2125 18.39 39.2356C17.4277 41.2587 22.2099 45.5352 29.0714 48.7874C35.9328 52.0396 42.2752 53.0359 43.2375 51.0129Z" fill="#FCFDFE"/>
<path d="M43.1749 50.9772C42.219 52.9916 35.8998 52.0109 29.076 48.7773C22.2522 45.5437 17.4995 41.2764 18.4553 39.262C19.4112 37.2476 25.7305 38.2283 32.5542 41.4619C39.378 44.6955 44.1308 48.9628 43.1749 50.9772Z" fill="#FCFDFE"/>
<path d="M43.1175 50.956C44.0735 48.9461 39.3399 44.7058 32.5447 41.485C25.7495 38.2642 19.4659 37.2826 18.5099 39.2924C17.5539 41.3023 22.2875 45.5426 29.0827 48.7634C35.878 51.9842 42.1616 52.9659 43.1175 50.956Z" fill="#FBFCFE"/>
<path d="M43.0696 50.9333C44.0193 48.9366 39.302 44.7173 32.5333 41.509C25.7646 38.3008 19.5075 37.3186 18.5578 39.3152C17.6081 41.3118 22.3254 45.5312 29.0941 48.7395C35.8629 51.9477 42.1199 52.9299 43.0696 50.9333Z" fill="#FBFCFD"/>
<path d="M43.0216 50.9105C43.9713 48.9139 39.2755 44.7047 32.5333 41.509C25.7911 38.3133 19.5555 37.3413 18.6058 39.3379C17.6561 41.3346 22.3519 45.5438 29.0941 48.7395C35.8364 51.9351 42.0719 52.9072 43.0216 50.9105Z" fill="#FBFCFD"/>
<path d="M42.9736 50.8878C43.917 48.9043 39.2376 44.716 32.5219 41.5329C25.8062 38.3498 19.5972 37.3772 18.6538 39.3606C17.7104 41.344 22.3898 45.5324 29.1055 48.7155C35.8212 51.8986 42.0302 52.8712 42.9736 50.8878Z" fill="#FAFBFD"/>
<path d="M42.9257 50.865C43.8628 48.8949 39.1997 44.7274 32.5105 41.5569C25.8212 38.3863 19.6388 37.4132 18.7017 39.3834C17.7646 41.3536 22.4276 45.521 29.1169 48.6916C35.8061 51.8621 41.9885 52.8352 42.9257 50.865Z" fill="#FAFBFD"/>
<path d="M42.8777 50.8423C43.8148 48.8721 39.1733 44.7149 32.5105 41.5569C25.8478 38.3988 19.6868 37.4359 18.7497 39.4061C17.8126 41.3763 22.4541 45.5335 29.1169 48.6916C35.7797 51.8496 41.9406 52.8125 42.8777 50.8423Z" fill="#F9FBFD"/>
<path d="M42.8297 50.8196C43.7606 48.8626 39.1354 44.7262 32.4991 41.5808C25.8628 38.4353 19.7285 37.4719 18.7977 39.4288C17.8668 41.3858 22.492 45.5221 29.1283 48.6676C35.7645 51.8131 41.8989 52.7765 42.8297 50.8196Z" fill="#F9FAFC"/>
<path d="M42.7817 50.7968C43.7063 48.853 39.0975 44.7376 32.4877 41.6047C25.8779 38.4718 19.7702 37.5078 18.8456 39.4515C17.9211 41.3953 22.5299 45.5107 29.1396 48.6436C35.7494 51.7765 41.8572 52.7405 42.7817 50.7968Z" fill="#F8FAFC"/>
<path d="M42.7338 50.774C43.6584 48.8303 39.071 44.725 32.4878 41.6047C25.9045 38.4843 19.8182 37.5305 18.8936 39.4743C17.9691 41.418 22.5564 45.5233 29.1397 48.6436C35.723 51.764 41.8093 52.7178 42.7338 50.774Z" fill="#F8FAFC"/>
<path d="M42.6618 50.7399C43.5801 48.8094 39.0199 44.7301 32.4763 41.6286C25.9328 38.5271 19.8838 37.5778 18.9655 39.5084C18.0473 41.4389 22.6075 45.5181 29.151 48.6197C35.6946 51.7212 41.7436 52.6704 42.6618 50.7399Z" fill="#F7F9FC"/>
<path d="M42.6139 50.7173C43.5321 48.7867 38.9934 44.7176 32.4764 41.6287C25.9593 38.5397 19.9318 37.6006 19.0135 39.5312C18.0953 41.4617 22.634 45.5308 29.1511 48.6197C35.6681 51.7087 41.6956 52.6478 42.6139 50.7173Z" fill="#F7F9FC"/>
<path d="M42.5659 50.6945C43.4779 48.7772 38.9555 44.729 32.465 41.6526C25.9744 38.5762 19.9735 37.6365 19.0615 39.5539C18.1495 41.4712 22.6719 45.5193 29.1624 48.5957C35.653 51.6721 41.6539 52.6118 42.5659 50.6945Z" fill="#F6F9FB"/>
<path d="M42.518 50.6718C43.4236 48.7678 38.9177 44.7405 32.4536 41.6766C25.9895 38.6128 20.0152 37.6726 19.1095 39.5767C18.2038 41.4808 22.7098 45.5081 29.1738 48.5719C35.6379 51.6357 41.6123 52.5759 42.518 50.6718Z" fill="#F6F8FB"/>
<path d="M42.47 50.6491C43.3757 48.745 38.8912 44.7279 32.4536 41.6766C26.016 38.6254 20.0631 37.6954 19.1574 39.5994C18.2518 41.5035 22.7363 45.5206 29.1738 48.5719C35.6114 51.6232 41.5643 52.5532 42.47 50.6491Z" fill="#F5F8FB"/>
<path d="M42.422 50.6263C43.3214 48.7354 38.8533 44.7392 32.4422 41.7005C26.0311 38.6618 20.1048 37.7312 19.2054 39.6221C18.306 41.5129 22.7741 45.5092 29.1852 48.5479C35.5963 51.5866 41.5226 52.5172 42.422 50.6263Z" fill="#F5F7FB"/>
<path d="M42.374 50.6036C43.2671 48.726 38.8154 44.7507 32.4308 41.7245C26.0462 38.6983 20.1465 37.7673 19.2534 39.6449C18.3603 41.5225 22.812 45.4979 29.1966 48.524C35.5812 51.5502 41.4809 52.4813 42.374 50.6036Z" fill="#F4F7FB"/>
<path d="M42.3261 50.5809C43.2192 48.7033 38.7889 44.7381 32.4308 41.7245C26.0727 38.7109 20.1944 37.79 19.3013 39.6676C18.4082 41.5453 22.8385 45.5104 29.1966 48.524C35.5547 51.5376 41.433 52.4585 42.3261 50.5809Z" fill="#F4F7FA"/>
<path d="M42.2541 50.5467C43.1409 48.6823 38.7378 44.7432 32.4194 41.7484C26.101 38.7536 20.2601 37.8373 19.3733 39.7017C18.4865 41.5661 22.8896 45.5053 29.208 48.5C35.5263 51.4948 41.3673 52.4112 42.2541 50.5467Z" fill="#F3F6FA"/>
<path d="M42.2061 50.524C43.0929 48.6595 38.7113 44.7306 32.4194 41.7483C26.1275 38.7661 20.3081 37.86 19.4213 39.7244C18.5344 41.5888 22.9161 45.5178 29.208 48.5C35.4999 51.4822 41.3193 52.3884 42.2061 50.524Z" fill="#F2F6FA"/>
<path d="M42.1582 50.5013C43.0387 48.6501 38.6734 44.742 32.408 41.7724C26.1427 38.8027 20.3498 37.896 19.4692 39.7472C18.5887 41.5984 22.954 45.5064 29.2194 48.4761C35.4848 51.4458 41.2777 52.3525 42.1582 50.5013Z" fill="#F2F5FA"/>
<path d="M42.1102 50.4786C42.9844 48.6406 38.6355 44.7534 32.3966 41.7963C26.1577 38.8392 20.3914 37.932 19.5172 39.7699C18.643 41.6079 22.9919 45.4951 29.2308 48.4522C35.4697 51.4093 41.236 52.3165 42.1102 50.4786Z" fill="#F1F5F9"/>
<path d="M42.0622 50.4558C42.9364 48.6178 38.609 44.7408 32.3966 41.7962C26.1842 38.8517 20.4394 37.9546 19.5651 39.7926C18.6909 41.6305 23.0184 45.5075 29.2308 48.4521C35.4431 51.3966 41.188 52.2937 42.0622 50.4558Z" fill="#F1F4F9"/>
<path d="M42.0143 50.433C42.8822 48.6083 38.5712 44.7522 32.3852 41.8202C26.1993 38.8882 20.4811 37.9906 19.6131 39.8153C18.7452 41.6401 23.0563 45.4962 29.2422 48.4282C35.4281 51.3601 41.1463 52.2578 42.0143 50.433Z" fill="#F0F4F9"/>
<path d="M41.9663 50.4103C42.8279 48.5988 38.5332 44.7636 32.3738 41.8442C26.2144 38.9247 20.5227 38.0266 19.6611 39.8381C18.7994 41.6496 23.0941 45.4848 29.2535 48.4042C35.4129 51.3237 41.1046 52.2218 41.9663 50.4103Z" fill="#EFF4F9"/>
<path d="M41.9183 50.3876C42.78 48.5761 38.5068 44.7511 32.3739 41.8442C26.2409 38.9373 20.5707 38.0494 19.7091 39.8609C18.8474 41.6724 23.1206 45.4974 29.2536 48.4043C35.3865 51.3112 41.0567 52.1991 41.9183 50.3876Z" fill="#EFF3F8"/>
<path d="M41.8464 50.3534C42.7017 48.5551 38.4557 44.7561 32.3625 41.8681C26.2693 38.98 20.6364 38.0966 19.781 39.8949C18.9257 41.6932 23.1718 45.4922 29.2649 48.3803C35.3581 51.2683 40.991 52.1517 41.8464 50.3534Z" fill="#EEF3F8"/>
<path d="M41.7984 50.3308C42.6475 48.5457 38.4178 44.7676 32.3511 41.8921C26.2844 39.0166 20.6781 38.1327 19.829 39.9177C18.9799 41.7028 23.2096 45.481 29.2763 48.3564C35.343 51.2319 40.9494 52.1159 41.7984 50.3308Z" fill="#EEF2F8"/>
<path d="M41.7677 50.2881C40.918 52.0639 35.3422 51.1893 29.2884 48.3267C23.2346 45.4642 19.0395 41.7005 19.8891 39.9246C20.7388 38.1488 26.3146 39.0235 32.3684 41.886C38.3956 44.7485 42.5908 48.5122 41.7677 50.2881Z" fill="#EDF2F8"/>
<path d="M41.7025 50.2853C42.5453 48.5135 38.3534 44.7664 32.3397 41.916C26.326 39.0656 20.7677 38.1913 19.9249 39.9632C19.0822 41.735 23.274 45.4821 29.2877 48.3325C35.3014 51.1828 40.8597 52.0572 41.7025 50.2853Z" fill="#ECF1F7"/>
<path d="M41.6545 50.2625C42.4973 48.4907 38.3269 44.7538 32.3397 41.916C26.3525 39.0782 20.8157 38.214 19.9729 39.9859C19.1301 41.7577 23.3005 45.4946 29.2877 48.3324C35.2749 51.1703 40.8117 52.0344 41.6545 50.2625Z" fill="#ECF1F7"/>
<path d="M41.6066 50.2399C42.443 48.4812 38.289 44.7653 32.3283 41.94C26.3676 39.1147 20.8574 38.2501 20.0209 40.0087C19.1844 41.7673 23.3384 45.4833 29.2991 48.3086C35.2598 51.1338 40.7701 51.9985 41.6066 50.2399Z" fill="#EBF0F7"/>
<path d="M41.5586 50.2171C42.3888 48.4717 38.2512 44.7766 32.3169 41.9639C26.3827 39.1512 20.899 38.286 20.0688 40.0314C19.2386 41.7768 23.3763 45.4719 29.3105 48.2846C35.2447 51.0973 40.7284 51.9625 41.5586 50.2171Z" fill="#EAF0F6"/>
<path d="M41.5106 50.1943C42.3408 48.4489 38.2247 44.764 32.3169 41.9638C26.4092 39.1637 20.947 38.3086 20.1168 40.054C19.2866 41.7994 23.4028 45.4843 29.3105 48.2845C35.2182 51.0846 40.6804 51.9397 41.5106 50.1943Z" fill="#EAEFF6"/>
<path d="M41.4387 50.1602C42.2626 48.428 38.1735 44.7691 32.3055 41.9878C26.4375 39.2065 21.0127 38.356 20.1888 40.0882C19.3649 41.8203 23.4539 45.4792 29.3219 48.2606C35.1899 51.0419 40.6147 51.8924 41.4387 50.1602Z" fill="#E9EFF6"/>
<path d="M41.3907 50.1375C42.2083 48.4185 38.1356 44.7805 32.2941 42.0117C26.4526 39.243 21.0544 38.3919 20.2367 40.1109C19.4191 41.8299 23.4918 45.4679 29.3333 48.2366C35.1748 51.0054 40.5731 51.8564 41.3907 50.1375Z" fill="#E8EEF6"/>
<path d="M41.3427 50.1147C42.1603 48.3957 38.1091 44.7679 32.2941 42.0117C26.4791 39.2555 21.1023 38.4147 20.2847 40.1336C19.467 41.8526 23.5182 45.4804 29.3332 48.2366C35.1483 50.9928 40.5251 51.8337 41.3427 50.1147Z" fill="#E7EEF5"/>
<path d="M41.2897 50.0761C40.4666 51.7724 35.1298 50.9507 29.3415 48.1942C23.5532 45.4377 19.5174 41.833 20.3405 40.1367C21.1636 38.4404 26.5005 39.262 32.2887 42.0185C38.077 44.7485 42.1128 48.3797 41.2897 50.0761Z" fill="#E7EDF5"/>
<path d="M41.2468 50.0693C42.0581 48.3636 38.0448 44.7668 32.2828 42.0357C26.5207 39.3046 21.192 38.4734 20.3806 40.1792C19.5693 41.8849 23.5826 45.4817 29.3447 48.2128C35.1067 50.9438 40.4355 51.7751 41.2468 50.0693Z" fill="#E6EDF5"/>
<path d="M41.1988 50.0466C42.0039 48.3541 38.0069 44.7782 32.2714 42.0597C26.5358 39.3411 21.2336 38.5094 20.4286 40.2019C19.6236 41.8944 23.6205 45.4703 29.356 48.1888C35.0916 50.9074 40.3938 51.7391 41.1988 50.0466Z" fill="#E5ECF4"/>
<path d="M41.1509 50.0238C41.9496 48.3446 37.969 44.7896 32.26 42.0836C26.5509 39.3776 21.2753 38.5454 20.4766 40.2246C19.6778 41.9039 23.6584 45.4589 29.3674 48.1649C35.0765 50.8708 40.3521 51.7031 41.1509 50.0238Z" fill="#E5ECF4"/>
<path d="M41.1029 50.0012C41.9016 48.3219 37.9425 44.7771 32.26 42.0837C26.5774 39.3902 21.3233 38.5681 20.5245 40.2474C19.7258 41.9267 23.6849 45.4715 29.3674 48.1649C35.05 50.8583 40.3041 51.6804 41.1029 50.0012Z" fill="#E4EBF4"/>
<path d="M41.0309 49.967C41.8234 48.3009 37.8914 44.7821 32.2486 42.1076C26.6058 39.433 21.389 38.6154 20.5965 40.2815C19.804 41.9476 23.736 45.4663 29.3788 48.1409C35.0216 50.8155 40.2385 51.6331 41.0309 49.967Z" fill="#E3EBF4"/>
<path d="M40.983 49.9443C41.7691 48.2915 37.8535 44.7936 32.2372 42.1315C26.6209 39.4695 21.4306 38.6514 20.6445 40.3043C19.8583 41.9571 23.7739 45.455 29.3902 48.117C35.0065 50.779 40.1968 51.5971 40.983 49.9443Z" fill="#E2EAF3"/>
<path d="M40.935 49.9215C41.7212 48.2687 37.827 44.781 32.2372 42.1315C26.6474 39.482 21.4786 38.6741 20.6924 40.3269C19.9063 41.9798 23.8004 45.4675 29.3902 48.117C34.98 50.7664 40.1488 51.5744 40.935 49.9215Z" fill="#E2EAF3"/>
<path d="M40.887 49.8987C41.6669 48.2591 37.7892 44.7923 32.2258 42.1554C26.6625 39.5185 21.5203 38.71 20.7404 40.3496C19.9605 41.9892 23.8383 45.4561 29.4016 48.093C34.9649 50.7299 40.1071 51.5383 40.887 49.8987Z" fill="#E1E9F3"/>
<path d="M40.8391 49.876C41.6189 48.2364 37.7627 44.7798 32.2258 42.1554C26.689 39.5311 21.5682 38.7328 20.7884 40.3724C20.0085 42.012 23.8647 45.4687 29.4016 48.093C34.9384 50.7174 40.0592 51.5157 40.8391 49.876Z" fill="#E0E8F2"/>
<path d="M40.7911 49.8533C41.5647 48.2269 37.7248 44.7911 32.2144 42.1793C26.7041 39.5675 21.6099 38.7687 20.8363 40.3951C20.0627 42.0215 23.9026 45.4572 29.413 48.069C34.9233 50.6808 40.0175 51.4797 40.7911 49.8533Z" fill="#DFE8F2"/>
<path d="M40.7321 49.811C39.9622 51.4278 34.8908 50.6327 29.4212 48.0352C23.9515 45.4377 20.1281 42.0185 20.8981 40.4017C21.6681 38.7849 26.7394 39.5801 32.2091 42.1776C37.6787 44.7751 41.5021 48.1942 40.7321 49.811Z" fill="#DFE7F2"/>
<path d="M40.6951 49.8078C41.4624 48.1946 37.6604 44.7899 32.203 42.2032C26.7456 39.6166 21.6996 38.8274 20.9322 40.4405C20.1649 42.0537 23.967 45.4584 29.4243 48.0451C34.8817 50.6318 39.9278 51.4209 40.6951 49.8078Z" fill="#DEE7F1"/>
<path d="M40.6259 49.758C39.8559 51.3483 34.8377 50.5796 29.4212 48.0087C24.0046 45.4377 20.2077 42.045 20.9777 40.4547C21.7477 38.8644 26.766 39.6331 32.1825 42.2041C37.6256 44.775 41.3959 48.1677 40.6259 49.758Z" fill="#DDE6F1"/>
<path d="M40.5752 49.7509C41.3299 48.1641 37.5714 44.8064 32.1802 42.2511C26.7891 39.6958 21.8069 38.9106 21.0522 40.4973C20.2974 42.0841 24.056 45.4418 29.4471 47.9971C34.8383 50.5524 39.8205 51.3376 40.5752 49.7509Z" fill="#DCE6F1"/>
<path d="M40.5273 49.7283C41.282 48.1416 37.5449 44.794 32.1803 42.2512C26.8156 39.7085 21.8549 38.9335 21.1002 40.5202C20.3454 42.107 24.0825 45.4546 29.4472 47.9973C34.8118 50.5401 39.7725 51.315 40.5273 49.7283Z" fill="#DCE5F0"/>
<path d="M40.4793 49.7056C41.2277 48.1321 37.507 44.8054 32.1689 42.2752C26.8307 39.745 21.8966 38.9695 21.1481 40.543C20.3997 42.1165 24.1204 45.4432 29.4585 47.9734C34.7967 50.5035 39.7309 51.2791 40.4793 49.7056Z" fill="#DBE4F0"/>
<path d="M40.4401 49.6785C39.6966 51.2423 34.7846 50.4736 29.4743 47.9556C24.1639 45.4377 20.4733 42.1246 21.2167 40.5608C21.9601 38.997 26.8722 39.7656 32.1825 42.2836C37.4663 44.8016 41.1835 48.0882 40.4401 49.6785Z" fill="#DAE4F0"/>
<path d="M40.3834 49.6601C41.1255 48.0998 37.4427 44.8042 32.1575 42.2991C26.8723 39.7941 21.9862 39.0282 21.2441 40.5885C20.5019 42.1487 24.1848 45.4444 29.4699 47.9494C34.7551 50.4545 39.6412 51.2204 40.3834 49.6601Z" fill="#D9E3EF"/>
<path d="M40.3339 49.6255C39.5904 51.1893 34.7315 50.4206 29.4743 47.9291C24.217 45.4377 20.5529 42.1511 21.2963 40.6138C22.0398 39.05 26.8987 39.8186 32.156 42.3101C37.4132 44.8016 41.0773 48.0617 40.3339 49.6255Z" fill="#D8E3EF"/>
<path d="M40.2874 49.6146C41.0233 48.0675 37.3783 44.803 32.1461 42.323C26.9139 39.8431 22.0759 39.0868 21.34 40.6339C20.6041 42.181 24.2491 45.4455 29.4813 47.9254C34.7135 50.4054 39.5516 51.1617 40.2874 49.6146Z" fill="#D7E2EF"/>
<path d="M40.2394 49.5918C40.969 48.0579 37.3404 44.8143 32.1347 42.3469C26.929 39.8795 22.1175 39.1227 21.3879 40.6565C20.6584 42.1904 24.287 45.434 29.4927 47.9014C34.6984 50.3688 39.5099 51.1256 40.2394 49.5918Z" fill="#D7E1EE"/>
<path d="M40.1675 49.5577C40.8908 48.0371 37.2893 44.8194 32.1233 42.3709C26.9574 39.9223 22.1832 39.1701 21.4599 40.6907C20.7366 42.2113 24.3381 45.429 29.5041 47.8775C34.67 50.3261 39.4442 51.0783 40.1675 49.5577Z" fill="#D6E1EE"/>
<path d="M40.1195 49.535C40.8428 48.0144 37.2628 44.8069 32.1233 42.3709C26.9839 39.9349 22.2312 39.1929 21.5079 40.7135C20.7846 42.2341 24.3646 45.4416 29.5041 47.8776C34.6436 50.3136 39.3963 51.0556 40.1195 49.535Z" fill="#D5E0EE"/>
<path d="M40.0684 49.4929C39.3515 51.0037 34.6253 50.2616 29.5008 47.8231C24.3763 45.4112 20.8184 42.2041 21.5353 40.6933C22.2522 39.1825 26.9784 39.9246 32.1029 42.3631C37.2273 44.8016 40.7853 47.9822 40.0684 49.4929Z" fill="#D4E0ED"/>
<path d="M40.0236 49.4895C40.7406 47.9821 37.1984 44.8057 32.112 42.3948C27.0255 39.9839 22.3208 39.2515 21.6038 40.7589C20.8868 42.2663 24.429 45.4427 29.5155 47.8536C34.602 50.2645 39.3066 50.9969 40.0236 49.4895Z" fill="#D3DFED"/>
<path d="M39.9756 49.4668C40.6863 47.9726 37.1605 44.8171 32.1005 42.4188C27.0405 40.0204 22.3625 39.2875 21.6518 40.7817C20.9411 42.2758 24.4669 45.4313 29.5268 47.8297C34.5868 50.228 39.2649 50.961 39.9756 49.4668Z" fill="#D2DEED"/>
<path d="M39.909 49.4399C39.1922 50.9242 34.5456 50.1821 29.5274 47.8231C24.5091 45.4642 20.9777 42.3101 21.6946 40.8258C22.4115 39.3415 27.0581 40.0837 32.0763 42.4426C37.1211 44.8016 40.6259 47.9557 39.909 49.4399Z" fill="#D2DEEC"/>
<path d="M39.8797 49.4213C40.5841 47.9403 37.0962 44.8159 32.0892 42.4427C27.0822 40.0695 22.4521 39.3462 21.7477 40.8271C21.0433 42.3081 24.5313 45.4325 29.5383 47.8057C34.5453 50.1789 39.1753 50.9022 39.8797 49.4213Z" fill="#D1DDEC"/>
<path d="M39.8294 49.3869C39.1391 50.8447 34.5191 50.1291 29.5539 47.7701C24.5888 45.4112 21.1105 42.3101 21.8008 40.8523C22.4912 39.3946 27.1112 40.1102 32.0763 42.4691C37.0415 44.8016 40.5197 47.9026 39.8294 49.3869Z" fill="#D0DCEC"/>
<path d="M39.7763 49.3604C39.0859 50.8182 34.5191 50.1026 29.5539 47.7701C24.5888 45.4377 21.1636 42.3366 21.8539 40.8788C22.5443 39.4211 27.1112 40.1367 32.0763 42.4691C37.0149 44.8016 40.4666 47.9026 39.7763 49.3604Z" fill="#CFDCEB"/>
<path d="M39.7118 49.3418C40.4036 47.8873 36.9807 44.8199 32.0664 42.4907C27.1521 40.1614 22.6075 39.4523 21.9156 40.9068C21.2238 42.3613 24.6468 45.4286 29.561 47.7579C34.4753 50.0872 39.02 50.7963 39.7118 49.3418Z" fill="#CEDBEB"/>
<path d="M39.6638 49.3191C40.3494 47.8778 36.9428 44.8314 32.055 42.5147C27.1672 40.1979 22.6491 39.4883 21.9636 40.9295C21.278 42.3708 24.6846 45.4173 29.5724 47.734C34.4602 50.0507 38.9783 50.7604 39.6638 49.3191Z" fill="#CDDBEB"/>
<path d="M39.617 49.2809C38.9266 50.7122 34.4394 50.023 29.5805 47.7171C24.7215 45.4112 21.3229 42.3896 22.0132 40.9583C22.7036 39.5271 27.1908 40.2162 32.0498 42.5221C36.9087 44.8281 40.3073 47.8496 39.617 49.2809Z" fill="#CCDAEA"/>
<path d="M39.5679 49.2736C40.2472 47.8455 36.8784 44.8301 32.0436 42.5385C27.2088 40.2469 22.7388 39.5469 22.0595 40.9749C21.3803 42.403 24.749 45.4184 29.5838 47.71C34.4186 50.0016 38.8886 50.7016 39.5679 49.2736Z" fill="#CCD9EA"/>
<path d="M39.5199 49.2508C40.1929 47.8359 36.8405 44.8415 32.0322 42.5624C27.2239 40.2834 22.7804 39.5828 22.1075 40.9976C21.4345 42.4125 24.7869 45.4069 29.5952 47.686C34.4035 49.965 38.8469 50.6656 39.5199 49.2508Z" fill="#CBD9E9"/>
<path d="M39.472 49.2281C40.1449 47.8132 36.814 44.8289 32.0322 42.5625C27.2504 40.296 22.8284 39.6056 22.1555 41.0204C21.4825 42.4352 24.8134 45.4195 29.5952 47.686C34.377 49.9525 38.799 50.6429 39.472 49.2281Z" fill="#CAD8E9"/>
<path d="M39.424 49.2053C40.0907 47.8037 36.7762 44.8403 32.0208 42.5864C27.2655 40.3324 22.8701 39.6415 22.2034 41.0431C21.5367 42.4447 24.8513 45.4081 29.6066 47.6621C34.3619 49.916 38.7573 50.6069 39.424 49.2053Z" fill="#C9D7E9"/>
<path d="M39.3515 49.1749C38.6877 50.5796 34.3332 49.8905 29.607 47.6376C24.8808 45.4112 21.5884 42.4426 22.2522 41.0644C22.916 39.6596 27.2705 40.3487 31.9967 42.6016C36.7228 44.8281 40.0152 47.7701 39.3515 49.1749Z" fill="#C8D7E8"/>
<path d="M39.304 49.1484C39.9644 47.76 36.6985 44.8328 32.0094 42.6103C27.3203 40.3877 22.9837 39.7115 22.3233 41.0999C21.6629 42.4883 24.9288 45.4155 29.6179 47.6381C34.307 49.8606 38.6437 50.5368 39.304 49.1484Z" fill="#C7D6E8"/>
<path d="M39.2561 49.1257C39.9102 47.7505 36.6606 44.8442 31.998 42.6342C27.3354 40.4242 23.0254 39.7475 22.3713 41.1226C21.7172 42.4978 24.9667 45.4041 29.6293 47.6141C34.2919 49.8241 38.602 50.5009 39.2561 49.1257Z" fill="#C6D5E8"/>
<path d="M39.2081 49.1029C39.8559 47.7409 36.6228 44.8555 31.9866 42.6581C27.3505 40.4606 23.0671 39.7833 22.4193 41.1453C21.7714 42.5072 25.0046 45.3927 29.6407 47.5901C34.2768 49.7875 38.5603 50.4648 39.2081 49.1029Z" fill="#C5D5E7"/>
<path d="M39.1656 49.0689C38.5284 50.4206 34.2536 49.758 29.6601 47.5846C25.0401 45.4112 21.8274 42.5221 22.4912 41.1704C23.1284 39.8186 27.4032 40.4812 31.9967 42.6547C36.5901 44.8281 39.8028 47.7171 39.1656 49.0689Z" fill="#C4D4E7"/>
<path d="M39.1122 49.0576C39.7537 47.7089 36.5584 44.8545 31.9753 42.6822C27.3922 40.5099 23.1567 39.8422 22.5152 41.1909C21.8737 42.5397 25.069 45.394 29.6521 47.5663C34.2353 49.7387 38.4707 50.4063 39.1122 49.0576Z" fill="#C3D3E6"/>
<path d="M39.0594 49.0159C38.4222 50.3676 34.2004 49.705 29.6601 47.5316C25.1198 45.3847 21.9336 42.5221 22.5708 41.1969C23.2081 39.8451 27.4298 40.5078 31.9701 42.6812C36.5104 44.8281 39.6966 47.6641 39.0594 49.0159Z" fill="#C2D3E6"/>
<path d="M39.0163 49.0122C39.6515 47.6767 36.494 44.8534 31.9639 42.7062C27.4338 40.559 23.2464 39.901 22.6112 41.2365C21.9759 42.572 25.1334 45.3952 29.6635 47.5424C34.1937 49.6896 38.381 50.3477 39.0163 49.0122Z" fill="#C1D2E6"/>
<path d="M38.9532 48.9628C38.316 50.2881 34.1739 49.6255 29.6601 47.5051C25.1729 45.3847 22.0398 42.5752 22.6505 41.2499C23.2877 39.9247 27.4298 40.5873 31.9436 42.7077C36.4573 44.8281 39.5904 47.6376 38.9532 48.9628Z" fill="#C1D1E5"/>
<path d="M38.8964 48.9553C39.5253 47.633 36.4164 44.8459 31.9525 42.73C27.4886 40.6142 23.36 39.971 22.7311 41.2932C22.1021 42.6155 25.211 45.4026 29.6749 47.5184C34.1388 49.6342 38.2674 50.2775 38.8964 48.9553Z" fill="#C0D1E5"/>
<path d="M38.8484 48.9325C39.471 47.6235 36.3785 44.8573 31.9411 42.754C27.5037 40.6507 23.4017 40.0069 22.779 41.316C22.1564 42.625 25.2489 45.3912 29.6863 47.4945C34.1237 49.5978 38.2257 50.2416 38.8484 48.9325Z" fill="#BFD0E5"/>
<path d="M38.8004 48.9098C39.4168 47.6139 36.3407 44.8686 31.9297 42.7779C27.5188 40.6872 23.4434 40.0428 22.827 41.3387C22.2107 42.6345 25.2868 45.3798 29.6977 47.4705C34.1086 49.5612 38.1841 50.2056 38.8004 48.9098Z" fill="#BECFE4"/>
<path d="M38.7524 48.887C39.3688 47.5912 36.3142 44.8561 31.9297 42.7779C27.5453 40.6998 23.4913 40.0656 22.875 41.3614C22.2586 42.6573 25.3132 45.3924 29.6977 47.4705C34.0821 49.5487 38.1361 50.1829 38.7524 48.887Z" fill="#BDCEE4"/>
<path d="M38.7044 48.8643C39.3145 47.5817 36.2763 44.8674 31.9183 42.8018C27.5604 40.7362 23.533 40.1015 22.9229 41.3841C22.3128 42.6667 25.3511 45.381 29.709 47.4466C34.067 49.5121 38.0944 50.1469 38.7044 48.8643Z" fill="#BCCEE3"/>
<path d="M38.6611 48.8303C38.0504 50.1026 34.0411 49.4929 29.7132 47.4256C25.3853 45.3847 22.3584 42.6812 22.9691 41.4089C23.5798 40.1367 27.5891 40.7463 31.917 42.8137C36.2449 44.8546 39.2453 47.5581 38.6611 48.8303Z" fill="#BBCDE3"/>
<path d="M38.6085 48.8187C39.2123 47.5493 36.2119 44.8662 31.9069 42.8257C27.602 40.7852 23.6226 40.1601 23.0189 41.4295C22.4151 42.6989 25.4155 45.3821 29.7204 47.4225C34.0254 49.463 38.0047 50.0881 38.6085 48.8187Z" fill="#BACCE3"/>
<path d="M38.5606 48.796C39.158 47.5399 36.174 44.8776 31.8955 42.8497C27.6171 40.8218 23.6643 40.1962 23.0668 41.4523C22.4693 42.7085 25.4534 45.3708 29.7318 47.3987C34.0103 49.4266 37.9631 50.0522 38.5606 48.796Z" fill="#B9CCE2"/>
<path d="M38.5018 48.7508C37.9177 49.9965 33.988 49.3869 29.7398 47.3725C25.4915 45.3582 22.5443 42.7077 23.1284 41.4619C23.7126 40.2162 27.6422 40.8258 31.8905 42.8402C36.1387 44.8546 39.0859 47.5051 38.5018 48.7508Z" fill="#B8CBE2"/>
<path d="M38.4407 48.7393C39.0319 47.4964 36.0964 44.8703 31.8842 42.8737C27.6719 40.8772 23.778 40.2663 23.1868 41.5093C22.5956 42.7522 25.531 45.3783 29.7432 47.3748C33.9555 49.3713 37.8494 49.9822 38.4407 48.7393Z" fill="#B7CAE1"/>
<path d="M38.3956 48.6978C37.8115 49.9435 33.9349 49.3339 29.7398 47.346C25.5446 45.3582 22.6239 42.7607 23.2081 41.5149C23.7922 40.2692 27.6687 40.8788 31.8639 42.8667C36.0591 44.8546 38.9797 47.4786 38.3956 48.6978Z" fill="#B6C9E1"/>
<path d="M38.3447 48.6939C38.9296 47.4642 36.0321 44.8692 31.8728 42.8978C27.7135 40.9263 23.8676 40.3251 23.2827 41.5548C22.6978 42.7845 25.5954 45.3795 29.7546 47.351C33.9139 49.3224 37.7598 49.9236 38.3447 48.6939Z" fill="#B5C9E1"/>
<path d="M38.2967 48.6711C38.8754 47.4546 35.9942 44.8805 31.8614 42.9216C27.7286 40.9628 23.9093 40.361 23.3307 41.5775C22.7521 42.794 25.6332 45.3681 29.766 47.3269C33.8988 49.2858 37.7181 49.8876 38.2967 48.6711Z" fill="#B4C8E0"/>
<path d="M38.2488 48.6483C38.8274 47.4318 35.9677 44.8679 31.8614 42.9216C27.7551 40.9753 23.9573 40.3837 23.3786 41.6002C22.8 42.8167 25.6597 45.3806 29.766 47.3269C33.8723 49.2732 37.6701 49.8648 38.2488 48.6483Z" fill="#B3C7E0"/>
<path d="M38.1832 48.6183C37.599 49.811 33.8553 49.2279 29.7663 47.293C25.7039 45.3582 22.8629 42.8137 23.4205 41.621C24.0046 40.4282 27.7484 41.0114 31.8373 42.9462C35.9263 44.8546 38.7673 47.3991 38.1832 48.6183Z" fill="#B2C7DF"/>
<path d="M38.1528 48.6029C38.7189 47.4128 35.8919 44.8907 31.8386 42.9695C27.7853 41.0483 24.0406 40.4556 23.4746 41.6457C22.9085 42.8357 25.7355 45.3579 29.7888 47.2791C33.8421 49.2002 37.5868 49.7929 38.1528 48.6029Z" fill="#B1C6DF"/>
<path d="M38.0809 48.5686C38.6469 47.3786 35.8522 44.8717 31.8386 42.9693C27.8251 41.067 24.1126 40.4896 23.5465 41.6796C22.9805 42.8697 25.7752 45.3765 29.7888 47.2789C33.8023 49.1812 37.5148 49.7587 38.0809 48.5686Z" fill="#B0C5DE"/>
<path d="M38.0329 48.546C38.5927 47.3692 35.8143 44.8832 31.8272 42.9934C27.8402 41.1036 24.1543 40.5257 23.5945 41.7025C23.0348 42.8793 25.8131 45.3653 29.8002 47.2551C33.7872 49.1449 37.4732 49.7228 38.0329 48.546Z" fill="#AFC4DE"/>
<path d="M37.9849 48.5232C38.5384 47.3596 35.7764 44.8945 31.8159 43.0173C27.8553 41.1401 24.1959 40.5616 23.6425 41.7252C23.089 42.8888 25.851 45.3538 29.8116 47.2311C33.7721 49.1083 37.4315 49.6868 37.9849 48.5232Z" fill="#AEC4DE"/>
<path d="M37.9442 48.4857C37.3866 49.652 33.7491 49.0689 29.8194 47.2135C25.8898 45.3582 23.155 42.8932 23.686 41.727C24.2436 40.5608 27.8812 41.1439 31.8108 42.9992C35.7404 44.8811 38.5018 47.3195 37.9442 48.4857Z" fill="#ADC3DD"/>
<path d="M37.8911 48.4592C37.3335 49.599 33.7225 49.0424 29.8194 47.187C25.9163 45.3317 23.1815 42.8932 23.7391 41.7535C24.2967 40.6138 27.9077 41.1704 31.8108 43.0257C35.7139 44.8811 38.4222 47.3195 37.8911 48.4592Z" fill="#ACC2DD"/>
<path d="M37.841 48.455C38.3882 47.3046 35.6856 44.8808 31.8045 43.0412C27.9234 41.2017 24.3336 40.643 23.7864 41.7933C23.2392 42.9437 25.9419 45.3676 29.823 47.2071C33.704 49.0467 37.2939 49.6054 37.841 48.455Z" fill="#ABC1DC"/>
<path d="M37.7931 48.4324C38.334 47.2953 35.6477 44.8923 31.7931 43.0653C27.9385 41.2383 24.3752 40.6791 23.8343 41.8163C23.2935 42.9534 25.9797 45.3563 29.8343 47.1833C33.6889 49.0103 37.2522 49.5696 37.7931 48.4324Z" fill="#AAC1DC"/>
<path d="M37.7451 48.4096C38.2797 47.2856 35.6098 44.9036 31.7817 43.0891C27.9536 41.2747 24.4169 40.7149 23.8823 41.8389C23.3477 42.9628 26.0176 45.3448 29.8457 47.1593C33.6738 48.9737 37.2105 49.5335 37.7451 48.4096Z" fill="#A9C0DC"/>
<path d="M37.6732 48.3755C38.2078 47.2516 35.5701 44.8848 31.7817 43.0892C27.9933 41.2936 24.4889 40.7491 23.9543 41.873C23.4197 42.997 26.0574 45.3637 29.8457 47.1593C33.6341 48.9549 37.1386 49.4994 37.6732 48.3755Z" fill="#A8BFDB"/>
<path d="M37.6256 48.3532C37.0946 49.4664 33.6163 48.9098 29.846 47.134C26.0756 45.3582 23.447 42.9992 23.9781 41.886C24.5091 40.7728 27.9874 41.3294 31.7577 43.1052C35.528 44.8811 38.1566 47.24 37.6256 48.3532Z" fill="#A7BEDB"/>
<path d="M37.5772 48.33C38.0993 47.2325 35.4943 44.9076 31.7589 43.1371C28.0235 41.3666 24.5722 40.821 24.0502 41.9185C23.5282 43.016 26.1331 45.3409 29.8685 47.1114C33.6039 48.8819 37.0552 49.4275 37.5772 48.33Z" fill="#A6BEDA"/>
<path d="M37.5194 48.3002C36.9884 49.3869 33.5632 48.8568 29.846 47.1075C26.1287 45.3582 23.5532 43.0257 24.0843 41.939C24.6153 40.8523 28.0405 41.3824 31.7577 43.1317C35.4749 44.8811 38.0504 47.187 37.5194 48.3002Z" fill="#A5BDDA"/>
<path d="M37.4813 48.2845C37.997 47.2003 35.4299 44.9064 31.7475 43.161C28.0651 41.4156 24.6619 40.8797 24.1461 41.964C23.6304 43.0482 26.1975 45.3421 29.8799 47.0875C33.5623 48.8329 36.9656 49.3688 37.4813 48.2845Z" fill="#A4BCD9"/>
<path d="M37.4333 48.2618C37.9491 47.1775 35.4034 44.8938 31.7475 43.161C28.0916 41.4282 24.7098 40.9024 24.1941 41.9867C23.6784 43.0709 26.224 45.3547 29.8799 47.0875C33.5358 48.8203 36.9176 49.3461 37.4333 48.2618Z" fill="#A3BBD9"/>
<path d="M37.3866 48.2207C36.8822 49.2809 33.5367 48.7773 29.8991 47.0545C26.2615 45.3317 23.7391 43.0787 24.2436 42.0185C24.7481 40.9583 28.0936 41.4619 31.7311 43.1848C35.3687 44.8811 37.8911 47.1605 37.3866 48.2207Z" fill="#A1BAD8"/>
<path d="M37.3335 48.1942C36.8291 49.2544 33.5101 48.7243 29.8991 47.028C26.3146 45.3317 23.7922 43.0787 24.2967 42.0185C24.8012 40.9583 28.1201 41.4884 31.7311 43.1848C35.3156 44.8811 37.838 47.134 37.3335 48.1942Z" fill="#A0BAD8"/>
<path d="M37.2654 48.1822C37.7686 47.1244 35.2879 44.8978 31.7248 43.2089C28.1616 41.52 24.8652 41.0084 24.362 42.0662C23.8588 43.1241 26.3395 45.3507 29.9027 47.0396C33.4659 48.7285 36.7623 49.24 37.2654 48.1822Z" fill="#9FB9D8"/>
<path d="M37.2273 48.1412C36.7228 49.1749 33.457 48.6713 29.9256 47.0015C26.3943 45.3317 23.925 43.1052 24.4029 42.0715C24.8808 41.0379 28.1732 41.5415 31.7046 43.2113C35.2625 44.9076 37.7318 47.1075 37.2273 48.1412Z" fill="#9EB8D7"/>
<path d="M37.1695 48.1366C37.66 47.1053 35.2121 44.9204 31.7019 43.2566C28.1917 41.5929 24.9485 41.0802 24.4579 42.1116C23.9673 43.143 26.4152 45.3278 29.9254 46.9916C33.4356 48.6554 36.6789 49.168 37.1695 48.1366Z" fill="#9DB7D7"/>
<path d="M37.1211 48.0882C36.6432 49.1219 33.4039 48.6183 29.9256 46.9485C26.4474 45.3052 24.0046 43.1317 24.5091 42.098C24.987 41.0644 28.2263 41.568 31.7046 43.2378C35.1829 44.9076 37.6256 47.081 37.1211 48.0882Z" fill="#9CB6D6"/>
<path d="M37.068 48.0882C36.5901 49.0954 33.3773 48.6183 29.9256 46.975C26.4739 45.3317 24.0577 43.1848 24.5357 42.1511C25.0136 41.1439 28.2263 41.621 31.678 43.2643C35.1563 44.9076 37.546 47.0545 37.068 48.0882Z" fill="#9BB6D6"/>
<path d="M37.0149 48.0617C36.537 49.0689 33.3508 48.5653 29.9256 46.9485C26.5005 45.3317 24.1108 43.1848 24.5888 42.1776C25.0667 41.1704 28.2529 41.674 31.678 43.2908C35.1032 44.9076 37.4928 47.028 37.0149 48.0617Z" fill="#9AB5D5"/>
<path d="M36.9776 48.0458C37.4556 47.0409 35.0834 44.9182 31.6792 43.3047C28.275 41.6911 25.1278 41.1977 24.6498 42.2027C24.1718 43.2076 26.544 45.3303 29.9482 46.9438C33.3525 48.5574 36.4996 49.0507 36.9776 48.0458Z" fill="#99B4D5"/>
<path d="M36.9087 48.0087C36.4308 49.0159 33.3242 48.5123 29.9522 46.922C26.5801 45.3317 24.217 43.2113 24.695 42.2306C25.1729 41.2234 28.2794 41.727 31.6515 43.3173C35.0501 44.9076 37.3866 47.0015 36.9087 48.0087Z" fill="#98B3D4"/>
<path d="M36.8577 47.989C37.3294 46.9973 35.0058 44.9108 31.6678 43.3286C28.3298 41.7465 25.2414 41.2679 24.7697 42.2596C24.298 43.2513 26.6216 45.3378 29.9596 46.9199C33.2976 48.5021 36.386 48.9807 36.8577 47.989Z" fill="#97B2D4"/>
<path d="M36.8291 47.9557C36.3511 48.9363 33.2977 48.4592 29.9787 46.8689C26.6598 45.3052 24.3498 43.2378 24.8277 42.2571C25.3056 41.2764 28.3591 41.7535 31.678 43.3438C34.9704 44.9076 37.2804 46.975 36.8291 47.9557Z" fill="#96B2D4"/>
<path d="M36.776 47.9291C36.3246 48.9098 33.2711 48.4327 29.9787 46.8689C26.6863 45.3052 24.4029 43.2643 24.8543 42.2836C25.3057 41.3029 28.3591 41.78 31.6515 43.3438C34.9439 44.9076 37.2273 46.9485 36.776 47.9291Z" fill="#94B1D3"/>
<path d="M36.7138 47.9207C37.1729 46.9554 34.9036 44.9209 31.645 43.3764C28.3865 41.8319 25.3728 41.3624 24.9136 42.3277C24.4545 43.2929 26.7239 45.3275 29.9824 46.872C33.2409 48.4164 36.2547 48.886 36.7138 47.9207Z" fill="#93B0D3"/>
<path d="M36.6697 47.8761C36.2184 48.8303 33.218 48.3532 30.0053 46.8424C26.766 45.3051 24.5091 43.2908 24.987 42.3366C25.4384 41.3824 28.4387 41.8595 31.6515 43.3703C34.8642 44.9076 37.1211 46.922 36.6697 47.8761Z" fill="#92AFD2"/>
<path d="M36.6179 47.8752C37.0707 46.9232 34.8392 44.9197 31.6336 43.4003C28.4281 41.881 25.4624 41.4211 25.0096 42.3731C24.5567 43.3252 26.7882 45.3286 29.9938 46.848C33.1993 48.3674 36.165 48.8273 36.6179 47.8752Z" fill="#91AED2"/>
<path d="M36.5699 47.8525C37.0164 46.9137 34.8013 44.9311 31.6223 43.4243C28.4432 41.9175 25.5041 41.4571 25.0575 42.3959C24.611 43.3347 26.8261 45.3173 30.0052 46.8241C33.1842 48.3309 36.1233 48.7913 36.5699 47.8525Z" fill="#90AED1"/>
<path d="M36.5219 47.8298C36.9622 46.9042 34.7634 44.9425 31.6108 43.4482C28.4583 41.954 25.5457 41.493 25.1055 42.4186C24.6652 43.3442 26.864 45.3059 30.0165 46.8001C33.1691 48.2944 36.0816 48.7553 36.5219 47.8298Z" fill="#8FADD1"/>
<path d="M36.4739 47.807C36.9142 46.8814 34.7369 44.9299 31.6108 43.4482C28.4848 41.9665 25.5937 41.5157 25.1534 42.4413C24.7132 43.3669 26.8905 45.3184 30.0165 46.8001C33.1426 48.2818 36.0337 48.7326 36.4739 47.807Z" fill="#8EACD0"/>
<path d="M36.4042 47.7701C35.9794 48.6713 33.1118 48.2472 30.0318 46.7629C26.9519 45.3052 24.7746 43.3703 25.226 42.4691C25.6508 41.5679 28.5184 41.992 31.5984 43.4763C34.6784 44.9341 36.8556 46.8424 36.4042 47.7701Z" fill="#8DABD0"/>
<path d="M36.354 47.7503C36.7817 46.8512 34.6479 44.9466 31.5881 43.4962C28.5283 42.0459 25.7011 41.5991 25.2734 42.4983C24.8457 43.3974 26.9795 45.3021 30.0393 46.7524C33.0992 48.2027 35.9264 48.6495 36.354 47.7503Z" fill="#8CAACF"/>
<path d="M36.3061 47.7275C36.7338 46.8284 34.6214 44.9339 31.5881 43.4962C28.5548 42.0584 25.749 41.6218 25.3214 42.521C24.8937 43.4201 27.006 45.3146 30.0393 46.7523C33.0727 48.19 35.8784 48.6267 36.3061 47.7275Z" fill="#8AA9CF"/>
<path d="M36.2449 47.6906C35.8201 48.5653 33.0322 48.1412 30.0318 46.7099C27.0315 45.2787 24.9339 43.3968 25.3588 42.5221C25.7836 41.6475 28.5715 42.0716 31.5718 43.5028C34.5722 44.9341 36.6698 46.8159 36.2449 47.6906Z" fill="#89A9CF"/>
<path d="M36.2184 47.6641C35.7935 48.5388 33.0587 48.1147 30.0584 46.7099C27.0846 45.3052 25.0136 43.4498 25.4119 42.5486C25.8367 41.674 28.5715 42.0981 31.5718 43.5028C34.5456 44.9341 36.6166 46.7894 36.2184 47.6641Z" fill="#88A8CE"/>
<path d="M36.1622 47.6594C36.5773 46.7867 34.5192 44.9443 31.5653 43.5442C28.6114 42.1441 25.8804 41.7166 25.4653 42.5893C25.0502 43.462 27.1082 45.3044 30.0621 46.7045C33.016 48.1046 35.7471 48.5321 36.1622 47.6594Z" fill="#87A7CE"/>
<path d="M36.1142 47.6365C36.523 46.7771 34.4813 44.9555 31.5539 43.568C28.6266 42.1805 25.922 41.7524 25.5132 42.6119C25.1044 43.4714 27.1461 45.2929 30.0735 46.6804C33.0009 48.068 35.7054 48.496 36.1142 47.6365Z" fill="#86A6CD"/>
<path d="M36.0591 47.5846C35.6608 48.4327 32.9791 48.0087 30.0849 46.6569C27.1908 45.3052 25.1729 43.4763 25.5712 42.6282C25.9694 41.78 28.6512 42.2041 31.5453 43.5558C34.4394 44.9341 36.4573 46.7364 36.0591 47.5846Z" fill="#85A5CD"/>
<path d="M36.006 47.5581C35.6077 48.4062 32.9525 47.9822 30.085 46.6304C27.2174 45.2787 25.226 43.4763 25.6243 42.6282C26.0226 41.78 28.6777 42.2041 31.5453 43.5558C34.4129 44.9341 36.4042 46.7364 36.006 47.5581Z" fill="#84A4CC"/>
<path d="M35.9463 47.5569C36.3425 46.7239 34.3658 44.9594 31.5311 43.6159C28.6965 42.2723 26.0773 41.8584 25.6811 42.6914C25.2849 43.5245 27.2616 45.289 30.0962 46.6325C32.9309 47.9761 35.55 48.39 35.9463 47.5569Z" fill="#82A4CC"/>
<path d="M35.8997 47.5316C35.5015 48.3532 32.8994 47.9556 30.0849 46.6304C27.2705 45.3051 25.3056 43.5558 25.7039 42.7077C26.1022 41.886 28.7043 42.2836 31.5187 43.6088C34.3332 44.9341 36.298 46.6834 35.8997 47.5316Z" fill="#81A3CB"/>
<path d="M35.8504 47.5114C36.2403 46.6916 34.3014 44.9582 31.5198 43.6397C28.7381 42.3213 26.167 41.9171 25.7771 42.7369C25.3871 43.5567 27.326 45.2901 30.1077 46.6085C32.8893 47.927 35.4604 48.3312 35.8504 47.5114Z" fill="#80A2CB"/>
<path d="M35.7935 47.4786C35.3953 48.3002 32.8729 47.9026 30.1115 46.5774C27.3501 45.2786 25.4384 43.5558 25.8367 42.7342C26.235 41.9125 28.7574 42.3101 31.5187 43.6353C34.2801 44.9606 36.1918 46.6569 35.7935 47.4786Z" fill="#7FA1CA"/>
<path d="M35.7404 47.4521C35.3687 48.2472 32.8463 47.8496 30.1115 46.5774C27.3767 45.2786 25.4915 43.5823 25.8632 42.7872C26.235 41.992 28.7574 42.3896 31.4922 43.6618C34.227 44.9341 36.1387 46.6569 35.7404 47.4521Z" fill="#7EA0CA"/>
<path d="M35.7065 47.4434C36.0838 46.65 34.1992 44.9686 31.497 43.6878C28.7948 42.407 26.2983 42.0119 25.921 42.8053C25.5436 43.5986 27.4282 45.28 30.1304 46.5608C32.8326 47.8416 35.3291 48.2368 35.7065 47.4434Z" fill="#7D9FC9"/>
<path d="M35.6342 47.3991C35.2625 48.1942 32.7932 47.7966 30.1115 46.5244C27.4298 45.2522 25.5712 43.5823 25.9429 42.8137C26.3146 42.0185 28.7839 42.4161 31.4656 43.6884C34.1739 44.9606 36.0325 46.6039 35.6342 47.3991Z" fill="#7B9EC9"/>
<path d="M35.6077 47.3725C35.236 48.1412 32.7932 47.7701 30.1646 46.5244C27.5094 45.2786 25.6774 43.6353 26.0491 42.8402C26.4208 42.0715 28.8636 42.4426 31.4922 43.6883C34.1208 44.9606 35.9794 46.6039 35.6077 47.3725Z" fill="#7A9EC8"/>
<path d="M35.5546 47.346C35.1829 48.1147 32.7667 47.7436 30.1646 46.4979C27.5625 45.2521 25.7305 43.6353 26.1022 42.8667C26.4739 42.098 28.8901 42.4691 31.4922 43.7149C34.0942 44.9606 35.8998 46.5774 35.5546 47.346Z" fill="#799DC8"/>
<path d="M35.5015 47.3195C35.1298 48.0882 32.7401 47.7171 30.1646 46.4714C27.5891 45.2521 25.7836 43.6353 26.1288 42.8667C26.5005 42.098 28.8901 42.4691 31.4656 43.7149C34.0677 44.9606 35.8467 46.5774 35.5015 47.3195Z" fill="#789CC7"/>
<path d="M35.4426 47.3184C35.8011 46.5647 34.0193 44.9714 31.4628 43.7597C28.9063 42.5479 26.5433 42.1766 26.1848 42.9303C25.8263 43.684 27.6081 45.2773 30.1646 46.489C32.7211 47.7008 35.0841 48.0721 35.4426 47.3184Z" fill="#779BC7"/>
<path d="M35.3953 47.293C35.0501 48.0352 32.7136 47.6641 30.1646 46.4714C27.6422 45.2787 25.8632 43.6884 26.235 42.9462C26.6067 42.2041 28.9167 42.5751 31.4656 43.7679C33.988 44.9606 35.7404 46.5244 35.3953 47.293Z" fill="#759AC6"/>
<path d="M35.3422 47.2665C34.997 48.0087 32.687 47.6376 30.1646 46.4449C27.6687 45.2521 25.9163 43.6884 26.2615 42.9727C26.6067 42.2306 28.9167 42.6016 31.4391 43.7944C33.9615 44.9606 35.6873 46.5244 35.3422 47.2665Z" fill="#7499C6"/>
<path d="M35.2987 47.25C35.6447 46.5227 33.9171 44.9814 31.4401 43.8074C28.963 42.6333 26.6746 42.2711 26.3287 42.9984C25.9828 43.7256 27.7104 45.2669 30.1874 46.441C32.6644 47.615 34.9528 47.9772 35.2987 47.25Z" fill="#7398C5"/>
<path d="M35.236 47.2135C34.8908 47.9291 32.6339 47.5846 30.1911 46.4184C27.7484 45.2521 26.0491 43.7414 26.3943 43.0257C26.7394 42.3101 28.9963 42.6547 31.4391 43.8209C33.8818 44.9606 35.5811 46.4979 35.236 47.2135Z" fill="#7297C5"/>
<path d="M35.1829 47.187C34.8377 47.9026 32.6074 47.5581 30.1912 46.3919C27.775 45.2521 26.1022 43.7414 26.4208 43.0257C26.7394 42.3101 28.9963 42.6547 31.4125 43.8209C33.8553 44.9606 35.528 46.4714 35.1829 47.187Z" fill="#7197C4"/>
<path d="M35.1298 47.1605C34.7846 47.8761 32.5808 47.5316 30.1912 46.3918C27.8015 45.2521 26.1288 43.7679 26.4739 43.0522C26.8191 42.3366 29.0229 42.6812 31.4125 43.8209C33.8022 44.9606 35.4749 46.4449 35.1298 47.1605Z" fill="#6F96C4"/>
<path d="M35.0766 47.134C34.758 47.8231 32.5542 47.4786 30.1911 46.3653C27.8281 45.2521 26.1819 43.7679 26.527 43.0787C26.8456 42.3896 29.0494 42.7342 31.4125 43.8474C33.7756 44.9606 35.4218 46.4449 35.0766 47.134Z" fill="#6E95C3"/>
<path d="M35.0235 47.1075C34.7049 47.7966 32.5277 47.452 30.2177 46.3388C27.8812 45.2256 26.2615 43.7679 26.5801 43.0787C26.8987 42.3896 29.076 42.7342 31.386 43.8474C33.7491 44.9606 35.3687 46.4184 35.0235 47.1075Z" fill="#6D94C3"/>
<path d="M34.997 47.081C34.6784 47.7701 32.5542 47.4255 30.2442 46.3388C27.9343 45.2521 26.3412 43.8209 26.6598 43.1317C26.9784 42.4426 29.1025 42.7872 31.4125 43.8739C33.7225 44.9606 35.3156 46.4184 34.997 47.081Z" fill="#6C93C2"/>
<path d="M34.9439 47.0545C34.6253 47.7171 32.5277 47.399 30.2442 46.3123C27.9608 45.2256 26.3943 43.8209 26.7129 43.1317C27.0315 42.4691 29.1291 42.7872 31.4125 43.8739C33.6694 44.9606 35.2625 46.3919 34.9439 47.0545Z" fill="#6B92C2"/>
<path d="M34.891 47.0569C35.2055 46.3958 33.6349 44.9946 31.3831 43.9273C29.1313 42.86 27.0509 42.5307 26.7364 43.1918C26.4219 43.853 27.9925 45.2542 30.2443 46.3215C32.4961 47.3888 34.5765 47.7181 34.891 47.0569Z" fill="#6991C1"/>
<path d="M34.8377 47.028C34.5191 47.6906 32.4746 47.3725 30.2443 46.3123C28.0139 45.2521 26.4739 43.8739 26.7925 43.2113C27.1112 42.5486 29.1556 42.8667 31.386 43.9269C33.6163 44.9871 35.1563 46.3654 34.8377 47.028Z" fill="#6890C1"/>
<path d="M34.7846 47.0015C34.466 47.6376 32.448 47.3195 30.2708 46.2858C28.067 45.2521 26.5536 43.8739 26.8456 43.2378C27.1643 42.6016 29.1822 42.9197 31.3594 43.9534C33.5632 44.9871 35.1032 46.3388 34.7846 47.0015Z" fill="#678FC0"/>
<path d="M34.7315 46.975C34.4394 47.6111 32.4215 47.293 30.2708 46.2858C28.0936 45.2521 26.6067 43.9004 26.8988 43.2643C27.1908 42.6282 29.2087 42.9462 31.3594 43.9534C33.5367 44.9871 35.0236 46.3389 34.7315 46.975Z" fill="#668FC0"/>
<path d="M34.6784 46.9485C34.3863 47.5846 32.3949 47.2665 30.2708 46.2593C28.1467 45.2521 26.6332 43.9269 26.9519 43.2908C27.2439 42.6547 29.2353 42.9727 31.3594 43.9799C33.4836 44.9871 34.9704 46.3123 34.6784 46.9485Z" fill="#648EBF"/>
<path d="M34.6272 46.9317C34.9228 46.3102 33.455 44.9972 31.3489 43.9989C29.2428 43.0007 27.2958 42.6952 27.0002 43.3167C26.7046 43.9382 28.1723 45.2512 30.2784 46.2495C32.3846 47.2477 34.3316 47.5532 34.6272 46.9317Z" fill="#638DBF"/>
<path d="M34.5722 46.8955C34.2801 47.5051 32.3684 47.2135 30.2708 46.2328C28.1998 45.2521 26.7394 43.9534 27.0315 43.3438C27.3236 42.7342 29.2353 43.0257 31.3329 44.0064C33.4305 44.9871 34.8642 46.2858 34.5722 46.8955Z" fill="#628CBE"/>
<path d="M34.5191 46.869C34.227 47.4786 32.3418 47.187 30.2708 46.2063C28.2263 45.2256 26.7925 43.9534 27.0846 43.3438C27.3767 42.7342 29.2618 43.0257 31.3329 44.0064C33.4039 44.9871 34.8111 46.2593 34.5191 46.869Z" fill="#618BBE"/>
<path d="M34.466 46.8424C34.1739 47.452 32.3153 47.134 30.2974 46.1798C28.2794 45.2256 26.8722 43.9534 27.1377 43.3703C27.4298 42.7607 29.2884 43.0787 31.3063 44.0329C33.3508 44.9871 34.758 46.2593 34.466 46.8424Z" fill="#5F8ABD"/>
<path d="M34.4353 46.8406C34.7183 46.2456 33.3263 44.9947 31.3261 44.0466C29.326 43.0986 27.4751 42.8124 27.1921 43.4075C26.9091 44.0025 28.3011 45.2534 30.3012 46.2014C32.3014 47.1494 34.1523 47.4356 34.4353 46.8406Z" fill="#5E89BD"/>
<path d="M34.3863 46.7894C34.1208 47.3726 32.2887 47.081 30.3239 46.1533C28.3591 45.2257 26.9784 44.0064 27.2705 43.4233C27.536 42.8402 29.368 43.1318 31.3329 44.0594C33.2711 44.9871 34.6518 46.2063 34.3863 46.7894Z" fill="#5D88BC"/>
<path d="M34.3332 46.7629C34.0677 47.346 32.2622 47.0545 30.3239 46.1268C28.3856 45.1991 27.0315 44.0064 27.297 43.4233C27.5625 42.8402 29.3681 43.1318 31.3063 44.0594C33.2446 44.9871 34.5987 46.2063 34.3332 46.7629Z" fill="#5C87BC"/>
<path d="M34.2801 46.7629C34.0146 47.3195 32.2356 47.0545 30.3239 46.1533C28.4122 45.2521 27.0846 44.0594 27.3501 43.5028C27.6156 42.9462 29.3946 43.2113 31.3063 44.1124C33.218 45.0136 34.5456 46.1798 34.2801 46.7629Z" fill="#5A86BB"/>
<path d="M34.227 46.7364C33.9615 47.293 32.2091 47.028 30.3505 46.1268C28.4653 45.2256 27.1643 44.0594 27.4298 43.5028C27.6953 42.9462 29.4477 43.2113 31.3063 44.1124C33.1649 44.9871 34.4925 46.1798 34.227 46.7364Z" fill="#5985BB"/>
<path d="M34.1739 46.7099C33.9084 47.2665 32.2091 47.0015 30.3505 46.1003C28.4919 45.2256 27.1908 44.0594 27.4563 43.5293C27.7219 42.9727 29.4212 43.2378 31.2798 44.1389C33.1384 44.9871 34.4394 46.1533 34.1739 46.7099Z" fill="#5884BA"/>
<path d="M34.1208 46.6834C33.8553 47.2135 32.1825 46.9485 30.3505 46.1003C28.5184 45.2256 27.2439 44.0859 27.5094 43.5558C27.7749 43.0257 29.4477 43.2908 31.2798 44.1389C33.1118 44.9871 34.3863 46.1268 34.1208 46.6834Z" fill="#5784BA"/>
<path d="M34.0677 46.6569C33.8022 47.187 32.156 46.922 30.3505 46.0738C28.545 45.2256 27.297 44.1124 27.5625 43.5558C27.8281 43.0257 29.4743 43.2908 31.2798 44.1389C33.0587 45.0136 34.3332 46.1268 34.0677 46.6569Z" fill="#5583B9"/>
<path d="M34.0146 46.6304C33.7756 47.1605 32.1294 46.8955 30.3505 46.0473C28.5715 45.1991 27.3501 44.1124 27.5891 43.5823C27.8281 43.0522 29.4743 43.3173 31.2532 44.1654C33.0322 45.0136 34.2801 46.1003 34.0146 46.6304Z" fill="#5482B9"/>
<path d="M33.9615 46.6039C33.7225 47.1075 32.1029 46.8689 30.3505 46.0473C28.5981 45.2256 27.4032 44.1389 27.6422 43.6088C27.8812 43.1052 29.5008 43.3438 31.2532 44.1654C33.0056 45.0136 34.2004 46.1003 33.9615 46.6039Z" fill="#5381B8"/>
<path d="M33.9084 46.5774C33.6694 47.081 32.0763 46.8425 30.377 46.0208C28.6512 45.1991 27.4563 44.1389 27.6953 43.6353C27.9343 43.1318 29.5274 43.3703 31.2267 44.192C32.9525 45.0136 34.1473 46.0738 33.9084 46.5774Z" fill="#5280B8"/>
<path d="M33.8553 46.5509C33.6163 47.0545 32.0498 46.8159 30.377 45.9943C28.6777 45.1991 27.5094 44.1389 27.7484 43.6353C27.9874 43.1318 29.5539 43.3703 31.2267 44.192C32.926 45.0136 34.0942 46.0473 33.8553 46.5509Z" fill="#507FB7"/>
<path d="M33.8022 46.5244C33.5632 47.0015 32.0232 46.7629 30.377 45.9943C28.7308 45.1991 27.5625 44.1654 27.8015 43.6884C28.0405 43.2113 29.5805 43.4498 31.2267 44.2185C32.8994 45.0136 34.0411 46.0473 33.8022 46.5244Z" fill="#4F7EB7"/>
<path d="M33.7756 46.4979C33.5367 46.975 32.0498 46.7364 30.4036 45.9678C28.7839 45.1991 27.6422 44.1919 27.8546 43.6884C28.0936 43.2113 29.5805 43.4498 31.2267 44.2185C32.8463 45.0136 33.988 46.0208 33.7756 46.4979Z" fill="#4E7DB6"/>
<path d="M33.7225 46.4714C33.5101 46.9485 32.0232 46.7099 30.4036 45.9413C28.8105 45.1726 27.6953 44.1919 27.9077 43.7149C28.1201 43.2378 29.607 43.4763 31.2267 44.245C32.8198 45.0136 33.9349 46.0208 33.7225 46.4714Z" fill="#4C7CB5"/>
<path d="M33.6694 46.4714C33.457 46.9485 31.9967 46.7099 30.4301 45.9678C28.8636 45.2256 27.7484 44.245 27.9874 43.7679C28.1998 43.2908 29.6601 43.5293 31.2267 44.2715C32.7932 45.0136 33.8818 45.9943 33.6694 46.4714Z" fill="#4B7BB5"/>
<path d="M33.6163 46.4449C33.4039 46.8955 31.9701 46.6834 30.4301 45.9413C28.8901 45.1991 27.8015 44.245 28.0139 43.7944C28.2263 43.3438 29.6601 43.5558 31.2001 44.298C32.7401 45.0136 33.8287 45.9678 33.6163 46.4449Z" fill="#4A7AB4"/>
<path d="M33.5632 46.4184C33.3508 46.8689 31.9436 46.6569 30.4301 45.9148C28.9167 45.1991 27.8546 44.245 28.067 43.7944C28.2794 43.3438 29.6867 43.5558 31.2001 44.298C32.7136 45.0136 33.7756 45.9678 33.5632 46.4184Z" fill="#4979B4"/>
<path d="M33.5101 46.3919C33.2977 46.8424 31.917 46.6039 30.4301 45.9148C28.9432 45.1991 27.9077 44.2715 28.1201 43.8474C28.3325 43.3968 29.7132 43.6353 31.2001 44.3245C32.687 45.0136 33.7225 45.9413 33.5101 46.3919Z" fill="#4778B3"/>
<path d="M33.457 46.3654C33.2446 46.7894 31.8905 46.5774 30.4301 45.8883C28.9698 45.1991 27.9608 44.2715 28.1467 43.8474C28.3591 43.4233 29.7132 43.6353 31.1736 44.3245C32.6339 45.0136 33.6694 45.9413 33.457 46.3654Z" fill="#4677B3"/>
<path d="M33.4039 46.3388C33.1915 46.7629 31.8905 46.5509 30.4567 45.8618C29.0229 45.1726 28.0139 44.298 28.2263 43.8739C28.4387 43.4498 29.7398 43.6618 31.1736 44.351C32.6074 45.0136 33.6163 45.9148 33.4039 46.3388Z" fill="#4576B2"/>
<path d="M33.3508 46.3123C33.1649 46.7364 31.8639 46.5244 30.4567 45.8618C29.0494 45.1991 28.067 44.3245 28.2794 43.9004C28.4653 43.4763 29.7663 43.6884 31.1736 44.351C32.5808 45.0136 33.5632 45.8883 33.3508 46.3123Z" fill="#4375B2"/>
<path d="M33.2977 46.2858C33.1118 46.6834 31.8374 46.4979 30.4567 45.8353C29.076 45.1726 28.1201 44.3245 28.306 43.9269C28.4919 43.5293 29.7663 43.7149 31.147 44.3775C32.5277 45.0136 33.5101 45.8883 33.2977 46.2858Z" fill="#4274B1"/>
<path d="M33.2446 46.2593C33.0587 46.6569 31.8108 46.4714 30.4567 45.8353C29.1025 45.1991 28.1732 44.351 28.3591 43.9534C28.545 43.5558 29.7929 43.7414 31.147 44.3775C32.5011 45.0401 33.457 45.8618 33.2446 46.2593Z" fill="#4173B1"/>
<path d="M33.1915 46.2328C33.0056 46.6304 31.7843 46.4184 30.4567 45.8088C29.1291 45.1726 28.2263 44.351 28.4122 43.9799C28.5981 43.5823 29.8194 43.7944 31.147 44.404C32.4746 45.0401 33.3774 45.8618 33.1915 46.2328Z" fill="#3F72B0"/>
<path d="M33.1642 46.2382C33.3466 45.8547 32.4421 45.0451 31.144 44.4298C29.8459 43.8146 28.6457 43.6266 28.4633 44.0101C28.2809 44.3935 29.1854 45.2032 30.4835 45.8185C31.7816 46.4337 32.9818 46.6217 33.1642 46.2382Z" fill="#3E72B0"/>
<path d="M33.1118 46.2063C32.926 46.5774 31.7577 46.3919 30.5098 45.8087C29.2353 45.1991 28.3591 44.4305 28.5449 44.0594C28.7308 43.6883 29.8991 43.8739 31.147 44.457C32.3949 45.0401 33.2711 45.8087 33.1118 46.2063Z" fill="#3D71AF"/>
<path d="M33.0587 46.1798C32.8729 46.5509 31.7311 46.3654 30.5098 45.7822C29.2618 45.1991 28.4122 44.4305 28.5981 44.0594C28.7839 43.6883 29.9256 43.8739 31.147 44.457C32.3684 45.0401 33.218 45.8087 33.0587 46.1798Z" fill="#3B70AE"/>
<path d="M33.0056 46.1533C32.8463 46.4979 31.7311 46.3388 30.5098 45.7557C29.2884 45.1726 28.4653 44.4305 28.6246 44.0859C28.7839 43.7414 29.8991 43.9004 31.1205 44.4835C32.3153 45.0401 33.1649 45.7822 33.0056 46.1533Z" fill="#3A6FAE"/>
<path d="M32.9525 46.1268C32.7932 46.4714 31.7046 46.3123 30.5098 45.7557C29.3415 45.1991 28.5184 44.457 28.6777 44.1124C28.837 43.7679 29.9256 43.9269 31.1205 44.4835C32.2887 45.0401 33.1118 45.7822 32.9525 46.1268Z" fill="#396EAD"/>
<path d="M32.8994 46.1003C32.7401 46.4449 31.678 46.2858 30.5098 45.7292C29.368 45.1726 28.545 44.457 28.7043 44.1124C28.8636 43.7679 29.9256 43.9269 31.0939 44.4835C32.2622 45.0401 33.0587 45.7557 32.8994 46.1003Z" fill="#376DAD"/>
<path d="M32.8463 46.0738C32.687 46.4184 31.6515 46.2328 30.5363 45.7027C29.4212 45.1726 28.6246 44.457 28.7839 44.1389C28.9432 43.7944 29.9787 43.9799 31.0939 44.51C32.2091 45.0401 33.0056 45.7557 32.8463 46.0738Z" fill="#366CAC"/>
<path d="M32.7932 46.0473C32.6339 46.3654 31.6249 46.2063 30.5363 45.7027C29.4477 45.1726 28.6777 44.51 28.837 44.1654C28.9963 43.8474 30.0053 44.0064 31.0939 44.51C32.1825 45.0401 32.9525 45.7292 32.7932 46.0473Z" fill="#356BAC"/>
<path d="M32.7401 46.0208C32.5808 46.3389 31.5984 46.1798 30.5363 45.6762C29.4743 45.1726 28.7308 44.51 28.8636 44.1919C29.0229 43.8739 30.0053 44.0329 31.0674 44.5365C32.156 45.0401 32.8994 45.7027 32.7401 46.0208Z" fill="#336AAB"/>
<path d="M32.687 45.9943C32.5542 46.3123 31.5718 46.1533 30.5363 45.6497C29.5008 45.1461 28.7839 44.51 28.9167 44.1919C29.0494 43.8739 30.0318 44.0329 31.0674 44.5365C32.1029 45.0401 32.8463 45.7027 32.687 45.9943Z" fill="#3269AB"/>
<path d="M32.6339 45.9678C32.5011 46.2593 31.5453 46.1268 30.5363 45.6497C29.5274 45.1726 28.8105 44.5365 28.9698 44.245C29.1025 43.9534 30.0584 44.0859 31.0674 44.563C32.0763 45.0401 32.7932 45.6762 32.6339 45.9678Z" fill="#3168AA"/>
<path d="M32.5808 45.9413C32.448 46.2328 31.5453 46.1003 30.5363 45.6232C29.5539 45.1461 28.8636 44.5365 28.9963 44.245C29.1291 43.9534 30.0318 44.0859 31.0408 44.563C32.0498 45.0401 32.7401 45.6762 32.5808 45.9413Z" fill="#2F67AA"/>
<path d="M32.5406 45.9428C32.6726 45.6651 32.0066 45.0735 31.0529 44.6215C30.0991 44.1695 29.2189 44.0281 29.0869 44.3058C28.9548 44.5835 29.6208 45.175 30.5746 45.6271C31.5283 46.0791 32.4085 46.2204 32.5406 45.9428Z" fill="#2E66A9"/>
<path d="M32.5011 45.9148C32.3684 46.1798 31.5187 46.0473 30.5894 45.6232C29.6601 45.1726 29.0229 44.616 29.1556 44.3245C29.2884 44.0594 30.138 44.1919 31.0674 44.616C31.9701 45.0666 32.6339 45.6232 32.5011 45.9148Z" fill="#2D65A8"/>
<path d="M32.448 45.8883C32.3153 46.1533 31.4922 46.0208 30.5894 45.5967C29.6867 45.1726 29.076 44.616 29.1822 44.351C29.3149 44.0859 30.138 44.2185 31.0408 44.6425C31.9436 45.0666 32.5542 45.6232 32.448 45.8883Z" fill="#2B64A8"/>
<path d="M32.3949 45.8618C32.2622 46.1268 31.4656 45.9943 30.5894 45.5702C29.7132 45.1461 29.1025 44.616 29.2353 44.351C29.3681 44.0859 30.1646 44.2185 31.0408 44.6425C31.917 45.0666 32.5011 45.5967 32.3949 45.8618Z" fill="#2A63A7"/>
<path d="M32.3418 45.8353C32.2356 46.0738 31.4391 45.9678 30.5894 45.5702C29.7398 45.1726 29.1556 44.6425 29.2884 44.404C29.3946 44.1654 30.1912 44.2715 31.0408 44.669C31.8639 45.0666 32.448 45.5967 32.3418 45.8353Z" fill="#2962A7"/>
<path d="M32.2887 45.8087C32.1825 46.0473 31.4125 45.9413 30.616 45.5437C29.7929 45.1461 29.2353 44.6425 29.3415 44.404C29.4477 44.1654 30.2177 44.2715 31.0143 44.669C31.8374 45.0666 32.3949 45.5702 32.2887 45.8087Z" fill="#2761A6"/>
<path d="M32.2356 45.7822C32.1294 46.0208 31.386 45.8883 30.616 45.5172C29.8194 45.1461 29.2884 44.6425 29.3946 44.4305C29.5008 44.192 30.2443 44.3245 31.0143 44.6955C31.8108 45.0666 32.3418 45.5437 32.2356 45.7822Z" fill="#2660A6"/>
<path d="M32.1825 45.7557C32.0763 45.9678 31.386 45.8618 30.616 45.5172C29.846 45.1461 29.3415 44.6955 29.4477 44.457C29.5539 44.2449 30.2443 44.351 31.0143 44.6955C31.7577 45.0666 32.2887 45.5437 32.1825 45.7557Z" fill="#255FA5"/>
<path d="M32.1294 45.7292C32.0232 45.9413 31.3594 45.8352 30.616 45.4907C29.8725 45.1461 29.3681 44.6955 29.4743 44.4835C29.5805 44.2715 30.2443 44.3775 30.9877 44.722C31.7311 45.0666 32.2356 45.5172 32.1294 45.7292Z" fill="#235EA4"/>
<path d="M32.0763 45.7027C31.9701 45.9148 31.3329 45.8087 30.616 45.4642C29.9256 45.1196 29.4211 44.6955 29.5274 44.4835C29.6336 44.2715 30.2708 44.3775 30.9877 44.722C31.7046 45.0666 32.1825 45.5172 32.0763 45.7027Z" fill="#225DA4"/>
<path d="M32.0232 45.6762C31.917 45.8883 31.3063 45.7822 30.6425 45.4642C29.9787 45.1461 29.5008 44.722 29.5805 44.5365C29.6867 44.3245 30.2974 44.4305 30.9611 44.7485C31.6515 45.0666 32.1294 45.4907 32.0232 45.6762Z" fill="#205CA3"/>
<path d="M31.9701 45.6762C31.8905 45.8618 31.2798 45.7822 30.6425 45.4642C30.0053 45.1461 29.5539 44.7486 29.6336 44.563C29.7132 44.3775 30.3239 44.457 30.9612 44.7751C31.6249 45.0666 32.0763 45.4642 31.9701 45.6762Z" fill="#1F5BA3"/>
<path d="M31.9436 45.6497C31.8639 45.8353 31.2798 45.7557 30.6691 45.4377C30.0584 45.1461 29.607 44.7485 29.7132 44.5895C29.7929 44.404 30.377 44.4835 30.9877 44.8016C31.5984 45.0666 32.0232 45.4642 31.9436 45.6497Z" fill="#1E5AA2"/>
<path d="M31.893 45.6358C31.9748 45.4639 31.5578 45.0955 30.9618 44.813C30.3657 44.5305 29.8162 44.4408 29.7344 44.6127C29.6527 44.7846 30.0696 45.153 30.6657 45.4355C31.2617 45.718 31.8112 45.8077 31.893 45.6358Z" fill="#1C59A2"/>
<path d="M31.8374 45.5967C31.7577 45.7557 31.2267 45.6762 30.6691 45.4112C30.1115 45.1461 29.7132 44.8016 29.7929 44.616C29.8725 44.457 30.4036 44.5365 30.9612 44.8016C31.5187 45.0666 31.917 45.4377 31.8374 45.5967Z" fill="#1B58A1"/>
<path d="M31.7842 45.5702C31.7046 45.7292 31.2267 45.6497 30.6691 45.3847C30.138 45.1196 29.7663 44.8016 29.846 44.6425C29.9256 44.4835 30.4036 44.563 30.9612 44.8281C31.4922 45.0666 31.8639 45.4112 31.7842 45.5702Z" fill="#1957A0"/>
<path d="M31.7311 45.5437C31.6515 45.7027 31.2001 45.6232 30.6956 45.3847C30.1912 45.1461 29.846 44.8281 29.8991 44.669C29.9787 44.51 30.4301 44.5895 30.9346 44.8281C31.4391 45.0666 31.8108 45.3847 31.7311 45.5437Z" fill="#1856A0"/>
<path d="M31.678 45.5172C31.5984 45.6497 31.1736 45.5967 30.6956 45.3582C30.2177 45.1196 29.8725 44.8281 29.9522 44.6955C30.0318 44.563 30.4567 44.616 30.9346 44.8546C31.4125 45.0931 31.7577 45.3847 31.678 45.5172Z" fill="#17559F"/>
<path d="M31.6249 45.4907C31.5718 45.6232 31.147 45.5702 30.6956 45.3582C30.2443 45.1461 29.9256 44.8546 30.0053 44.722C30.0584 44.5895 30.4832 44.6425 30.9346 44.8546C31.386 45.0931 31.678 45.3582 31.6249 45.4907Z" fill="#15549F"/>
<path d="M31.5718 45.4642C31.5187 45.5967 31.1205 45.5172 30.6956 45.3317C30.2708 45.1196 29.9787 44.8811 30.0318 44.7485C30.085 44.616 30.4832 44.6955 30.908 44.8811C31.3329 45.0931 31.6249 45.3582 31.5718 45.4642Z" fill="#14539E"/>
<path d="M31.5187 45.4377C31.4656 45.5437 31.0939 45.4907 30.6956 45.3051C30.2974 45.1196 30.0318 44.8811 30.0849 44.7485C30.138 44.6425 30.5098 44.6955 30.908 44.8811C31.3063 45.0931 31.5718 45.3317 31.5187 45.4377Z" fill="#12529E"/>
<path d="M31.4656 45.4112C31.4125 45.5172 31.0674 45.4642 30.7222 45.3052C30.3505 45.1196 30.1115 44.9076 30.1646 44.8016C30.2177 44.6955 30.5629 44.7486 30.908 44.9076C31.2798 45.0931 31.5187 45.3052 31.4656 45.4112Z" fill="#11519D"/>
<path d="M31.4125 45.4112C31.3594 45.5172 31.0408 45.4642 30.7222 45.3052C30.377 45.1461 30.138 44.9341 30.1912 44.8281C30.2443 44.7221 30.5629 44.7751 30.8815 44.9341C31.2267 45.0931 31.4656 45.3052 31.4125 45.4112Z" fill="#104F9C"/>
<path d="M31.3594 45.3847C31.3063 45.4642 31.0408 45.4377 30.7222 45.2786C30.4036 45.1196 30.1911 44.9341 30.2443 44.8546C30.2974 44.7751 30.5629 44.8016 30.8815 44.9606C31.2001 45.0931 31.4125 45.2786 31.3594 45.3847Z" fill="#0E4E9C"/>
<path d="M31.3329 45.3582C31.3063 45.4377 31.0408 45.4112 30.7487 45.2787C30.4567 45.1461 30.2708 44.9606 30.3239 44.8811C30.3505 44.8016 30.616 44.8281 30.908 44.9606C31.1736 45.0931 31.3594 45.2787 31.3329 45.3582Z" fill="#0D4D9B"/>
<path d="M31.2798 45.3316C31.2532 45.4112 31.0142 45.3582 30.7487 45.2521C30.4832 45.1196 30.3239 44.9871 30.3505 44.9076C30.377 44.8281 30.616 44.8811 30.8815 44.9871C31.1205 45.0931 31.3063 45.2521 31.2798 45.3316Z" fill="#0B4C9B"/>
<path d="M31.2267 45.3051C31.2001 45.3847 30.9877 45.3317 30.7753 45.2256C30.5629 45.1196 30.4036 44.9871 30.4301 44.9076C30.4567 44.8281 30.6691 44.8811 30.8815 44.9871C31.0939 45.0931 31.2532 45.2256 31.2267 45.3051Z" fill="#0A4B9A"/>
<path d="M31.1736 45.2787C31.147 45.3317 30.9611 45.3052 30.7753 45.2256C30.5894 45.1196 30.4301 45.0136 30.4567 44.9606C30.4832 44.9076 30.6691 44.9341 30.8549 45.0136C31.0674 45.0931 31.2001 45.2256 31.1736 45.2787Z" fill="#094A9A"/>
<path d="M31.1205 45.2521C31.0939 45.3052 30.9346 45.2787 30.7753 45.1991C30.616 45.1196 30.4832 45.0136 30.5098 44.9606C30.5363 44.9076 30.6956 44.9341 30.8549 45.0136C31.0143 45.0931 31.147 45.1991 31.1205 45.2521Z" fill="#074999"/>
<path d="M31.0674 45.2256C31.0408 45.2786 30.908 45.2521 30.7753 45.1726C30.6425 45.0931 30.5363 45.0136 30.5629 44.9871C30.5894 44.9341 30.7222 44.9606 30.8549 45.0401C30.9877 45.0931 31.0939 45.1991 31.0674 45.2256Z" fill="#064898"/>
<path d="M31.0143 45.1991C30.9877 45.2256 30.8815 45.2256 30.7753 45.1726C30.6691 45.1196 30.5894 45.0401 30.5894 45.0136C30.616 44.9871 30.7222 44.9871 30.8284 45.0401C30.9611 45.0931 31.0408 45.1726 31.0143 45.1991Z" fill="#044798"/>
<path d="M30.9611 45.1726C30.9611 45.1991 30.8815 45.1726 30.7753 45.1461C30.6956 45.0931 30.6425 45.0666 30.6425 45.0401C30.6425 45.0136 30.7222 45.0401 30.8284 45.0666C30.908 45.0931 30.9877 45.1461 30.9611 45.1726Z" fill="#034697"/>
<path d="M30.908 45.1461C30.908 45.1726 30.8549 45.1461 30.8018 45.1196C30.7487 45.0931 30.6956 45.0666 30.7222 45.0401C30.7222 45.0136 30.7753 45.0401 30.8284 45.0666C30.8815 45.0931 30.9346 45.1461 30.908 45.1461Z" fill="#014597"/>
<path d="M30.8549 45.1461C30.8549 45.1461 30.8284 45.1461 30.8018 45.1461C30.7753 45.1196 30.7487 45.1196 30.7487 45.1196C30.7487 45.1196 30.7753 45.1196 30.8018 45.1196C30.8549 45.1196 30.8549 45.1196 30.8549 45.1461Z" fill="#004496"/>
<path opacity="0.4" d="M59.159 21.5567L30.5363 38.0693C29.9522 38.4139 29.1025 38.4404 28.5981 38.1488L11.074 28.0504C10.5695 27.7589 10.6492 27.2553 11.2067 26.9372L39.8028 10.4246C40.387 10.08 41.2366 10.0535 41.7411 10.3451L59.2652 20.4435C59.7962 20.735 59.7166 21.2386 59.159 21.5567Z" fill="white"/>
<path opacity="0.2" d="M56.1587 21.9013L31.0939 36.3465C30.5894 36.638 29.8194 36.6645 29.3946 36.426L14.0478 27.5733C13.623 27.3348 13.6761 26.8842 14.1805 26.5926L39.2453 12.1474C39.7498 11.8559 40.5197 11.8294 40.9446 12.0679L56.2914 20.9206C56.7162 21.1856 56.6631 21.6097 56.1587 21.9013Z" fill="#041860"/>
<path d="M29.4212 38.4404C29.076 38.4404 28.7574 38.3608 28.5184 38.2283L10.9943 28.1299C10.7554 27.9974 10.5961 27.7854 10.5961 27.5468C10.5961 27.2818 10.7819 27.0167 11.1271 26.8312L39.7497 10.3186C40.3604 9.97402 41.2632 9.94752 41.7942 10.2391L59.3183 20.3375C59.5573 20.47 59.7166 20.682 59.7166 20.9206C59.7166 21.1856 59.5307 21.4507 59.1855 21.6362L30.5629 38.1488C30.2443 38.3343 29.8194 38.4404 29.4212 38.4404ZM40.918 10.2391C40.5463 10.2391 40.1746 10.3186 39.8825 10.5041L11.2333 27.0167C10.9678 27.1757 10.8085 27.3613 10.8085 27.5733C10.8085 27.7324 10.9147 27.8649 11.1005 27.9709L28.6246 38.0693C29.1025 38.3343 29.9256 38.3078 30.4567 37.9898L59.0793 21.4772C59.3449 21.3181 59.5042 21.1326 59.5042 20.9206C59.5042 20.7615 59.398 20.629 59.2121 20.523L41.688 10.4246C41.5022 10.3186 41.2101 10.2391 40.918 10.2391Z" fill="white"/>
<path d="M59.6369 16.7328L59.3183 16.9713C59.3183 16.9713 59.3183 16.9713 59.2917 16.9713L41.7677 6.87293C41.2632 6.58138 40.387 6.63439 39.8294 6.95245L11.1802 23.465C11.1005 23.4916 11.0474 23.5446 10.9943 23.5976L10.7023 23.3855V24.1012C10.7023 24.2867 10.8085 24.4722 11.0474 24.6048L28.5715 34.7032C29.076 34.9947 29.9522 34.9417 30.5098 34.6236L59.159 18.111C59.4776 17.9255 59.6369 17.687 59.6369 17.4749V16.7328Z" fill="white"/>
<path d="M59.159 17.3689L30.5363 33.8815C29.9522 34.2261 29.1025 34.2526 28.5981 33.961L11.074 23.8626C10.5695 23.5711 10.6492 23.0675 11.2067 22.7494L39.8294 6.23682C40.4135 5.89225 41.2632 5.86575 41.7677 6.1573L59.2917 16.2557C59.7962 16.5473 59.7166 17.0508 59.159 17.3689Z" fill="url(#paint2_linear_1_10288)"/>
<path d="M36.537 14.1353L34.0677 12.704L34.6784 12.3595C34.7846 12.3065 34.8908 12.2534 34.997 12.2004C35.1032 12.1739 35.2094 12.1474 35.3156 12.1209C35.4218 12.1209 35.5546 12.1209 35.6608 12.1474C35.767 12.1739 35.8998 12.2269 36.006 12.28C36.298 12.4655 36.3511 12.6245 36.1653 12.7836C36.3511 12.704 36.5104 12.6775 36.6698 12.704C36.8291 12.7305 37.0149 12.7836 37.2008 12.8896C37.4398 13.0221 37.546 13.1546 37.546 13.2871C37.546 13.4197 37.4398 13.5522 37.2008 13.6847L36.537 14.1353ZM35.528 13.0221L35.6608 12.9426C35.7936 12.8631 35.8467 12.8101 35.8467 12.7305C35.8467 12.6775 35.767 12.598 35.6342 12.5185C35.5546 12.4655 35.5015 12.439 35.4484 12.439C35.3953 12.4125 35.3422 12.4125 35.2625 12.439C35.2094 12.439 35.1563 12.4655 35.1032 12.492C35.0501 12.5185 34.9705 12.545 34.9173 12.598L34.8642 12.6245L35.528 13.0221ZM36.6698 13.6847L36.8291 13.5787C36.9618 13.4992 37.0149 13.4197 37.0149 13.3667C37.0149 13.3136 36.9353 13.2341 36.776 13.1546C36.6167 13.0751 36.4839 13.0221 36.3777 13.0221C36.2449 13.0221 36.1122 13.0486 35.9794 13.1281L35.8467 13.2076L36.6698 13.6847Z" fill="white"/>
<path d="M38.1035 13.2341L36.1387 11.5378L36.6167 11.2728L39.5904 12.4125L39.1656 12.651L38.5018 12.386L38.077 12.6245L38.5549 13.0221L38.1035 13.2341ZM37.8115 12.4125L38.1301 12.227L36.9618 11.7499L37.8115 12.4125Z" fill="white"/>
<path d="M39.8028 12.2534L37.3335 10.8222L37.6522 10.6366L39.6435 11.0872L38.2363 10.2921L38.608 10.08L41.0773 11.5113L40.7853 11.6703L38.7142 11.1667L40.1746 12.0149L39.8028 12.2534Z" fill="white"/>
<path d="M41.4756 11.2993L39.0063 9.86801L39.4577 9.60296L40.5197 10.2126L39.9356 9.3114L40.3604 9.07286L40.9977 9.97403L42.8828 10.4511L42.4315 10.7162L40.8384 10.2921L40.918 10.4246L41.927 11.0077L41.4756 11.2993Z" fill="white"/>
<path d="M33.8818 27.8119L28.3856 30.9925L27.7484 30.6214L33.2446 27.4408L33.8818 27.8119Z" fill="white"/>
<path d="M40.6259 23.9156L35.1298 27.0962L34.4925 26.7252L39.9887 23.5711L40.6259 23.9156Z" fill="white"/>
<path d="M47.3701 20.0459L41.8739 23.2L41.2366 22.8289L46.7328 19.6748L47.3701 20.0459Z" fill="white"/>
<path d="M54.1142 16.1497L48.618 19.3038L48.0073 18.9592L53.4769 15.7786L54.1142 16.1497Z" fill="white"/>
<path d="M58.5483 38.0958L49.7332 32.9538C47.9807 31.9466 46.3345 31.7876 45.0866 32.5032C43.8387 33.2189 43.1483 34.7297 43.1483 36.744V37.3802C43.2014 37.4332 43.2811 37.4597 43.3342 37.5127V36.744C43.3342 34.8092 43.9714 33.3514 45.1663 32.6888C46.3345 31.9996 47.9276 32.1587 49.6004 33.1394L58.4155 38.2548C58.4686 38.2813 58.5217 38.2548 58.5483 38.2283C58.6014 38.1753 58.6014 38.1223 58.5483 38.0958Z" fill="white"/>
<path d="M31.0674 31.9731V12.1474C31.0674 8.17168 28.2794 3.34777 24.8277 1.3599C23.155 0.379216 21.5619 0.24669 20.3405 0.935819C19.1457 1.62495 18.4819 3.08272 18.4819 5.01759V6.39584C18.535 6.44885 18.6146 6.52837 18.6678 6.58138V5.01759C18.6678 3.13573 19.305 1.75747 20.4202 1.09485C21.5619 0.432226 23.0753 0.591256 24.695 1.51893C28.0936 3.4803 30.8284 8.22469 30.8284 12.1474V31.9731C30.8284 35.2598 32.7667 39.156 35.3953 41.4884C35.3953 41.4089 35.3953 41.3029 35.3953 41.2234C32.926 38.9174 31.0674 35.1802 31.0674 31.9731Z" fill="white"/>
<path d="M35.4749 41.4354C35.4749 41.4354 33.2446 39.156 32.3684 37.2741C31.4922 35.3923 31.0408 33.643 31.0408 32.1057C31.0143 30.5419 31.0143 17.2099 31.0143 17.2099C31.0143 17.2099 31.1205 11.6703 30.8815 10.7957C30.6425 9.92101 30.1115 5.25613 25.5181 1.9165C20.9246 -1.42312 18.6678 2.18155 18.6943 4.06341C18.7209 5.94526 18.6943 7.16449 18.6943 7.16449C18.6943 7.16449 21.1902 9.17886 22.146 12.0679C23.1019 14.9569 23.1815 14.4534 23.2081 17.3424C23.2346 20.2314 23.2346 34.8092 23.2346 34.8092C23.2346 34.8092 23.0222 37.3802 23.6595 39.3415C24.2967 41.3029 25.4384 43.5293 26.8191 44.9606C28.1732 46.3918 30.1912 48.0882 32.0498 47.9291C33.9084 47.7701 35.1563 47.081 35.528 44.1389V41.4354H35.4749Z" fill="white"/>
<path d="M20.3671 0.93582L12.6671 5.38866L18.6678 7.16449L20.3671 0.93582Z" fill="white"/>
<path d="M43.1749 37.3802V38.2813C42.7501 37.9633 40.7321 36.585 38.8204 36.6645C36.6697 36.744 35.9529 38.7054 35.9529 38.7054C35.9529 38.7054 35.4484 40.1632 35.4749 40.8523C35.4749 40.9583 35.4749 41.1174 35.5015 41.2499L35.4749 41.2234C35.4749 41.3029 35.4749 41.4089 35.4749 41.4884C35.5015 41.4884 35.5015 41.5149 35.528 41.5149C35.5546 42.1776 35.5546 42.9197 35.5546 42.9197C35.5546 42.9197 35.5811 44.2184 35.3953 45.0931C35.0501 46.6569 33.7491 47.5316 33.6429 47.6641L41.5553 43.1317H41.5818L41.6084 43.1052L41.6615 43.0787C42.8032 42.3631 43.4404 40.9583 43.4404 39.0765V37.5127C43.3077 37.4862 43.228 37.4332 43.1749 37.3802Z" fill="url(#paint3_linear_1_10288)"/>
<path d="M37.0149 37.1946L45.1132 32.5297C45.1132 32.5297 46.4939 31.8141 48.1666 32.4237C49.8394 33.0333 58.5749 38.2548 58.5749 38.2548L50.7687 42.7342C50.7687 42.7342 41.688 37.1151 40.626 36.8501C38.4222 36.2669 37.0149 37.1946 37.0149 37.1946Z" fill="white"/>
<path d="M18.5084 7.03196C18.1898 6.74041 16.7029 5.41516 14.5257 5.0971C12.0564 4.72603 11.0474 7.58857 11.0474 7.58857C11.0474 7.58857 10.7554 9.07285 10.7819 9.97402C10.7819 10.8487 10.8616 14.0558 10.8616 14.0558L18.6412 9.57644C18.6677 9.54994 18.6943 9.52343 18.6943 9.49693V7.2175C18.6412 7.11148 18.5615 7.08497 18.5084 7.03196Z" fill="url(#paint4_linear_1_10288)"/>
<path d="M32.0763 48.0352C31.2267 48.0352 30.2708 47.7436 29.2884 47.187C25.8632 45.2256 23.1019 40.4017 23.1019 36.479V16.6533C23.1019 12.757 20.3405 7.98614 16.9684 6.02477C15.3488 5.0971 13.8353 4.93807 12.6936 5.6007C11.5519 6.26332 10.9412 7.64158 10.9412 9.52343V13.9498C10.9412 14.0028 10.8881 14.0558 10.835 14.0558C10.7819 14.0558 10.7288 14.0028 10.7288 13.9498V9.52343C10.7288 7.58857 11.3926 6.13079 12.5874 5.44166C13.7822 4.75253 15.3753 4.91157 17.0746 5.86575C20.5264 7.85362 23.3143 12.6775 23.3143 16.6533V36.479C23.3143 40.3487 26.0491 45.0931 29.4212 47.028C31.0408 47.9556 32.5277 48.1147 33.6694 47.452C34.8111 46.7894 35.4218 45.4112 35.4218 43.5558V41.2234C35.4218 39.209 36.1122 37.6982 37.3601 36.9826C38.608 36.2669 40.2542 36.426 42.0066 37.4332L50.8218 42.5486C50.8749 42.5751 50.8749 42.6281 50.8483 42.6812C50.8218 42.7342 50.7687 42.7342 50.7156 42.7077L41.9004 37.5922C40.2277 36.6115 38.6346 36.4525 37.4663 37.1416C36.298 37.8307 35.6342 39.262 35.6342 41.1969V43.5293C35.6342 45.4642 34.9704 46.8954 33.7756 47.5846C33.2446 47.9026 32.687 48.0352 32.0763 48.0352Z" fill="url(#paint5_linear_1_10288)"/>
<path d="M25.1729 21.0001V20.311L25.996 19.8339V20.523L25.1729 21.0001Z" fill="#DDE1ED"/>
<path d="M27.4829 18.3761V17.6605L29.0494 16.7593V17.4749L27.4829 18.3761Z" fill="#DDE1ED"/>
<path d="M25.2525 18.2171V17.5279L29.0494 15.328V16.0437L25.2525 18.2171Z" fill="#DDE1ED"/>
<path d="M26.5801 20.2049V19.4893L29.7398 17.687V18.3761L26.5801 20.2049Z" fill="#DDE1ED"/>
<path d="M25.2525 19.6483V18.9592L26.8191 18.058V18.7472L25.2525 19.6483Z" fill="#DDE1ED"/>
<path d="M26.1819 27.8119V28.501L25.226 29.0576V28.3685L26.1819 27.8119Z" fill="#DDE1ED"/>
<path d="M27.9343 26.8047V27.4938L26.9784 28.0504V27.3613L27.9343 26.8047Z" fill="#DDE1ED"/>
<path d="M28.9698 24.8963V25.5855L25.2791 27.7324V27.0167L28.9698 24.8963Z" fill="#DDE1ED"/>
<path d="M27.1112 22.6699V21.9808L28.9698 20.9206V21.6097L27.1112 22.6699Z" fill="#DDE1ED"/>
<path d="M25.226 23.7831V23.0675L26.1819 22.5374V23.2265L25.226 23.7831Z" fill="#DDE1ED"/>
<path d="M25.226 25.0819V24.3927L27.0581 23.3325V24.0217L25.226 25.0819Z" fill="#DDE1ED"/>
<path d="M27.775 23.5976V22.9085L28.9698 22.2193V22.935L27.775 23.5976Z" fill="#DDE1ED"/>
<path d="M27.1112 30.8335V30.1178L28.9698 29.0576V29.7733L27.1112 30.8335Z" fill="#DDE1ED"/>
<path d="M25.226 31.9201V31.231L26.1819 30.6744V31.3635L25.226 31.9201Z" fill="#DDE1ED"/>
<path d="M25.226 33.2189V32.5298L27.0581 31.4696V32.1852L25.226 33.2189Z" fill="#DDE1ED"/>
<path d="M27.775 31.7611V31.0455L28.9698 30.3829V31.072L27.775 31.7611Z" fill="#DDE1ED"/>
<path d="M47.1842 38.2813L46.5735 37.9368L47.3966 37.4597L48.0073 37.8308L47.1842 38.2813Z" fill="#DDE1ED"/>
<path d="M48.3525 36.2935L47.7683 35.9489L49.3083 35.0477L49.919 35.4188L48.3525 36.2935Z" fill="#DDE1ED"/>
<path d="M44.9008 36.8766L44.2901 36.532L48.0604 34.3321L48.6711 34.7032L44.9008 36.8766Z" fill="#DDE1ED"/>
<path d="M48.5914 37.4862L47.9808 37.1416L51.1404 35.3128L51.7511 35.6573L48.5914 37.4862Z" fill="#DDE1ED"/>
<path d="M46.1487 37.5922L45.538 37.2476L47.078 36.3465L47.6887 36.691L46.1487 37.5922Z" fill="#DDE1ED"/>
<path d="M5.81676 39.8716L5.44503 40.0837L4.62193 39.6066L4.9671 39.3945L5.81676 39.8716Z" fill="white"/>
<path d="M6.454 39.5006L6.10883 39.7126L5.25918 39.2355L5.6309 39.0235L6.454 39.5006Z" fill="white"/>
<path d="M7.11779 39.1295L6.74607 39.3415L5.92297 38.8379L6.26814 38.6524L7.11779 39.1295Z" fill="white"/>
<path d="M7.75503 38.7584L7.40986 38.944L6.5602 38.4669L6.93193 38.2548L7.75503 38.7584Z" fill="white"/>
<path d="M53.8752 50.8447L47.6356 47.24C47.4762 47.1605 47.2904 47.1075 47.1045 47.081C47.1045 47.081 47.1045 47.081 47.078 47.081C47.0514 47.081 46.9983 47.081 46.9718 47.081C46.9452 47.081 46.9452 47.081 46.9187 47.081C46.8921 47.081 46.839 47.081 46.8125 47.1075C46.7859 47.1075 46.7859 47.1075 46.7594 47.1075C46.7328 47.1075 46.6797 47.134 46.6532 47.134C46.6266 47.134 46.6266 47.134 46.6 47.134C46.5469 47.1605 46.5204 47.1605 46.4673 47.187L41.7942 49.917L37.3601 52.488L36.9353 52.541V52.9386V52.9916C36.9618 53.0976 37.0415 53.2036 37.2008 53.3097L43.467 56.9143C43.6263 56.9938 43.8121 57.0469 43.998 57.0734C43.998 57.0734 43.998 57.0734 44.0245 57.0734C44.0511 57.0734 44.1042 57.0734 44.1307 57.0734C44.1573 57.0734 44.1573 57.0734 44.1838 57.0734C44.2104 57.0734 44.2635 57.0734 44.2901 57.0469C44.3166 57.0469 44.3166 57.0469 44.3432 57.0469C44.3697 57.0469 44.4228 57.0204 44.4494 57.0204C44.4759 57.0204 44.4759 57.0204 44.5025 57.0204C44.5556 56.9938 44.5821 56.9939 44.6352 56.9673L53.9548 51.5868C54.1142 51.5073 54.1673 51.4013 54.1673 51.2688V50.8977L53.8752 50.8447Z" fill="white"/>
<path d="M37.1477 52.223L41.8208 49.5195L49.0694 53.6807L44.6087 56.4903C44.2901 56.6758 43.7856 56.6493 43.467 56.4638L37.2008 52.8591C36.8556 52.7 36.8291 52.4085 37.1477 52.223Z" fill="url(#paint6_linear_1_10288)"/>
<path d="M46.4673 46.8424L41.7942 49.546L48.9897 53.6807L53.9018 51.1363C54.2204 50.9507 54.1938 50.6592 53.8486 50.4736L47.5825 46.869C47.2904 46.6569 46.7594 46.6569 46.4673 46.8424Z" fill="url(#paint7_linear_1_10288)"/>
<path d="M54.1142 50.7652C54.1407 50.8977 54.0611 51.0302 53.9017 51.1098L44.5821 56.4903C44.4228 56.5963 44.1839 56.6228 43.9714 56.6228L44.5821 51.1098L54.1142 50.7652Z" fill="url(#paint8_linear_1_10288)"/>
<path d="M36.9353 52.594C36.9087 52.4615 36.9884 52.329 37.1477 52.2495L46.4673 46.869C46.6266 46.7629 46.8656 46.7364 47.078 46.7364L46.4673 52.2495L36.9353 52.594Z" fill="url(#paint9_linear_1_10288)"/>
<path d="M44.0511 54.2903C44.0245 54.2903 44.0245 54.2903 43.998 54.2903H43.8918C43.7059 54.2638 43.5466 54.2108 43.4139 54.1313L37.1477 50.5266C37.0149 50.4471 36.9087 50.3411 36.8822 50.2351H36.8556L36.829 50.1291V50.1026C36.829 50.0761 36.829 50.0495 36.829 50.023C36.829 49.9965 36.829 49.9965 36.829 49.9965C36.829 49.97 36.8556 49.9435 36.8556 49.917C36.8556 49.8905 36.8556 49.8905 36.8822 49.8905C36.9087 49.864 36.9353 49.8375 36.9353 49.811L36.9618 49.7845C36.9884 49.758 37.0415 49.7315 37.0946 49.705L46.4142 44.3245C46.4673 44.298 46.5204 44.2715 46.5735 44.245H46.6C46.6532 44.2185 46.6797 44.2185 46.7328 44.2185H46.7594C46.8125 44.2185 46.8656 44.1919 46.8921 44.1919H46.9187C46.9718 44.1919 47.0249 44.1919 47.0514 44.1919H47.1576C47.3435 44.2185 47.5028 44.2715 47.6356 44.351L53.9017 47.9557C54.0345 48.0352 54.1407 48.1412 54.1673 48.2472H54.1938L54.2204 48.3532V48.3797C54.2204 48.4062 54.2204 48.4327 54.2204 48.4592C54.2204 48.4858 54.2204 48.4858 54.2204 48.4858C54.2204 48.5123 54.1938 48.5388 54.1938 48.5653C54.1938 48.5918 54.1938 48.5918 54.1673 48.5918C54.1407 48.6183 54.1142 48.6448 54.1142 48.6713L54.0876 48.6978C54.0611 48.7243 54.008 48.7508 53.9548 48.7773L44.6352 54.1578C44.5821 54.1843 44.529 54.2108 44.4759 54.2373H44.4494C44.3963 54.2638 44.3697 54.2638 44.3166 54.2638H44.2901C44.237 54.2638 44.1839 54.2903 44.1573 54.2903H44.1307C44.1042 54.2903 44.0776 54.2903 44.0511 54.2903ZM44.237 54.0783L44.2901 54.1578L44.2635 54.0518C44.2901 54.0518 44.3166 54.0253 44.3697 54.0253L44.4494 54.1048L44.4228 53.9988C44.4759 53.9723 44.5025 53.9723 44.529 53.9458L53.8486 48.5653C53.8752 48.5388 53.9017 48.5388 53.9283 48.5123L54.0079 48.5653L53.9283 48.4858C53.9549 48.4593 53.9548 48.4592 53.9548 48.4327C53.9814 48.4062 53.9814 48.3797 53.9814 48.3797C53.9814 48.3532 53.9814 48.3267 53.9814 48.3267C53.9548 48.2472 53.9017 48.1677 53.769 48.0882L47.5028 44.4835C47.37 44.404 47.2107 44.351 47.0249 44.351H46.9718C46.9452 44.351 46.9187 44.351 46.8921 44.351H46.839C46.8125 44.351 46.7859 44.351 46.7328 44.351L46.6797 44.2715L46.7063 44.3775C46.6797 44.3775 46.6532 44.404 46.6 44.404L46.5204 44.3245L46.5469 44.4305C46.4938 44.457 46.4673 44.457 46.4407 44.4835L37.1211 49.864C37.0946 49.8905 37.068 49.8905 37.0415 49.917C37.0149 49.9435 36.9884 49.97 36.9884 49.97C36.9618 49.9965 36.9618 50.023 36.9618 50.023C36.9618 50.0495 36.9618 50.0761 36.9618 50.0761C36.9884 50.1556 37.0415 50.2351 37.1742 50.3146L43.4404 53.9193C43.5732 53.9988 43.7325 54.0518 43.9183 54.0518H43.9449C43.9714 54.0518 43.998 54.0518 44.0245 54.0518H44.0776C44.1838 54.0783 44.2104 54.0783 44.237 54.0783Z" fill="white"/>
<path opacity="0.4" d="M54.0345 48.5653C54.0611 48.5388 54.0611 48.5123 54.0876 48.5123V48.4858C54.0876 48.4592 54.1142 48.4327 54.1142 48.4327V48.4062C54.1142 48.3797 54.1142 48.3532 54.1142 48.3532C54.0876 48.2472 54.008 48.1412 53.8486 48.0352L47.5825 44.4305C47.4232 44.351 47.2373 44.298 47.0514 44.2715C47.0514 44.2715 47.0514 44.2715 47.0249 44.2715C46.9983 44.2715 46.9452 44.2715 46.9187 44.2715C46.8921 44.2715 46.8921 44.2715 46.8656 44.2715C46.839 44.2715 46.7859 44.2715 46.7594 44.298C46.7328 44.298 46.7328 44.298 46.7063 44.298C46.6797 44.298 46.6266 44.3245 46.6001 44.3245C46.5735 44.3245 46.5735 44.3245 46.547 44.3245C46.4938 44.351 46.4673 44.351 46.4142 44.3775L43.3077 46.1798L41.7411 47.081L37.068 49.7845C37.0149 49.811 36.9884 49.8375 36.9618 49.864C36.9618 49.864 36.9618 49.8905 36.9353 49.8905C36.9087 49.917 36.9087 49.9435 36.8822 49.9435V49.97C36.8822 49.9965 36.8556 50.023 36.8556 50.023V50.0495C36.8556 50.0761 36.8556 50.1026 36.8556 50.1026C36.8822 50.2086 36.9618 50.3146 37.1211 50.4206L43.3873 54.0253C43.5466 54.1048 43.7325 54.1578 43.9183 54.1843C43.9183 54.1843 43.9183 54.1843 43.9449 54.1843C43.9714 54.1843 44.0245 54.1843 44.0511 54.1843C44.0776 54.1843 44.0777 54.1843 44.1042 54.1843C44.1308 54.1843 44.1839 54.1843 44.2104 54.1578C44.237 54.1578 44.237 54.1578 44.2635 54.1578C44.2901 54.1578 44.3432 54.1313 44.3697 54.1313C44.3963 54.1313 44.3963 54.1313 44.4228 54.1313C44.4759 54.1048 44.5025 54.1048 44.5556 54.0783L53.8752 48.6978C53.9549 48.6448 53.9814 48.6183 54.0345 48.5653C54.0345 48.5918 54.0345 48.5918 54.0345 48.5653Z" fill="white"/>
<defs>
<linearGradient id="paint0_linear_1_10288" x1="4.21849" y1="32.8199" x2="56.7611" y2="60.5534" gradientUnits="userSpaceOnUse">
<stop stop-color="#3A9BD5"/>
<stop offset="0.3053" stop-color="#3A9BD5"/>
<stop offset="0.3555" stop-color="#3A9BD5"/>
<stop offset="0.5988" stop-color="#3999D4"/>
<stop offset="0.6883" stop-color="#3592CF"/>
<stop offset="0.7522" stop-color="#2F86C7"/>
<stop offset="0.8039" stop-color="#2676BC"/>
<stop offset="0.8102" stop-color="#2573BA"/>
</linearGradient>
<linearGradient id="paint1_linear_1_10288" x1="5.65829" y1="50.4379" x2="52.3567" y2="30.7133" gradientUnits="userSpaceOnUse">
<stop stop-color="#59BDEF"/>
<stop offset="1" stop-color="#7BDAFF"/>
</linearGradient>
<linearGradient id="paint2_linear_1_10288" x1="64.4762" y1="6.51807" x2="30.7942" y2="49.9723" gradientUnits="userSpaceOnUse">
<stop stop-color="#59BDEF"/>
<stop offset="1" stop-color="#7BDAFF"/>
</linearGradient>
<linearGradient id="paint3_linear_1_10288" x1="42.0914" y1="38.8217" x2="33.2642" y2="43.5802" gradientUnits="userSpaceOnUse">
<stop stop-color="#59BDEF"/>
<stop offset="1" stop-color="#7BDAFF"/>
</linearGradient>
<linearGradient id="paint4_linear_1_10288" x1="14.8945" y1="8.6511" x2="4.74827" y2="12.0668" gradientUnits="userSpaceOnUse">
<stop stop-color="#59BDEF"/>
<stop offset="1" stop-color="#7BDAFF"/>
</linearGradient>
<linearGradient id="paint5_linear_1_10288" x1="10.7043" y1="26.5178" x2="50.8003" y2="26.5178" gradientUnits="userSpaceOnUse">
<stop stop-color="#59BDEF"/>
<stop offset="1" stop-color="#7BDAFF"/>
</linearGradient>
<linearGradient id="paint6_linear_1_10288" x1="43.9431" y1="60.0935" x2="43.9258" y2="52.3644" gradientUnits="userSpaceOnUse">
<stop offset="0.7677" stop-color="#59BDEF"/>
<stop offset="0.8452" stop-color="#55B8EB"/>
<stop offset="0.9318" stop-color="#49ABE1"/>
<stop offset="1" stop-color="#3A9BD5"/>
</linearGradient>
<linearGradient id="paint7_linear_1_10288" x1="60.1128" y1="50.7307" x2="46.7179" y2="50.6898" gradientUnits="userSpaceOnUse">
<stop offset="0.7677" stop-color="#59BDEF"/>
<stop offset="0.8452" stop-color="#55B8EB"/>
<stop offset="0.9318" stop-color="#49ABE1"/>
<stop offset="1" stop-color="#3A9BD5"/>
</linearGradient>
<linearGradient id="paint8_linear_1_10288" x1="56.6509" y1="58.0788" x2="51.1645" y2="48.5885" gradientUnits="userSpaceOnUse">
<stop offset="0.7677" stop-color="#3A9BD5"/>
<stop offset="0.8386" stop-color="#3896D2"/>
<stop offset="0.9179" stop-color="#3189C9"/>
<stop offset="1" stop-color="#2573BA"/>
</linearGradient>
<linearGradient id="paint9_linear_1_10288" x1="44.2968" y1="46.8175" x2="42.6179" y2="55.3852" gradientUnits="userSpaceOnUse">
<stop stop-color="#7BDAFF"/>
<stop offset="1" stop-color="#59BDEF"/>
</linearGradient>
</defs>
</svg>
