<svg width="70" height="47" viewBox="0 0 70 47" fill="none" xmlns="http://www.w3.org/2000/svg">
<path d="M35 17.0966C35 7.6549 27.1875 0 17.5477 0C7.90848 0 0.911995 7.39039 0.0953966 16.7991C-1.15073 31.1552 9.98203 43.1752 23.4989 47C18.8918 44.2712 15.6782 39.525 15.1422 34.0054C15.931 34.1152 16.7293 34.1929 17.5474 34.1929C27.1866 34.1929 34.9997 26.5397 34.9997 17.0963L35 17.0966Z" fill="white" fill-opacity="0.07"/>
<path d="M70 17.0966C70 7.6549 62.4107 0 53.0463 0C43.6836 0 36.8859 7.39039 36.0927 16.7991C34.8821 31.1552 45.6968 43.1752 58.8275 47C54.352 44.2712 51.2309 39.525 50.7095 34.0054C51.4758 34.1152 52.2525 34.1929 53.046 34.1929C62.4104 34.1929 69.9997 26.5397 69.9997 17.0963L70 17.0966Z" fill="white" fill-opacity="0.07"/>
</svg>
