<svg width="315" height="59" viewBox="0 0 315 59" fill="none" xmlns="http://www.w3.org/2000/svg">
<path d="M35.0919 0.505227C35.0577 0.470975 35.0148 0.445285 34.9806 0.419596C34.972 0.419596 34.9635 0.411032 34.9635 0.402469C34.9463 0.393905 34.9292 0.385343 34.9206 0.37678L34.9121 0.368219C34.8521 0.325403 34.7922 0.29115 34.7323 0.26546C34.7323 0.26546 34.7323 0.26546 34.7237 0.26546C34.6894 0.248334 34.6466 0.222644 34.6124 0.205517C34.6038 0.196954 34.5867 0.196953 34.5781 0.18839C34.5696 0.179827 34.561 0.179829 34.5439 0.179829C34.4754 0.15414 34.4069 0.128448 34.3383 0.102759C34.2698 0.0856324 34.1928 0.059942 34.1157 0.0428157C34.0386 0.0256894 33.953 0.0171294 33.8674 0.00856628C33.7732 3.13579e-06 33.6704 0 33.5677 0C33.4392 0 33.3022 0.0171284 33.1652 0.0342546C33.0111 0.0599441 32.8484 0.102762 32.6942 0.154141L10.4814 7.44993L5.32643 3.15124L5.95154 8.93992L5.92585 8.94848L5.96012 8.97417L6.79074 16.7238L28.1472 22.1871L23.3775 18.2052L45.5475 10.9266C45.7102 10.8752 45.8643 10.8324 46.027 10.8152C46.164 10.7896 46.2925 10.781 46.4209 10.7724C46.5237 10.7724 46.6179 10.7724 46.7207 10.781C46.8063 10.7896 46.8919 10.8067 46.969 10.8238C47.046 10.8409 47.1146 10.8581 47.1916 10.8838C47.2601 10.9094 47.3286 10.9351 47.3971 10.9608C47.4057 10.9694 47.4228 10.9694 47.4314 10.9779C47.4399 10.9865 47.4571 10.9865 47.4656 10.9951C47.5085 11.0122 47.5427 11.0379 47.5855 11.055C47.6455 11.0893 47.7054 11.1235 47.7654 11.1663C47.7825 11.1749 47.7996 11.192 47.8167 11.2092C47.8253 11.2092 47.8339 11.2177 47.8339 11.2177C47.8681 11.2434 47.8938 11.2605 47.928 11.2862C43.6379 7.68114 39.3649 4.09318 35.0919 0.505227Z" fill="url(#paint0_linear_1_20165)"/>
<path d="M47.7996 12.1083C47.7825 12.0912 47.7654 12.0826 47.7483 12.0655C47.6883 12.0227 47.6284 11.9884 47.5684 11.9627C47.5256 11.9456 47.4914 11.9285 47.4485 11.9028C47.44 11.8942 47.4228 11.8942 47.4143 11.8857C47.4057 11.8771 47.3886 11.8771 47.38 11.8685C47.3115 11.8429 47.243 11.8172 47.1745 11.7915C47.0974 11.7658 47.0289 11.7487 46.9519 11.7315C46.8662 11.7144 46.7892 11.6973 46.695 11.6973C46.6008 11.6887 46.498 11.6887 46.3953 11.6887C46.2668 11.6887 46.1298 11.7058 46.0014 11.723C45.8472 11.7487 45.6845 11.7829 45.5218 11.8429L35.9825 14.977L35.9311 34.6807L48.7844 45.4532L48.9043 14.5916C48.9128 13.5469 48.5532 12.7163 47.9623 12.2196L47.9024 12.1683C47.8767 12.1511 47.8596 12.134 47.8339 12.1169C47.8082 12.1169 47.7996 12.1083 47.7996 12.1083Z" fill="url(#paint1_linear_1_20165)"/>
<path d="M14.7988 58.4021C14.7895 58.3928 14.7895 58.3928 14.7801 58.3834L14.7988 58.4021Z" fill="#5C003C"/>
<path d="M1.92688 47.6111C1.93622 47.6204 1.93621 47.6204 1.94555 47.6298L1.92688 47.6111Z" fill="#5C003C"/>
<path d="M12.8534 55.8061L13.0247 24.9275L0.171409 14.155L0.000146179 45.0337C-0.00841696 46.0955 0.359794 46.9433 0.959213 47.4485L13.8125 58.2209C13.2131 57.7071 12.8449 56.868 12.8534 55.8061Z" fill="url(#paint2_linear_1_20165)"/>
<path d="M14.7887 58.4947C14.8401 58.5375 14.9 58.5803 14.9514 58.6146H14.9428C14.96 58.6231 14.9685 58.6317 14.9856 58.6403C15.0028 58.6488 15.0199 58.666 15.0456 58.6745C15.1055 58.7088 15.1655 58.743 15.2254 58.7687C15.2425 58.7773 15.2682 58.7858 15.2854 58.803C15.3624 58.8372 15.448 58.8715 15.5337 58.8972C15.5508 58.9057 15.5594 58.9057 15.5765 58.9057C15.645 58.9228 15.7221 58.94 15.7906 58.9571C15.8248 58.9657 15.8591 58.9657 15.8933 58.9742C15.9533 58.9828 16.0132 58.9914 16.0732 58.9914C16.116 58.9914 16.1674 58.9999 16.2102 58.9999C16.2872 58.9999 16.3643 58.9999 16.45 58.9914C16.4585 58.9914 16.4671 58.9914 16.4671 58.9914C16.5613 58.9828 16.6555 58.9742 16.7497 58.9485C16.7754 58.94 16.801 58.94 16.8267 58.9314C16.9295 58.9143 17.0322 58.88 17.135 58.8458L39.3735 51.5928L44.6484 55.9943L43.1926 42.4131L21.8362 36.9498L26.4859 40.8289L13.8553 44.9478L13.7782 56.0371C13.7697 57.0989 14.1379 57.9466 14.7373 58.4519" fill="url(#paint3_linear_1_20165)"/>
<path d="M66.6634 8.26222H80.8201C82.0079 8.26222 82.9924 8.87242 83.7734 10.0928C84.0501 10.6461 84.1884 11.1749 84.1884 11.6793V46.6317C84.1884 47.9335 83.5294 48.9667 82.2113 49.7315C81.772 49.9105 81.4628 50 81.2838 50H80.0878C79.5183 49.9675 78.8756 49.642 78.1596 49.0237C77.5087 48.3403 77.1833 47.429 77.1833 46.29V15.2429H66.6146C65.5244 15.2429 64.5724 14.6815 63.7588 13.5588C63.4334 12.8916 63.2707 12.2896 63.2707 11.7526C63.2707 10.5484 63.8239 9.55585 64.9304 8.77479C65.5162 8.43308 66.0939 8.26222 66.6634 8.26222ZM94.4886 8.26222H94.7571C95.8636 8.26222 96.8236 8.83174 97.6372 9.97079C97.9464 10.5566 98.101 11.1668 98.101 11.8014C98.101 13.0543 97.4826 14.0713 96.246 14.8524C95.6927 15.1128 95.1883 15.2429 94.7327 15.2429H94.4642C93.2763 15.2429 92.3 14.6409 91.5352 13.4367C91.2423 12.8672 91.0959 12.2977 91.0959 11.7282C91.0959 10.4752 91.6979 9.46635 92.9021 8.70157C93.439 8.40867 93.9679 8.26222 94.4886 8.26222ZM125.243 8.26222H125.584C127.016 8.26222 128.253 9.13278 129.294 10.8739C131.036 13.4611 131.906 16.2843 131.906 19.3435V19.4411C131.906 23.2 130.621 26.5764 128.05 29.5705C126.764 30.8722 125.877 31.6533 125.389 31.9136C124.608 32.4506 123.86 32.8818 123.144 33.2073V33.2561C128.139 39.651 130.865 43.1657 131.32 43.8004C131.678 44.4838 131.857 45.1103 131.857 45.6798V46.0947C131.857 47.4453 131.158 48.5925 129.758 49.5362C129.124 49.8454 128.66 50 128.367 50H126.976C126.243 49.9349 125.471 49.5362 124.657 48.804C117.253 39.3174 113.478 34.4521 113.332 34.208C113.039 33.5408 112.892 32.8737 112.892 32.2065V31.8648C112.892 30.2864 113.616 28.9033 115.065 27.7154C116.008 27.0808 116.895 26.7635 117.725 26.7635C118.474 26.6171 119.116 26.43 119.653 26.2021C121.378 25.3723 122.639 24.1031 123.437 22.3945C123.843 21.3693 124.047 20.4663 124.047 19.6852V19.5632C124.047 19.4981 124.055 19.4492 124.071 19.4167L124.047 19.2458V19.1238C124.047 17.757 123.575 16.3901 122.631 15.0233C122.647 14.9744 122.655 14.9419 122.655 14.9256C121.891 14.1771 121.508 13.2659 121.508 12.1919V12.1187C121.508 10.7518 122.135 9.65348 123.388 8.82361C124.006 8.44935 124.624 8.26222 125.243 8.26222ZM163.588 8.26222H163.856C165.093 8.26222 166.118 8.87242 166.932 10.0928C167.208 10.6461 167.347 11.1749 167.347 11.6793V46.5829C167.347 48.0474 166.59 49.1294 165.077 49.8291C164.735 49.943 164.499 50 164.369 50H163.075C162.489 50 161.79 49.6257 160.976 48.8772C160.39 48.1938 160.097 47.3965 160.097 46.4852V11.8014C160.097 10.2718 160.879 9.15718 162.441 8.45749C162.864 8.32731 163.246 8.26222 163.588 8.26222Z" fill="white"/>
<path d="M192.926 8.26222H200.371C204.683 8.26222 208.84 9.74298 212.843 12.7045C213.462 13.1764 214.332 13.99 215.455 15.1453C219.1 19.3109 220.922 23.8752 220.922 28.8382V29.4972C220.922 34.7694 218.848 39.6184 214.698 44.0444C213.006 45.5903 211.647 46.6154 210.622 47.1198C210.069 47.4941 209.084 47.9904 207.669 48.6087C205.163 49.5362 203.129 50 201.567 50H192.438C191.966 50 191.38 49.7152 190.681 49.1457C189.932 48.4135 189.558 47.5511 189.558 46.5585C189.558 45.1916 190.233 44.1421 191.584 43.4098C192.072 43.1983 192.601 43.0925 193.17 43.0925H200.053C203.731 43.0925 206.904 41.8396 209.573 39.3337C210.679 38.1784 211.468 37.202 211.94 36.4047C213.291 34.0941 213.966 31.8079 213.966 29.546V28.8138C213.966 25.836 212.892 22.9966 210.744 20.2954C207.897 16.9271 204.203 15.2429 199.663 15.2429H196.563V20.9056C196.563 22.7118 195.701 23.9159 193.976 24.518C193.634 24.5831 193.341 24.6156 193.097 24.6156H193.073C191.641 24.6156 190.567 23.9241 189.851 22.5409C189.656 22.069 189.558 21.5646 189.558 21.0276V11.8014C189.558 10.2881 190.298 9.18973 191.779 8.5063C192.186 8.34358 192.568 8.26222 192.926 8.26222ZM236.543 8.26222H256.949L257.046 8.31104H257.119C258.34 8.31104 259.332 8.93751 260.097 10.1905C260.358 10.7112 260.488 11.2481 260.488 11.8014C260.488 13.152 259.821 14.1934 258.486 14.9256C258.031 15.1372 257.575 15.2429 257.119 15.2429H236.324C235.347 15.2429 234.485 14.7954 233.737 13.9005C233.248 13.2496 233.004 12.5824 233.004 11.899V11.6061C233.004 10.5322 233.541 9.6128 234.615 8.84802C235.201 8.49003 235.779 8.31104 236.348 8.31104H236.446L236.543 8.26222ZM236.495 25.714L247.015 25.7628C247.714 25.7628 248.463 26.1208 249.26 26.8368C249.895 27.569 250.212 28.3663 250.212 29.2287C250.212 30.4329 249.651 31.4173 248.528 32.1821C247.975 32.5076 247.438 32.6703 246.917 32.6703H236.275C235.234 32.6703 234.33 32.1496 233.566 31.1082C233.191 30.5224 233.004 29.9366 233.004 29.3508V29.0579C233.004 27.9514 233.582 26.9995 234.737 26.2021C235.323 25.9092 235.876 25.7628 236.397 25.7628H236.446C236.478 25.7628 236.495 25.7465 236.495 25.714ZM256.924 25.7628H257.095C258.413 25.7628 259.446 26.4462 260.195 27.8131C260.39 28.3012 260.488 28.7731 260.488 29.2287C260.488 30.5956 259.812 31.6451 258.462 32.3774C257.974 32.5726 257.543 32.6703 257.168 32.6703H256.827C255.72 32.6703 254.776 32.0926 253.995 30.9373C253.686 30.3515 253.531 29.7739 253.531 29.2043C253.531 27.87 254.199 26.8286 255.533 26.0801C256.037 25.8686 256.501 25.7628 256.924 25.7628ZM236.543 43.0925H256.949C256.949 43.1251 257.201 43.1657 257.705 43.2146C258.551 43.4261 259.194 43.8085 259.634 44.3617C260.203 45.0289 260.488 45.7937 260.488 46.6561C260.488 47.9741 259.821 49.0155 258.486 49.7803C258.08 49.9268 257.803 50 257.656 50H235.836C235.266 50 234.583 49.6176 233.785 48.8528C233.265 48.1531 233.004 47.4453 233.004 46.7293V46.5096C233.004 45.3055 233.615 44.3211 234.835 43.5563C235.193 43.3447 235.746 43.1983 236.495 43.1169C236.495 43.1007 236.511 43.0925 236.543 43.0925ZM303.129 8.26222C303.568 8.26222 304.056 8.37613 304.593 8.60393C305.895 9.35245 306.546 10.3776 306.546 11.6793C306.546 12.0536 306.456 12.5011 306.277 13.0218C305.545 14.4049 304.52 15.0965 303.202 15.0965H303.031C302.478 15.0965 301.925 14.9419 301.371 14.6327C300.249 13.8842 299.687 12.9242 299.687 11.7526V11.6305C299.687 11.061 299.842 10.5078 300.151 9.97079C300.899 8.83174 301.892 8.26222 303.129 8.26222ZM275.865 8.26222C276.174 8.26222 276.589 8.33545 277.11 8.48189C277.777 8.7097 278.59 9.48262 279.55 10.8007C287.914 21.5239 296.587 32.6459 305.569 44.1665C306.22 44.8824 306.546 45.7042 306.546 46.6317C306.546 47.3802 306.285 48.1043 305.765 48.804C304.967 49.6013 304.26 50 303.641 50H302.47C301.9 50 301.233 49.642 300.468 48.926C293.715 40.2856 290.054 35.583 289.485 34.8182L285.36 40.0659C280.934 45.7611 278.566 48.7715 278.257 49.0969C277.541 49.699 276.939 50 276.451 50H275.303C275.043 50 274.718 49.9024 274.327 49.7071C273.025 48.9749 272.375 47.9579 272.375 46.6561V46.5096C272.375 45.9401 272.529 45.3869 272.838 44.8499C273.147 44.4268 277.215 39.2035 285.042 29.1799V29.1555L273.644 14.5107C272.798 13.632 272.375 12.737 272.375 11.8258V11.6793C272.375 11.1424 272.513 10.6217 272.789 10.1172C273.538 8.88056 274.563 8.26222 275.865 8.26222Z" fill="#FFBD00"/>
<defs>
<linearGradient id="paint0_linear_1_20165" x1="15.2594" y1="23.7866" x2="34.8533" y2="0.30968" gradientUnits="userSpaceOnUse">
<stop stop-color="#FFAA00"/>
<stop offset="0.3844" stop-color="#FFAC00"/>
<stop offset="0.5816" stop-color="#FFB400"/>
<stop offset="0.7363" stop-color="#FFC100"/>
<stop offset="0.8682" stop-color="#FFD400"/>
<stop offset="0.9856" stop-color="#FFEC00"/>
<stop offset="1" stop-color="#FFF000"/>
</linearGradient>
<linearGradient id="paint1_linear_1_20165" x1="42.2423" y1="43.8126" x2="51.3566" y2="7.49044" gradientUnits="userSpaceOnUse">
<stop stop-color="#FFAA00"/>
<stop offset="0.3709" stop-color="#FFA800"/>
<stop offset="0.5045" stop-color="#FFA100"/>
<stop offset="0.5998" stop-color="#FF9600"/>
<stop offset="0.6768" stop-color="#FF8500"/>
<stop offset="0.7429" stop-color="#FF6F00"/>
<stop offset="0.8012" stop-color="#FF5300"/>
<stop offset="0.8541" stop-color="#FF3300"/>
<stop offset="0.9011" stop-color="#FF0F00"/>
<stop offset="0.9176" stop-color="#FF0000"/>
</linearGradient>
<linearGradient id="paint2_linear_1_20165" x1="6.79006" y1="56.4547" x2="16.3841" y2="18.2202" gradientUnits="userSpaceOnUse">
<stop stop-color="#2391A6"/>
<stop offset="0.4041" stop-color="#22A5BD"/>
<stop offset="1" stop-color="#1AB7D3"/>
</linearGradient>
<linearGradient id="paint3_linear_1_20165" x1="13.4697" y1="61.1806" x2="40.9031" y2="39.5156" gradientUnits="userSpaceOnUse">
<stop stop-color="#1C8295"/>
<stop offset="0.263542" stop-color="#2190A5"/>
<stop offset="0.6122" stop-color="#1CA7C0"/>
<stop offset="0.7892" stop-color="#1CB3CE"/>
<stop offset="1" stop-color="#17BDDB"/>
</linearGradient>
</defs>
</svg>
