<svg width="28" height="34" viewBox="0 0 28 34" fill="none" xmlns="http://www.w3.org/2000/svg">
<path d="M19.687 0.283442C19.6678 0.264225 19.6438 0.249813 19.6246 0.235401C19.6198 0.235401 19.615 0.230596 19.615 0.225792C19.6053 0.220988 19.5957 0.216185 19.5909 0.211381L19.5861 0.206578C19.5525 0.182557 19.5189 0.16334 19.4852 0.148928C19.4852 0.148928 19.4852 0.148928 19.4804 0.148928C19.4612 0.13932 19.4372 0.124907 19.418 0.115299C19.4132 0.110495 19.4036 0.110494 19.3988 0.10569C19.394 0.100886 19.3892 0.100887 19.3795 0.100887C19.3411 0.0864752 19.3027 0.0720618 19.2643 0.0576495C19.2258 0.0480414 19.1826 0.0336285 19.1393 0.0240204C19.0961 0.0144122 19.0481 0.00960992 19 0.00480584C18.9472 1.75923e-06 18.8895 0 18.8319 0C18.7598 0 18.683 0.00960933 18.6061 0.0192175C18.5196 0.0336297 18.4283 0.0576513 18.3419 0.0864757L5.88009 4.17955L2.98804 1.7679L3.33874 5.01546L3.32432 5.02026L3.34355 5.03468L3.80954 9.38237L15.7909 12.4474L13.115 10.2135L25.5528 6.13C25.6441 6.10118 25.7305 6.07716 25.8218 6.06755C25.8987 6.05314 25.9708 6.04834 26.0428 6.04353C26.1005 6.04353 26.1533 6.04353 26.211 6.04834C26.259 6.05314 26.307 6.06275 26.3503 6.07236C26.3935 6.08196 26.4319 6.09157 26.4752 6.10598C26.5136 6.1204 26.552 6.13481 26.5905 6.14922C26.5953 6.15402 26.6049 6.15402 26.6097 6.15883C26.6145 6.16363 26.6241 6.16363 26.6289 6.16844C26.6529 6.17805 26.6721 6.19246 26.6962 6.20207C26.7298 6.22128 26.7634 6.2405 26.7971 6.26452C26.8067 6.26932 26.8163 6.27893 26.8259 6.28854C26.8307 6.28854 26.8355 6.29334 26.8355 6.29334C26.8547 6.30775 26.8691 6.31736 26.8883 6.33178C24.4815 4.30926 22.0843 2.29635 19.687 0.283442Z" fill="url(#paint0_linear_42_10714)"/>
<path d="M26.8163 6.79296C26.8067 6.78335 26.7971 6.77854 26.7875 6.76894C26.7538 6.74492 26.7202 6.7257 26.6866 6.71129C26.6626 6.70168 26.6433 6.69207 26.6193 6.67766C26.6145 6.67285 26.6049 6.67286 26.6001 6.66805C26.5953 6.66325 26.5857 6.66325 26.5809 6.65844C26.5425 6.64403 26.504 6.62962 26.4656 6.61521C26.4223 6.60079 26.3839 6.59118 26.3407 6.58158C26.2926 6.57197 26.2494 6.56236 26.1966 6.56236C26.1437 6.55756 26.0861 6.55756 26.0284 6.55756C25.9564 6.55756 25.8795 6.56717 25.8074 6.57677C25.721 6.59119 25.6297 6.6104 25.5384 6.64403L20.1867 8.40232L20.1578 19.4565L27.3688 25.5L27.436 8.18614C27.4408 7.60004 27.239 7.13405 26.9076 6.85541L26.8739 6.82659C26.8595 6.81698 26.8499 6.80737 26.8355 6.79776C26.8211 6.79776 26.8163 6.79296 26.8163 6.79296Z" fill="url(#paint1_linear_42_10714)"/>
<path d="M8.30234 32.7646C8.29711 32.7594 8.29711 32.7594 8.29187 32.7542L8.30234 32.7646Z" fill="#5C003C"/>
<path d="M1.08093 26.7106C1.08617 26.7159 1.08617 26.7159 1.09141 26.7211L1.08093 26.7106Z" fill="#5C003C"/>
<path d="M7.21089 31.3082L7.30697 13.9847L0.0960415 7.94113L-4.00615e-05 25.2646C-0.00484414 25.8603 0.201729 26.3359 0.538014 26.6194L7.74894 32.6629C7.41265 32.3747 7.20608 31.9039 7.21089 31.3082Z" fill="url(#paint2_linear_42_10714)"/>
<path d="M8.29658 32.8166C8.3254 32.8406 8.35904 32.8646 8.38786 32.8838H8.38306C8.39266 32.8886 8.39747 32.8934 8.40708 32.8982C8.41668 32.903 8.42629 32.9126 8.4407 32.9174C8.47433 32.9367 8.50796 32.9559 8.54159 32.9703C8.5512 32.9751 8.56561 32.9799 8.57522 32.9895C8.61846 33.0087 8.66649 33.0279 8.71453 33.0423C8.72414 33.0472 8.72894 33.0471 8.73855 33.0471C8.77699 33.0568 8.82022 33.0664 8.85865 33.076C8.87787 33.0808 8.8971 33.0808 8.91631 33.0856C8.94994 33.0904 8.98356 33.0952 9.01719 33.0952C9.04121 33.0952 9.07004 33.1 9.09406 33.1C9.1373 33.1 9.18054 33.1 9.22858 33.0952C9.23338 33.0952 9.23818 33.0952 9.23818 33.0952C9.29103 33.0904 9.34388 33.0856 9.39672 33.0712C9.41113 33.0664 9.42554 33.0664 9.43995 33.0616C9.4976 33.052 9.55526 33.0327 9.6129 33.0135L22.0891 28.9445L25.0484 31.4138L24.2317 23.7945L12.2503 20.7295L14.859 22.9057L7.77294 25.2165L7.7297 31.4378C7.72489 32.0335 7.93148 32.5091 8.26776 32.7925" fill="url(#paint3_linear_42_10714)"/>
<defs>
<linearGradient id="paint0_linear_42_10714" x1="8.5606" y1="13.3447" x2="19.5532" y2="0.173735" gradientUnits="userSpaceOnUse">
<stop stop-color="#FFAA00"/>
<stop offset="0.3844" stop-color="#FFAC00"/>
<stop offset="0.5816" stop-color="#FFB400"/>
<stop offset="0.7363" stop-color="#FFC100"/>
<stop offset="0.8682" stop-color="#FFD400"/>
<stop offset="0.9856" stop-color="#FFEC00"/>
<stop offset="1" stop-color="#FFF000"/>
</linearGradient>
<linearGradient id="paint1_linear_42_10714" x1="23.6985" y1="24.5796" x2="28.8118" y2="4.20224" gradientUnits="userSpaceOnUse">
<stop stop-color="#FFAA00"/>
<stop offset="0.3709" stop-color="#FFA800"/>
<stop offset="0.5045" stop-color="#FFA100"/>
<stop offset="0.5998" stop-color="#FF9600"/>
<stop offset="0.6768" stop-color="#FF8500"/>
<stop offset="0.7429" stop-color="#FF6F00"/>
<stop offset="0.8012" stop-color="#FF5300"/>
<stop offset="0.8541" stop-color="#FF3300"/>
<stop offset="0.9011" stop-color="#FF0F00"/>
<stop offset="0.9176" stop-color="#FF0000"/>
</linearGradient>
<linearGradient id="paint2_linear_42_10714" x1="3.80922" y1="31.672" x2="9.19167" y2="10.2218" gradientUnits="userSpaceOnUse">
<stop stop-color="#2391A6"/>
<stop offset="0.4041" stop-color="#22A5BD"/>
<stop offset="1" stop-color="#1AB7D3"/>
</linearGradient>
<linearGradient id="paint3_linear_42_10714" x1="7.55662" y1="34.3234" x2="22.9473" y2="22.1689" gradientUnits="userSpaceOnUse">
<stop stop-color="#1C8295"/>
<stop offset="0.263542" stop-color="#2190A5"/>
<stop offset="0.6122" stop-color="#1CA7C0"/>
<stop offset="0.7892" stop-color="#1CB3CE"/>
<stop offset="1" stop-color="#17BDDB"/>
</linearGradient>
</defs>
</svg>
